<svg width="500" height="200" viewBox="0 0 500 200" fill="none" xmlns="http://www.w3.org/2000/svg">
<rect width="500" height="200" rx="30" fill="#32DF62"/>
<path d="M30.785 37.635C31.295 37.305 32.06 36.96 33.08 36.6C34.13 36.24 35.33 36.06 36.68 36.06C38.36 36.06 39.845 36.36 41.135 36.96C42.455 37.56 43.565 38.4 44.465 39.48C45.365 40.56 46.04 41.85 46.49 43.35C46.97 44.85 47.21 46.5 47.21 48.3C47.21 50.19 46.925 51.9 46.355 53.43C45.815 54.93 45.035 56.205 44.015 57.255C42.995 58.305 41.765 59.115 40.325 59.685C38.885 60.255 37.265 60.54 35.465 60.54C33.515 60.54 31.79 60.405 30.29 60.135C28.79 59.865 27.56 59.595 26.6 59.325V25.8L30.785 25.08V37.635ZM30.785 56.355C31.205 56.475 31.79 56.595 32.54 56.715C33.32 56.805 34.28 56.85 35.42 56.85C37.67 56.85 39.47 56.115 40.82 54.645C42.17 53.145 42.845 51.03 42.845 48.3C42.845 47.1 42.725 45.975 42.485 44.925C42.245 43.875 41.855 42.975 41.315 42.225C40.775 41.445 40.07 40.845 39.2 40.425C38.36 39.975 37.34 39.75 36.14 39.75C35 39.75 33.95 39.945 32.99 40.335C32.03 40.725 31.295 41.13 30.785 41.55V56.355ZM51.794 48.345C51.794 46.275 52.094 44.475 52.694 42.945C53.294 41.385 54.089 40.095 55.079 39.075C56.069 38.055 57.209 37.29 58.499 36.78C59.789 36.27 61.109 36.015 62.459 36.015C65.609 36.015 68.024 37.005 69.704 38.985C71.384 40.935 72.224 43.92 72.224 47.94C72.224 48.12 72.224 48.36 72.224 48.66C72.224 48.93 72.209 49.185 72.179 49.425H56.159C56.339 51.855 57.044 53.7 58.274 54.96C59.504 56.22 61.424 56.85 64.034 56.85C65.504 56.85 66.734 56.73 67.724 56.49C68.744 56.22 69.509 55.965 70.019 55.725L70.604 59.235C70.094 59.505 69.194 59.79 67.904 60.09C66.644 60.39 65.204 60.54 63.584 60.54C61.544 60.54 59.774 60.24 58.274 59.64C56.804 59.01 55.589 58.155 54.629 57.075C53.669 55.995 52.949 54.72 52.469 53.25C52.019 51.75 51.794 50.115 51.794 48.345ZM67.859 46.05C67.889 44.16 67.409 42.615 66.419 41.415C65.459 40.185 64.124 39.57 62.414 39.57C61.454 39.57 60.599 39.765 59.849 40.155C59.129 40.515 58.514 40.995 58.004 41.595C57.494 42.195 57.089 42.885 56.789 43.665C56.519 44.445 56.339 45.24 56.249 46.05H67.859ZM92.9057 57.66C92.5457 57.9 91.8407 58.215 90.7907 58.605C89.7707 58.965 88.5707 59.145 87.1907 59.145C85.7807 59.145 84.4457 58.92 83.1857 58.47C81.9557 58.02 80.8757 57.33 79.9457 56.4C79.0157 55.44 78.2807 54.255 77.7407 52.845C77.2007 51.435 76.9307 49.755 76.9307 47.805C76.9307 46.095 77.1857 44.535 77.6957 43.125C78.2057 41.685 78.9407 40.455 79.9007 39.435C80.8907 38.385 82.0907 37.575 83.5007 37.005C84.9107 36.405 86.5007 36.105 88.2707 36.105C90.2207 36.105 91.9157 36.255 93.3557 36.555C94.8257 36.825 96.0557 37.08 97.0457 37.32V58.2C97.0457 61.8 96.1157 64.41 94.2557 66.03C92.3957 67.65 89.5757 68.46 85.7957 68.46C84.3257 68.46 82.9307 68.34 81.6107 68.1C80.3207 67.86 79.1957 67.575 78.2357 67.245L79.0007 63.6C79.8407 63.93 80.8607 64.215 82.0607 64.455C83.2907 64.725 84.5657 64.86 85.8857 64.86C88.3757 64.86 90.1607 64.365 91.2407 63.375C92.3507 62.385 92.9057 60.81 92.9057 58.65V57.66ZM92.8607 40.29C92.4407 40.17 91.8707 40.065 91.1507 39.975C90.4607 39.855 89.5157 39.795 88.3157 39.795C86.0657 39.795 84.3257 40.53 83.0957 42C81.8957 43.47 81.2957 45.42 81.2957 47.85C81.2957 49.2 81.4607 50.355 81.7907 51.315C82.1507 52.275 82.6157 53.07 83.1857 53.7C83.7857 54.33 84.4607 54.795 85.2107 55.095C85.9907 55.395 86.7857 55.545 87.5957 55.545C88.7057 55.545 89.7257 55.395 90.6557 55.095C91.5857 54.765 92.3207 54.39 92.8607 53.97V40.29ZM108.436 60H104.251V36.6H108.436V60ZM106.321 32.37C105.571 32.37 104.926 32.13 104.386 31.65C103.876 31.14 103.621 30.465 103.621 29.625C103.621 28.785 103.876 28.125 104.386 27.645C104.926 27.135 105.571 26.88 106.321 26.88C107.071 26.88 107.701 27.135 108.211 27.645C108.751 28.125 109.021 28.785 109.021 29.625C109.021 30.465 108.751 31.14 108.211 31.65C107.701 32.13 107.071 32.37 106.321 32.37ZM115.633 37.275C116.593 37.035 117.868 36.78 119.458 36.51C121.048 36.24 122.878 36.105 124.948 36.105C126.808 36.105 128.353 36.375 129.583 36.915C130.813 37.425 131.788 38.16 132.508 39.12C133.258 40.05 133.783 41.175 134.083 42.495C134.383 43.815 134.533 45.27 134.533 46.86V60H130.348V47.76C130.348 46.32 130.243 45.09 130.033 44.07C129.853 43.05 129.538 42.225 129.088 41.595C128.638 40.965 128.038 40.515 127.288 40.245C126.538 39.945 125.608 39.795 124.498 39.795C124.048 39.795 123.583 39.81 123.103 39.84C122.623 39.87 122.158 39.915 121.708 39.975C121.288 40.005 120.898 40.05 120.538 40.11C120.208 40.17 119.968 40.215 119.818 40.245V60H115.633V37.275ZM141.473 37.275C142.433 37.035 143.708 36.78 145.298 36.51C146.888 36.24 148.718 36.105 150.788 36.105C152.648 36.105 154.193 36.375 155.423 36.915C156.653 37.425 157.628 38.16 158.348 39.12C159.098 40.05 159.623 41.175 159.923 42.495C160.223 43.815 160.373 45.27 160.373 46.86V60H156.188V47.76C156.188 46.32 156.083 45.09 155.873 44.07C155.693 43.05 155.378 42.225 154.928 41.595C154.478 40.965 153.878 40.515 153.128 40.245C152.378 39.945 151.448 39.795 150.338 39.795C149.888 39.795 149.423 39.81 148.943 39.84C148.463 39.87 147.998 39.915 147.548 39.975C147.128 40.005 146.738 40.05 146.378 40.11C146.048 40.17 145.808 40.215 145.658 40.245V60H141.473V37.275ZM166.008 48.345C166.008 46.275 166.308 44.475 166.908 42.945C167.508 41.385 168.303 40.095 169.293 39.075C170.283 38.055 171.423 37.29 172.713 36.78C174.003 36.27 175.323 36.015 176.673 36.015C179.823 36.015 182.238 37.005 183.918 38.985C185.598 40.935 186.438 43.92 186.438 47.94C186.438 48.12 186.438 48.36 186.438 48.66C186.438 48.93 186.423 49.185 186.393 49.425H170.373C170.553 51.855 171.258 53.7 172.488 54.96C173.718 56.22 175.638 56.85 178.248 56.85C179.718 56.85 180.948 56.73 181.938 56.49C182.958 56.22 183.723 55.965 184.233 55.725L184.818 59.235C184.308 59.505 183.408 59.79 182.118 60.09C180.858 60.39 179.418 60.54 177.798 60.54C175.758 60.54 173.988 60.24 172.488 59.64C171.018 59.01 169.803 58.155 168.843 57.075C167.883 55.995 167.163 54.72 166.683 53.25C166.233 51.75 166.008 50.115 166.008 48.345ZM182.073 46.05C182.103 44.16 181.623 42.615 180.633 41.415C179.673 40.185 178.338 39.57 176.628 39.57C175.668 39.57 174.813 39.765 174.063 40.155C173.343 40.515 172.728 40.995 172.218 41.595C171.708 42.195 171.303 42.885 171.003 43.665C170.733 44.445 170.553 45.24 170.463 46.05H182.073ZM201.09 36.105C201.45 36.105 201.855 36.135 202.305 36.195C202.785 36.225 203.25 36.285 203.7 36.375C204.15 36.435 204.555 36.51 204.915 36.6C205.305 36.66 205.59 36.72 205.77 36.78L205.05 40.425C204.72 40.305 204.165 40.17 203.385 40.02C202.635 39.84 201.66 39.75 200.46 39.75C199.68 39.75 198.9 39.84 198.12 40.02C197.37 40.17 196.875 40.275 196.635 40.335V60H192.45V37.59C193.44 37.23 194.67 36.9 196.14 36.6C197.61 36.27 199.26 36.105 201.09 36.105ZM37.4 84.95C42.5667 84.95 46.5333 85.8667 49.3 87.7C52.0667 89.5 53.45 92.4667 53.45 96.6C53.45 100.767 52.05 103.783 49.25 105.65C46.45 107.483 42.45 108.4 37.25 108.4H34.8V120H27V85.85C28.7 85.5167 30.5 85.2833 32.4 85.15C34.3 85.0167 35.9667 84.95 37.4 84.95ZM37.9 91.6C37.3333 91.6 36.7667 91.6167 36.2 91.65C35.6667 91.6833 35.2 91.7167 34.8 91.75V101.75H37.25C39.95 101.75 41.9833 101.383 43.35 100.65C44.7167 99.9167 45.4 98.55 45.4 96.55C45.4 95.5833 45.2167 94.7833 44.85 94.15C44.5167 93.5167 44.0167 93.0167 43.35 92.65C42.7167 92.25 41.9333 91.9833 41 91.85C40.0667 91.6833 39.0333 91.6 37.9 91.6ZM83.0043 93.7C81.5043 98.7667 79.9376 103.517 78.3043 107.95C76.671 112.383 74.8876 116.683 72.9543 120.85C72.2543 122.35 71.5543 123.617 70.8543 124.65C70.1543 125.717 69.3876 126.583 68.5543 127.25C67.721 127.95 66.771 128.45 65.7043 128.75C64.671 129.083 63.4543 129.25 62.0543 129.25C60.8876 129.25 59.8043 129.133 58.8043 128.9C57.8376 128.7 57.0376 128.467 56.4043 128.2L57.7043 122.25C58.471 122.517 59.1543 122.7 59.7543 122.8C60.3543 122.9 60.9876 122.95 61.6543 122.95C62.9876 122.95 64.0043 122.583 64.7043 121.85C65.4376 121.15 66.0543 120.167 66.5543 118.9C64.8543 115.567 63.1543 111.833 61.4543 107.7C59.7543 103.533 58.1543 98.8667 56.6543 93.7H64.5543C64.8876 95 65.271 96.4167 65.7043 97.95C66.171 99.45 66.6543 100.983 67.1543 102.55C67.6543 104.083 68.1543 105.583 68.6543 107.05C69.1876 108.517 69.6876 109.85 70.1543 111.05C70.5876 109.85 71.0376 108.517 71.5043 107.05C71.971 105.583 72.421 104.083 72.8543 102.55C73.321 100.983 73.7543 99.45 74.1543 97.95C74.5876 96.4167 74.971 95 75.3043 93.7H83.0043ZM86.748 87.15L94.198 85.95V93.7H103.148V99.9H94.198V109.15C94.198 110.717 94.4647 111.967 94.998 112.9C95.5647 113.833 96.6814 114.3 98.348 114.3C99.148 114.3 99.9647 114.233 100.798 114.1C101.665 113.933 102.448 113.717 103.148 113.45L104.198 119.25C103.298 119.617 102.298 119.933 101.198 120.2C100.098 120.467 98.748 120.6 97.148 120.6C95.1147 120.6 93.4314 120.333 92.098 119.8C90.7647 119.233 89.698 118.467 88.898 117.5C88.098 116.5 87.5314 115.3 87.198 113.9C86.898 112.5 86.748 110.95 86.748 109.25V87.15ZM109.215 120V82.4L116.665 81.2V93.8C117.165 93.6333 117.798 93.4833 118.565 93.35C119.365 93.1833 120.132 93.1 120.865 93.1C122.998 93.1 124.765 93.4 126.165 94C127.598 94.5667 128.732 95.3833 129.565 96.45C130.432 97.5167 131.032 98.7833 131.365 100.25C131.732 101.717 131.915 103.35 131.915 105.15V120H124.465V106.05C124.465 103.65 124.148 101.95 123.515 100.95C122.915 99.95 121.782 99.45 120.115 99.45C119.448 99.45 118.815 99.5167 118.215 99.65C117.648 99.75 117.132 99.8667 116.665 100V120H109.215ZM163.258 106.8C163.258 108.867 162.958 110.767 162.358 112.5C161.758 114.2 160.892 115.667 159.758 116.9C158.625 118.1 157.258 119.033 155.658 119.7C154.092 120.367 152.325 120.7 150.358 120.7C148.425 120.7 146.658 120.367 145.058 119.7C143.492 119.033 142.142 118.1 141.008 116.9C139.875 115.667 138.992 114.2 138.358 112.5C137.725 110.767 137.408 108.867 137.408 106.8C137.408 104.733 137.725 102.85 138.358 101.15C139.025 99.45 139.925 98 141.058 96.8C142.225 95.6 143.592 94.6667 145.158 94C146.758 93.3333 148.492 93 150.358 93C152.258 93 153.992 93.3333 155.558 94C157.158 94.6667 158.525 95.6 159.658 96.8C160.792 98 161.675 99.45 162.308 101.15C162.942 102.85 163.258 104.733 163.258 106.8ZM155.658 106.8C155.658 104.5 155.192 102.7 154.258 101.4C153.358 100.067 152.058 99.4 150.358 99.4C148.658 99.4 147.342 100.067 146.408 101.4C145.475 102.7 145.008 104.5 145.008 106.8C145.008 109.1 145.475 110.933 146.408 112.3C147.342 113.633 148.658 114.3 150.358 114.3C152.058 114.3 153.358 113.633 154.258 112.3C155.192 110.933 155.658 109.1 155.658 106.8ZM169.029 94.6C170.296 94.2333 171.929 93.9 173.929 93.6C175.929 93.2667 178.029 93.1 180.229 93.1C182.463 93.1 184.313 93.4 185.779 94C187.279 94.5667 188.463 95.3833 189.329 96.45C190.196 97.5167 190.813 98.7833 191.179 100.25C191.546 101.717 191.729 103.35 191.729 105.15V120H184.279V106.05C184.279 103.65 183.963 101.95 183.329 100.95C182.696 99.95 181.513 99.45 179.779 99.45C179.246 99.45 178.679 99.4833 178.079 99.55C177.479 99.5833 176.946 99.6333 176.479 99.7V120H169.029V94.6ZM32.045 171.985C33.755 171.985 35.015 171.76 35.825 171.31C36.665 170.86 37.085 170.14 37.085 169.15C37.085 168.13 36.68 167.32 35.87 166.72C35.06 166.12 33.725 165.445 31.865 164.695C30.965 164.335 30.095 163.975 29.255 163.615C28.445 163.225 27.74 162.775 27.14 162.265C26.54 161.755 26.06 161.14 25.7 160.42C25.34 159.7 25.16 158.815 25.16 157.765C25.16 155.695 25.925 154.06 27.455 152.86C28.985 151.63 31.07 151.015 33.71 151.015C34.37 151.015 35.03 151.06 35.69 151.15C36.35 151.21 36.965 151.3 37.535 151.42C38.105 151.51 38.6 151.615 39.02 151.735C39.47 151.855 39.815 151.96 40.055 152.05L39.29 155.65C38.84 155.41 38.135 155.17 37.175 154.93C36.215 154.66 35.06 154.525 33.71 154.525C32.54 154.525 31.52 154.765 30.65 155.245C29.78 155.695 29.345 156.415 29.345 157.405C29.345 157.915 29.435 158.365 29.615 158.755C29.825 159.145 30.125 159.505 30.515 159.835C30.935 160.135 31.445 160.42 32.045 160.69C32.645 160.96 33.365 161.245 34.205 161.545C35.315 161.965 36.305 162.385 37.175 162.805C38.045 163.195 38.78 163.66 39.38 164.2C40.01 164.74 40.49 165.4 40.82 166.18C41.15 166.93 41.315 167.86 41.315 168.97C41.315 171.13 40.505 172.765 38.885 173.875C37.295 174.985 35.015 175.54 32.045 175.54C29.975 175.54 28.355 175.36 27.185 175C26.015 174.67 25.22 174.415 24.8 174.235L25.565 170.635C26.045 170.815 26.81 171.085 27.86 171.445C28.91 171.805 30.305 171.985 32.045 171.985ZM67.338 163.3C67.338 165.16 67.068 166.84 66.528 168.34C65.988 169.84 65.223 171.13 64.233 172.21C63.273 173.29 62.118 174.13 60.768 174.73C59.418 175.3 57.948 175.585 56.358 175.585C54.768 175.585 53.298 175.3 51.948 174.73C50.598 174.13 49.428 173.29 48.438 172.21C47.478 171.13 46.728 169.84 46.188 168.34C45.648 166.84 45.378 165.16 45.378 163.3C45.378 161.47 45.648 159.805 46.188 158.305C46.728 156.775 47.478 155.47 48.438 154.39C49.428 153.31 50.598 152.485 51.948 151.915C53.298 151.315 54.768 151.015 56.358 151.015C57.948 151.015 59.418 151.315 60.768 151.915C62.118 152.485 63.273 153.31 64.233 154.39C65.223 155.47 65.988 156.775 66.528 158.305C67.068 159.805 67.338 161.47 67.338 163.3ZM62.973 163.3C62.973 160.66 62.373 158.575 61.173 157.045C60.003 155.485 58.398 154.705 56.358 154.705C54.318 154.705 52.698 155.485 51.498 157.045C50.328 158.575 49.743 160.66 49.743 163.3C49.743 165.94 50.328 168.04 51.498 169.6C52.698 171.13 54.318 171.895 56.358 171.895C58.398 171.895 60.003 171.13 61.173 169.6C62.373 168.04 62.973 165.94 62.973 163.3ZM82.361 140.08C83.591 140.08 84.641 140.17 85.511 140.35C86.411 140.53 87.041 140.695 87.401 140.845L86.636 144.445C86.276 144.265 85.766 144.1 85.106 143.95C84.446 143.77 83.636 143.68 82.676 143.68C80.726 143.68 79.361 144.22 78.581 145.3C77.801 146.35 77.411 147.775 77.411 149.575V151.6H86.411V155.11H77.411V175H73.226V149.485C73.226 146.485 73.961 144.175 75.431 142.555C76.901 140.905 79.211 140.08 82.361 140.08ZM94.4994 151.6H103.364V155.11H94.4994V165.91C94.4994 167.08 94.5894 168.055 94.7694 168.835C94.9494 169.585 95.2194 170.185 95.5794 170.635C95.9394 171.055 96.3894 171.355 96.9294 171.535C97.4694 171.715 98.0994 171.805 98.8194 171.805C100.079 171.805 101.084 171.67 101.834 171.4C102.614 171.1 103.154 170.89 103.454 170.77L104.264 174.235C103.844 174.445 103.109 174.7 102.059 175C101.009 175.33 99.8094 175.495 98.4594 175.495C96.8694 175.495 95.5494 175.3 94.4994 174.91C93.4794 174.49 92.6544 173.875 92.0244 173.065C91.3944 172.255 90.9444 171.265 90.6744 170.095C90.4344 168.895 90.3144 167.515 90.3144 165.955V145.075L94.4994 144.355V151.6ZM127.815 175C126.975 172.84 126.075 170.38 125.115 167.62C124.185 164.83 123.33 161.935 122.55 158.935C121.77 161.935 120.915 164.83 119.985 167.62C119.055 170.38 118.17 172.84 117.33 175H113.685C112.305 171.91 110.955 168.385 109.635 164.425C108.315 160.465 107.07 156.19 105.9 151.6H110.4C110.7 153.01 111.06 154.54 111.48 156.19C111.9 157.84 112.335 159.49 112.785 161.14C113.265 162.79 113.76 164.38 114.27 165.91C114.78 167.44 115.26 168.775 115.71 169.915C116.22 168.505 116.715 167.02 117.195 165.46C117.705 163.87 118.185 162.28 118.635 160.69C119.085 159.07 119.505 157.495 119.895 155.965C120.315 154.405 120.675 152.95 120.975 151.6H124.44C124.71 152.95 125.04 154.405 125.43 155.965C125.82 157.495 126.24 159.07 126.69 160.69C127.14 162.28 127.605 163.87 128.085 165.46C128.595 167.02 129.105 168.505 129.615 169.915C130.065 168.775 130.53 167.44 131.01 165.91C131.52 164.38 132.015 162.79 132.495 161.14C132.975 159.49 133.425 157.84 133.845 156.19C134.265 154.54 134.625 153.01 134.925 151.6H139.245C138.075 156.19 136.83 160.465 135.51 164.425C134.19 168.385 132.84 171.91 131.46 175H127.815ZM151.59 171.985C152.58 171.985 153.45 171.97 154.2 171.94C154.98 171.88 155.625 171.79 156.135 171.67V164.695C155.835 164.545 155.34 164.425 154.65 164.335C153.99 164.215 153.18 164.155 152.22 164.155C151.59 164.155 150.915 164.2 150.195 164.29C149.505 164.38 148.86 164.575 148.26 164.875C147.69 165.145 147.21 165.535 146.82 166.045C146.43 166.525 146.235 167.17 146.235 167.98C146.235 169.48 146.715 170.53 147.675 171.13C148.635 171.7 149.94 171.985 151.59 171.985ZM151.23 151.015C152.91 151.015 154.32 151.24 155.46 151.69C156.63 152.11 157.56 152.725 158.25 153.535C158.97 154.315 159.48 155.26 159.78 156.37C160.08 157.45 160.23 158.65 160.23 159.97V174.595C159.87 174.655 159.36 174.745 158.7 174.865C158.07 174.955 157.35 175.045 156.54 175.135C155.73 175.225 154.845 175.3 153.885 175.36C152.955 175.45 152.025 175.495 151.095 175.495C149.775 175.495 148.56 175.36 147.45 175.09C146.34 174.82 145.38 174.4 144.57 173.83C143.76 173.23 143.13 172.45 142.68 171.49C142.23 170.53 142.005 169.375 142.005 168.025C142.005 166.735 142.26 165.625 142.77 164.695C143.31 163.765 144.03 163.015 144.93 162.445C145.83 161.875 146.88 161.455 148.08 161.185C149.28 160.915 150.54 160.78 151.86 160.78C152.28 160.78 152.715 160.81 153.165 160.87C153.615 160.9 154.035 160.96 154.425 161.05C154.845 161.11 155.205 161.17 155.505 161.23C155.805 161.29 156.015 161.335 156.135 161.365V160.195C156.135 159.505 156.06 158.83 155.91 158.17C155.76 157.48 155.49 156.88 155.1 156.37C154.71 155.83 154.17 155.41 153.48 155.11C152.82 154.78 151.95 154.615 150.87 154.615C149.49 154.615 148.275 154.72 147.225 154.93C146.205 155.11 145.44 155.305 144.93 155.515L144.435 152.05C144.975 151.81 145.875 151.585 147.135 151.375C148.395 151.135 149.76 151.015 151.23 151.015ZM175.821 151.105C176.181 151.105 176.586 151.135 177.036 151.195C177.516 151.225 177.981 151.285 178.431 151.375C178.881 151.435 179.286 151.51 179.646 151.6C180.036 151.66 180.321 151.72 180.501 151.78L179.781 155.425C179.451 155.305 178.896 155.17 178.116 155.02C177.366 154.84 176.391 154.75 175.191 154.75C174.411 154.75 173.631 154.84 172.851 155.02C172.101 155.17 171.606 155.275 171.366 155.335V175H167.181V152.59C168.171 152.23 169.401 151.9 170.871 151.6C172.341 151.27 173.991 151.105 175.821 151.105ZM183.234 163.345C183.234 161.275 183.534 159.475 184.134 157.945C184.734 156.385 185.529 155.095 186.519 154.075C187.509 153.055 188.649 152.29 189.939 151.78C191.229 151.27 192.549 151.015 193.899 151.015C197.049 151.015 199.464 152.005 201.144 153.985C202.824 155.935 203.664 158.92 203.664 162.94C203.664 163.12 203.664 163.36 203.664 163.66C203.664 163.93 203.649 164.185 203.619 164.425H187.599C187.779 166.855 188.484 168.7 189.714 169.96C190.944 171.22 192.864 171.85 195.474 171.85C196.944 171.85 198.174 171.73 199.164 171.49C200.184 171.22 200.949 170.965 201.459 170.725L202.044 174.235C201.534 174.505 200.634 174.79 199.344 175.09C198.084 175.39 196.644 175.54 195.024 175.54C192.984 175.54 191.214 175.24 189.714 174.64C188.244 174.01 187.029 173.155 186.069 172.075C185.109 170.995 184.389 169.72 183.909 168.25C183.459 166.75 183.234 165.115 183.234 163.345ZM199.299 161.05C199.329 159.16 198.849 157.615 197.859 156.415C196.899 155.185 195.564 154.57 193.854 154.57C192.894 154.57 192.039 154.765 191.289 155.155C190.569 155.515 189.954 155.995 189.444 156.595C188.934 157.195 188.529 157.885 188.229 158.665C187.959 159.445 187.779 160.24 187.689 161.05H199.299ZM235.211 156.55C234.701 156.13 233.966 155.725 233.006 155.335C232.046 154.945 230.996 154.75 229.856 154.75C228.656 154.75 227.621 154.975 226.751 155.425C225.911 155.845 225.221 156.445 224.681 157.225C224.141 157.975 223.751 158.875 223.511 159.925C223.271 160.975 223.151 162.1 223.151 163.3C223.151 166.03 223.826 168.145 225.176 169.645C226.526 171.115 228.326 171.85 230.576 171.85C231.716 171.85 232.661 171.805 233.411 171.715C234.191 171.595 234.791 171.475 235.211 171.355V156.55ZM235.211 140.8L239.396 140.08V174.325C238.436 174.595 237.206 174.865 235.706 175.135C234.206 175.405 232.481 175.54 230.531 175.54C228.731 175.54 227.111 175.255 225.671 174.685C224.231 174.115 223.001 173.305 221.981 172.255C220.961 171.205 220.166 169.93 219.596 168.43C219.056 166.9 218.786 165.19 218.786 163.3C218.786 161.5 219.011 159.85 219.461 158.35C219.941 156.85 220.631 155.56 221.531 154.48C222.431 153.4 223.526 152.56 224.816 151.96C226.136 151.36 227.636 151.06 229.316 151.06C230.666 151.06 231.851 151.24 232.871 151.6C233.921 151.96 234.701 152.305 235.211 152.635V140.8ZM245.285 163.345C245.285 161.275 245.585 159.475 246.185 157.945C246.785 156.385 247.58 155.095 248.57 154.075C249.56 153.055 250.7 152.29 251.99 151.78C253.28 151.27 254.6 151.015 255.95 151.015C259.1 151.015 261.515 152.005 263.195 153.985C264.875 155.935 265.715 158.92 265.715 162.94C265.715 163.12 265.715 163.36 265.715 163.66C265.715 163.93 265.7 164.185 265.67 164.425H249.65C249.83 166.855 250.535 168.7 251.765 169.96C252.995 171.22 254.915 171.85 257.525 171.85C258.995 171.85 260.225 171.73 261.215 171.49C262.235 171.22 263 170.965 263.51 170.725L264.095 174.235C263.585 174.505 262.685 174.79 261.395 175.09C260.135 175.39 258.695 175.54 257.075 175.54C255.035 175.54 253.265 175.24 251.765 174.64C250.295 174.01 249.08 173.155 248.12 172.075C247.16 170.995 246.44 169.72 245.96 168.25C245.51 166.75 245.285 165.115 245.285 163.345ZM261.35 161.05C261.38 159.16 260.9 157.615 259.91 156.415C258.95 155.185 257.615 154.57 255.905 154.57C254.945 154.57 254.09 154.765 253.34 155.155C252.62 155.515 252.005 155.995 251.495 156.595C250.985 157.195 250.58 157.885 250.28 158.665C250.01 159.445 249.83 160.24 249.74 161.05H261.35ZM289.997 151.6C288.827 155.98 287.447 160.18 285.857 164.2C284.297 168.22 282.782 171.82 281.312 175H277.532C276.062 171.82 274.532 168.22 272.942 164.2C271.382 160.18 270.017 155.98 268.847 151.6H273.347C273.707 153.07 274.127 154.645 274.607 156.325C275.117 157.975 275.642 159.625 276.182 161.275C276.752 162.895 277.322 164.47 277.892 166C278.462 167.53 279.002 168.895 279.512 170.095C280.022 168.895 280.562 167.53 281.132 166C281.702 164.47 282.257 162.895 282.797 161.275C283.367 159.625 283.892 157.975 284.372 156.325C284.882 154.645 285.317 153.07 285.677 151.6H289.997ZM292.395 163.345C292.395 161.275 292.695 159.475 293.295 157.945C293.895 156.385 294.69 155.095 295.68 154.075C296.67 153.055 297.81 152.29 299.1 151.78C300.39 151.27 301.71 151.015 303.06 151.015C306.21 151.015 308.625 152.005 310.305 153.985C311.985 155.935 312.825 158.92 312.825 162.94C312.825 163.12 312.825 163.36 312.825 163.66C312.825 163.93 312.81 164.185 312.78 164.425H296.76C296.94 166.855 297.645 168.7 298.875 169.96C300.105 171.22 302.025 171.85 304.635 171.85C306.105 171.85 307.335 171.73 308.325 171.49C309.345 171.22 310.11 170.965 310.62 170.725L311.205 174.235C310.695 174.505 309.795 174.79 308.505 175.09C307.245 175.39 305.805 175.54 304.185 175.54C302.145 175.54 300.375 175.24 298.875 174.64C297.405 174.01 296.19 173.155 295.23 172.075C294.27 170.995 293.55 169.72 293.07 168.25C292.62 166.75 292.395 165.115 292.395 163.345ZM308.46 161.05C308.49 159.16 308.01 157.615 307.02 156.415C306.06 155.185 304.725 154.57 303.015 154.57C302.055 154.57 301.2 154.765 300.45 155.155C299.73 155.515 299.115 155.995 298.605 156.595C298.095 157.195 297.69 157.885 297.39 158.665C297.12 159.445 296.94 160.24 296.85 161.05H308.46ZM325.856 175.45C323.276 175.39 321.446 174.835 320.366 173.785C319.286 172.735 318.746 171.1 318.746 168.88V140.8L322.931 140.08V168.205C322.931 168.895 322.991 169.465 323.111 169.915C323.231 170.365 323.426 170.725 323.696 170.995C323.966 171.265 324.326 171.475 324.776 171.625C325.226 171.745 325.781 171.85 326.441 171.94L325.856 175.45ZM351.796 163.3C351.796 165.16 351.526 166.84 350.986 168.34C350.446 169.84 349.681 171.13 348.691 172.21C347.731 173.29 346.576 174.13 345.226 174.73C343.876 175.3 342.406 175.585 340.816 175.585C339.226 175.585 337.756 175.3 336.406 174.73C335.056 174.13 333.886 173.29 332.896 172.21C331.936 171.13 331.186 169.84 330.646 168.34C330.106 166.84 329.836 165.16 329.836 163.3C329.836 161.47 330.106 159.805 330.646 158.305C331.186 156.775 331.936 155.47 332.896 154.39C333.886 153.31 335.056 152.485 336.406 151.915C337.756 151.315 339.226 151.015 340.816 151.015C342.406 151.015 343.876 151.315 345.226 151.915C346.576 152.485 347.731 153.31 348.691 154.39C349.681 155.47 350.446 156.775 350.986 158.305C351.526 159.805 351.796 161.47 351.796 163.3ZM347.431 163.3C347.431 160.66 346.831 158.575 345.631 157.045C344.461 155.485 342.856 154.705 340.816 154.705C338.776 154.705 337.156 155.485 335.956 157.045C334.786 158.575 334.201 160.66 334.201 163.3C334.201 165.94 334.786 168.04 335.956 169.6C337.156 171.13 338.776 171.895 340.816 171.895C342.856 171.895 344.461 171.13 345.631 169.6C346.831 168.04 347.431 165.94 347.431 163.3ZM373.929 163.345C373.929 160.615 373.254 158.515 371.904 157.045C370.554 155.575 368.754 154.84 366.504 154.84C365.244 154.84 364.254 154.885 363.534 154.975C362.844 155.065 362.289 155.17 361.869 155.29V170.05C362.379 170.47 363.114 170.875 364.074 171.265C365.034 171.655 366.084 171.85 367.224 171.85C368.424 171.85 369.444 171.64 370.284 171.22C371.154 170.77 371.859 170.17 372.399 169.42C372.939 168.64 373.329 167.74 373.569 166.72C373.809 165.67 373.929 164.545 373.929 163.345ZM378.294 163.345C378.294 165.115 378.054 166.75 377.574 168.25C377.124 169.75 376.449 171.04 375.549 172.12C374.649 173.2 373.539 174.04 372.219 174.64C370.929 175.24 369.444 175.54 367.764 175.54C366.414 175.54 365.214 175.36 364.164 175C363.144 174.64 362.379 174.295 361.869 173.965V183.325H357.684V152.32C358.674 152.08 359.904 151.825 361.374 151.555C362.874 151.255 364.599 151.105 366.549 151.105C368.349 151.105 369.969 151.39 371.409 151.96C372.849 152.53 374.079 153.34 375.099 154.39C376.119 155.44 376.899 156.73 377.439 158.26C378.009 159.76 378.294 161.455 378.294 163.345ZM382.878 163.345C382.878 161.275 383.178 159.475 383.778 157.945C384.378 156.385 385.173 155.095 386.163 154.075C387.153 153.055 388.293 152.29 389.583 151.78C390.873 151.27 392.193 151.015 393.543 151.015C396.693 151.015 399.108 152.005 400.788 153.985C402.468 155.935 403.308 158.92 403.308 162.94C403.308 163.12 403.308 163.36 403.308 163.66C403.308 163.93 403.293 164.185 403.263 164.425H387.243C387.423 166.855 388.128 168.7 389.358 169.96C390.588 171.22 392.508 171.85 395.118 171.85C396.588 171.85 397.818 171.73 398.808 171.49C399.828 171.22 400.593 170.965 401.103 170.725L401.688 174.235C401.178 174.505 400.278 174.79 398.988 175.09C397.728 175.39 396.288 175.54 394.668 175.54C392.628 175.54 390.858 175.24 389.358 174.64C387.888 174.01 386.673 173.155 385.713 172.075C384.753 170.995 384.033 169.72 383.553 168.25C383.103 166.75 382.878 165.115 382.878 163.345ZM398.943 161.05C398.973 159.16 398.493 157.615 397.503 156.415C396.543 155.185 395.208 154.57 393.498 154.57C392.538 154.57 391.683 154.765 390.933 155.155C390.213 155.515 389.598 155.995 389.088 156.595C388.578 157.195 388.173 157.885 387.873 158.665C387.603 159.445 387.423 160.24 387.333 161.05H398.943ZM417.96 151.105C418.32 151.105 418.725 151.135 419.175 151.195C419.655 151.225 420.12 151.285 420.57 151.375C421.02 151.435 421.425 151.51 421.785 151.6C422.175 151.66 422.46 151.72 422.64 151.78L421.92 155.425C421.59 155.305 421.035 155.17 420.255 155.02C419.505 154.84 418.53 154.75 417.33 154.75C416.55 154.75 415.77 154.84 414.99 155.02C414.24 155.17 413.745 155.275 413.505 155.335V175H409.32V152.59C410.31 152.23 411.54 151.9 413.01 151.6C414.48 151.27 416.13 151.105 417.96 151.105Z" fill="white"/>
<path d="M420.63 6C396.802 6 391.87 18.3047 391.87 25.4307V38.8696H419.261V41.6087H378.431C369.389 41.6087 359 48.7347 359 69C359 89.2653 369.389 96.3913 378.431 96.3913H394.609V79.9565C394.609 73.9326 399.541 69 405.565 69H438.435C443.089 69 446.652 65.437 446.652 60.7826V25.4307C446.652 15.8438 437.611 6 420.63 6ZM408.304 19.6957C411.322 19.6957 413.783 22.1566 413.783 25.1739C413.783 28.1912 411.322 30.6522 408.304 30.6522C405.287 30.6522 402.826 28.1912 402.826 25.1739C402.826 22.1566 405.287 19.6957 408.304 19.6957ZM449.391 41.6087V60.7826C449.391 66.8066 444.459 71.7391 438.435 71.7391H405.565C400.911 71.7391 397.348 75.3021 397.348 79.9565V112.569C397.348 122.156 406.389 132 423.37 132C447.198 132 452.13 119.695 452.13 112.569V99.1304H424.739V96.3913H465.569C474.611 96.3913 485 89.2653 485 69C485 48.7347 474.611 41.6087 465.569 41.6087H449.391ZM435.696 107.348C438.713 107.348 441.174 109.809 441.174 112.826C441.174 115.843 438.713 118.304 435.696 118.304C432.678 118.304 430.217 115.843 430.217 112.826C430.217 109.809 432.678 107.348 435.696 107.348Z" fill="white" fill-opacity="0.7"/>
</svg>
