<svg width="199" height="200" viewBox="0 0 199 200" fill="none" xmlns="http://www.w3.org/2000/svg">
<rect width="199" height="200" rx="30" fill="#17A5E9"/>
<path d="M13.025 45.165C13.025 43.455 13.295 41.85 13.835 40.35C14.405 38.82 15.215 37.5 16.265 36.39C17.315 35.25 18.59 34.35 20.09 33.69C21.59 33.03 23.3 32.7 25.22 32.7C26.48 32.7 27.635 32.82 28.685 33.06C29.735 33.27 30.755 33.585 31.745 34.005L30.35 39.36C29.72 39.12 29.03 38.91 28.28 38.73C27.53 38.55 26.69 38.46 25.76 38.46C23.78 38.46 22.295 39.075 21.305 40.305C20.345 41.535 19.865 43.155 19.865 45.165C19.865 47.295 20.315 48.945 21.215 50.115C22.145 51.285 23.75 51.87 26.03 51.87C26.84 51.87 27.71 51.795 28.64 51.645C29.57 51.495 30.425 51.255 31.205 50.925L32.15 56.415C31.37 56.745 30.395 57.03 29.225 57.27C28.055 57.51 26.765 57.63 25.355 57.63C23.195 57.63 21.335 57.315 19.775 56.685C18.215 56.025 16.925 55.14 15.905 54.03C14.915 52.92 14.18 51.615 13.7 50.115C13.25 48.585 13.025 46.935 13.025 45.165ZM57.6474 45.12C57.6474 46.98 57.3774 48.69 56.8374 50.25C56.2974 51.78 55.5174 53.1 54.4974 54.21C53.4774 55.29 52.2474 56.13 50.8074 56.73C49.3974 57.33 47.8074 57.63 46.0374 57.63C44.2974 57.63 42.7074 57.33 41.2674 56.73C39.8574 56.13 38.6424 55.29 37.6224 54.21C36.6024 53.1 35.8074 51.78 35.2374 50.25C34.6674 48.69 34.3824 46.98 34.3824 45.12C34.3824 43.26 34.6674 41.565 35.2374 40.035C35.8374 38.505 36.6474 37.2 37.6674 36.12C38.7174 35.04 39.9474 34.2 41.3574 33.6C42.7974 33 44.3574 32.7 46.0374 32.7C47.7474 32.7 49.3074 33 50.7174 33.6C52.1574 34.2 53.3874 35.04 54.4074 36.12C55.4274 37.2 56.2224 38.505 56.7924 40.035C57.3624 41.565 57.6474 43.26 57.6474 45.12ZM50.8074 45.12C50.8074 43.05 50.3874 41.43 49.5474 40.26C48.7374 39.06 47.5674 38.46 46.0374 38.46C44.5074 38.46 43.3224 39.06 42.4824 40.26C41.6424 41.43 41.2224 43.05 41.2224 45.12C41.2224 47.19 41.6424 48.84 42.4824 50.07C43.3224 51.27 44.5074 51.87 46.0374 51.87C47.5674 51.87 48.7374 51.27 49.5474 50.07C50.3874 48.84 50.8074 47.19 50.8074 45.12ZM62.8414 34.14C63.9814 33.81 65.4514 33.51 67.2514 33.24C69.0514 32.94 70.9414 32.79 72.9214 32.79C74.9314 32.79 76.5964 33.06 77.9164 33.6C79.2664 34.11 80.3314 34.845 81.1114 35.805C81.8914 36.765 82.4464 37.905 82.7764 39.225C83.1064 40.545 83.2714 42.015 83.2714 43.635V57H76.5664V44.445C76.5664 42.285 76.2814 40.755 75.7114 39.855C75.1414 38.955 74.0764 38.505 72.5164 38.505C72.0364 38.505 71.5264 38.535 70.9864 38.595C70.4464 38.625 69.9664 38.67 69.5464 38.73V57H62.8414V34.14ZM89.1154 27.435L95.8204 26.355V33.33H103.875V38.91H95.8204V47.235C95.8204 48.645 96.0604 49.77 96.5404 50.61C97.0504 51.45 98.0554 51.87 99.5554 51.87C100.275 51.87 101.01 51.81 101.76 51.69C102.54 51.54 103.245 51.345 103.875 51.105L104.82 56.325C104.01 56.655 103.11 56.94 102.12 57.18C101.13 57.42 99.9154 57.54 98.4754 57.54C96.6454 57.54 95.1304 57.3 93.9304 56.82C92.7304 56.31 91.7704 55.62 91.0504 54.75C90.3304 53.85 89.8204 52.77 89.5204 51.51C89.2504 50.25 89.1154 48.855 89.1154 47.325V27.435ZM117.502 52.32C118.162 52.32 118.792 52.305 119.392 52.275C119.992 52.245 120.472 52.2 120.832 52.14V47.055C120.562 46.995 120.157 46.935 119.617 46.875C119.077 46.815 118.582 46.785 118.132 46.785C117.502 46.785 116.902 46.83 116.332 46.92C115.792 46.98 115.312 47.115 114.892 47.325C114.472 47.535 114.142 47.82 113.902 48.18C113.662 48.54 113.542 48.99 113.542 49.53C113.542 50.58 113.887 51.315 114.577 51.735C115.297 52.125 116.272 52.32 117.502 52.32ZM116.962 32.7C118.942 32.7 120.592 32.925 121.912 33.375C123.232 33.825 124.282 34.47 125.062 35.31C125.872 36.15 126.442 37.17 126.772 38.37C127.102 39.57 127.267 40.905 127.267 42.375V56.325C126.307 56.535 124.972 56.775 123.262 57.045C121.552 57.345 119.482 57.495 117.052 57.495C115.522 57.495 114.127 57.36 112.867 57.09C111.637 56.82 110.572 56.385 109.672 55.785C108.772 55.155 108.082 54.345 107.602 53.355C107.122 52.365 106.882 51.15 106.882 49.71C106.882 48.33 107.152 47.16 107.692 46.2C108.262 45.24 109.012 44.475 109.942 43.905C110.872 43.335 111.937 42.93 113.137 42.69C114.337 42.42 115.582 42.285 116.872 42.285C117.742 42.285 118.507 42.33 119.167 42.42C119.857 42.48 120.412 42.57 120.832 42.69V42.06C120.832 40.92 120.487 40.005 119.797 39.315C119.107 38.625 117.907 38.28 116.197 38.28C115.057 38.28 113.932 38.37 112.822 38.55C111.712 38.7 110.752 38.925 109.942 39.225L109.087 33.825C109.477 33.705 109.957 33.585 110.527 33.465C111.127 33.315 111.772 33.195 112.462 33.105C113.152 32.985 113.872 32.895 114.622 32.835C115.402 32.745 116.182 32.7 116.962 32.7ZM132.205 45.165C132.205 43.455 132.475 41.85 133.015 40.35C133.585 38.82 134.395 37.5 135.445 36.39C136.495 35.25 137.77 34.35 139.27 33.69C140.77 33.03 142.48 32.7 144.4 32.7C145.66 32.7 146.815 32.82 147.865 33.06C148.915 33.27 149.935 33.585 150.925 34.005L149.53 39.36C148.9 39.12 148.21 38.91 147.46 38.73C146.71 38.55 145.87 38.46 144.94 38.46C142.96 38.46 141.475 39.075 140.485 40.305C139.525 41.535 139.045 43.155 139.045 45.165C139.045 47.295 139.495 48.945 140.395 50.115C141.325 51.285 142.93 51.87 145.21 51.87C146.02 51.87 146.89 51.795 147.82 51.645C148.75 51.495 149.605 51.255 150.385 50.925L151.33 56.415C150.55 56.745 149.575 57.03 148.405 57.27C147.235 57.51 145.945 57.63 144.535 57.63C142.375 57.63 140.515 57.315 138.955 56.685C137.395 56.025 136.105 55.14 135.085 54.03C134.095 52.92 133.36 51.615 132.88 50.115C132.43 48.585 132.205 46.935 132.205 45.165ZM155.605 27.435L162.31 26.355V33.33H170.365V38.91H162.31V47.235C162.31 48.645 162.55 49.77 163.03 50.61C163.54 51.45 164.545 51.87 166.045 51.87C166.765 51.87 167.5 51.81 168.25 51.69C169.03 51.54 169.735 51.345 170.365 51.105L171.31 56.325C170.5 56.655 169.6 56.94 168.61 57.18C167.62 57.42 166.405 57.54 164.965 57.54C163.135 57.54 161.62 57.3 160.42 56.82C159.22 56.31 158.26 55.62 157.54 54.75C156.82 53.85 156.31 52.77 156.01 51.51C155.74 50.25 155.605 48.855 155.605 47.325V27.435ZM33.725 109C32.885 106.84 31.985 104.38 31.025 101.62C30.095 98.83 29.24 95.935 28.46 92.935C27.68 95.935 26.825 98.83 25.895 101.62C24.965 104.38 24.08 106.84 23.24 109H19.595C18.215 105.91 16.865 102.385 15.545 98.425C14.225 94.465 12.98 90.19 11.81 85.6H16.31C16.61 87.01 16.97 88.54 17.39 90.19C17.81 91.84 18.245 93.49 18.695 95.14C19.175 96.79 19.67 98.38 20.18 99.91C20.69 101.44 21.17 102.775 21.62 103.915C22.13 102.505 22.625 101.02 23.105 99.46C23.615 97.87 24.095 96.28 24.545 94.69C24.995 93.07 25.415 91.495 25.805 89.965C26.225 88.405 26.585 86.95 26.885 85.6H30.35C30.62 86.95 30.95 88.405 31.34 89.965C31.73 91.495 32.15 93.07 32.6 94.69C33.05 96.28 33.515 97.87 33.995 99.46C34.505 101.02 35.015 102.505 35.525 103.915C35.975 102.775 36.44 101.44 36.92 99.91C37.43 98.38 37.925 96.79 38.405 95.14C38.885 93.49 39.335 91.84 39.755 90.19C40.175 88.54 40.535 87.01 40.835 85.6H45.155C43.985 90.19 42.74 94.465 41.42 98.425C40.1 102.385 38.75 105.91 37.37 109H33.725ZM53.7655 109H49.5805V85.6H53.7655V109ZM51.6505 81.37C50.9005 81.37 50.2555 81.13 49.7155 80.65C49.2055 80.14 48.9505 79.465 48.9505 78.625C48.9505 77.785 49.2055 77.125 49.7155 76.645C50.2555 76.135 50.9005 75.88 51.6505 75.88C52.4005 75.88 53.0305 76.135 53.5405 76.645C54.0805 77.125 54.3505 77.785 54.3505 78.625C54.3505 79.465 54.0805 80.14 53.5405 80.65C53.0305 81.13 52.4005 81.37 51.6505 81.37ZM64.8773 85.6H73.7423V89.11H64.8773V99.91C64.8773 101.08 64.9673 102.055 65.1473 102.835C65.3273 103.585 65.5973 104.185 65.9573 104.635C66.3173 105.055 66.7673 105.355 67.3073 105.535C67.8473 105.715 68.4773 105.805 69.1973 105.805C70.4573 105.805 71.4623 105.67 72.2123 105.4C72.9923 105.1 73.5323 104.89 73.8323 104.77L74.6423 108.235C74.2223 108.445 73.4873 108.7 72.4373 109C71.3873 109.33 70.1873 109.495 68.8373 109.495C67.2473 109.495 65.9273 109.3 64.8773 108.91C63.8573 108.49 63.0323 107.875 62.4023 107.065C61.7723 106.255 61.3223 105.265 61.0523 104.095C60.8123 102.895 60.6923 101.515 60.6923 99.955V79.075L64.8773 78.355V85.6ZM79.0678 109V74.8L83.2528 74.08V86.05C84.0328 85.75 84.8578 85.525 85.7278 85.375C86.6278 85.195 87.5128 85.105 88.3828 85.105C90.2428 85.105 91.7878 85.375 93.0178 85.915C94.2478 86.425 95.2228 87.16 95.9428 88.12C96.6928 89.05 97.2178 90.175 97.5178 91.495C97.8178 92.815 97.9678 94.27 97.9678 95.86V109H93.7828V96.76C93.7828 95.32 93.6778 94.09 93.4678 93.07C93.2878 92.05 92.9728 91.225 92.5228 90.595C92.0728 89.965 91.4728 89.515 90.7228 89.245C89.9728 88.945 89.0428 88.795 87.9328 88.795C87.4828 88.795 87.0178 88.825 86.5378 88.885C86.0578 88.945 85.5928 89.02 85.1428 89.11C84.7228 89.17 84.3328 89.245 83.9728 89.335C83.6428 89.425 83.4028 89.5 83.2528 89.56V109H79.0678ZM14.6 138.275C15.56 138.035 16.82 137.78 18.38 137.51C19.97 137.24 21.8 137.105 23.87 137.105C25.37 137.105 26.63 137.315 27.65 137.735C28.67 138.125 29.525 138.71 30.215 139.49C30.425 139.34 30.755 139.13 31.205 138.86C31.655 138.59 32.21 138.335 32.87 138.095C33.53 137.825 34.265 137.6 35.075 137.42C35.885 137.21 36.755 137.105 37.685 137.105C39.485 137.105 40.955 137.375 42.095 137.915C43.235 138.425 44.12 139.16 44.75 140.12C45.41 141.08 45.845 142.22 46.055 143.54C46.295 144.86 46.415 146.3 46.415 147.86V161H42.23V148.76C42.23 147.38 42.155 146.195 42.005 145.205C41.885 144.215 41.63 143.39 41.24 142.73C40.88 142.07 40.37 141.59 39.71 141.29C39.08 140.96 38.255 140.795 37.235 140.795C35.825 140.795 34.655 140.99 33.725 141.38C32.825 141.74 32.21 142.07 31.88 142.37C32.12 143.15 32.3 144.005 32.42 144.935C32.54 145.865 32.6 146.84 32.6 147.86V161H28.415V148.76C28.415 147.38 28.34 146.195 28.19 145.205C28.04 144.215 27.77 143.39 27.38 142.73C27.02 142.07 26.51 141.59 25.85 141.29C25.22 140.96 24.41 140.795 23.42 140.795C23 140.795 22.55 140.81 22.07 140.84C21.59 140.87 21.125 140.915 20.675 140.975C20.255 141.005 19.865 141.05 19.505 141.11C19.145 141.17 18.905 141.215 18.785 141.245V161H14.6V138.275ZM52.0548 149.345C52.0548 147.275 52.3548 145.475 52.9548 143.945C53.5548 142.385 54.3498 141.095 55.3398 140.075C56.3298 139.055 57.4698 138.29 58.7598 137.78C60.0498 137.27 61.3698 137.015 62.7198 137.015C65.8698 137.015 68.2848 138.005 69.9648 139.985C71.6448 141.935 72.4848 144.92 72.4848 148.94C72.4848 149.12 72.4848 149.36 72.4848 149.66C72.4848 149.93 72.4698 150.185 72.4398 150.425H56.4198C56.5998 152.855 57.3048 154.7 58.5348 155.96C59.7648 157.22 61.6848 157.85 64.2948 157.85C65.7648 157.85 66.9948 157.73 67.9848 157.49C69.0048 157.22 69.7698 156.965 70.2798 156.725L70.8648 160.235C70.3548 160.505 69.4548 160.79 68.1648 161.09C66.9048 161.39 65.4648 161.54 63.8448 161.54C61.8048 161.54 60.0348 161.24 58.5348 160.64C57.0648 160.01 55.8498 159.155 54.8898 158.075C53.9298 156.995 53.2098 155.72 52.7298 154.25C52.2798 152.75 52.0548 151.115 52.0548 149.345ZM68.1198 147.05C68.1498 145.16 67.6698 143.615 66.6798 142.415C65.7198 141.185 64.3848 140.57 62.6748 140.57C61.7148 140.57 60.8598 140.765 60.1098 141.155C59.3898 141.515 58.7748 141.995 58.2648 142.595C57.7548 143.195 57.3498 143.885 57.0498 144.665C56.7798 145.445 56.5998 146.24 56.5098 147.05H68.1198Z" fill="white"/>
<path d="M148 109C170.643 109 189 127.357 189 150C189 172.643 170.643 191 148 191C125.357 191 107 172.643 107 150C107 127.357 125.357 109 148 109ZM162.143 166.713C162.896 164.4 166.431 141.34 166.866 136.794C166.998 135.419 166.562 134.504 165.712 134.094C164.681 133.6 163.157 133.846 161.385 134.485C158.956 135.361 127.917 148.539 126.125 149.303C124.425 150.026 122.817 150.813 122.817 151.955C122.817 152.758 123.294 153.209 124.606 153.677C125.97 154.163 129.408 155.205 131.442 155.766C133.398 156.307 135.622 155.837 136.87 155.062C138.192 154.24 153.459 144.027 154.553 143.131C155.646 142.236 156.521 143.382 155.626 144.279C154.731 145.173 144.254 155.343 142.871 156.752C141.192 158.461 142.383 160.233 143.51 160.943C144.795 161.754 154.038 167.952 155.43 168.948C156.822 169.943 158.233 170.394 159.527 170.394C160.82 170.392 161.5 168.689 162.143 166.713Z" fill="white" fill-opacity="0.7"/>
</svg>
