<svg width="220" height="200" viewBox="0 0 220 200" fill="none" xmlns="http://www.w3.org/2000/svg">
<rect width="220" height="200" rx="30" fill="#0087FF"/>
<path d="M42.87 19.815H47.235V51H42.87V19.815ZM72.12 51.45C69.54 51.39 67.71 50.835 66.63 49.785C65.55 48.735 65.01 47.1 65.01 44.88V16.8L69.195 16.08V44.205C69.195 44.895 69.255 45.465 69.375 45.915C69.495 46.365 69.69 46.725 69.96 46.995C70.23 47.265 70.59 47.475 71.04 47.625C71.49 47.745 72.045 47.85 72.705 47.94L72.12 51.45ZM81.5897 51H77.4047V27.6H81.5897V51ZM79.4747 23.37C78.7247 23.37 78.0797 23.13 77.5397 22.65C77.0297 22.14 76.7747 21.465 76.7747 20.625C76.7747 19.785 77.0297 19.125 77.5397 18.645C78.0797 18.135 78.7247 17.88 79.4747 17.88C80.2247 17.88 80.8547 18.135 81.3647 18.645C81.9047 19.125 82.1747 19.785 82.1747 20.625C82.1747 21.465 81.9047 22.14 81.3647 22.65C80.8547 23.13 80.2247 23.37 79.4747 23.37ZM107.057 27.6C105.887 31.98 104.507 36.18 102.917 40.2C101.357 44.22 99.8415 47.82 98.3715 51H94.5915C93.1215 47.82 91.5915 44.22 90.0015 40.2C88.4415 36.18 87.0765 31.98 85.9065 27.6H90.4065C90.7665 29.07 91.1865 30.645 91.6665 32.325C92.1765 33.975 92.7015 35.625 93.2415 37.275C93.8115 38.895 94.3815 40.47 94.9515 42C95.5215 43.53 96.0615 44.895 96.5715 46.095C97.0815 44.895 97.6215 43.53 98.1915 42C98.7615 40.47 99.3165 38.895 99.8565 37.275C100.427 35.625 100.952 33.975 101.432 32.325C101.942 30.645 102.377 29.07 102.737 27.6H107.057ZM109.454 39.345C109.454 37.275 109.754 35.475 110.354 33.945C110.954 32.385 111.749 31.095 112.739 30.075C113.729 29.055 114.869 28.29 116.159 27.78C117.449 27.27 118.769 27.015 120.119 27.015C123.269 27.015 125.684 28.005 127.364 29.985C129.044 31.935 129.884 34.92 129.884 38.94C129.884 39.12 129.884 39.36 129.884 39.66C129.884 39.93 129.869 40.185 129.839 40.425H113.819C113.999 42.855 114.704 44.7 115.934 45.96C117.164 47.22 119.084 47.85 121.694 47.85C123.164 47.85 124.394 47.73 125.384 47.49C126.404 47.22 127.169 46.965 127.679 46.725L128.264 50.235C127.754 50.505 126.854 50.79 125.564 51.09C124.304 51.39 122.864 51.54 121.244 51.54C119.204 51.54 117.434 51.24 115.934 50.64C114.464 50.01 113.249 49.155 112.289 48.075C111.329 46.995 110.609 45.72 110.129 44.25C109.679 42.75 109.454 41.115 109.454 39.345ZM125.519 37.05C125.549 35.16 125.069 33.615 124.079 32.415C123.119 31.185 121.784 30.57 120.074 30.57C119.114 30.57 118.259 30.765 117.509 31.155C116.789 31.515 116.174 31.995 115.664 32.595C115.154 33.195 114.749 33.885 114.449 34.665C114.179 35.445 113.999 36.24 113.909 37.05H125.519ZM150.496 51H146.311V27.6H150.496V51ZM148.381 23.37C147.631 23.37 146.986 23.13 146.446 22.65C145.936 22.14 145.681 21.465 145.681 20.625C145.681 19.785 145.936 19.125 146.446 18.645C146.986 18.135 147.631 17.88 148.381 17.88C149.131 17.88 149.761 18.135 150.271 18.645C150.811 19.125 151.081 19.785 151.081 20.625C151.081 21.465 150.811 22.14 150.271 22.65C149.761 23.13 149.131 23.37 148.381 23.37ZM157.693 28.275C158.653 28.035 159.928 27.78 161.518 27.51C163.108 27.24 164.938 27.105 167.008 27.105C168.868 27.105 170.413 27.375 171.643 27.915C172.873 28.425 173.848 29.16 174.568 30.12C175.318 31.05 175.843 32.175 176.143 33.495C176.443 34.815 176.593 36.27 176.593 37.86V51H172.408V38.76C172.408 37.32 172.303 36.09 172.093 35.07C171.913 34.05 171.598 33.225 171.148 32.595C170.698 31.965 170.098 31.515 169.348 31.245C168.598 30.945 167.668 30.795 166.558 30.795C166.108 30.795 165.643 30.81 165.163 30.84C164.683 30.87 164.218 30.915 163.768 30.975C163.348 31.005 162.958 31.05 162.598 31.11C162.268 31.17 162.028 31.215 161.878 31.245V51H157.693V28.275Z" fill="white"/>
<path d="M34.88 151.815C35.42 152.805 36.035 154.035 36.725 155.505C37.445 156.945 38.18 158.52 38.93 160.23C39.71 161.91 40.475 163.635 41.225 165.405C41.975 167.175 42.68 168.84 43.34 170.4C44 168.84 44.705 167.175 45.455 165.405C46.205 163.635 46.955 161.91 47.705 160.23C48.485 158.52 49.22 156.945 49.91 155.505C50.63 154.035 51.26 152.805 51.8 151.815H58.19C58.49 153.885 58.76 156.21 59 158.79C59.27 161.34 59.495 164.01 59.675 166.8C59.885 169.56 60.065 172.335 60.215 175.125C60.395 177.915 60.545 180.54 60.665 183H53.825C53.735 179.97 53.615 176.67 53.465 173.1C53.315 169.53 53.09 165.93 52.79 162.3C52.25 163.56 51.65 164.955 50.99 166.485C50.33 168.015 49.67 169.545 49.01 171.075C48.38 172.605 47.765 174.075 47.165 175.485C46.565 176.865 46.055 178.05 45.635 179.04H40.73C40.31 178.05 39.8 176.865 39.2 175.485C38.6 174.075 37.97 172.605 37.31 171.075C36.68 169.545 36.035 168.015 35.375 166.485C34.715 164.955 34.115 163.56 33.575 162.3C33.275 165.93 33.05 169.53 32.9 173.1C32.75 176.67 32.63 179.97 32.54 183H25.7C25.82 180.54 25.955 177.915 26.105 175.125C26.285 172.335 26.465 169.56 26.645 166.8C26.855 164.01 27.08 161.34 27.32 158.79C27.59 156.21 27.875 153.885 28.175 151.815H34.88ZM88.6757 171.12C88.6757 172.98 88.4057 174.69 87.8657 176.25C87.3257 177.78 86.5457 179.1 85.5257 180.21C84.5057 181.29 83.2757 182.13 81.8357 182.73C80.4257 183.33 78.8357 183.63 77.0657 183.63C75.3257 183.63 73.7357 183.33 72.2957 182.73C70.8857 182.13 69.6707 181.29 68.6507 180.21C67.6307 179.1 66.8357 177.78 66.2657 176.25C65.6957 174.69 65.4107 172.98 65.4107 171.12C65.4107 169.26 65.6957 167.565 66.2657 166.035C66.8657 164.505 67.6757 163.2 68.6957 162.12C69.7457 161.04 70.9757 160.2 72.3857 159.6C73.8257 159 75.3857 158.7 77.0657 158.7C78.7757 158.7 80.3357 159 81.7457 159.6C83.1857 160.2 84.4157 161.04 85.4357 162.12C86.4557 163.2 87.2507 164.505 87.8207 166.035C88.3907 167.565 88.6757 169.26 88.6757 171.12ZM81.8357 171.12C81.8357 169.05 81.4157 167.43 80.5757 166.26C79.7657 165.06 78.5957 164.46 77.0657 164.46C75.5357 164.46 74.3507 165.06 73.5107 166.26C72.6707 167.43 72.2507 169.05 72.2507 171.12C72.2507 173.19 72.6707 174.84 73.5107 176.07C74.3507 177.27 75.5357 177.87 77.0657 177.87C78.5957 177.87 79.7657 177.27 80.5757 176.07C81.4157 174.84 81.8357 173.19 81.8357 171.12ZM100.665 178.185C101.895 178.185 102.765 178.065 103.275 177.825C103.785 177.585 104.04 177.12 104.04 176.43C104.04 175.89 103.71 175.425 103.05 175.035C102.39 174.615 101.385 174.15 100.035 173.64C98.9847 173.25 98.0247 172.845 97.1547 172.425C96.3147 172.005 95.5947 171.51 94.9947 170.94C94.3947 170.34 93.9297 169.635 93.5997 168.825C93.2697 168.015 93.1047 167.04 93.1047 165.9C93.1047 163.68 93.9297 161.925 95.5797 160.635C97.2297 159.345 99.4947 158.7 102.375 158.7C103.815 158.7 105.195 158.835 106.515 159.105C107.835 159.345 108.885 159.615 109.665 159.915L108.495 165.135C107.715 164.865 106.86 164.625 105.93 164.415C105.03 164.205 104.01 164.1 102.87 164.1C100.77 164.1 99.7197 164.685 99.7197 165.855C99.7197 166.125 99.7647 166.365 99.8547 166.575C99.9447 166.785 100.125 166.995 100.395 167.205C100.665 167.385 101.025 167.595 101.475 167.835C101.955 168.045 102.555 168.285 103.275 168.555C104.745 169.095 105.96 169.635 106.92 170.175C107.88 170.685 108.63 171.255 109.17 171.885C109.74 172.485 110.13 173.16 110.34 173.91C110.58 174.66 110.7 175.53 110.7 176.52C110.7 178.86 109.815 180.63 108.045 181.83C106.305 183.03 103.83 183.63 100.62 183.63C98.5197 183.63 96.7647 183.45 95.3547 183.09C93.9747 182.73 93.0147 182.43 92.4747 182.19L93.5997 176.745C94.7397 177.195 95.9097 177.555 97.1097 177.825C98.3097 178.065 99.4947 178.185 100.665 178.185ZM114.586 171.165C114.586 169.455 114.856 167.85 115.396 166.35C115.966 164.82 116.776 163.5 117.826 162.39C118.876 161.25 120.151 160.35 121.651 159.69C123.151 159.03 124.861 158.7 126.781 158.7C128.041 158.7 129.196 158.82 130.246 159.06C131.296 159.27 132.316 159.585 133.306 160.005L131.911 165.36C131.281 165.12 130.591 164.91 129.841 164.73C129.091 164.55 128.251 164.46 127.321 164.46C125.341 164.46 123.856 165.075 122.866 166.305C121.906 167.535 121.426 169.155 121.426 171.165C121.426 173.295 121.876 174.945 122.776 176.115C123.706 177.285 125.311 177.87 127.591 177.87C128.401 177.87 129.271 177.795 130.201 177.645C131.131 177.495 131.986 177.255 132.766 176.925L133.711 182.415C132.931 182.745 131.956 183.03 130.786 183.27C129.616 183.51 128.326 183.63 126.916 183.63C124.756 183.63 122.896 183.315 121.336 182.685C119.776 182.025 118.486 181.14 117.466 180.03C116.476 178.92 115.741 177.615 115.261 176.115C114.811 174.585 114.586 172.935 114.586 171.165ZM159.208 171.12C159.208 172.98 158.938 174.69 158.398 176.25C157.858 177.78 157.078 179.1 156.058 180.21C155.038 181.29 153.808 182.13 152.368 182.73C150.958 183.33 149.368 183.63 147.598 183.63C145.858 183.63 144.268 183.33 142.828 182.73C141.418 182.13 140.203 181.29 139.183 180.21C138.163 179.1 137.368 177.78 136.798 176.25C136.228 174.69 135.943 172.98 135.943 171.12C135.943 169.26 136.228 167.565 136.798 166.035C137.398 164.505 138.208 163.2 139.228 162.12C140.278 161.04 141.508 160.2 142.918 159.6C144.358 159 145.918 158.7 147.598 158.7C149.308 158.7 150.868 159 152.278 159.6C153.718 160.2 154.948 161.04 155.968 162.12C156.988 163.2 157.783 164.505 158.353 166.035C158.923 167.565 159.208 169.26 159.208 171.12ZM152.368 171.12C152.368 169.05 151.948 167.43 151.108 166.26C150.298 165.06 149.128 164.46 147.598 164.46C146.068 164.46 144.883 165.06 144.043 166.26C143.203 167.43 142.783 169.05 142.783 171.12C142.783 173.19 143.203 174.84 144.043 176.07C144.883 177.27 146.068 177.87 147.598 177.87C149.128 177.87 150.298 177.27 151.108 176.07C151.948 174.84 152.368 173.19 152.368 171.12ZM178.275 169.41C177.675 171.69 177.03 173.955 176.34 176.205C175.68 178.455 174.975 180.72 174.225 183H169.005C168.465 181.74 167.88 180.24 167.25 178.5C166.62 176.76 165.96 174.87 165.27 172.83C164.61 170.76 163.92 168.585 163.2 166.305C162.51 163.995 161.835 161.67 161.175 159.33H168.24C168.48 160.41 168.735 161.595 169.005 162.885C169.305 164.145 169.605 165.45 169.905 166.8C170.235 168.15 170.565 169.515 170.895 170.895C171.255 172.245 171.615 173.55 171.975 174.81C172.365 173.49 172.74 172.14 173.1 170.76C173.49 169.38 173.85 168.03 174.18 166.71C174.54 165.36 174.87 164.07 175.17 162.84C175.5 161.58 175.785 160.41 176.025 159.33H180.885C181.125 160.41 181.395 161.58 181.695 162.84C181.995 164.07 182.31 165.36 182.64 166.71C182.97 168.03 183.315 169.38 183.675 170.76C184.035 172.14 184.41 173.49 184.8 174.81C185.16 173.55 185.52 172.245 185.88 170.895C186.24 169.515 186.57 168.15 186.87 166.8C187.2 165.45 187.5 164.145 187.77 162.885C188.07 161.595 188.34 160.41 188.58 159.33H195.555C194.895 161.67 194.205 163.995 193.485 166.305C192.795 168.585 192.105 170.76 191.415 172.83C190.755 174.87 190.095 176.76 189.435 178.5C188.805 180.24 188.22 181.74 187.68 183H182.46C181.71 180.72 180.975 178.455 180.255 176.205C179.535 173.955 178.875 171.69 178.275 169.41Z" fill="white"/>
<path d="M164.027 72H54V94.6667H164.027V72Z" fill="white" fill-opacity="0.9"/>
<path d="M164.027 117.333H54V140H164.027V117.333Z" fill="#D52B1E" fill-opacity="0.9"/>
<path d="M164.2 94.6667H54V117.333H164.2V94.6667Z" fill="#0039A6" fill-opacity="0.9"/>
</svg>
