<svg width="199" height="200" viewBox="0 0 199 200" fill="none" xmlns="http://www.w3.org/2000/svg">
<path d="M0 30C0 13.4315 13.4297 7.62939e-06 29.996 7.62939e-06H168.978C185.544 7.62939e-06 198.974 13.4315 198.974 30V170C198.974 186.569 185.544 200 168.978 200H29.9961C13.4297 200 0 186.569 0 170V30Z" fill="#833AA7"/>
<path d="M198.999 82C198.999 76.252 198.999 32 198.999 27C196.974 14.5 189.975 4 175.477 0.499998L63.7054 43.4741C55.415 47.1262 49.5198 56.7616 50.2723 65.4016C50.4724 67.6876 56.8191 127.251 57.7825 136.617C58.3836 142.487 59.4447 148.659 63.0733 154.225C70.5122 165.572 85.6635 171.062 99.1115 167.239C114.085 163.018 124.191 151.212 124.935 137.206C125.273 131.091 124.863 124.17 124.408 118.929L198.999 82C198.974 83 198.999 85.5 198.999 85.5C198.999 88.5 198.974 88 198.974 90.5C198.974 104 198.999 107 198.974 102C198.978 99 199.005 94.0001 198.999 91C198.974 78.5 198.448 96.752 198.999 82ZM107.99 66.9953L98.6408 71.114L102.609 80.1234L93.259 84.2421L89.2913 75.2326L79.9417 79.3512L75.9739 70.3417L85.3235 66.2231L81.3557 57.2136L90.7053 53.095L94.6731 62.1045L104.023 57.9858L107.99 66.9953ZM140.631 90.2671C135.581 92.513 129.45 90.2762 127.314 85.3763C125.129 80.414 127.643 74.3899 132.824 72.1919C138.077 69.9616 143.812 72.1416 146.036 77.1918C148.227 82.2149 145.865 87.9409 140.631 90.2671ZM187.416 69.658C182.164 71.9923 176.252 69.8063 174.046 64.748C171.856 59.7249 174.192 53.9894 179.389 51.6792C184.494 49.4092 190.565 51.6093 192.738 56.4931C194.9 61.4026 192.466 67.4121 187.416 69.658Z" fill="white" fill-opacity="0.15"/>
<path d="M13.1483 48V14.16L19.8524 13.08V24.42C20.3023 24.27 20.8722 24.135 21.5622 24.015C22.2821 23.865 22.972 23.79 23.6319 23.79C25.5516 23.79 27.1414 24.06 28.4013 24.6C29.6911 25.11 30.711 25.845 31.4609 26.805C32.2408 27.765 32.7807 28.905 33.0806 30.225C33.4106 31.545 33.5756 33.015 33.5756 34.635V48H26.8715V35.445C26.8715 33.285 26.5865 31.755 26.0166 30.855C25.4766 29.955 24.4568 29.505 22.957 29.505C22.3571 29.505 21.7871 29.565 21.2472 29.685C20.7373 29.775 20.2723 29.88 19.8524 30V48H13.1483Z" fill="white"/>
<path d="M61.7809 36.12C61.7809 37.98 61.5109 39.69 60.971 41.25C60.4311 42.78 59.6512 44.1 58.6313 45.21C57.6114 46.29 56.3816 47.13 54.9418 47.73C53.532 48.33 51.9422 48.63 50.1724 48.63C48.4326 48.63 46.8428 48.33 45.403 47.73C43.9932 47.13 42.7784 46.29 41.7585 45.21C40.7387 44.1 39.9438 42.78 39.3738 41.25C38.8039 39.69 38.5189 37.98 38.5189 36.12C38.5189 34.26 38.8039 32.565 39.3738 31.035C39.9738 29.505 40.7836 28.2 41.8035 27.12C42.8534 26.04 44.0832 25.2 45.493 24.6C46.9328 24 48.4926 23.7 50.1724 23.7C51.8822 23.7 53.442 24 54.8518 24.6C56.2916 25.2 57.5214 26.04 58.5413 27.12C59.5612 28.2 60.3561 29.505 60.926 31.035C61.4959 32.565 61.7809 34.26 61.7809 36.12ZM54.9418 36.12C54.9418 34.05 54.5218 32.43 53.6819 31.26C52.8721 30.06 51.7022 29.46 50.1724 29.46C48.6426 29.46 47.4578 30.06 46.6179 31.26C45.778 32.43 45.358 34.05 45.358 36.12C45.358 38.19 45.778 39.84 46.6179 41.07C47.4578 42.27 48.6426 42.87 50.1724 42.87C51.7022 42.87 52.8721 42.27 53.6819 41.07C54.5218 39.84 54.9418 38.19 54.9418 36.12Z" fill="white"/>
<path d="M82.1372 35.985C82.1372 31.665 80.5474 29.505 77.3678 29.505C76.6779 29.505 75.988 29.595 75.2981 29.775C74.6382 29.955 74.0982 30.18 73.6783 30.45V42.645C74.0083 42.705 74.4282 42.765 74.9381 42.825C75.4481 42.855 76.003 42.87 76.6029 42.87C78.4327 42.87 79.8125 42.24 80.7424 40.98C81.6722 39.72 82.1372 38.055 82.1372 35.985ZM88.9763 36.165C88.9763 38.055 88.6913 39.765 88.1214 41.295C87.5815 42.825 86.7866 44.13 85.7367 45.21C84.6868 46.29 83.397 47.13 81.8672 47.73C80.3374 48.3 78.5976 48.585 76.6479 48.585C75.838 48.585 74.9831 48.54 74.0832 48.45C73.2134 48.39 72.3435 48.3 71.4736 48.18C70.6337 48.06 69.8238 47.925 69.0439 47.775C68.264 47.595 67.5741 47.415 66.9742 47.235V14.16L73.6783 13.08V24.87C74.4282 24.54 75.2081 24.285 76.018 24.105C76.8279 23.925 77.6978 23.835 78.6276 23.835C80.3074 23.835 81.7922 24.135 83.0821 24.735C84.3719 25.305 85.4517 26.13 86.3216 27.21C87.1915 28.29 87.8514 29.595 88.3014 31.125C88.7513 32.625 88.9763 34.305 88.9763 36.165Z" fill="white"/>
<path d="M109.292 35.985C109.292 31.665 107.702 29.505 104.522 29.505C103.833 29.505 103.143 29.595 102.453 29.775C101.793 29.955 101.253 30.18 100.833 30.45V42.645C101.163 42.705 101.583 42.765 102.093 42.825C102.603 42.855 103.158 42.87 103.758 42.87C105.587 42.87 106.967 42.24 107.897 40.98C108.827 39.72 109.292 38.055 109.292 35.985ZM116.131 36.165C116.131 38.055 115.846 39.765 115.276 41.295C114.736 42.825 113.941 44.13 112.891 45.21C111.841 46.29 110.552 47.13 109.022 47.73C107.492 48.3 105.752 48.585 103.803 48.585C102.993 48.585 102.138 48.54 101.238 48.45C100.368 48.39 99.4981 48.3 98.6282 48.18C97.7883 48.06 96.9784 47.925 96.1985 47.775C95.4186 47.595 94.7287 47.415 94.1288 47.235V14.16L100.833 13.08V24.87C101.583 24.54 102.363 24.285 103.173 24.105C103.982 23.925 104.852 23.835 105.782 23.835C107.462 23.835 108.947 24.135 110.237 24.735C111.527 25.305 112.606 26.13 113.476 27.21C114.346 28.29 115.006 29.595 115.456 31.125C115.906 32.625 116.131 34.305 116.131 36.165Z" fill="white"/>
<path d="M127.988 48H121.283V24.33H127.988V48ZM128.617 17.49C128.617 18.72 128.213 19.695 127.403 20.415C126.623 21.105 125.693 21.45 124.613 21.45C123.533 21.45 122.588 21.105 121.778 20.415C120.998 19.695 120.609 18.72 120.609 17.49C120.609 16.26 120.998 15.3 121.778 14.61C122.588 13.89 123.533 13.53 124.613 13.53C125.693 13.53 126.623 13.89 127.403 14.61C128.213 15.3 128.617 16.26 128.617 17.49Z" fill="white"/>
<path d="M133.165 36.345C133.165 34.245 133.48 32.415 134.11 30.855C134.769 29.265 135.624 27.945 136.674 26.895C137.724 25.845 138.924 25.05 140.274 24.51C141.654 23.97 143.063 23.7 144.503 23.7C147.863 23.7 150.517 24.735 152.467 26.805C154.417 28.845 155.392 31.86 155.392 35.85C155.392 36.24 155.377 36.675 155.347 37.155C155.317 37.605 155.287 38.01 155.257 38.37H140.049C140.199 39.75 140.844 40.845 141.984 41.655C143.123 42.465 144.653 42.87 146.573 42.87C147.803 42.87 149.003 42.765 150.172 42.555C151.372 42.315 152.347 42.03 153.097 41.7L153.997 47.145C153.637 47.325 153.157 47.505 152.557 47.685C151.957 47.865 151.282 48.015 150.532 48.135C149.812 48.285 149.033 48.405 148.193 48.495C147.353 48.585 146.513 48.63 145.673 48.63C143.543 48.63 141.684 48.315 140.094 47.685C138.534 47.055 137.229 46.2 136.179 45.12C135.159 44.01 134.394 42.705 133.885 41.205C133.405 39.705 133.165 38.085 133.165 36.345ZM148.913 33.78C148.883 33.21 148.778 32.655 148.598 32.115C148.448 31.575 148.193 31.095 147.833 30.675C147.503 30.255 147.068 29.91 146.528 29.64C146.018 29.37 145.373 29.235 144.593 29.235C143.843 29.235 143.198 29.37 142.658 29.64C142.118 29.88 141.669 30.21 141.309 30.63C140.949 31.05 140.664 31.545 140.454 32.115C140.274 32.655 140.139 33.21 140.049 33.78H148.913Z" fill="white"/>
<path d="M167.359 43.185C168.589 43.185 169.459 43.065 169.969 42.825C170.479 42.585 170.734 42.12 170.734 41.43C170.734 40.89 170.404 40.425 169.744 40.035C169.084 39.615 168.079 39.15 166.73 38.64C165.68 38.25 164.72 37.845 163.85 37.425C163.01 37.005 162.29 36.51 161.69 35.94C161.09 35.34 160.625 34.635 160.295 33.825C159.965 33.015 159.8 32.04 159.8 30.9C159.8 28.68 160.625 26.925 162.275 25.635C163.925 24.345 166.19 23.7 169.069 23.7C170.509 23.7 171.889 23.835 173.209 24.105C174.529 24.345 175.578 24.615 176.358 24.915L175.188 30.135C174.409 29.865 173.554 29.625 172.624 29.415C171.724 29.205 170.704 29.1 169.564 29.1C167.464 29.1 166.415 29.685 166.415 30.855C166.415 31.125 166.46 31.365 166.55 31.575C166.64 31.785 166.82 31.995 167.089 32.205C167.359 32.385 167.719 32.595 168.169 32.835C168.649 33.045 169.249 33.285 169.969 33.555C171.439 34.095 172.654 34.635 173.614 35.175C174.574 35.685 175.323 36.255 175.863 36.885C176.433 37.485 176.823 38.16 177.033 38.91C177.273 39.66 177.393 40.53 177.393 41.52C177.393 43.86 176.508 45.63 174.738 46.83C172.999 48.03 170.524 48.63 167.314 48.63C165.215 48.63 163.46 48.45 162.05 48.09C160.67 47.73 159.71 47.43 159.171 47.19L160.295 41.745C161.435 42.195 162.605 42.555 163.805 42.825C165.005 43.065 166.19 43.185 167.359 43.185Z" fill="white"/>
<path d="M12.5583 67.824H17.5497V90H12.5583V67.824Z" fill="white"/>
<path d="M36.7677 90.32C35.3812 90.2987 34.2507 90.1493 33.3761 89.872C32.5229 89.5947 31.8403 89.2107 31.3284 88.72C30.8378 88.208 30.4965 87.6 30.3045 86.896C30.1339 86.1707 30.0485 85.36 30.0485 84.464V65.936L34.8159 65.168V83.504C34.8159 83.9307 34.8479 84.3147 34.9119 84.656C34.9759 84.9973 35.0932 85.2853 35.2639 85.52C35.4558 85.7547 35.7225 85.9467 36.0637 86.096C36.405 86.2453 36.8636 86.3413 37.4396 86.384L36.7677 90.32Z" fill="white"/>
<path d="M44.9396 90H40.1722V73.168H44.9396V90ZM45.3875 68.304C45.3875 69.1787 45.0996 69.872 44.5236 70.384C43.969 70.8747 43.3078 71.12 42.5399 71.12C41.772 71.12 41.1001 70.8747 40.5242 70.384C39.9696 69.872 39.6923 69.1787 39.6923 68.304C39.6923 67.4293 39.9696 66.7467 40.5242 66.256C41.1001 65.744 41.772 65.488 42.5399 65.488C43.3078 65.488 43.969 65.744 44.5236 66.256C45.0996 66.7467 45.3875 67.4293 45.3875 68.304Z" fill="white"/>
<path d="M54.1884 79.248C54.6576 78.736 55.1376 78.2027 55.6282 77.648C56.1401 77.0933 56.6307 76.5493 57.1 76.016C57.5692 75.4613 58.0065 74.9387 58.4118 74.448C58.8384 73.9573 59.201 73.5307 59.4997 73.168H65.1629C64.0324 74.4693 62.9232 75.7173 61.8353 76.912C60.7688 78.0853 59.5956 79.3013 58.3158 80.56C58.9557 81.136 59.617 81.8293 60.2996 82.64C60.9821 83.4293 61.6434 84.2507 62.2833 85.104C62.9232 85.9573 63.5098 86.8107 64.0431 87.664C64.5763 88.5173 65.0243 89.296 65.3869 90H59.9156C59.5743 89.4453 59.1797 88.8373 58.7318 88.176C58.3051 87.4933 57.8465 86.8213 57.3559 86.16C56.8653 85.4773 56.3427 84.8267 55.7881 84.208C55.2549 83.5893 54.7216 83.0667 54.1884 82.64V90H49.421V65.936L54.1884 65.168V79.248Z" fill="white"/>
<path d="M65.9938 81.712C65.9938 80.2187 66.2178 78.9173 66.6657 77.808C67.135 76.6773 67.7429 75.7387 68.4895 74.992C69.236 74.2453 70.0893 73.68 71.0491 73.296C72.0303 72.912 73.0329 72.72 74.0567 72.72C76.4458 72.72 78.3335 73.456 79.72 74.928C81.1065 76.3787 81.7997 78.5227 81.7997 81.36C81.7997 81.6373 81.7891 81.9467 81.7677 82.288C81.7464 82.608 81.7251 82.896 81.7037 83.152H70.8892C70.9958 84.1333 71.4544 84.912 72.265 85.488C73.0755 86.064 74.1634 86.352 75.5285 86.352C76.4031 86.352 77.2563 86.2773 78.0882 86.128C78.9414 85.9573 79.6347 85.7547 80.1679 85.52L80.8078 89.392C80.5519 89.52 80.2106 89.648 79.784 89.776C79.3574 89.904 78.8774 90.0107 78.3442 90.096C77.8322 90.2027 77.2776 90.288 76.6804 90.352C76.0831 90.416 75.4859 90.448 74.8886 90.448C73.3742 90.448 72.0517 90.224 70.9212 89.776C69.812 89.328 68.8841 88.72 68.1375 87.952C67.4123 87.1627 66.8684 86.2347 66.5057 85.168C66.1644 84.1013 65.9938 82.9493 65.9938 81.712ZM77.1923 79.888C77.171 79.4827 77.0963 79.088 76.9684 78.704C76.8617 78.32 76.6804 77.9787 76.4244 77.68C76.1898 77.3813 75.8805 77.136 75.4965 76.944C75.1339 76.752 74.6753 76.656 74.1207 76.656C73.5875 76.656 73.1289 76.752 72.7449 76.944C72.361 77.1147 72.041 77.3493 71.785 77.648C71.5291 77.9467 71.3264 78.2987 71.1771 78.704C71.0491 79.088 70.9531 79.4827 70.8892 79.888H77.1923Z" fill="white"/>
<path d="M90.1501 76.112C90.1501 77.072 89.8408 77.808 89.2222 78.32C88.625 78.8107 87.9424 79.056 87.1745 79.056C86.4066 79.056 85.7134 78.8107 85.0948 78.32C84.4975 77.808 84.1989 77.072 84.1989 76.112C84.1989 75.152 84.4975 74.4267 85.0948 73.936C85.7134 73.424 86.4066 73.168 87.1745 73.168C87.9424 73.168 88.625 73.424 89.2222 73.936C89.8408 74.4267 90.1501 75.152 90.1501 76.112ZM90.1501 87.472C90.1501 88.432 89.8408 89.168 89.2222 89.68C88.625 90.1707 87.9424 90.416 87.1745 90.416C86.4066 90.416 85.7134 90.1707 85.0948 89.68C84.4975 89.168 84.1989 88.432 84.1989 87.472C84.1989 86.512 84.4975 85.7867 85.0948 85.296C85.7134 84.784 86.4066 84.528 87.1745 84.528C87.9424 84.528 88.625 84.784 89.2222 85.296C89.8408 85.7867 90.1501 86.512 90.1501 87.472Z" fill="white"/>
<path d="M17.3099 110.234C17.3099 110.615 17.2439 110.975 17.1119 111.312C16.9799 111.649 16.7893 111.943 16.54 112.192C16.3053 112.441 16.012 112.647 15.6601 112.808C15.3228 112.955 14.9342 113.028 14.4942 113.028C14.0543 113.028 13.6583 112.955 13.3064 112.808C12.9691 112.647 12.6758 112.441 12.4265 112.192C12.1919 111.943 12.0085 111.649 11.8766 111.312C11.7446 110.975 11.6786 110.615 11.6786 110.234C11.6786 109.867 11.7446 109.515 11.8766 109.178C12.0085 108.826 12.1919 108.525 12.4265 108.276C12.6758 108.027 12.9691 107.829 13.3064 107.682C13.6583 107.521 14.0543 107.44 14.4942 107.44C14.9342 107.44 15.3228 107.521 15.6601 107.682C16.012 107.829 16.3053 108.027 16.54 108.276C16.7893 108.525 16.9799 108.826 17.1119 109.178C17.2439 109.515 17.3099 109.867 17.3099 110.234Z" fill="white"/>
<path d="M41.6865 106.56C41.1146 108.701 40.44 110.755 39.6628 112.72C38.9002 114.685 38.1596 116.445 37.4411 118H35.5933C34.8747 116.445 34.1268 114.685 33.3496 112.72C32.587 110.755 31.9198 108.701 31.3479 106.56H33.5476C33.7236 107.279 33.9289 108.049 34.1635 108.87C34.4128 109.677 34.6694 110.483 34.9334 111.29C35.212 112.082 35.4907 112.852 35.7693 113.6C36.0479 114.348 36.3119 115.015 36.5612 115.602C36.8105 115.015 37.0744 114.348 37.3531 113.6C37.6317 112.852 37.903 112.082 38.167 111.29C38.4456 110.483 38.7022 109.677 38.9369 108.87C39.1862 108.049 39.3988 107.279 39.5748 106.56H41.6865Z" fill="white"/>
<path d="M45.8429 118H43.7972V106.56H45.8429V118ZM44.8091 104.492C44.4424 104.492 44.1272 104.375 43.8632 104.14C43.6139 103.891 43.4892 103.561 43.4892 103.15C43.4892 102.739 43.6139 102.417 43.8632 102.182C44.1272 101.933 44.4424 101.808 44.8091 101.808C45.1757 101.808 45.4836 101.933 45.7329 102.182C45.9969 102.417 46.1289 102.739 46.1289 103.15C46.1289 103.561 45.9969 103.891 45.7329 104.14C45.4836 104.375 45.1757 104.492 44.8091 104.492Z" fill="white"/>
<path d="M56.7519 108.98C56.5026 108.775 56.1434 108.577 55.6741 108.386C55.2048 108.195 54.6915 108.1 54.1343 108.1C53.5477 108.1 53.0418 108.21 52.6165 108.43C52.2059 108.635 51.8686 108.929 51.6046 109.31C51.3407 109.677 51.15 110.117 51.0327 110.63C50.9154 111.143 50.8567 111.693 50.8567 112.28C50.8567 113.615 51.1867 114.649 51.8466 115.382C52.5065 116.101 53.3864 116.46 54.4862 116.46C55.0435 116.46 55.5054 116.438 55.8721 116.394C56.2533 116.335 56.5466 116.277 56.7519 116.218V108.98ZM56.7519 101.28L58.7977 100.928V117.67C58.3284 117.802 57.7271 117.934 56.9939 118.066C56.2607 118.198 55.4174 118.264 54.4642 118.264C53.5844 118.264 52.7925 118.125 52.0886 117.846C51.3846 117.567 50.7834 117.171 50.2848 116.658C49.7862 116.145 49.3976 115.521 49.1189 114.788C48.855 114.04 48.723 113.204 48.723 112.28C48.723 111.4 48.833 110.593 49.053 109.86C49.2876 109.127 49.6249 108.496 50.0648 107.968C50.5048 107.44 51.04 107.029 51.6706 106.736C52.3159 106.443 53.0491 106.296 53.8703 106.296C54.5302 106.296 55.1095 106.384 55.6081 106.56C56.1214 106.736 56.5026 106.905 56.7519 107.066V101.28Z" fill="white"/>
<path d="M61.6764 112.302C61.6764 111.29 61.823 110.41 62.1163 109.662C62.4096 108.899 62.7982 108.269 63.2822 107.77C63.7661 107.271 64.3234 106.897 64.9539 106.648C65.5845 106.399 66.2298 106.274 66.8897 106.274C68.4295 106.274 69.61 106.758 70.4312 107.726C71.2524 108.679 71.6631 110.139 71.6631 112.104C71.6631 112.192 71.6631 112.309 71.6631 112.456C71.6631 112.588 71.6557 112.713 71.6411 112.83H63.8101C63.8981 114.018 64.2427 114.92 64.844 115.536C65.4452 116.152 66.3837 116.46 67.6596 116.46C68.3782 116.46 68.9794 116.401 69.4633 116.284C69.9619 116.152 70.3359 116.027 70.5852 115.91L70.8712 117.626C70.6219 117.758 70.1819 117.897 69.5513 118.044C68.9354 118.191 68.2315 118.264 67.4396 118.264C66.4424 118.264 65.5772 118.117 64.844 117.824C64.1254 117.516 63.5315 117.098 63.0622 116.57C62.5929 116.042 62.241 115.419 62.0063 114.7C61.7864 113.967 61.6764 113.167 61.6764 112.302ZM69.5293 111.18C69.544 110.256 69.3094 109.501 68.8254 108.914C68.3562 108.313 67.7036 108.012 66.8677 108.012C66.3984 108.012 65.9805 108.107 65.6138 108.298C65.2619 108.474 64.9613 108.709 64.712 109.002C64.4627 109.295 64.2647 109.633 64.118 110.014C63.9861 110.395 63.8981 110.784 63.8541 111.18H69.5293Z" fill="white"/>
<path d="M84.6984 112.28C84.6984 113.189 84.5664 114.011 84.3024 114.744C84.0385 115.477 83.6645 116.108 83.1806 116.636C82.7113 117.164 82.1467 117.575 81.4868 117.868C80.8269 118.147 80.1083 118.286 79.3311 118.286C78.5539 118.286 77.8353 118.147 77.1754 117.868C76.5155 117.575 75.9436 117.164 75.4596 116.636C74.9903 116.108 74.6237 115.477 74.3598 114.744C74.0958 114.011 73.9638 113.189 73.9638 112.28C73.9638 111.385 74.0958 110.571 74.3598 109.838C74.6237 109.09 74.9903 108.452 75.4596 107.924C75.9436 107.396 76.5155 106.993 77.1754 106.714C77.8353 106.421 78.5539 106.274 79.3311 106.274C80.1083 106.274 80.8269 106.421 81.4868 106.714C82.1467 106.993 82.7113 107.396 83.1806 107.924C83.6645 108.452 84.0385 109.09 84.3024 109.838C84.5664 110.571 84.6984 111.385 84.6984 112.28ZM82.5647 112.28C82.5647 110.989 82.2714 109.97 81.6848 109.222C81.1129 108.459 80.3283 108.078 79.3311 108.078C78.3339 108.078 77.542 108.459 76.9554 109.222C76.3835 109.97 76.0975 110.989 76.0975 112.28C76.0975 113.571 76.3835 114.597 76.9554 115.36C77.542 116.108 78.3339 116.482 79.3311 116.482C80.3283 116.482 81.1129 116.108 81.6848 115.36C82.2714 114.597 82.5647 113.571 82.5647 112.28Z" fill="white"/>
<path d="M99.8388 116.856C99.6628 116.973 99.3182 117.127 98.8049 117.318C98.3063 117.494 97.7197 117.582 97.0451 117.582C96.3559 117.582 95.7033 117.472 95.0874 117.252C94.4861 117.032 93.9582 116.695 93.5036 116.24C93.049 115.771 92.6897 115.191 92.4257 114.502C92.1618 113.813 92.0298 112.991 92.0298 112.038C92.0298 111.202 92.1544 110.439 92.4037 109.75C92.653 109.046 93.0123 108.445 93.4816 107.946C93.9655 107.433 94.5521 107.037 95.2414 106.758C95.9306 106.465 96.7078 106.318 97.5731 106.318C98.5263 106.318 99.3548 106.391 100.059 106.538C100.777 106.67 101.379 106.795 101.862 106.912V117.12C101.862 118.88 101.408 120.156 100.499 120.948C99.5895 121.74 98.211 122.136 96.3632 122.136C95.6446 122.136 94.9627 122.077 94.3175 121.96C93.6869 121.843 93.137 121.703 92.6677 121.542L93.0417 119.76C93.4523 119.921 93.9509 120.061 94.5375 120.178C95.1387 120.31 95.762 120.376 96.4072 120.376C97.6244 120.376 98.4969 120.134 99.0249 119.65C99.5675 119.166 99.8388 118.396 99.8388 117.34V116.856ZM99.8168 108.364C99.6115 108.305 99.3328 108.254 98.9809 108.21C98.6436 108.151 98.1816 108.122 97.5951 108.122C96.4952 108.122 95.6446 108.481 95.0434 109.2C94.4568 109.919 94.1635 110.872 94.1635 112.06C94.1635 112.72 94.2442 113.285 94.4055 113.754C94.5815 114.223 94.8088 114.612 95.0874 114.92C95.3807 115.228 95.7106 115.455 96.0773 115.602C96.4585 115.749 96.8471 115.822 97.2431 115.822C97.7857 115.822 98.2843 115.749 98.7389 115.602C99.1935 115.441 99.5528 115.257 99.8168 115.052V108.364Z" fill="white"/>
<path d="M109.256 116.526C109.74 116.526 110.165 116.519 110.532 116.504C110.913 116.475 111.229 116.431 111.478 116.372V112.962C111.331 112.889 111.089 112.83 110.752 112.786C110.429 112.727 110.033 112.698 109.564 112.698C109.256 112.698 108.926 112.72 108.574 112.764C108.237 112.808 107.922 112.903 107.628 113.05C107.35 113.182 107.115 113.373 106.925 113.622C106.734 113.857 106.639 114.172 106.639 114.568C106.639 115.301 106.873 115.815 107.343 116.108C107.812 116.387 108.45 116.526 109.256 116.526ZM109.08 106.274C109.902 106.274 110.591 106.384 111.148 106.604C111.72 106.809 112.175 107.11 112.512 107.506C112.864 107.887 113.113 108.349 113.26 108.892C113.406 109.42 113.48 110.007 113.48 110.652V117.802C113.304 117.831 113.054 117.875 112.732 117.934C112.424 117.978 112.072 118.022 111.676 118.066C111.28 118.11 110.847 118.147 110.378 118.176C109.924 118.22 109.469 118.242 109.014 118.242C108.369 118.242 107.775 118.176 107.233 118.044C106.69 117.912 106.221 117.707 105.825 117.428C105.429 117.135 105.121 116.753 104.901 116.284C104.681 115.815 104.571 115.25 104.571 114.59C104.571 113.959 104.696 113.417 104.945 112.962C105.209 112.507 105.561 112.141 106.001 111.862C106.441 111.583 106.954 111.378 107.54 111.246C108.127 111.114 108.743 111.048 109.388 111.048C109.594 111.048 109.806 111.063 110.026 111.092C110.246 111.107 110.451 111.136 110.642 111.18C110.847 111.209 111.023 111.239 111.17 111.268C111.317 111.297 111.419 111.319 111.478 111.334V110.762C111.478 110.425 111.441 110.095 111.368 109.772C111.295 109.435 111.163 109.141 110.972 108.892C110.781 108.628 110.517 108.423 110.18 108.276C109.858 108.115 109.432 108.034 108.904 108.034C108.23 108.034 107.636 108.085 107.123 108.188C106.624 108.276 106.25 108.371 106.001 108.474L105.759 106.78C106.023 106.663 106.463 106.553 107.079 106.45C107.694 106.333 108.362 106.274 109.08 106.274Z" fill="white"/>
<path d="M116.877 106.89C117.347 106.773 117.963 106.648 118.725 106.516C119.502 106.384 120.397 106.318 121.409 106.318C122.142 106.318 122.758 106.421 123.257 106.626C123.755 106.817 124.173 107.103 124.51 107.484C124.613 107.411 124.774 107.308 124.994 107.176C125.214 107.044 125.486 106.919 125.808 106.802C126.131 106.67 126.49 106.56 126.886 106.472C127.282 106.369 127.707 106.318 128.162 106.318C129.042 106.318 129.76 106.45 130.318 106.714C130.875 106.963 131.307 107.323 131.615 107.792C131.938 108.261 132.151 108.819 132.253 109.464C132.371 110.109 132.429 110.813 132.429 111.576V118H130.384V112.016C130.384 111.341 130.347 110.762 130.274 110.278C130.215 109.794 130.09 109.391 129.9 109.068C129.724 108.745 129.474 108.511 129.152 108.364C128.844 108.203 128.441 108.122 127.942 108.122C127.253 108.122 126.681 108.217 126.226 108.408C125.786 108.584 125.486 108.745 125.324 108.892C125.442 109.273 125.53 109.691 125.588 110.146C125.647 110.601 125.676 111.077 125.676 111.576V118H123.631V112.016C123.631 111.341 123.594 110.762 123.521 110.278C123.447 109.794 123.315 109.391 123.125 109.068C122.949 108.745 122.699 108.511 122.377 108.364C122.069 108.203 121.673 108.122 121.189 108.122C120.984 108.122 120.764 108.129 120.529 108.144C120.294 108.159 120.067 108.181 119.847 108.21C119.642 108.225 119.451 108.247 119.275 108.276C119.099 108.305 118.982 108.327 118.923 108.342V118H116.877V106.89Z" fill="white"/>
<path d="M135.186 112.302C135.186 111.29 135.333 110.41 135.626 109.662C135.919 108.899 136.308 108.269 136.792 107.77C137.276 107.271 137.833 106.897 138.464 106.648C139.094 106.399 139.74 106.274 140.4 106.274C141.939 106.274 143.12 106.758 143.941 107.726C144.762 108.679 145.173 110.139 145.173 112.104C145.173 112.192 145.173 112.309 145.173 112.456C145.173 112.588 145.166 112.713 145.151 112.83H137.32C137.408 114.018 137.753 114.92 138.354 115.536C138.955 116.152 139.894 116.46 141.169 116.46C141.888 116.46 142.489 116.401 142.973 116.284C143.472 116.152 143.846 116.027 144.095 115.91L144.381 117.626C144.132 117.758 143.692 117.897 143.061 118.044C142.445 118.191 141.741 118.264 140.949 118.264C139.952 118.264 139.087 118.117 138.354 117.824C137.635 117.516 137.041 117.098 136.572 116.57C136.103 116.042 135.751 115.419 135.516 114.7C135.296 113.967 135.186 113.167 135.186 112.302ZM143.039 111.18C143.054 110.256 142.819 109.501 142.335 108.914C141.866 108.313 141.213 108.012 140.378 108.012C139.908 108.012 139.49 108.107 139.124 108.298C138.772 108.474 138.471 108.709 138.222 109.002C137.973 109.295 137.775 109.633 137.628 110.014C137.496 110.395 137.408 110.784 137.364 111.18H143.039Z" fill="white"/>
<path d="M150.773 116.526C151.609 116.526 152.225 116.416 152.621 116.196C153.032 115.976 153.237 115.624 153.237 115.14C153.237 114.641 153.039 114.245 152.643 113.952C152.247 113.659 151.594 113.329 150.685 112.962C150.245 112.786 149.82 112.61 149.409 112.434C149.013 112.243 148.669 112.023 148.376 111.774C148.082 111.525 147.848 111.224 147.672 110.872C147.496 110.52 147.408 110.087 147.408 109.574C147.408 108.562 147.782 107.763 148.53 107.176C149.277 106.575 150.297 106.274 151.587 106.274C151.91 106.274 152.232 106.296 152.555 106.34C152.878 106.369 153.178 106.413 153.457 106.472C153.735 106.516 153.977 106.567 154.183 106.626C154.403 106.685 154.571 106.736 154.689 106.78L154.315 108.54C154.095 108.423 153.75 108.305 153.281 108.188C152.812 108.056 152.247 107.99 151.587 107.99C151.015 107.99 150.517 108.107 150.091 108.342C149.666 108.562 149.453 108.914 149.453 109.398C149.453 109.647 149.497 109.867 149.585 110.058C149.688 110.249 149.835 110.425 150.025 110.586C150.231 110.733 150.48 110.872 150.773 111.004C151.067 111.136 151.418 111.275 151.829 111.422C152.372 111.627 152.856 111.833 153.281 112.038C153.706 112.229 154.065 112.456 154.359 112.72C154.667 112.984 154.901 113.307 155.063 113.688C155.224 114.055 155.305 114.509 155.305 115.052C155.305 116.108 154.909 116.907 154.117 117.45C153.34 117.993 152.225 118.264 150.773 118.264C149.761 118.264 148.969 118.176 148.398 118C147.826 117.839 147.437 117.714 147.232 117.626L147.606 115.866C147.84 115.954 148.214 116.086 148.727 116.262C149.241 116.438 149.923 116.526 150.773 116.526Z" fill="white"/>
<path d="M17.3099 137.234C17.3099 137.615 17.2439 137.975 17.1119 138.312C16.9799 138.649 16.7893 138.943 16.54 139.192C16.3053 139.441 16.012 139.647 15.6601 139.808C15.3228 139.955 14.9342 140.028 14.4942 140.028C14.0543 140.028 13.6583 139.955 13.3064 139.808C12.9691 139.647 12.6758 139.441 12.4265 139.192C12.1919 138.943 12.0085 138.649 11.8766 138.312C11.7446 137.975 11.6786 137.615 11.6786 137.234C11.6786 136.867 11.7446 136.515 11.8766 136.178C12.0085 135.826 12.1919 135.525 12.4265 135.276C12.6758 135.027 12.9691 134.829 13.3064 134.682C13.6583 134.521 14.0543 134.44 14.4942 134.44C14.9342 134.44 15.3228 134.521 15.6601 134.682C16.012 134.829 16.3053 135.027 16.54 135.276C16.7893 135.525 16.9799 135.826 17.1119 136.178C17.2439 136.515 17.3099 136.867 17.3099 137.234Z" fill="white"/>
<path d="M40.1467 135.98C39.8974 135.775 39.5381 135.577 39.0688 135.386C38.5996 135.195 38.0863 135.1 37.5291 135.1C36.9425 135.1 36.4365 135.21 36.0113 135.43C35.6006 135.635 35.2634 135.929 34.9994 136.31C34.7354 136.677 34.5448 137.117 34.4275 137.63C34.3101 138.143 34.2515 138.693 34.2515 139.28C34.2515 140.615 34.5814 141.649 35.2414 142.382C35.9013 143.101 36.7812 143.46 37.881 143.46C38.4383 143.46 38.9002 143.438 39.2668 143.394C39.6481 143.335 39.9414 143.277 40.1467 143.218V135.98ZM40.1467 128.28L42.1924 127.928V144.67C41.7232 144.802 41.1219 144.934 40.3887 145.066C39.6554 145.198 38.8122 145.264 37.859 145.264C36.9791 145.264 36.1872 145.125 35.4833 144.846C34.7794 144.567 34.1782 144.171 33.6796 143.658C33.181 143.145 32.7923 142.521 32.5137 141.788C32.2497 141.04 32.1178 140.204 32.1178 139.28C32.1178 138.4 32.2278 137.593 32.4477 136.86C32.6824 136.127 33.0196 135.496 33.4596 134.968C33.8995 134.44 34.4348 134.029 35.0654 133.736C35.7106 133.443 36.4439 133.296 37.2651 133.296C37.925 133.296 38.5043 133.384 39.0029 133.56C39.5161 133.736 39.8974 133.905 40.1467 134.066V128.28Z" fill="white"/>
<path d="M45.0711 139.302C45.0711 138.29 45.2178 137.41 45.5111 136.662C45.8044 135.899 46.193 135.269 46.6769 134.77C47.1609 134.271 47.7181 133.897 48.3487 133.648C48.9793 133.399 49.6245 133.274 50.2844 133.274C51.8242 133.274 53.0048 133.758 53.826 134.726C54.6472 135.679 55.0578 137.139 55.0578 139.104C55.0578 139.192 55.0578 139.309 55.0578 139.456C55.0578 139.588 55.0505 139.713 55.0358 139.83H47.2049C47.2928 141.018 47.6375 141.92 48.2387 142.536C48.84 143.152 49.7785 143.46 51.0543 143.46C51.7729 143.46 52.3742 143.401 52.8581 143.284C53.3567 143.152 53.7307 143.027 53.98 142.91L54.2659 144.626C54.0166 144.758 53.5767 144.897 52.9461 145.044C52.3302 145.191 51.6263 145.264 50.8344 145.264C49.8372 145.264 48.972 145.117 48.2387 144.824C47.5201 144.516 46.9262 144.098 46.457 143.57C45.9877 143.042 45.6357 142.419 45.4011 141.7C45.1811 140.967 45.0711 140.167 45.0711 139.302ZM52.9241 138.18C52.9388 137.256 52.7041 136.501 52.2202 135.914C51.7509 135.313 51.0983 135.012 50.2624 135.012C49.7932 135.012 49.3752 135.107 49.0086 135.298C48.6567 135.474 48.356 135.709 48.1067 136.002C47.8574 136.295 47.6595 136.633 47.5128 137.014C47.3808 137.395 47.2928 137.784 47.2488 138.18H52.9241Z" fill="white"/>
<path d="M60.6581 143.526C61.494 143.526 62.11 143.416 62.5059 143.196C62.9165 142.976 63.1218 142.624 63.1218 142.14C63.1218 141.641 62.9238 141.245 62.5279 140.952C62.1319 140.659 61.4794 140.329 60.5702 139.962C60.1302 139.786 59.7049 139.61 59.2943 139.434C58.8984 139.243 58.5538 139.023 58.2605 138.774C57.9672 138.525 57.7325 138.224 57.5566 137.872C57.3806 137.52 57.2926 137.087 57.2926 136.574C57.2926 135.562 57.6665 134.763 58.4144 134.176C59.1623 133.575 60.1815 133.274 61.472 133.274C61.7947 133.274 62.1173 133.296 62.4399 133.34C62.7625 133.369 63.0632 133.413 63.3418 133.472C63.6204 133.516 63.8624 133.567 64.0677 133.626C64.2877 133.685 64.4563 133.736 64.5736 133.78L64.1997 135.54C63.9797 135.423 63.6351 135.305 63.1658 135.188C62.6965 135.056 62.1319 134.99 61.472 134.99C60.9001 134.99 60.4015 135.107 59.9762 135.342C59.551 135.562 59.3383 135.914 59.3383 136.398C59.3383 136.647 59.3823 136.867 59.4703 137.058C59.573 137.249 59.7196 137.425 59.9102 137.586C60.1155 137.733 60.3648 137.872 60.6581 138.004C60.9514 138.136 61.3034 138.275 61.714 138.422C62.2566 138.627 62.7405 138.833 63.1658 139.038C63.5911 139.229 63.9504 139.456 64.2437 139.72C64.5516 139.984 64.7863 140.307 64.9476 140.688C65.1089 141.055 65.1895 141.509 65.1895 142.052C65.1895 143.108 64.7936 143.907 64.0017 144.45C63.2245 144.993 62.11 145.264 60.6581 145.264C59.6463 145.264 58.8544 145.176 58.2825 145C57.7105 144.839 57.3219 144.714 57.1166 144.626L57.4906 142.866C57.7252 142.954 58.0991 143.086 58.6124 143.262C59.1257 143.438 59.8076 143.526 60.6581 143.526Z" fill="white"/>
<path d="M69.8593 145H67.8136V133.56H69.8593V145ZM68.8254 131.492C68.4588 131.492 68.1435 131.375 67.8795 131.14C67.6302 130.891 67.5056 130.561 67.5056 130.15C67.5056 129.739 67.6302 129.417 67.8795 129.182C68.1435 128.933 68.4588 128.808 68.8254 128.808C69.192 128.808 69.5 128.933 69.7493 129.182C70.0133 129.417 70.1453 129.739 70.1453 130.15C70.1453 130.561 70.0133 130.891 69.7493 131.14C69.5 131.375 69.192 131.492 68.8254 131.492Z" fill="white"/>
<path d="M80.5483 143.856C80.3724 143.973 80.0277 144.127 79.5145 144.318C79.0159 144.494 78.4293 144.582 77.7547 144.582C77.0655 144.582 76.4129 144.472 75.797 144.252C75.1957 144.032 74.6678 143.695 74.2132 143.24C73.7586 142.771 73.3993 142.191 73.1353 141.502C72.8713 140.813 72.7394 139.991 72.7394 139.038C72.7394 138.202 72.864 137.439 73.1133 136.75C73.3626 136.046 73.7219 135.445 74.1912 134.946C74.6751 134.433 75.2617 134.037 75.9509 133.758C76.6402 133.465 77.4174 133.318 78.2826 133.318C79.2358 133.318 80.0644 133.391 80.7683 133.538C81.4869 133.67 82.0881 133.795 82.5721 133.912V144.12C82.5721 145.88 82.1175 147.156 81.2082 147.948C80.299 148.74 78.9205 149.136 77.0728 149.136C76.3542 149.136 75.6723 149.077 75.0271 148.96C74.3965 148.843 73.8466 148.703 73.3773 148.542L73.7512 146.76C74.1618 146.921 74.6604 147.061 75.247 147.178C75.8483 147.31 76.4715 147.376 77.1168 147.376C78.334 147.376 79.2065 147.134 79.7344 146.65C80.277 146.166 80.5483 145.396 80.5483 144.34V143.856ZM80.5263 135.364C80.321 135.305 80.0424 135.254 79.6904 135.21C79.3532 135.151 78.8912 135.122 78.3046 135.122C77.2048 135.122 76.3542 135.481 75.753 136.2C75.1664 136.919 74.8731 137.872 74.8731 139.06C74.8731 139.72 74.9537 140.285 75.115 140.754C75.291 141.223 75.5183 141.612 75.797 141.92C76.0903 142.228 76.4202 142.455 76.7868 142.602C77.1681 142.749 77.5567 142.822 77.9527 142.822C78.4953 142.822 78.9939 142.749 79.4485 142.602C79.9031 142.441 80.2624 142.257 80.5263 142.052V135.364Z" fill="white"/>
<path d="M86.0944 133.89C86.5636 133.773 87.1869 133.648 87.9641 133.516C88.7413 133.384 89.6359 133.318 90.6478 133.318C91.557 133.318 92.3122 133.45 92.9135 133.714C93.5147 133.963 93.9913 134.323 94.3433 134.792C94.7099 135.247 94.9665 135.797 95.1132 136.442C95.2598 137.087 95.3331 137.799 95.3331 138.576V145H93.2874V139.016C93.2874 138.312 93.2361 137.711 93.1334 137.212C93.0454 136.713 92.8915 136.31 92.6715 136.002C92.4515 135.694 92.1582 135.474 91.7916 135.342C91.425 135.195 90.9704 135.122 90.4278 135.122C90.2078 135.122 89.9805 135.129 89.7459 135.144C89.5112 135.159 89.2839 135.181 89.064 135.21C88.8587 135.225 88.668 135.247 88.492 135.276C88.3307 135.305 88.2134 135.327 88.1401 135.342V145H86.0944V133.89Z" fill="white"/>
<path d="M17.3099 164.234C17.3099 164.615 17.2439 164.975 17.1119 165.312C16.9799 165.649 16.7893 165.943 16.54 166.192C16.3053 166.441 16.012 166.647 15.6601 166.808C15.3228 166.955 14.9342 167.028 14.4942 167.028C14.0543 167.028 13.6583 166.955 13.3064 166.808C12.9691 166.647 12.6758 166.441 12.4265 166.192C12.1919 165.943 12.0085 165.649 11.8766 165.312C11.7446 164.975 11.6786 164.615 11.6786 164.234C11.6786 163.867 11.7446 163.515 11.8766 163.178C12.0085 162.826 12.1919 162.525 12.4265 162.276C12.6758 162.027 12.9691 161.829 13.3064 161.682C13.6583 161.521 14.0543 161.44 14.4942 161.44C14.9342 161.44 15.3228 161.521 15.6601 161.682C16.012 161.829 16.3053 162.027 16.54 162.276C16.7893 162.525 16.9799 162.826 17.1119 163.178C17.2439 163.515 17.3099 163.867 17.3099 164.234Z" fill="white"/>
<path d="M34.8014 161.066C35.0507 160.905 35.4247 160.736 35.9233 160.56C36.4365 160.384 37.0231 160.296 37.683 160.296C38.5043 160.296 39.2302 160.443 39.8607 160.736C40.506 161.029 41.0486 161.44 41.4885 161.968C41.9285 162.496 42.2584 163.127 42.4784 163.86C42.713 164.593 42.8304 165.4 42.8304 166.28C42.8304 167.204 42.691 168.04 42.4124 168.788C42.1484 169.521 41.7672 170.145 41.2686 170.658C40.77 171.171 40.1687 171.567 39.4648 171.846C38.7609 172.125 37.969 172.264 37.0891 172.264C36.1359 172.264 35.2927 172.198 34.5594 172.066C33.8262 171.934 33.225 171.802 32.7557 171.67V155.28L34.8014 154.928V161.066ZM34.8014 170.218C35.0067 170.277 35.2927 170.335 35.6593 170.394C36.0406 170.438 36.5099 170.46 37.0671 170.46C38.167 170.46 39.0469 170.101 39.7068 169.382C40.3667 168.649 40.6966 167.615 40.6966 166.28C40.6966 165.693 40.638 165.143 40.5207 164.63C40.4033 164.117 40.2127 163.677 39.9487 163.31C39.6848 162.929 39.3401 162.635 38.9149 162.43C38.5043 162.21 38.0057 162.1 37.4191 162.1C36.8618 162.1 36.3485 162.195 35.8793 162.386C35.41 162.577 35.0507 162.775 34.8014 162.98V170.218Z" fill="white"/>
<path d="M55.8057 166.28C55.8057 167.189 55.6737 168.011 55.4098 168.744C55.1458 169.477 54.7719 170.108 54.2879 170.636C53.8186 171.164 53.2541 171.575 52.5941 171.868C51.9342 172.147 51.2157 172.286 50.4384 172.286C49.6612 172.286 48.9426 172.147 48.2827 171.868C47.6228 171.575 47.0509 171.164 46.5669 170.636C46.0977 170.108 45.731 169.477 45.4671 168.744C45.2031 168.011 45.0711 167.189 45.0711 166.28C45.0711 165.385 45.2031 164.571 45.4671 163.838C45.731 163.09 46.0977 162.452 46.5669 161.924C47.0509 161.396 47.6228 160.993 48.2827 160.714C48.9426 160.421 49.6612 160.274 50.4384 160.274C51.2157 160.274 51.9342 160.421 52.5941 160.714C53.2541 160.993 53.8186 161.396 54.2879 161.924C54.7719 162.452 55.1458 163.09 55.4098 163.838C55.6737 164.571 55.8057 165.385 55.8057 166.28ZM53.672 166.28C53.672 164.989 53.3787 163.97 52.7921 163.222C52.2202 162.459 51.4356 162.078 50.4384 162.078C49.4412 162.078 48.6493 162.459 48.0627 163.222C47.4908 163.97 47.2049 164.989 47.2049 166.28C47.2049 167.571 47.4908 168.597 48.0627 169.36C48.6493 170.108 49.4412 170.482 50.4384 170.482C51.4356 170.482 52.2202 170.108 52.7921 169.36C53.3787 168.597 53.672 167.571 53.672 166.28Z" fill="white"/>
<path d="M65.1598 172C64.9985 171.677 64.8005 171.318 64.5659 170.922C64.3313 170.526 64.0746 170.123 63.796 169.712C63.5174 169.287 63.2314 168.869 62.9381 168.458C62.6448 168.047 62.3588 167.659 62.0802 167.292C61.8016 167.659 61.5156 168.055 61.2223 168.48C60.929 168.891 60.6431 169.309 60.3644 169.734C60.1005 170.145 59.8512 170.548 59.6165 170.944C59.3819 171.34 59.1839 171.692 59.0226 172H56.9109C57.4242 171.003 58.0328 169.991 58.7367 168.964C59.4552 167.923 60.1665 166.933 60.8704 165.994L57.0869 160.56H59.3966L62.1242 164.564L64.8739 160.56H67.0516L63.3561 165.862C64.06 166.815 64.7785 167.827 65.5118 168.898C66.2597 169.954 66.8903 170.988 67.4035 172H65.1598Z" fill="white"/>
<path d="M71.5993 172H69.5536V160.56H71.5993V172ZM70.5654 158.492C70.1988 158.492 69.8835 158.375 69.6196 158.14C69.3703 157.891 69.2456 157.561 69.2456 157.15C69.2456 156.739 69.3703 156.417 69.6196 156.182C69.8835 155.933 70.1988 155.808 70.5654 155.808C70.9321 155.808 71.24 155.933 71.4893 156.182C71.7533 156.417 71.8853 156.739 71.8853 157.15C71.8853 157.561 71.7533 157.891 71.4893 158.14C71.24 158.375 70.9321 158.492 70.5654 158.492Z" fill="white"/>
<path d="M75.1173 160.89C75.5866 160.773 76.2098 160.648 76.987 160.516C77.7643 160.384 78.6588 160.318 79.6707 160.318C80.5799 160.318 81.3351 160.45 81.9364 160.714C82.5376 160.963 83.0142 161.323 83.3662 161.792C83.7328 162.247 83.9894 162.797 84.1361 163.442C84.2827 164.087 84.3561 164.799 84.3561 165.576V172H82.3103V166.016C82.3103 165.312 82.259 164.711 82.1564 164.212C82.0684 163.713 81.9144 163.31 81.6944 163.002C81.4744 162.694 81.1811 162.474 80.8145 162.342C80.4479 162.195 79.9933 162.122 79.4507 162.122C79.2307 162.122 79.0034 162.129 78.7688 162.144C78.5342 162.159 78.3069 162.181 78.0869 162.21C77.8816 162.225 77.6909 162.247 77.515 162.276C77.3537 162.305 77.2363 162.327 77.163 162.342V172H75.1173V160.89Z" fill="white"/>
<path d="M94.9195 170.856C94.7435 170.973 94.3989 171.127 93.8856 171.318C93.387 171.494 92.8004 171.582 92.1259 171.582C91.4366 171.582 90.784 171.472 90.1681 171.252C89.5669 171.032 89.0389 170.695 88.5843 170.24C88.1297 169.771 87.7704 169.191 87.5065 168.502C87.2425 167.813 87.1105 166.991 87.1105 166.038C87.1105 165.202 87.2352 164.439 87.4845 163.75C87.7338 163.046 88.093 162.445 88.5623 161.946C89.0463 161.433 89.6328 161.037 90.3221 160.758C91.0113 160.465 91.7886 160.318 92.6538 160.318C93.607 160.318 94.4355 160.391 95.1395 160.538C95.858 160.67 96.4593 160.795 96.9432 160.912V171.12C96.9432 172.88 96.4886 174.156 95.5794 174.948C94.6702 175.74 93.2917 176.136 91.4439 176.136C90.7254 176.136 90.0435 176.077 89.3982 175.96C88.7676 175.843 88.2177 175.703 87.7484 175.542L88.1224 173.76C88.533 173.921 89.0316 174.061 89.6182 174.178C90.2194 174.31 90.8427 174.376 91.4879 174.376C92.7051 174.376 93.5777 174.134 94.1056 173.65C94.6482 173.166 94.9195 172.396 94.9195 171.34V170.856ZM94.8975 162.364C94.6922 162.305 94.4135 162.254 94.0616 162.21C93.7243 162.151 93.2624 162.122 92.6758 162.122C91.5759 162.122 90.7254 162.481 90.1241 163.2C89.5375 163.919 89.2442 164.872 89.2442 166.06C89.2442 166.72 89.3249 167.285 89.4862 167.754C89.6622 168.223 89.8895 168.612 90.1681 168.92C90.4614 169.228 90.7914 169.455 91.158 169.602C91.5393 169.749 91.9279 169.822 92.3238 169.822C92.8664 169.822 93.365 169.749 93.8196 169.602C94.2742 169.441 94.6335 169.257 94.8975 169.052V162.364Z" fill="white"/>
<path d="M181.324 144.881C177.171 141.584 170.601 141.025 170.32 141.005C169.884 140.969 169.468 141.21 169.289 141.608C169.273 141.632 169.13 141.958 168.971 142.465C171.718 142.923 175.092 143.844 178.145 145.714C178.634 146.011 178.785 146.647 178.483 147.129C178.284 147.447 177.945 147.62 177.595 147.62C177.407 147.62 177.216 147.567 177.045 147.463C171.795 144.25 165.242 144.089 163.978 144.089C162.715 144.089 156.157 144.25 150.912 147.463C150.423 147.764 149.779 147.616 149.478 147.133C149.172 146.647 149.323 146.015 149.812 145.714C152.864 143.848 156.239 142.923 158.986 142.469C158.827 141.958 158.684 141.636 158.672 141.608C158.489 141.21 158.077 140.961 157.637 141.005C157.356 141.025 150.786 141.584 146.576 144.926C144.379 146.932 139.982 158.657 139.982 168.794C139.982 168.975 140.03 169.148 140.12 169.305C143.152 174.565 151.43 175.94 153.317 176C153.325 176 153.337 176 153.349 176C153.684 176 153.997 175.843 154.193 175.578L156.1 172.988C150.953 171.677 148.324 169.45 148.173 169.317C147.741 168.943 147.701 168.292 148.084 167.865C148.463 167.439 149.123 167.399 149.555 167.773C149.616 167.829 154.458 171.882 163.978 171.882C173.515 171.882 178.357 167.813 178.406 167.773C178.838 167.403 179.494 167.439 179.877 167.87C180.256 168.296 180.215 168.943 179.783 169.317C179.633 169.45 177.004 171.677 171.856 172.988L173.764 175.578C173.959 175.843 174.273 176 174.607 176C174.62 176 174.632 176 174.64 176C176.527 175.94 184.804 174.565 187.837 169.305C187.926 169.148 187.975 168.975 187.975 168.794C187.975 158.657 183.578 146.932 181.324 144.881ZM157.197 164.677C155.179 164.677 153.545 162.835 153.545 160.559C153.545 158.283 155.179 156.442 157.197 156.442C159.214 156.442 160.848 158.283 160.848 160.559C160.848 162.835 159.214 164.677 157.197 164.677ZM170.76 164.677C168.743 164.677 167.108 162.835 167.108 160.559C167.108 158.283 168.743 156.442 170.76 156.442C172.777 156.442 174.412 158.283 174.412 160.559C174.412 162.835 172.777 164.677 170.76 164.677Z" fill="white"/>
</svg>
