<svg width="199" height="202" viewBox="0 0 199 202" fill="none" xmlns="http://www.w3.org/2000/svg">
<path d="M0 30.3C0 13.5658 13.4297 7.62939e-06 29.996 7.62939e-06H168.978C185.544 7.62939e-06 198.974 13.5658 198.974 30.3V171.7C198.974 188.434 185.544 202 168.978 202H29.9961C13.4297 202 0 188.434 0 171.7V30.3Z" fill="#833AA7"/>
<path d="M198.999 82.82C198.999 77.0145 198.999 32.32 198.999 27.27C196.974 14.645 189.975 4.04 175.477 0.504998L63.7054 43.9089C55.415 47.5975 49.5198 57.3293 50.2723 66.0556C50.4724 68.3645 56.8191 128.523 57.7825 137.983C58.3836 143.912 59.4447 150.146 63.0733 155.768C70.5122 167.227 85.6635 172.773 99.1115 168.912C114.085 164.648 124.191 152.724 124.935 138.578C125.273 132.402 124.863 125.412 124.408 120.118L198.999 82.82C198.974 83.83 198.999 86.355 198.999 86.355C198.999 89.385 198.974 88.88 198.974 91.405C198.974 105.04 198.999 108.07 198.974 103.02C198.978 99.99 199.005 94.9401 198.999 91.91C198.974 79.285 198.448 97.7195 198.999 82.82ZM107.99 67.6653L98.6408 71.8251L102.609 80.9247L93.259 85.0845L89.2913 75.9849L79.9417 80.1447L75.9739 71.0451L85.3235 66.8853L81.3557 57.7857L90.7053 53.6259L94.6731 62.7255L104.023 58.5657L107.99 67.6653ZM140.631 91.1698C135.581 93.4381 129.45 91.1789 127.314 86.23C125.129 81.2182 127.643 75.1338 132.824 72.9138C138.077 70.6612 143.812 72.863 146.036 77.9638C148.227 83.0371 145.865 88.8203 140.631 91.1698ZM187.416 70.3545C182.164 72.7122 176.252 70.5043 174.046 65.3955C171.856 60.3222 174.192 54.5293 179.389 52.196C184.494 49.9033 190.565 52.1254 192.738 57.0581C194.9 62.0166 192.466 68.0862 187.416 70.3545Z" fill="white" fill-opacity="0.15"/>
<path d="M13.1483 48.48V14.3016L19.8524 13.2108V24.6642C20.3023 24.5127 20.8722 24.3763 21.5622 24.2551C22.2821 24.1036 22.972 24.0279 23.6319 24.0279C25.5516 24.0279 27.1414 24.3006 28.4013 24.846C29.6911 25.3611 30.711 26.1034 31.4609 27.073C32.2408 28.0426 32.7807 29.194 33.0806 30.5273C33.4106 31.8605 33.5756 33.3451 33.5756 34.9813V48.48H26.8715V35.7994C26.8715 33.6178 26.5865 32.0725 26.0166 31.1635C25.4766 30.2545 24.4568 29.8 22.957 29.8C22.3571 29.8 21.7871 29.8606 21.2472 29.9818C20.7373 30.0727 20.2723 30.1788 19.8524 30.3V48.48H13.1483Z" fill="white"/>
<path d="M61.7809 36.4812C61.7809 38.3598 61.5109 40.0869 60.971 41.6625C60.4311 43.2078 59.6512 44.541 58.6313 45.6621C57.6114 46.7529 56.3816 47.6013 54.9418 48.2073C53.532 48.8133 51.9422 49.1163 50.1724 49.1163C48.4326 49.1163 46.8428 48.8133 45.403 48.2073C43.9932 47.6013 42.7784 46.7529 41.7585 45.6621C40.7387 44.541 39.9438 43.2078 39.3738 41.6625C38.8039 40.0869 38.5189 38.3598 38.5189 36.4812C38.5189 34.6026 38.8039 32.8906 39.3738 31.3453C39.9738 29.8 40.7836 28.482 41.8035 27.3912C42.8534 26.3004 44.0832 25.452 45.493 24.846C46.9328 24.24 48.4926 23.937 50.1724 23.937C51.8822 23.937 53.442 24.24 54.8518 24.846C56.2916 25.452 57.5214 26.3004 58.5413 27.3912C59.5612 28.482 60.3561 29.8 60.926 31.3453C61.4959 32.8906 61.7809 34.6026 61.7809 36.4812ZM54.9418 36.4812C54.9418 34.3905 54.5218 32.7543 53.6819 31.5726C52.8721 30.3606 51.7022 29.7546 50.1724 29.7546C48.6426 29.7546 47.4578 30.3606 46.6179 31.5726C45.778 32.7543 45.358 34.3905 45.358 36.4812C45.358 38.5719 45.778 40.2384 46.6179 41.4807C47.4578 42.6927 48.6426 43.2987 50.1724 43.2987C51.7022 43.2987 52.8721 42.6927 53.6819 41.4807C54.5218 40.2384 54.9418 38.5719 54.9418 36.4812Z" fill="white"/>
<path d="M82.1372 36.3449C82.1372 31.9817 80.5474 29.8 77.3678 29.8C76.6779 29.8 75.988 29.8909 75.2981 30.0727C74.6382 30.2545 74.0982 30.4818 73.6783 30.7545V43.0714C74.0083 43.132 74.4282 43.1927 74.9381 43.2533C75.4481 43.2836 76.003 43.2987 76.6029 43.2987C78.4327 43.2987 79.8125 42.6624 80.7424 41.3898C81.6722 40.1172 82.1372 38.4356 82.1372 36.3449ZM88.9763 36.5267C88.9763 38.4356 88.6913 40.1626 88.1214 41.7079C87.5815 43.2532 86.7866 44.5713 85.7367 45.6621C84.6868 46.7529 83.397 47.6013 81.8672 48.2073C80.3374 48.783 78.5976 49.0708 76.6479 49.0708C75.838 49.0708 74.9831 49.0254 74.0832 48.9345C73.2134 48.8739 72.3435 48.783 71.4736 48.6618C70.6337 48.5406 69.8238 48.4043 69.0439 48.2528C68.264 48.071 67.5741 47.8892 66.9742 47.7074V14.3016L73.6783 13.2108V25.1187C74.4282 24.7854 75.2081 24.5278 76.018 24.346C76.8279 24.1642 77.6978 24.0733 78.6276 24.0733C80.3074 24.0733 81.7922 24.3763 83.0821 24.9823C84.3719 25.558 85.4517 26.3913 86.3216 27.4821C87.1915 28.5729 87.8514 29.8909 88.3014 31.4362C88.7513 32.9512 88.9763 34.6481 88.9763 36.5267Z" fill="white"/>
<path d="M109.292 36.3449C109.292 31.9817 107.702 29.8 104.522 29.8C103.833 29.8 103.143 29.8909 102.453 30.0727C101.793 30.2545 101.253 30.4818 100.833 30.7545V43.0714C101.163 43.132 101.583 43.1927 102.093 43.2533C102.603 43.2836 103.158 43.2987 103.758 43.2987C105.587 43.2987 106.967 42.6624 107.897 41.3898C108.827 40.1172 109.292 38.4356 109.292 36.3449ZM116.131 36.5267C116.131 38.4356 115.846 40.1626 115.276 41.7079C114.736 43.2532 113.941 44.5713 112.891 45.6621C111.841 46.7529 110.552 47.6013 109.022 48.2073C107.492 48.783 105.752 49.0708 103.803 49.0708C102.993 49.0708 102.138 49.0254 101.238 48.9345C100.368 48.8739 99.4981 48.783 98.6282 48.6618C97.7883 48.5406 96.9784 48.4043 96.1985 48.2528C95.4186 48.071 94.7287 47.8892 94.1288 47.7074V14.3016L100.833 13.2108V25.1187C101.583 24.7854 102.363 24.5278 103.173 24.346C103.982 24.1642 104.852 24.0733 105.782 24.0733C107.462 24.0733 108.947 24.3763 110.237 24.9823C111.527 25.558 112.606 26.3913 113.476 27.4821C114.346 28.5729 115.006 29.8909 115.456 31.4362C115.906 32.9512 116.131 34.6481 116.131 36.5267Z" fill="white"/>
<path d="M127.988 48.48H121.283V24.5733H127.988V48.48ZM128.617 17.6649C128.617 18.9072 128.213 19.8919 127.403 20.6191C126.623 21.316 125.693 21.6645 124.613 21.6645C123.533 21.6645 122.588 21.316 121.778 20.6191C120.998 19.8919 120.609 18.9072 120.609 17.6649C120.609 16.4226 120.998 15.453 121.778 14.7561C122.588 14.0289 123.533 13.6653 124.613 13.6653C125.693 13.6653 126.623 14.0289 127.403 14.7561C128.213 15.453 128.617 16.4226 128.617 17.6649Z" fill="white"/>
<path d="M133.165 36.7085C133.165 34.5875 133.48 32.7391 134.11 31.1635C134.769 29.5576 135.624 28.2244 136.674 27.1639C137.724 26.1034 138.924 25.3005 140.274 24.7551C141.654 24.2097 143.063 23.937 144.503 23.937C147.863 23.937 150.517 24.9823 152.467 27.073C154.417 29.1334 155.392 32.1786 155.392 36.2085C155.392 36.6024 155.377 37.0417 155.347 37.5265C155.317 37.981 155.287 38.3901 155.257 38.7537H140.049C140.199 40.1475 140.844 41.2534 141.984 42.0715C143.123 42.8896 144.653 43.2987 146.573 43.2987C147.803 43.2987 149.003 43.1926 150.172 42.9805C151.372 42.7381 152.347 42.4503 153.097 42.117L153.997 47.6164C153.637 47.7982 153.157 47.9801 152.557 48.1619C151.957 48.3437 151.282 48.4951 150.532 48.6163C149.812 48.7678 149.033 48.889 148.193 48.9799C147.353 49.0708 146.513 49.1163 145.673 49.1163C143.543 49.1163 141.684 48.7982 140.094 48.1619C138.534 47.5256 137.229 46.662 136.179 45.5712C135.159 44.4501 134.394 43.132 133.885 41.617C133.405 40.102 133.165 38.4659 133.165 36.7085ZM148.913 34.1178C148.883 33.5421 148.778 32.9815 148.598 32.4361C148.448 31.8907 148.193 31.4059 147.833 30.9817C147.503 30.5575 147.068 30.2091 146.528 29.9364C146.018 29.6637 145.373 29.5273 144.593 29.5273C143.843 29.5273 143.198 29.6637 142.658 29.9364C142.118 30.1788 141.669 30.5121 141.309 30.9363C140.949 31.3605 140.664 31.8604 140.454 32.4361C140.274 32.9815 140.139 33.5421 140.049 34.1178H148.913Z" fill="white"/>
<path d="M167.359 43.6169C168.589 43.6169 169.459 43.4957 169.969 43.2533C170.479 43.0109 170.734 42.5412 170.734 41.8443C170.734 41.2989 170.404 40.8292 169.744 40.4353C169.084 40.0111 168.079 39.5415 166.73 39.0264C165.68 38.6325 164.72 38.2234 163.85 37.7992C163.01 37.375 162.29 36.8751 161.69 36.2994C161.09 35.6934 160.625 34.9813 160.295 34.1632C159.965 33.3451 159.8 32.3604 159.8 31.209C159.8 28.9668 160.625 27.1942 162.275 25.8913C163.925 24.5884 166.19 23.937 169.069 23.937C170.509 23.937 171.889 24.0733 173.209 24.346C174.529 24.5884 175.578 24.8611 176.358 25.1641L175.188 30.4363C174.409 30.1636 173.554 29.9212 172.624 29.7091C171.724 29.497 170.704 29.391 169.564 29.391C167.464 29.391 166.415 29.9818 166.415 31.1635C166.415 31.4362 166.46 31.6786 166.55 31.8907C166.64 32.1028 166.82 32.3149 167.089 32.527C167.359 32.7088 167.719 32.9209 168.169 33.1633C168.649 33.3754 169.249 33.6178 169.969 33.8905C171.439 34.436 172.654 34.9813 173.614 35.5267C174.574 36.0418 175.323 36.6175 175.863 37.2538C176.433 37.8598 176.823 38.5416 177.033 39.2991C177.273 40.0566 177.393 40.9353 177.393 41.9352C177.393 44.2986 176.508 46.0863 174.738 47.2983C172.999 48.5103 170.524 49.1163 167.314 49.1163C165.215 49.1163 163.46 48.9345 162.05 48.5709C160.67 48.2073 159.71 47.9043 159.171 47.6619L160.295 42.1624C161.435 42.6169 162.605 42.9806 163.805 43.2533C165.005 43.4957 166.19 43.6169 167.359 43.6169Z" fill="white"/>
<path d="M12.5583 68.5022H17.5497V90.9H12.5583V68.5022Z" fill="white"/>
<path d="M36.7677 91.2232C35.3812 91.2017 34.2507 91.0508 33.3761 90.7707C32.5229 90.4906 31.8403 90.1028 31.3284 89.6072C30.8378 89.0901 30.4965 88.476 30.3045 87.765C30.1339 87.0324 30.0485 86.2136 30.0485 85.3086V66.5954L34.8159 65.8197V84.339C34.8159 84.77 34.8479 85.1578 34.9119 85.5026C34.9759 85.8473 35.0932 86.1382 35.2639 86.3752C35.4558 86.6122 35.7225 86.8061 36.0637 86.957C36.405 87.1078 36.8636 87.2047 37.4396 87.2478L36.7677 91.2232Z" fill="white"/>
<path d="M44.9396 90.9H40.1722V73.8997H44.9396V90.9ZM45.3875 68.987C45.3875 69.8705 45.0996 70.5707 44.5236 71.0878C43.969 71.5834 43.3078 71.8312 42.5399 71.8312C41.772 71.8312 41.1001 71.5834 40.5242 71.0878C39.9696 70.5707 39.6923 69.8705 39.6923 68.987C39.6923 68.1036 39.9696 67.4141 40.5242 66.9186C41.1001 66.4014 41.772 66.1429 42.5399 66.1429C43.3078 66.1429 43.969 66.4014 44.5236 66.9186C45.0996 67.4141 45.3875 68.1036 45.3875 68.987Z" fill="white"/>
<path d="M54.1884 80.0405C54.6576 79.5234 55.1376 78.9847 55.6282 78.4245C56.1401 77.8643 56.6307 77.3148 57.1 76.7762C57.5692 76.2159 58.0065 75.6881 58.4118 75.1925C58.8384 74.6969 59.201 74.266 59.4997 73.8997H65.1629C64.0324 75.214 62.9232 76.4745 61.8353 77.6811C60.7688 78.8662 59.5956 80.0943 58.3158 81.3656C58.9557 81.9474 59.617 82.6476 60.2996 83.4664C60.9821 84.2636 61.6434 85.0932 62.2833 85.955C62.9232 86.8169 63.5098 87.6788 64.0431 88.5406C64.5763 89.4025 65.0243 90.189 65.3869 90.9H59.9156C59.5743 90.3398 59.1797 89.7257 58.7318 89.0578C58.3051 88.3683 57.8465 87.6895 57.3559 87.0216C56.8653 86.3321 56.3427 85.6749 55.7881 85.0501C55.2549 84.4252 54.7216 83.8973 54.1884 83.4664V90.9H49.421V66.5954L54.1884 65.8197V80.0405Z" fill="white"/>
<path d="M65.9938 82.5291C65.9938 81.0208 66.2178 79.7065 66.6657 78.5861C67.135 77.4441 67.7429 76.496 68.4895 75.7419C69.236 74.9878 70.0893 74.4168 71.0491 74.029C72.0303 73.6411 73.0329 73.4472 74.0567 73.4472C76.4458 73.4472 78.3335 74.1906 79.72 75.6773C81.1065 77.1425 81.7997 79.3079 81.7997 82.1736C81.7997 82.4537 81.7891 82.7661 81.7677 83.1109C81.7464 83.4341 81.7251 83.725 81.7037 83.9835H70.8892C70.9958 84.9747 71.4544 85.7611 72.265 86.3429C73.0755 86.9246 74.1634 87.2155 75.5285 87.2155C76.4031 87.2155 77.2563 87.1401 78.0882 86.9893C78.9414 86.8169 79.6347 86.6122 80.1679 86.3752L80.8078 90.2859C80.5519 90.4152 80.2106 90.5445 79.784 90.6738C79.3574 90.803 78.8774 90.9108 78.3442 90.997C77.8322 91.1047 77.2776 91.1909 76.6804 91.2555C76.0831 91.3202 75.4859 91.3525 74.8886 91.3525C73.3742 91.3525 72.0517 91.1262 70.9212 90.6738C69.812 90.2213 68.8841 89.6072 68.1375 88.8315C67.4123 88.0343 66.8684 87.097 66.5057 86.0197C66.1644 84.9423 65.9938 83.7788 65.9938 82.5291ZM77.1923 80.6869C77.171 80.2775 77.0963 79.8789 76.9684 79.491C76.8617 79.1032 76.6804 78.7585 76.4244 78.4568C76.1898 78.1551 75.8805 77.9074 75.4965 77.7134C75.1339 77.5195 74.6753 77.4226 74.1207 77.4226C73.5875 77.4226 73.1289 77.5195 72.7449 77.7134C72.361 77.8858 72.041 78.1228 71.785 78.4245C71.5291 78.7261 71.3264 79.0817 71.1771 79.491C71.0491 79.8789 70.9531 80.2775 70.8892 80.6869H77.1923Z" fill="white"/>
<path d="M90.1501 76.8731C90.1501 77.8427 89.8408 78.5861 89.2222 79.1032C88.625 79.5988 87.9424 79.8466 87.1745 79.8466C86.4066 79.8466 85.7134 79.5988 85.0948 79.1032C84.4975 78.5861 84.1989 77.8427 84.1989 76.8731C84.1989 75.9035 84.4975 75.1709 85.0948 74.6754C85.7134 74.1582 86.4066 73.8997 87.1745 73.8997C87.9424 73.8997 88.625 74.1582 89.2222 74.6754C89.8408 75.1709 90.1501 75.9035 90.1501 76.8731ZM90.1501 88.3467C90.1501 89.3163 89.8408 90.0597 89.2222 90.5768C88.625 91.0724 87.9424 91.3202 87.1745 91.3202C86.4066 91.3202 85.7134 91.0724 85.0948 90.5768C84.4975 90.0597 84.1989 89.3163 84.1989 88.3467C84.1989 87.3771 84.4975 86.6445 85.0948 86.149C85.7134 85.6318 86.4066 85.3733 87.1745 85.3733C87.9424 85.3733 88.625 85.6318 89.2222 86.149C89.8408 86.6445 90.1501 87.3771 90.1501 88.3467Z" fill="white"/>
<path d="M17.3099 111.336C17.3099 111.721 17.2439 112.084 17.1119 112.425C16.9799 112.766 16.7893 113.062 16.54 113.314C16.3053 113.566 16.012 113.773 15.6601 113.936C15.3228 114.084 14.9342 114.158 14.4942 114.158C14.0543 114.158 13.6583 114.084 13.3064 113.936C12.9691 113.773 12.6758 113.566 12.4265 113.314C12.1919 113.062 12.0085 112.766 11.8766 112.425C11.7446 112.084 11.6786 111.721 11.6786 111.336C11.6786 110.966 11.7446 110.61 11.8766 110.27C12.0085 109.914 12.1919 109.611 12.4265 109.359C12.6758 109.107 12.9691 108.907 13.3064 108.759C13.6583 108.596 14.0543 108.514 14.4942 108.514C14.9342 108.514 15.3228 108.596 15.6601 108.759C16.012 108.907 16.3053 109.107 16.54 109.359C16.7893 109.611 16.9799 109.914 17.1119 110.27C17.2439 110.61 17.3099 110.966 17.3099 111.336Z" fill="white"/>
<path d="M41.6865 107.626C41.1146 109.788 40.44 111.862 39.6628 113.847C38.9002 115.832 38.1596 117.61 37.4411 119.18H35.5933C34.8747 117.61 34.1268 115.832 33.3496 113.847C32.587 111.862 31.9198 109.788 31.3479 107.626H33.5476C33.7236 108.351 33.9289 109.129 34.1635 109.959C34.4128 110.773 34.6694 111.588 34.9334 112.403C35.212 113.203 35.4907 113.981 35.7693 114.736C36.0479 115.491 36.3119 116.165 36.5612 116.758C36.8105 116.165 37.0744 115.491 37.3531 114.736C37.6317 113.981 37.903 113.203 38.167 112.403C38.4456 111.588 38.7022 110.773 38.9369 109.959C39.1862 109.129 39.3988 108.351 39.5748 107.626H41.6865Z" fill="white"/>
<path d="M45.8429 119.18H43.7972V107.626H45.8429V119.18ZM44.8091 105.537C44.4424 105.537 44.1272 105.418 43.8632 105.181C43.6139 104.93 43.4892 104.596 43.4892 104.182C43.4892 103.767 43.6139 103.441 43.8632 103.204C44.1272 102.952 44.4424 102.826 44.8091 102.826C45.1757 102.826 45.4836 102.952 45.7329 103.204C45.9969 103.441 46.1289 103.767 46.1289 104.182C46.1289 104.596 45.9969 104.93 45.7329 105.181C45.4836 105.418 45.1757 105.537 44.8091 105.537Z" fill="white"/>
<path d="M56.7519 110.07C56.5026 109.862 56.1434 109.662 55.6741 109.47C55.2048 109.277 54.6915 109.181 54.1343 109.181C53.5477 109.181 53.0418 109.292 52.6165 109.514C52.2059 109.722 51.8686 110.018 51.6046 110.403C51.3407 110.773 51.15 111.218 51.0327 111.736C50.9154 112.255 50.8567 112.81 50.8567 113.403C50.8567 114.751 51.1867 115.795 51.8466 116.536C52.5065 117.262 53.3864 117.625 54.4862 117.625C55.0435 117.625 55.5054 117.602 55.8721 117.558C56.2533 117.499 56.5466 117.439 56.7519 117.38V110.07ZM56.7519 102.293L58.7977 101.937V118.847C58.3284 118.98 57.7271 119.113 56.9939 119.247C56.2607 119.38 55.4174 119.447 54.4642 119.447C53.5844 119.447 52.7925 119.306 52.0886 119.024C51.3846 118.743 50.7834 118.343 50.2848 117.825C49.7862 117.306 49.3976 116.677 49.1189 115.936C48.855 115.18 48.723 114.336 48.723 113.403C48.723 112.514 48.833 111.699 49.053 110.959C49.2876 110.218 49.6249 109.581 50.0648 109.048C50.5048 108.514 51.04 108.1 51.6706 107.803C52.3159 107.507 53.0491 107.359 53.8703 107.359C54.5302 107.359 55.1095 107.448 55.6081 107.626C56.1214 107.803 56.5026 107.974 56.7519 108.137V102.293Z" fill="white"/>
<path d="M61.6764 113.425C61.6764 112.403 61.823 111.514 62.1163 110.759C62.4096 109.988 62.7982 109.351 63.2822 108.848C63.7661 108.344 64.3234 107.966 64.9539 107.714C65.5845 107.463 66.2298 107.337 66.8897 107.337C68.4295 107.337 69.61 107.826 70.4312 108.803C71.2524 109.766 71.6631 111.24 71.6631 113.225C71.6631 113.314 71.6631 113.432 71.6631 113.581C71.6631 113.714 71.6557 113.84 71.6411 113.958H63.8101C63.8981 115.158 64.2427 116.069 64.844 116.691C65.4452 117.314 66.3837 117.625 67.6596 117.625C68.3782 117.625 68.9794 117.565 69.4633 117.447C69.9619 117.314 70.3359 117.188 70.5852 117.069L70.8712 118.802C70.6219 118.936 70.1819 119.076 69.5513 119.224C68.9354 119.373 68.2315 119.447 67.4396 119.447C66.4424 119.447 65.5772 119.299 64.844 119.002C64.1254 118.691 63.5315 118.269 63.0622 117.736C62.5929 117.202 62.241 116.573 62.0063 115.847C61.7864 115.106 61.6764 114.299 61.6764 113.425ZM69.5293 112.292C69.544 111.359 69.3094 110.596 68.8254 110.003C68.3562 109.396 67.7036 109.092 66.8677 109.092C66.3984 109.092 65.9805 109.188 65.6138 109.381C65.2619 109.559 64.9613 109.796 64.712 110.092C64.4627 110.388 64.2647 110.729 64.118 111.114C63.9861 111.499 63.8981 111.892 63.8541 112.292H69.5293Z" fill="white"/>
<path d="M84.6984 113.403C84.6984 114.321 84.5664 115.151 84.3024 115.891C84.0385 116.632 83.6645 117.269 83.1806 117.802C82.7113 118.336 82.1467 118.75 81.4868 119.047C80.8269 119.328 80.1083 119.469 79.3311 119.469C78.5539 119.469 77.8353 119.328 77.1754 119.047C76.5155 118.75 75.9436 118.336 75.4596 117.802C74.9903 117.269 74.6237 116.632 74.3598 115.891C74.0958 115.151 73.9638 114.321 73.9638 113.403C73.9638 112.499 74.0958 111.677 74.3598 110.936C74.6237 110.181 74.9903 109.537 75.4596 109.003C75.9436 108.47 76.5155 108.063 77.1754 107.781C77.8353 107.485 78.5539 107.337 79.3311 107.337C80.1083 107.337 80.8269 107.485 81.4868 107.781C82.1467 108.063 82.7113 108.47 83.1806 109.003C83.6645 109.537 84.0385 110.181 84.3024 110.936C84.5664 111.677 84.6984 112.499 84.6984 113.403ZM82.5647 113.403C82.5647 112.099 82.2714 111.07 81.6848 110.314C81.1129 109.544 80.3283 109.159 79.3311 109.159C78.3339 109.159 77.542 109.544 76.9554 110.314C76.3835 111.07 76.0975 112.099 76.0975 113.403C76.0975 114.706 76.3835 115.743 76.9554 116.514C77.542 117.269 78.3339 117.647 79.3311 117.647C80.3283 117.647 81.1129 117.269 81.6848 116.514C82.2714 115.743 82.5647 114.706 82.5647 113.403Z" fill="white"/>
<path d="M99.8388 118.025C99.6628 118.143 99.3182 118.299 98.8049 118.491C98.3063 118.669 97.7197 118.758 97.0451 118.758C96.3559 118.758 95.7033 118.647 95.0874 118.425C94.4861 118.202 93.9582 117.862 93.5036 117.402C93.049 116.928 92.6897 116.343 92.4257 115.647C92.1618 114.951 92.0298 114.121 92.0298 113.158C92.0298 112.314 92.1544 111.544 92.4037 110.847C92.653 110.136 93.0123 109.529 93.4816 109.025C93.9655 108.507 94.5521 108.107 95.2414 107.826C95.9306 107.529 96.7078 107.381 97.5731 107.381C98.5263 107.381 99.3548 107.455 100.059 107.603C100.777 107.737 101.379 107.863 101.862 107.981V118.291C101.862 120.069 101.408 121.358 100.499 122.157C99.5895 122.957 98.211 123.357 96.3632 123.357C95.6446 123.357 94.9627 123.298 94.3175 123.18C93.6869 123.061 93.137 122.92 92.6677 122.757L93.0417 120.958C93.4523 121.121 93.9509 121.261 94.5375 121.38C95.1387 121.513 95.762 121.58 96.4072 121.58C97.6244 121.58 98.4969 121.335 99.0249 120.847C99.5675 120.358 99.8388 119.58 99.8388 118.513V118.025ZM99.8168 109.448C99.6115 109.388 99.3328 109.337 98.9809 109.292C98.6436 109.233 98.1816 109.203 97.5951 109.203C96.4952 109.203 95.6446 109.566 95.0434 110.292C94.4568 111.018 94.1635 111.981 94.1635 113.181C94.1635 113.847 94.2442 114.418 94.4055 114.892C94.5815 115.366 94.8088 115.758 95.0874 116.069C95.3807 116.38 95.7106 116.61 96.0773 116.758C96.4585 116.906 96.8471 116.98 97.2431 116.98C97.7857 116.98 98.2843 116.906 98.7389 116.758C99.1935 116.595 99.5528 116.41 99.8168 116.203V109.448Z" fill="white"/>
<path d="M109.256 117.691C109.74 117.691 110.165 117.684 110.532 117.669C110.913 117.639 111.229 117.595 111.478 117.536V114.092C111.331 114.018 111.089 113.958 110.752 113.914C110.429 113.855 110.033 113.825 109.564 113.825C109.256 113.825 108.926 113.847 108.574 113.892C108.237 113.936 107.922 114.032 107.628 114.181C107.35 114.314 107.115 114.506 106.925 114.758C106.734 114.995 106.639 115.314 106.639 115.714C106.639 116.454 106.873 116.973 107.343 117.269C107.812 117.551 108.45 117.691 109.256 117.691ZM109.08 107.337C109.902 107.337 110.591 107.448 111.148 107.67C111.72 107.877 112.175 108.181 112.512 108.581C112.864 108.966 113.113 109.433 113.26 109.981C113.406 110.514 113.48 111.107 113.48 111.759V118.98C113.304 119.01 113.054 119.054 112.732 119.113C112.424 119.158 112.072 119.202 111.676 119.247C111.28 119.291 110.847 119.328 110.378 119.358C109.924 119.402 109.469 119.424 109.014 119.424C108.369 119.424 107.775 119.358 107.233 119.224C106.69 119.091 106.221 118.884 105.825 118.602C105.429 118.306 105.121 117.921 104.901 117.447C104.681 116.973 104.571 116.402 104.571 115.736C104.571 115.099 104.696 114.551 104.945 114.092C105.209 113.632 105.561 113.262 106.001 112.981C106.441 112.699 106.954 112.492 107.54 112.358C108.127 112.225 108.743 112.158 109.388 112.158C109.594 112.158 109.806 112.173 110.026 112.203C110.246 112.218 110.451 112.247 110.642 112.292C110.847 112.321 111.023 112.351 111.17 112.381C111.317 112.41 111.419 112.433 111.478 112.447V111.87C111.478 111.529 111.441 111.196 111.368 110.87C111.295 110.529 111.163 110.233 110.972 109.981C110.781 109.714 110.517 109.507 110.18 109.359C109.858 109.196 109.432 109.114 108.904 109.114C108.23 109.114 107.636 109.166 107.123 109.27C106.624 109.359 106.25 109.455 106.001 109.559L105.759 107.848C106.023 107.729 106.463 107.618 107.079 107.514C107.694 107.396 108.362 107.337 109.08 107.337Z" fill="white"/>
<path d="M116.877 107.959C117.347 107.84 117.963 107.714 118.725 107.581C119.502 107.448 120.397 107.381 121.409 107.381C122.142 107.381 122.758 107.485 123.257 107.692C123.755 107.885 124.173 108.174 124.51 108.559C124.613 108.485 124.774 108.381 124.994 108.248C125.214 108.114 125.486 107.989 125.808 107.87C126.131 107.737 126.49 107.626 126.886 107.537C127.282 107.433 127.707 107.381 128.162 107.381C129.042 107.381 129.76 107.514 130.318 107.781C130.875 108.033 131.307 108.396 131.615 108.87C131.938 109.344 132.151 109.907 132.253 110.559C132.371 111.21 132.429 111.921 132.429 112.692V119.18H130.384V113.136C130.384 112.455 130.347 111.87 130.274 111.381C130.215 110.892 130.09 110.485 129.9 110.159C129.724 109.833 129.474 109.596 129.152 109.448C128.844 109.285 128.441 109.203 127.942 109.203C127.253 109.203 126.681 109.3 126.226 109.492C125.786 109.67 125.486 109.833 125.324 109.981C125.442 110.366 125.53 110.788 125.588 111.247C125.647 111.707 125.676 112.188 125.676 112.692V119.18H123.631V113.136C123.631 112.455 123.594 111.87 123.521 111.381C123.447 110.892 123.315 110.485 123.125 110.159C122.949 109.833 122.699 109.596 122.377 109.448C122.069 109.285 121.673 109.203 121.189 109.203C120.984 109.203 120.764 109.211 120.529 109.225C120.294 109.24 120.067 109.262 119.847 109.292C119.642 109.307 119.451 109.329 119.275 109.359C119.099 109.388 118.982 109.411 118.923 109.425V119.18H116.877V107.959Z" fill="white"/>
<path d="M135.186 113.425C135.186 112.403 135.333 111.514 135.626 110.759C135.919 109.988 136.308 109.351 136.792 108.848C137.276 108.344 137.833 107.966 138.464 107.714C139.094 107.463 139.74 107.337 140.4 107.337C141.939 107.337 143.12 107.826 143.941 108.803C144.762 109.766 145.173 111.24 145.173 113.225C145.173 113.314 145.173 113.432 145.173 113.581C145.173 113.714 145.166 113.84 145.151 113.958H137.32C137.408 115.158 137.753 116.069 138.354 116.691C138.955 117.314 139.894 117.625 141.169 117.625C141.888 117.625 142.489 117.565 142.973 117.447C143.472 117.314 143.846 117.188 144.095 117.069L144.381 118.802C144.132 118.936 143.692 119.076 143.061 119.224C142.445 119.373 141.741 119.447 140.949 119.447C139.952 119.447 139.087 119.299 138.354 119.002C137.635 118.691 137.041 118.269 136.572 117.736C136.103 117.202 135.751 116.573 135.516 115.847C135.296 115.106 135.186 114.299 135.186 113.425ZM143.039 112.292C143.054 111.359 142.819 110.596 142.335 110.003C141.866 109.396 141.213 109.092 140.378 109.092C139.908 109.092 139.49 109.188 139.124 109.381C138.772 109.559 138.471 109.796 138.222 110.092C137.973 110.388 137.775 110.729 137.628 111.114C137.496 111.499 137.408 111.892 137.364 112.292H143.039Z" fill="white"/>
<path d="M150.773 117.691C151.609 117.691 152.225 117.58 152.621 117.358C153.032 117.136 153.237 116.78 153.237 116.291C153.237 115.788 153.039 115.388 152.643 115.092C152.247 114.795 151.594 114.462 150.685 114.092C150.245 113.914 149.82 113.736 149.409 113.558C149.013 113.366 148.669 113.144 148.376 112.892C148.082 112.64 147.848 112.336 147.672 111.981C147.496 111.625 147.408 111.188 147.408 110.67C147.408 109.648 147.782 108.84 148.53 108.248C149.277 107.64 150.297 107.337 151.587 107.337C151.91 107.337 152.232 107.359 152.555 107.403C152.878 107.433 153.178 107.477 153.457 107.537C153.735 107.581 153.977 107.633 154.183 107.692C154.403 107.752 154.571 107.803 154.689 107.848L154.315 109.625C154.095 109.507 153.75 109.388 153.281 109.27C152.812 109.137 152.247 109.07 151.587 109.07C151.015 109.07 150.517 109.188 150.091 109.425C149.666 109.648 149.453 110.003 149.453 110.492C149.453 110.744 149.497 110.966 149.585 111.159C149.688 111.351 149.835 111.529 150.025 111.692C150.231 111.84 150.48 111.981 150.773 112.114C151.067 112.247 151.418 112.388 151.829 112.536C152.372 112.744 152.856 112.951 153.281 113.158C153.706 113.351 154.065 113.581 154.359 113.847C154.667 114.114 154.901 114.44 155.063 114.825C155.224 115.195 155.305 115.654 155.305 116.203C155.305 117.269 154.909 118.076 154.117 118.624C153.34 119.173 152.225 119.447 150.773 119.447C149.761 119.447 148.969 119.358 148.398 119.18C147.826 119.017 147.437 118.891 147.232 118.802L147.606 117.025C147.84 117.114 148.214 117.247 148.727 117.425C149.241 117.602 149.923 117.691 150.773 117.691Z" fill="white"/>
<path d="M17.3099 138.606C17.3099 138.991 17.2439 139.354 17.1119 139.695C16.9799 140.036 16.7893 140.332 16.54 140.584C16.3053 140.836 16.012 141.043 15.6601 141.206C15.3228 141.354 14.9342 141.428 14.4942 141.428C14.0543 141.428 13.6583 141.354 13.3064 141.206C12.9691 141.043 12.6758 140.836 12.4265 140.584C12.1919 140.332 12.0085 140.036 11.8766 139.695C11.7446 139.354 11.6786 138.991 11.6786 138.606C11.6786 138.236 11.7446 137.88 11.8766 137.54C12.0085 137.184 12.1919 136.881 12.4265 136.629C12.6758 136.377 12.9691 136.177 13.3064 136.029C13.6583 135.866 14.0543 135.784 14.4942 135.784C14.9342 135.784 15.3228 135.866 15.6601 136.029C16.012 136.177 16.3053 136.377 16.54 136.629C16.7893 136.881 16.9799 137.184 17.1119 137.54C17.2439 137.88 17.3099 138.236 17.3099 138.606Z" fill="white"/>
<path d="M40.1467 137.34C39.8974 137.132 39.5381 136.932 39.0688 136.74C38.5996 136.547 38.0863 136.451 37.5291 136.451C36.9425 136.451 36.4365 136.562 36.0113 136.784C35.6006 136.992 35.2634 137.288 34.9994 137.673C34.7354 138.043 34.5448 138.488 34.4275 139.006C34.3101 139.525 34.2515 140.08 34.2515 140.673C34.2515 142.021 34.5814 143.065 35.2414 143.806C35.9013 144.532 36.7812 144.895 37.881 144.895C38.4383 144.895 38.9002 144.872 39.2668 144.828C39.6481 144.769 39.9414 144.709 40.1467 144.65V137.34ZM40.1467 129.563L42.1924 129.207V146.117C41.7232 146.25 41.1219 146.383 40.3887 146.517C39.6554 146.65 38.8122 146.717 37.859 146.717C36.9791 146.717 36.1872 146.576 35.4833 146.294C34.7794 146.013 34.1782 145.613 33.6796 145.095C33.181 144.576 32.7923 143.947 32.5137 143.206C32.2497 142.45 32.1178 141.606 32.1178 140.673C32.1178 139.784 32.2278 138.969 32.4477 138.229C32.6824 137.488 33.0196 136.851 33.4596 136.318C33.8995 135.784 34.4348 135.37 35.0654 135.073C35.7106 134.777 36.4439 134.629 37.2651 134.629C37.925 134.629 38.5043 134.718 39.0029 134.896C39.5161 135.073 39.8974 135.244 40.1467 135.407V129.563Z" fill="white"/>
<path d="M45.0711 140.695C45.0711 139.673 45.2178 138.784 45.5111 138.029C45.8044 137.258 46.193 136.621 46.6769 136.118C47.1609 135.614 47.7181 135.236 48.3487 134.984C48.9793 134.733 49.6245 134.607 50.2844 134.607C51.8242 134.607 53.0048 135.096 53.826 136.073C54.6472 137.036 55.0578 138.51 55.0578 140.495C55.0578 140.584 55.0578 140.702 55.0578 140.851C55.0578 140.984 55.0505 141.11 55.0358 141.228H47.2049C47.2928 142.428 47.6375 143.339 48.2387 143.961C48.84 144.584 49.7785 144.895 51.0543 144.895C51.7729 144.895 52.3742 144.835 52.8581 144.717C53.3567 144.584 53.7307 144.458 53.98 144.339L54.2659 146.072C54.0166 146.206 53.5767 146.346 52.9461 146.494C52.3302 146.643 51.6263 146.717 50.8344 146.717C49.8372 146.717 48.972 146.569 48.2387 146.272C47.5201 145.961 46.9262 145.539 46.457 145.006C45.9877 144.472 45.6357 143.843 45.4011 143.117C45.1811 142.376 45.0711 141.569 45.0711 140.695ZM52.9241 139.562C52.9388 138.629 52.7041 137.866 52.2202 137.273C51.7509 136.666 51.0983 136.362 50.2624 136.362C49.7932 136.362 49.3752 136.458 49.0086 136.651C48.6567 136.829 48.356 137.066 48.1067 137.362C47.8574 137.658 47.6595 137.999 47.5128 138.384C47.3808 138.769 47.2928 139.162 47.2488 139.562H52.9241Z" fill="white"/>
<path d="M60.6581 144.961C61.494 144.961 62.11 144.85 62.5059 144.628C62.9165 144.406 63.1218 144.05 63.1218 143.561C63.1218 143.058 62.9238 142.658 62.5279 142.362C62.1319 142.065 61.4794 141.732 60.5702 141.362C60.1302 141.184 59.7049 141.006 59.2943 140.828C58.8984 140.636 58.5538 140.414 58.2605 140.162C57.9672 139.91 57.7325 139.606 57.5566 139.251C57.3806 138.895 57.2926 138.458 57.2926 137.94C57.2926 136.918 57.6665 136.11 58.4144 135.518C59.1623 134.91 60.1815 134.607 61.472 134.607C61.7947 134.607 62.1173 134.629 62.4399 134.673C62.7625 134.703 63.0632 134.747 63.3418 134.807C63.6204 134.851 63.8624 134.903 64.0677 134.962C64.2877 135.022 64.4563 135.073 64.5736 135.118L64.1997 136.895C63.9797 136.777 63.6351 136.658 63.1658 136.54C62.6965 136.407 62.1319 136.34 61.472 136.34C60.9001 136.34 60.4015 136.458 59.9762 136.695C59.551 136.918 59.3383 137.273 59.3383 137.762C59.3383 138.014 59.3823 138.236 59.4703 138.429C59.573 138.621 59.7196 138.799 59.9102 138.962C60.1155 139.11 60.3648 139.251 60.6581 139.384C60.9514 139.517 61.3034 139.658 61.714 139.806C62.2566 140.014 62.7405 140.221 63.1658 140.428C63.5911 140.621 63.9504 140.851 64.2437 141.117C64.5516 141.384 64.7863 141.71 64.9476 142.095C65.1089 142.465 65.1895 142.924 65.1895 143.473C65.1895 144.539 64.7936 145.346 64.0017 145.895C63.2245 146.443 62.11 146.717 60.6581 146.717C59.6463 146.717 58.8544 146.628 58.2825 146.45C57.7105 146.287 57.3219 146.161 57.1166 146.072L57.4906 144.295C57.7252 144.384 58.0991 144.517 58.6124 144.695C59.1257 144.872 59.8076 144.961 60.6581 144.961Z" fill="white"/>
<path d="M69.8593 146.45H67.8136V134.896H69.8593V146.45ZM68.8254 132.807C68.4588 132.807 68.1435 132.688 67.8795 132.451C67.6302 132.2 67.5056 131.866 67.5056 131.452C67.5056 131.037 67.6302 130.711 67.8795 130.474C68.1435 130.222 68.4588 130.096 68.8254 130.096C69.192 130.096 69.5 130.222 69.7493 130.474C70.0133 130.711 70.1453 131.037 70.1453 131.452C70.1453 131.866 70.0133 132.2 69.7493 132.451C69.5 132.688 69.192 132.807 68.8254 132.807Z" fill="white"/>
<path d="M80.5483 145.295C80.3724 145.413 80.0277 145.569 79.5145 145.761C79.0159 145.939 78.4293 146.028 77.7547 146.028C77.0655 146.028 76.4129 145.917 75.797 145.695C75.1957 145.472 74.6678 145.132 74.2132 144.672C73.7586 144.198 73.3993 143.613 73.1353 142.917C72.8713 142.221 72.7394 141.391 72.7394 140.428C72.7394 139.584 72.864 138.814 73.1133 138.117C73.3626 137.406 73.7219 136.799 74.1912 136.295C74.6751 135.777 75.2617 135.377 75.9509 135.096C76.6402 134.799 77.4174 134.651 78.2826 134.651C79.2358 134.651 80.0644 134.725 80.7683 134.873C81.4869 135.007 82.0881 135.133 82.5721 135.251V145.561C82.5721 147.339 82.1175 148.628 81.2082 149.427C80.299 150.227 78.9205 150.627 77.0728 150.627C76.3542 150.627 75.6723 150.568 75.0271 150.45C74.3965 150.331 73.8466 150.19 73.3773 150.027L73.7512 148.228C74.1618 148.391 74.6604 148.531 75.247 148.65C75.8483 148.783 76.4715 148.85 77.1168 148.85C78.334 148.85 79.2065 148.605 79.7344 148.117C80.277 147.628 80.5483 146.85 80.5483 145.783V145.295ZM80.5263 136.718C80.321 136.658 80.0424 136.607 79.6904 136.562C79.3532 136.503 78.8912 136.473 78.3046 136.473C77.2048 136.473 76.3542 136.836 75.753 137.562C75.1664 138.288 74.8731 139.251 74.8731 140.451C74.8731 141.117 74.9537 141.688 75.115 142.162C75.291 142.636 75.5183 143.028 75.797 143.339C76.0903 143.65 76.4202 143.88 76.7868 144.028C77.1681 144.176 77.5567 144.25 77.9527 144.25C78.4953 144.25 78.9939 144.176 79.4485 144.028C79.9031 143.865 80.2624 143.68 80.5263 143.473V136.718Z" fill="white"/>
<path d="M86.0944 135.229C86.5636 135.11 87.1869 134.984 87.9641 134.851C88.7413 134.718 89.6359 134.651 90.6478 134.651C91.557 134.651 92.3122 134.784 92.9135 135.051C93.5147 135.303 93.9913 135.666 94.3433 136.14C94.7099 136.599 94.9665 137.155 95.1132 137.806C95.2598 138.458 95.3331 139.177 95.3331 139.962V146.45H93.2874V140.406C93.2874 139.695 93.2361 139.088 93.1334 138.584C93.0454 138.08 92.8915 137.673 92.6715 137.362C92.4515 137.051 92.1582 136.829 91.7916 136.695C91.425 136.547 90.9704 136.473 90.4278 136.473C90.2078 136.473 89.9805 136.481 89.7459 136.495C89.5112 136.51 89.2839 136.532 89.064 136.562C88.8587 136.577 88.668 136.599 88.492 136.629C88.3307 136.658 88.2134 136.681 88.1401 136.695V146.45H86.0944V135.229Z" fill="white"/>
<path d="M17.3099 165.876C17.3099 166.261 17.2439 166.624 17.1119 166.965C16.9799 167.306 16.7893 167.602 16.54 167.854C16.3053 168.106 16.012 168.313 15.6601 168.476C15.3228 168.624 14.9342 168.698 14.4942 168.698C14.0543 168.698 13.6583 168.624 13.3064 168.476C12.9691 168.313 12.6758 168.106 12.4265 167.854C12.1919 167.602 12.0085 167.306 11.8766 166.965C11.7446 166.624 11.6786 166.261 11.6786 165.876C11.6786 165.506 11.7446 165.15 11.8766 164.81C12.0085 164.454 12.1919 164.151 12.4265 163.899C12.6758 163.647 12.9691 163.447 13.3064 163.299C13.6583 163.136 14.0543 163.054 14.4942 163.054C14.9342 163.054 15.3228 163.136 15.6601 163.299C16.012 163.447 16.3053 163.647 16.54 163.899C16.7893 164.151 16.9799 164.454 17.1119 164.81C17.2439 165.15 17.3099 165.506 17.3099 165.876Z" fill="white"/>
<path d="M34.8014 162.677C35.0507 162.514 35.4247 162.343 35.9233 162.166C36.4365 161.988 37.0231 161.899 37.683 161.899C38.5043 161.899 39.2302 162.047 39.8607 162.343C40.506 162.64 41.0486 163.054 41.4885 163.588C41.9285 164.121 42.2584 164.758 42.4784 165.499C42.713 166.239 42.8304 167.054 42.8304 167.943C42.8304 168.876 42.691 169.72 42.4124 170.476C42.1484 171.217 41.7672 171.846 41.2686 172.365C40.77 172.883 40.1687 173.283 39.4648 173.564C38.7609 173.846 37.969 173.987 37.0891 173.987C36.1359 173.987 35.2927 173.92 34.5594 173.787C33.8262 173.653 33.225 173.52 32.7557 173.387V156.833L34.8014 156.477V162.677ZM34.8014 171.92C35.0067 171.979 35.2927 172.039 35.6593 172.098C36.0406 172.142 36.5099 172.165 37.0671 172.165C38.167 172.165 39.0469 171.802 39.7068 171.076C40.3667 170.335 40.6966 169.291 40.6966 167.943C40.6966 167.35 40.638 166.795 40.5207 166.276C40.4033 165.758 40.2127 165.313 39.9487 164.943C39.6848 164.558 39.3401 164.262 38.9149 164.054C38.5043 163.832 38.0057 163.721 37.4191 163.721C36.8618 163.721 36.3485 163.817 35.8793 164.01C35.41 164.202 35.0507 164.402 34.8014 164.61V171.92Z" fill="white"/>
<path d="M55.8057 167.943C55.8057 168.861 55.6737 169.691 55.4098 170.431C55.1458 171.172 54.7719 171.809 54.2879 172.342C53.8186 172.876 53.2541 173.29 52.5941 173.587C51.9342 173.868 51.2157 174.009 50.4384 174.009C49.6612 174.009 48.9426 173.868 48.2827 173.587C47.6228 173.29 47.0509 172.876 46.5669 172.342C46.0977 171.809 45.731 171.172 45.4671 170.431C45.2031 169.691 45.0711 168.861 45.0711 167.943C45.0711 167.039 45.2031 166.217 45.4671 165.476C45.731 164.721 46.0977 164.077 46.5669 163.543C47.0509 163.01 47.6228 162.603 48.2827 162.321C48.9426 162.025 49.6612 161.877 50.4384 161.877C51.2157 161.877 51.9342 162.025 52.5941 162.321C53.2541 162.603 53.8186 163.01 54.2879 163.543C54.7719 164.077 55.1458 164.721 55.4098 165.476C55.6737 166.217 55.8057 167.039 55.8057 167.943ZM53.672 167.943C53.672 166.639 53.3787 165.61 52.7921 164.854C52.2202 164.084 51.4356 163.699 50.4384 163.699C49.4412 163.699 48.6493 164.084 48.0627 164.854C47.4908 165.61 47.2049 166.639 47.2049 167.943C47.2049 169.246 47.4908 170.283 48.0627 171.054C48.6493 171.809 49.4412 172.187 50.4384 172.187C51.4356 172.187 52.2202 171.809 52.7921 171.054C53.3787 170.283 53.672 169.246 53.672 167.943Z" fill="white"/>
<path d="M65.1598 173.72C64.9985 173.394 64.8005 173.031 64.5659 172.631C64.3313 172.231 64.0746 171.824 63.796 171.409C63.5174 170.98 63.2314 170.557 62.9381 170.143C62.6448 169.728 62.3588 169.335 62.0802 168.965C61.8016 169.335 61.5156 169.735 61.2223 170.165C60.929 170.58 60.6431 171.002 60.3644 171.431C60.1005 171.846 59.8512 172.253 59.6165 172.653C59.3819 173.053 59.1839 173.409 59.0226 173.72H56.9109C57.4242 172.713 58.0328 171.691 58.7367 170.654C59.4552 169.602 60.1665 168.602 60.8704 167.654L57.0869 162.166H59.3966L62.1242 166.21L64.8739 162.166H67.0516L63.3561 167.521C64.06 168.483 64.7785 169.506 65.5118 170.587C66.2597 171.654 66.8903 172.698 67.4035 173.72H65.1598Z" fill="white"/>
<path d="M71.5993 173.72H69.5536V162.166H71.5993V173.72ZM70.5654 160.077C70.1988 160.077 69.8835 159.958 69.6196 159.721C69.3703 159.47 69.2456 159.136 69.2456 158.721C69.2456 158.307 69.3703 157.981 69.6196 157.744C69.8835 157.492 70.1988 157.366 70.5654 157.366C70.9321 157.366 71.24 157.492 71.4893 157.744C71.7533 157.981 71.8853 158.307 71.8853 158.721C71.8853 159.136 71.7533 159.47 71.4893 159.721C71.24 159.958 70.9321 160.077 70.5654 160.077Z" fill="white"/>
<path d="M75.1173 162.499C75.5866 162.38 76.2098 162.254 76.987 162.121C77.7643 161.988 78.6588 161.921 79.6707 161.921C80.5799 161.921 81.3351 162.054 81.9364 162.321C82.5376 162.573 83.0142 162.936 83.3662 163.41C83.7328 163.869 83.9894 164.425 84.1361 165.076C84.2827 165.728 84.3561 166.447 84.3561 167.232V173.72H82.3103V167.676C82.3103 166.965 82.259 166.358 82.1564 165.854C82.0684 165.35 81.9144 164.943 81.6944 164.632C81.4744 164.321 81.1811 164.099 80.8145 163.965C80.4479 163.817 79.9933 163.743 79.4507 163.743C79.2307 163.743 79.0034 163.751 78.7688 163.765C78.5342 163.78 78.3069 163.802 78.0869 163.832C77.8816 163.847 77.6909 163.869 77.515 163.899C77.3537 163.928 77.2363 163.951 77.163 163.965V173.72H75.1173V162.499Z" fill="white"/>
<path d="M94.9195 172.565C94.7435 172.683 94.3989 172.839 93.8856 173.031C93.387 173.209 92.8004 173.298 92.1259 173.298C91.4366 173.298 90.784 173.187 90.1681 172.965C89.5669 172.742 89.0389 172.402 88.5843 171.942C88.1297 171.468 87.7704 170.883 87.5065 170.187C87.2425 169.491 87.1105 168.661 87.1105 167.698C87.1105 166.854 87.2352 166.084 87.4845 165.387C87.7338 164.676 88.093 164.069 88.5623 163.565C89.0463 163.047 89.6328 162.647 90.3221 162.366C91.0113 162.069 91.7886 161.921 92.6538 161.921C93.607 161.921 94.4355 161.995 95.1395 162.143C95.858 162.277 96.4593 162.403 96.9432 162.521V172.831C96.9432 174.609 96.4886 175.898 95.5794 176.697C94.6702 177.497 93.2917 177.897 91.4439 177.897C90.7254 177.897 90.0435 177.838 89.3982 177.72C88.7676 177.601 88.2177 177.46 87.7484 177.297L88.1224 175.498C88.533 175.661 89.0316 175.801 89.6182 175.92C90.2194 176.053 90.8427 176.12 91.4879 176.12C92.7051 176.12 93.5777 175.875 94.1056 175.386C94.6482 174.898 94.9195 174.12 94.9195 173.053V172.565ZM94.8975 163.988C94.6922 163.928 94.4135 163.877 94.0616 163.832C93.7243 163.773 93.2624 163.743 92.6758 163.743C91.5759 163.743 90.7254 164.106 90.1241 164.832C89.5375 165.558 89.2442 166.521 89.2442 167.721C89.2442 168.387 89.3249 168.958 89.4862 169.432C89.6622 169.906 89.8895 170.298 90.1681 170.609C90.4614 170.92 90.7914 171.15 91.158 171.298C91.5393 171.446 91.9279 171.52 92.3238 171.52C92.8664 171.52 93.365 171.446 93.8196 171.298C94.2742 171.135 94.6335 170.95 94.8975 170.743V163.988Z" fill="white"/>
<path d="M181.324 146.33C177.171 143 170.601 142.435 170.32 142.415C169.884 142.379 169.468 142.622 169.289 143.024C169.273 143.049 169.13 143.378 168.971 143.889C171.718 144.352 175.092 145.282 178.145 147.171C178.634 147.471 178.785 148.113 178.483 148.6C178.284 148.921 177.945 149.096 177.595 149.096C177.407 149.096 177.216 149.043 177.045 148.937C171.795 145.693 165.242 145.53 163.978 145.53C162.715 145.53 156.157 145.693 150.912 148.937C150.423 149.242 149.779 149.092 149.478 148.604C149.172 148.113 149.323 147.475 149.812 147.171C152.864 145.286 156.239 144.352 158.986 143.893C158.827 143.378 158.684 143.053 158.672 143.024C158.489 142.622 158.077 142.37 157.637 142.415C157.356 142.435 150.786 143 146.576 146.375C144.379 148.401 139.982 160.244 139.982 170.482C139.982 170.665 140.03 170.84 140.12 170.998C143.152 176.31 151.43 177.699 153.317 177.76C153.325 177.76 153.337 177.76 153.349 177.76C153.684 177.76 153.997 177.602 154.193 177.334L156.1 174.718C150.953 173.394 148.324 171.144 148.173 171.01C147.741 170.633 147.701 169.975 148.084 169.544C148.463 169.114 149.123 169.073 149.555 169.451C149.616 169.508 154.458 173.601 163.978 173.601C173.515 173.601 178.357 169.491 178.406 169.451C178.838 169.077 179.494 169.114 179.877 169.548C180.256 169.979 180.215 170.633 179.783 171.01C179.633 171.144 177.004 173.394 171.856 174.718L173.764 177.334C173.959 177.602 174.273 177.76 174.607 177.76C174.62 177.76 174.632 177.76 174.64 177.76C176.527 177.699 184.804 176.31 187.837 170.998C187.926 170.84 187.975 170.665 187.975 170.482C187.975 160.244 183.578 148.401 181.324 146.33ZM157.197 166.324C155.179 166.324 153.545 164.464 153.545 162.165C153.545 159.866 155.179 158.006 157.197 158.006C159.214 158.006 160.848 159.866 160.848 162.165C160.848 164.464 159.214 166.324 157.197 166.324ZM170.76 166.324C168.743 166.324 167.108 164.464 167.108 162.165C167.108 159.866 168.743 158.006 170.76 158.006C172.777 158.006 174.412 159.866 174.412 162.165C174.412 164.464 172.777 166.324 170.76 166.324Z" fill="white"/>
</svg>
