<svg width="199" height="204" viewBox="0 0 199 204" fill="none" xmlns="http://www.w3.org/2000/svg">
<path d="M0 30.6C0 13.7001 13.4297 7.62939e-06 29.996 7.62939e-06H168.978C185.544 7.62939e-06 198.974 13.7001 198.974 30.6V173.4C198.974 190.3 185.544 204 168.978 204H29.9961C13.4297 204 0 190.3 0 173.4V30.6Z" fill="#833AA7"/>
<path d="M198.999 83.64C198.999 77.7771 198.999 32.64 198.999 27.54C196.974 14.79 189.975 4.08 175.477 0.509998L63.7054 44.3436C55.415 48.0687 49.5198 57.8969 50.2723 66.7096C50.4724 69.0414 56.8191 129.796 57.7825 139.35C58.3836 145.337 59.4447 151.632 63.0733 157.31C70.5122 168.883 85.6635 174.484 99.1115 170.584C114.085 166.278 124.191 154.236 124.935 139.951C125.273 133.713 124.863 126.653 124.408 121.307L198.999 83.64C198.974 84.66 198.999 87.21 198.999 87.21C198.999 90.27 198.974 89.76 198.974 92.31C198.974 106.08 198.999 109.14 198.974 104.04C198.978 100.98 199.005 95.8801 198.999 92.82C198.974 80.07 198.448 98.6871 198.999 83.64ZM107.99 68.3352L98.6408 72.5362L102.609 81.7259L93.259 85.9269L89.2913 76.7372L79.9417 80.9382L75.9739 71.7486L85.3235 67.5476L81.3557 58.3579L90.7053 54.1569L94.6731 63.3465L104.023 59.1456L107.99 68.3352ZM140.631 92.0725C135.581 94.3632 129.45 92.0817 127.314 87.0838C125.129 82.0223 127.643 75.8777 132.824 73.6357C138.077 71.3609 143.812 73.5844 146.036 78.7357C148.227 83.8592 145.865 89.6997 140.631 92.0725ZM187.416 71.0511C182.164 73.4321 176.252 71.2024 174.046 66.043C171.856 60.9194 174.192 55.0692 179.389 52.7128C184.494 50.3974 190.565 52.6415 192.738 57.623C194.9 62.6307 192.466 68.7604 187.416 71.0511Z" fill="white" fill-opacity="0.15"/>
<path d="M13.1483 48.96V14.4432L19.8524 13.3416V24.9084C20.3023 24.7554 20.8722 24.6177 21.5622 24.4953C22.2821 24.3423 22.972 24.2658 23.6319 24.2658C25.5516 24.2658 27.1414 24.5412 28.4013 25.092C29.6911 25.6122 30.711 26.3619 31.4609 27.3411C32.2408 28.3203 32.7807 29.4831 33.0806 30.8295C33.4106 32.1759 33.5756 33.6753 33.5756 35.3277V48.96H26.8715V36.1539C26.8715 33.9507 26.5865 32.3901 26.0166 31.4721C25.4766 30.5541 24.4568 30.0951 22.957 30.0951C22.3571 30.0951 21.7871 30.1563 21.2472 30.2787C20.7373 30.3705 20.2723 30.4776 19.8524 30.6V48.96H13.1483Z" fill="white"/>
<path d="M61.7809 36.8424C61.7809 38.7396 61.5109 40.4838 60.971 42.075C60.4311 43.6356 59.6512 44.982 58.6313 46.1142C57.6114 47.2158 56.3816 48.0726 54.9418 48.6846C53.532 49.2966 51.9422 49.6026 50.1724 49.6026C48.4326 49.6026 46.8428 49.2966 45.403 48.6846C43.9932 48.0726 42.7784 47.2158 41.7585 46.1142C40.7387 44.982 39.9438 43.6356 39.3738 42.075C38.8039 40.4838 38.5189 38.7396 38.5189 36.8424C38.5189 34.9452 38.8039 33.2163 39.3738 31.6557C39.9738 30.0951 40.7836 28.764 41.8035 27.6624C42.8534 26.5608 44.0832 25.704 45.493 25.092C46.9328 24.48 48.4926 24.174 50.1724 24.174C51.8822 24.174 53.442 24.48 54.8518 25.092C56.2916 25.704 57.5214 26.5608 58.5413 27.6624C59.5612 28.764 60.3561 30.0951 60.926 31.6557C61.4959 33.2163 61.7809 34.9452 61.7809 36.8424ZM54.9418 36.8424C54.9418 34.731 54.5218 33.0786 53.6819 31.8852C52.8721 30.6612 51.7022 30.0492 50.1724 30.0492C48.6426 30.0492 47.4578 30.6612 46.6179 31.8852C45.778 33.0786 45.358 34.731 45.358 36.8424C45.358 38.9538 45.778 40.6368 46.6179 41.8914C47.4578 43.1154 48.6426 43.7274 50.1724 43.7274C51.7022 43.7274 52.8721 43.1154 53.6819 41.8914C54.5218 40.6368 54.9418 38.9538 54.9418 36.8424Z" fill="white"/>
<path d="M82.1372 36.7047C82.1372 32.2983 80.5474 30.0951 77.3678 30.0951C76.6779 30.0951 75.988 30.1869 75.2981 30.3705C74.6382 30.5541 74.0982 30.7836 73.6783 31.059V43.4979C74.0083 43.5591 74.4282 43.6203 74.9381 43.6815C75.4481 43.7121 76.003 43.7274 76.6029 43.7274C78.4327 43.7274 79.8125 43.0848 80.7424 41.7996C81.6722 40.5144 82.1372 38.8161 82.1372 36.7047ZM88.9763 36.8883C88.9763 38.8161 88.6913 40.5603 88.1214 42.1209C87.5815 43.6815 86.7866 45.0126 85.7367 46.1142C84.6868 47.2158 83.397 48.0726 81.8672 48.6846C80.3374 49.266 78.5976 49.5567 76.6479 49.5567C75.838 49.5567 74.9831 49.5108 74.0832 49.419C73.2134 49.3578 72.3435 49.266 71.4736 49.1436C70.6337 49.0212 69.8238 48.8835 69.0439 48.7305C68.264 48.5469 67.5741 48.3633 66.9742 48.1797V14.4432L73.6783 13.3416V25.3674C74.4282 25.0308 75.2081 24.7707 76.018 24.5871C76.8279 24.4035 77.6978 24.3117 78.6276 24.3117C80.3074 24.3117 81.7922 24.6177 83.0821 25.2297C84.3719 25.8111 85.4517 26.6526 86.3216 27.7542C87.1915 28.8558 87.8514 30.1869 88.3014 31.7475C88.7513 33.2775 88.9763 34.9911 88.9763 36.8883Z" fill="white"/>
<path d="M109.292 36.7047C109.292 32.2983 107.702 30.0951 104.522 30.0951C103.833 30.0951 103.143 30.1869 102.453 30.3705C101.793 30.5541 101.253 30.7836 100.833 31.059V43.4979C101.163 43.5591 101.583 43.6203 102.093 43.6815C102.603 43.7121 103.158 43.7274 103.758 43.7274C105.587 43.7274 106.967 43.0848 107.897 41.7996C108.827 40.5144 109.292 38.8161 109.292 36.7047ZM116.131 36.8883C116.131 38.8161 115.846 40.5603 115.276 42.1209C114.736 43.6815 113.941 45.0126 112.891 46.1142C111.841 47.2158 110.552 48.0726 109.022 48.6846C107.492 49.266 105.752 49.5567 103.803 49.5567C102.993 49.5567 102.138 49.5108 101.238 49.419C100.368 49.3578 99.4981 49.266 98.6282 49.1436C97.7883 49.0212 96.9784 48.8835 96.1985 48.7305C95.4186 48.5469 94.7287 48.3633 94.1288 48.1797V14.4432L100.833 13.3416V25.3674C101.583 25.0308 102.363 24.7707 103.173 24.5871C103.982 24.4035 104.852 24.3117 105.782 24.3117C107.462 24.3117 108.947 24.6177 110.237 25.2297C111.527 25.8111 112.606 26.6526 113.476 27.7542C114.346 28.8558 115.006 30.1869 115.456 31.7475C115.906 33.2775 116.131 34.9911 116.131 36.8883Z" fill="white"/>
<path d="M127.988 48.96H121.283V24.8166H127.988V48.96ZM128.617 17.8398C128.617 19.0944 128.213 20.0889 127.403 20.8233C126.623 21.5271 125.693 21.879 124.613 21.879C123.533 21.879 122.588 21.5271 121.778 20.8233C120.998 20.0889 120.609 19.0944 120.609 17.8398C120.609 16.5852 120.998 15.606 121.778 14.9022C122.588 14.1678 123.533 13.8006 124.613 13.8006C125.693 13.8006 126.623 14.1678 127.403 14.9022C128.213 15.606 128.617 16.5852 128.617 17.8398Z" fill="white"/>
<path d="M133.165 37.0719C133.165 34.9299 133.48 33.0633 134.11 31.4721C134.769 29.8503 135.624 28.5039 136.674 27.4329C137.724 26.3619 138.924 25.551 140.274 25.0002C141.654 24.4494 143.063 24.174 144.503 24.174C147.863 24.174 150.517 25.2297 152.467 27.3411C154.417 29.4219 155.392 32.4972 155.392 36.567C155.392 36.9648 155.377 37.4085 155.347 37.8981C155.317 38.3571 155.287 38.7702 155.257 39.1374H140.049C140.199 40.545 140.844 41.6619 141.984 42.4881C143.123 43.3143 144.653 43.7274 146.573 43.7274C147.803 43.7274 149.003 43.6203 150.172 43.4061C151.372 43.1613 152.347 42.8706 153.097 42.534L153.997 48.0879C153.637 48.2715 153.157 48.4551 152.557 48.6387C151.957 48.8223 151.282 48.9753 150.532 49.0977C149.812 49.2507 149.033 49.3731 148.193 49.4649C147.353 49.5567 146.513 49.6026 145.673 49.6026C143.543 49.6026 141.684 49.2813 140.094 48.6387C138.534 47.9961 137.229 47.124 136.179 46.0224C135.159 44.8902 134.394 43.5591 133.885 42.0291C133.405 40.4991 133.165 38.8467 133.165 37.0719ZM148.913 34.4556C148.883 33.8742 148.778 33.3081 148.598 32.7573C148.448 32.2065 148.193 31.7169 147.833 31.2885C147.503 30.8601 147.068 30.5082 146.528 30.2328C146.018 29.9574 145.373 29.8197 144.593 29.8197C143.843 29.8197 143.198 29.9574 142.658 30.2328C142.118 30.4776 141.669 30.8142 141.309 31.2426C140.949 31.671 140.664 32.1759 140.454 32.7573C140.274 33.3081 140.139 33.8742 140.049 34.4556H148.913Z" fill="white"/>
<path d="M167.359 44.0487C168.589 44.0487 169.459 43.9263 169.969 43.6815C170.479 43.4367 170.734 42.9624 170.734 42.2586C170.734 41.7078 170.404 41.2335 169.744 40.8357C169.084 40.4073 168.079 39.933 166.73 39.4128C165.68 39.015 164.72 38.6019 163.85 38.1735C163.01 37.7451 162.29 37.2402 161.69 36.6588C161.09 36.0468 160.625 35.3277 160.295 34.5015C159.965 33.6753 159.8 32.6808 159.8 31.518C159.8 29.2536 160.625 27.4635 162.275 26.1477C163.925 24.8319 166.19 24.174 169.069 24.174C170.509 24.174 171.889 24.3117 173.209 24.5871C174.529 24.8319 175.578 25.1073 176.358 25.4133L175.188 30.7377C174.409 30.4623 173.554 30.2175 172.624 30.0033C171.724 29.7891 170.704 29.682 169.564 29.682C167.464 29.682 166.415 30.2787 166.415 31.4721C166.415 31.7475 166.46 31.9923 166.55 32.2065C166.64 32.4207 166.82 32.6349 167.089 32.8491C167.359 33.0327 167.719 33.2469 168.169 33.4917C168.649 33.7059 169.249 33.9507 169.969 34.2261C171.439 34.7769 172.654 35.3277 173.614 35.8785C174.574 36.3987 175.323 36.9801 175.863 37.6227C176.433 38.2347 176.823 38.9232 177.033 39.6882C177.273 40.4532 177.393 41.3406 177.393 42.3504C177.393 44.7372 176.508 46.5426 174.738 47.7666C172.999 48.9906 170.524 49.6026 167.314 49.6026C165.215 49.6026 163.46 49.419 162.05 49.0518C160.67 48.6846 159.71 48.3786 159.171 48.1338L160.295 42.5799C161.435 43.0389 162.605 43.4061 163.805 43.6815C165.005 43.9263 166.19 44.0487 167.359 44.0487Z" fill="white"/>
<path d="M12.5583 69.1805H17.5497V91.8H12.5583V69.1805Z" fill="white"/>
<path d="M36.7677 92.1264C35.3812 92.1046 34.2507 91.9523 33.3761 91.6694C32.5229 91.3866 31.8403 90.9949 31.3284 90.4944C30.8378 89.9722 30.4965 89.352 30.3045 88.6339C30.1339 87.8941 30.0485 87.0672 30.0485 86.1533V67.2547L34.8159 66.4714V85.1741C34.8159 85.6093 34.8479 86.001 34.9119 86.3491C34.9759 86.6973 35.0932 86.991 35.2639 87.2304C35.4558 87.4698 35.7225 87.6656 36.0637 87.8179C36.405 87.9702 36.8636 88.0682 37.4396 88.1117L36.7677 92.1264Z" fill="white"/>
<path d="M44.9396 91.8H40.1722V74.6314H44.9396V91.8ZM45.3875 69.6701C45.3875 70.5622 45.0996 71.2694 44.5236 71.7917C43.969 72.2922 43.3078 72.5424 42.5399 72.5424C41.772 72.5424 41.1001 72.2922 40.5242 71.7917C39.9696 71.2694 39.6923 70.5622 39.6923 69.6701C39.6923 68.7779 39.9696 68.0816 40.5242 67.5811C41.1001 67.0589 41.772 66.7978 42.5399 66.7978C43.3078 66.7978 43.969 67.0589 44.5236 67.5811C45.0996 68.0816 45.3875 68.7779 45.3875 69.6701Z" fill="white"/>
<path d="M54.1884 80.833C54.6576 80.3107 55.1376 79.7667 55.6282 79.201C56.1401 78.6352 56.6307 78.0803 57.1 77.5363C57.5692 76.9706 58.0065 76.4374 58.4118 75.937C58.8384 75.4365 59.201 75.0013 59.4997 74.6314H65.1629C64.0324 75.9587 62.9232 77.2317 61.8353 78.4502C60.7688 79.647 59.5956 80.8874 58.3158 82.1712C58.9557 82.7587 59.617 83.4659 60.2996 84.2928C60.9821 85.0979 61.6434 85.9357 62.2833 86.8061C62.9232 87.6765 63.5098 88.5469 64.0431 89.4173C64.5763 90.2877 65.0243 91.0819 65.3869 91.8H59.9156C59.5743 91.2342 59.1797 90.6141 58.7318 89.9395C58.3051 89.2432 57.8465 88.5578 57.3559 87.8832C56.8653 87.1869 56.3427 86.5232 55.7881 85.8922C55.2549 85.2611 54.7216 84.728 54.1884 84.2928V91.8H49.421V67.2547L54.1884 66.4714V80.833Z" fill="white"/>
<path d="M65.9938 83.3462C65.9938 81.823 66.2178 80.4957 66.6657 79.3642C67.135 78.2109 67.7429 77.2534 68.4895 76.4918C69.236 75.7302 70.0893 75.1536 71.0491 74.7619C72.0303 74.3702 73.0329 74.1744 74.0567 74.1744C76.4458 74.1744 78.3335 74.9251 79.72 76.4266C81.1065 77.9062 81.7997 80.0931 81.7997 82.9872C81.7997 83.2701 81.7891 83.5856 81.7677 83.9338C81.7464 84.2602 81.7251 84.5539 81.7037 84.815H70.8892C70.9958 85.816 71.4544 86.6102 72.265 87.1978C73.0755 87.7853 74.1634 88.079 75.5285 88.079C76.4031 88.079 77.2563 88.0029 78.0882 87.8506C78.9414 87.6765 79.6347 87.4698 80.1679 87.2304L80.8078 91.1798C80.5519 91.3104 80.2106 91.441 79.784 91.5715C79.3574 91.7021 78.8774 91.8109 78.3442 91.8979C77.8322 92.0067 77.2776 92.0938 76.6804 92.159C76.0831 92.2243 75.4859 92.257 74.8886 92.257C73.3742 92.257 72.0517 92.0285 70.9212 91.5715C69.812 91.1146 68.8841 90.4944 68.1375 89.711C67.4123 88.9059 66.8684 87.9594 66.5057 86.8714C66.1644 85.7834 65.9938 84.6083 65.9938 83.3462ZM77.1923 81.4858C77.171 81.0723 77.0963 80.6698 76.9684 80.2781C76.8617 79.8864 76.6804 79.5382 76.4244 79.2336C76.1898 78.929 75.8805 78.6787 75.4965 78.4829C75.1339 78.287 74.6753 78.1891 74.1207 78.1891C73.5875 78.1891 73.1289 78.287 72.7449 78.4829C72.361 78.657 72.041 78.8963 71.785 79.201C71.5291 79.5056 71.3264 79.8646 71.1771 80.2781C71.0491 80.6698 70.9531 81.0723 70.8892 81.4858H77.1923Z" fill="white"/>
<path d="M90.1501 77.6342C90.1501 78.6134 89.8408 79.3642 89.2222 79.8864C88.625 80.3869 87.9424 80.6371 87.1745 80.6371C86.4066 80.6371 85.7134 80.3869 85.0948 79.8864C84.4975 79.3642 84.1989 78.6134 84.1989 77.6342C84.1989 76.655 84.4975 75.9152 85.0948 75.4147C85.7134 74.8925 86.4066 74.6314 87.1745 74.6314C87.9424 74.6314 88.625 74.8925 89.2222 75.4147C89.8408 75.9152 90.1501 76.655 90.1501 77.6342ZM90.1501 89.2214C90.1501 90.2006 89.8408 90.9514 89.2222 91.4736C88.625 91.9741 87.9424 92.2243 87.1745 92.2243C86.4066 92.2243 85.7134 91.9741 85.0948 91.4736C84.4975 90.9514 84.1989 90.2006 84.1989 89.2214C84.1989 88.2422 84.4975 87.5024 85.0948 87.0019C85.7134 86.4797 86.4066 86.2186 87.1745 86.2186C87.9424 86.2186 88.625 86.4797 89.2222 87.0019C89.8408 87.5024 90.1501 88.2422 90.1501 89.2214Z" fill="white"/>
<path d="M17.3099 112.439C17.3099 112.828 17.2439 113.194 17.1119 113.538C16.9799 113.882 16.7893 114.182 16.54 114.436C16.3053 114.69 16.012 114.9 15.6601 115.064C15.3228 115.214 14.9342 115.289 14.4942 115.289C14.0543 115.289 13.6583 115.214 13.3064 115.064C12.9691 114.9 12.6758 114.69 12.4265 114.436C12.1919 114.182 12.0085 113.882 11.8766 113.538C11.7446 113.194 11.6786 112.828 11.6786 112.439C11.6786 112.065 11.7446 111.706 11.8766 111.362C12.0085 111.003 12.1919 110.696 12.4265 110.442C12.6758 110.187 12.9691 109.985 13.3064 109.836C13.6583 109.671 14.0543 109.589 14.4942 109.589C14.9342 109.589 15.3228 109.671 15.6601 109.836C16.012 109.985 16.3053 110.187 16.54 110.442C16.7893 110.696 16.9799 111.003 17.1119 111.362C17.2439 111.706 17.3099 112.065 17.3099 112.439Z" fill="white"/>
<path d="M41.6865 108.691C41.1146 110.875 40.44 112.97 39.6628 114.974C38.9002 116.979 38.1596 118.774 37.4411 120.36H35.5933C34.8747 118.774 34.1268 116.979 33.3496 114.974C32.587 112.97 31.9198 110.875 31.3479 108.691H33.5476C33.7236 109.424 33.9289 110.21 34.1635 111.047C34.4128 111.87 34.6694 112.693 34.9334 113.516C35.212 114.324 35.4907 115.109 35.7693 115.872C36.0479 116.635 36.3119 117.316 36.5612 117.914C36.8105 117.316 37.0744 116.635 37.3531 115.872C37.6317 115.109 37.903 114.324 38.167 113.516C38.4456 112.693 38.7022 111.87 38.9369 111.047C39.1862 110.21 39.3988 109.424 39.5748 108.691H41.6865Z" fill="white"/>
<path d="M45.8429 120.36H43.7972V108.691H45.8429V120.36ZM44.8091 106.582C44.4424 106.582 44.1272 106.462 43.8632 106.223C43.6139 105.968 43.4892 105.632 43.4892 105.213C43.4892 104.794 43.6139 104.465 43.8632 104.226C44.1272 103.971 44.4424 103.844 44.8091 103.844C45.1757 103.844 45.4836 103.971 45.7329 104.226C45.9969 104.465 46.1289 104.794 46.1289 105.213C46.1289 105.632 45.9969 105.968 45.7329 106.223C45.4836 106.462 45.1757 106.582 44.8091 106.582Z" fill="white"/>
<path d="M56.7519 111.16C56.5026 110.95 56.1434 110.748 55.6741 110.554C55.2048 110.359 54.6915 110.262 54.1343 110.262C53.5477 110.262 53.0418 110.374 52.6165 110.599C52.2059 110.808 51.8686 111.107 51.6046 111.496C51.3407 111.87 51.15 112.319 51.0327 112.843C50.9154 113.366 50.8567 113.927 50.8567 114.526C50.8567 115.887 51.1867 116.942 51.8466 117.69C52.5065 118.423 53.3864 118.789 54.4862 118.789C55.0435 118.789 55.5054 118.767 55.8721 118.722C56.2533 118.662 56.5466 118.602 56.7519 118.542V111.16ZM56.7519 103.306L58.7977 102.947V120.023C58.3284 120.158 57.7271 120.293 56.9939 120.427C56.2607 120.562 55.4174 120.629 54.4642 120.629C53.5844 120.629 52.7925 120.487 52.0886 120.203C51.3846 119.919 50.7834 119.515 50.2848 118.991C49.7862 118.468 49.3976 117.832 49.1189 117.084C48.855 116.321 48.723 115.468 48.723 114.526C48.723 113.628 48.833 112.805 49.053 112.057C49.2876 111.309 49.6249 110.666 50.0648 110.127C50.5048 109.589 51.04 109.17 51.6706 108.871C52.3159 108.572 53.0491 108.422 53.8703 108.422C54.5302 108.422 55.1095 108.512 55.6081 108.691C56.1214 108.871 56.5026 109.043 56.7519 109.207V103.306Z" fill="white"/>
<path d="M61.6764 114.548C61.6764 113.516 61.823 112.618 62.1163 111.855C62.4096 111.077 62.7982 110.434 63.2822 109.925C63.7661 109.417 64.3234 109.035 64.9539 108.781C65.5845 108.527 66.2298 108.399 66.8897 108.399C68.4295 108.399 69.61 108.893 70.4312 109.881C71.2524 110.853 71.6631 112.341 71.6631 114.346C71.6631 114.436 71.6631 114.556 71.6631 114.705C71.6631 114.84 71.6557 114.967 71.6411 115.087H63.8101C63.8981 116.298 64.2427 117.218 64.844 117.847C65.4452 118.475 66.3837 118.789 67.6596 118.789C68.3782 118.789 68.9794 118.729 69.4633 118.61C69.9619 118.475 70.3359 118.348 70.5852 118.228L70.8712 119.979C70.6219 120.113 70.1819 120.255 69.5513 120.405C68.9354 120.554 68.2315 120.629 67.4396 120.629C66.4424 120.629 65.5772 120.48 64.844 120.18C64.1254 119.866 63.5315 119.44 63.0622 118.901C62.5929 118.363 62.241 117.727 62.0063 116.994C61.7864 116.246 61.6764 115.431 61.6764 114.548ZM69.5293 113.404C69.544 112.461 69.3094 111.691 68.8254 111.092C68.3562 110.479 67.7036 110.172 66.8677 110.172C66.3984 110.172 65.9805 110.269 65.6138 110.464C65.2619 110.643 64.9613 110.883 64.712 111.182C64.4627 111.481 64.2647 111.825 64.118 112.214C63.9861 112.603 63.8981 113 63.8541 113.404H69.5293Z" fill="white"/>
<path d="M84.6984 114.526C84.6984 115.453 84.5664 116.291 84.3024 117.039C84.0385 117.787 83.6645 118.43 83.1806 118.969C82.7113 119.507 82.1467 119.926 81.4868 120.225C80.8269 120.51 80.1083 120.652 79.3311 120.652C78.5539 120.652 77.8353 120.51 77.1754 120.225C76.5155 119.926 75.9436 119.507 75.4596 118.969C74.9903 118.43 74.6237 117.787 74.3598 117.039C74.0958 116.291 73.9638 115.453 73.9638 114.526C73.9638 113.613 74.0958 112.783 74.3598 112.035C74.6237 111.272 74.9903 110.621 75.4596 110.082C75.9436 109.544 76.5155 109.133 77.1754 108.848C77.8353 108.549 78.5539 108.399 79.3311 108.399C80.1083 108.399 80.8269 108.549 81.4868 108.848C82.1467 109.133 82.7113 109.544 83.1806 110.082C83.6645 110.621 84.0385 111.272 84.3024 112.035C84.5664 112.783 84.6984 113.613 84.6984 114.526ZM82.5647 114.526C82.5647 113.209 82.2714 112.169 81.6848 111.406C81.1129 110.629 80.3283 110.24 79.3311 110.24C78.3339 110.24 77.542 110.629 76.9554 111.406C76.3835 112.169 76.0975 113.209 76.0975 114.526C76.0975 115.842 76.3835 116.889 76.9554 117.667C77.542 118.43 78.3339 118.812 79.3311 118.812C80.3283 118.812 81.1129 118.43 81.6848 117.667C82.2714 116.889 82.5647 115.842 82.5647 114.526Z" fill="white"/>
<path d="M99.8388 119.193C99.6628 119.313 99.3182 119.47 98.8049 119.664C98.3063 119.844 97.7197 119.934 97.0451 119.934C96.3559 119.934 95.7033 119.821 95.0874 119.597C94.4861 119.373 93.9582 119.029 93.5036 118.565C93.049 118.086 92.6897 117.495 92.4257 116.792C92.1618 116.089 92.0298 115.251 92.0298 114.279C92.0298 113.426 92.1544 112.648 92.4037 111.945C92.653 111.227 93.0123 110.614 93.4816 110.105C93.9655 109.581 94.5521 109.177 95.2414 108.893C95.9306 108.594 96.7078 108.444 97.5731 108.444C98.5263 108.444 99.3548 108.519 100.059 108.669C100.777 108.803 101.379 108.931 101.862 109.05V119.462C101.862 121.258 101.408 122.559 100.499 123.367C99.5895 124.175 98.211 124.579 96.3632 124.579C95.6446 124.579 94.9627 124.519 94.3175 124.399C93.6869 124.28 93.137 124.137 92.6677 123.973L93.0417 122.155C93.4523 122.32 93.9509 122.462 94.5375 122.582C95.1387 122.716 95.762 122.784 96.4072 122.784C97.6244 122.784 98.4969 122.537 99.0249 122.043C99.5675 121.549 99.8388 120.764 99.8388 119.687V119.193ZM99.8168 110.531C99.6115 110.471 99.3328 110.419 98.9809 110.374C98.6436 110.314 98.1816 110.284 97.5951 110.284C96.4952 110.284 95.6446 110.651 95.0434 111.384C94.4568 112.117 94.1635 113.089 94.1635 114.301C94.1635 114.974 94.2442 115.55 94.4055 116.029C94.5815 116.508 94.8088 116.904 95.0874 117.218C95.3807 117.533 95.7106 117.764 96.0773 117.914C96.4585 118.064 96.8471 118.138 97.2431 118.138C97.7857 118.138 98.2843 118.064 98.7389 117.914C99.1935 117.749 99.5528 117.562 99.8168 117.353V110.531Z" fill="white"/>
<path d="M109.256 118.857C109.74 118.857 110.165 118.849 110.532 118.834C110.913 118.804 111.229 118.759 111.478 118.699V115.221C111.331 115.146 111.089 115.087 110.752 115.042C110.429 114.982 110.033 114.952 109.564 114.952C109.256 114.952 108.926 114.974 108.574 115.019C108.237 115.064 107.922 115.161 107.628 115.311C107.35 115.446 107.115 115.64 106.925 115.894C106.734 116.134 106.639 116.455 106.639 116.859C106.639 117.607 106.873 118.131 107.343 118.43C107.812 118.714 108.45 118.857 109.256 118.857ZM109.08 108.399C109.902 108.399 110.591 108.512 111.148 108.736C111.72 108.946 112.175 109.252 112.512 109.656C112.864 110.045 113.113 110.516 113.26 111.07C113.406 111.608 113.48 112.207 113.48 112.865V120.158C113.304 120.188 113.054 120.233 112.732 120.293C112.424 120.338 112.072 120.382 111.676 120.427C111.28 120.472 110.847 120.51 110.378 120.54C109.924 120.584 109.469 120.607 109.014 120.607C108.369 120.607 107.775 120.54 107.233 120.405C106.69 120.27 106.221 120.061 105.825 119.777C105.429 119.477 105.121 119.088 104.901 118.61C104.681 118.131 104.571 117.555 104.571 116.882C104.571 116.239 104.696 115.685 104.945 115.221C105.209 114.757 105.561 114.383 106.001 114.099C106.441 113.815 106.954 113.606 107.54 113.471C108.127 113.336 108.743 113.269 109.388 113.269C109.594 113.269 109.806 113.284 110.026 113.314C110.246 113.329 110.451 113.359 110.642 113.404C110.847 113.434 111.023 113.463 111.17 113.493C111.317 113.523 111.419 113.546 111.478 113.561V112.977C111.478 112.633 111.441 112.297 111.368 111.967C111.295 111.623 111.163 111.324 110.972 111.07C110.781 110.801 110.517 110.591 110.18 110.442C109.858 110.277 109.432 110.195 108.904 110.195C108.23 110.195 107.636 110.247 107.123 110.352C106.624 110.442 106.25 110.539 106.001 110.643L105.759 108.916C106.023 108.796 106.463 108.684 107.079 108.579C107.694 108.459 108.362 108.399 109.08 108.399Z" fill="white"/>
<path d="M116.877 109.028C117.347 108.908 117.963 108.781 118.725 108.646C119.502 108.512 120.397 108.444 121.409 108.444C122.142 108.444 122.758 108.549 123.257 108.759C123.755 108.953 124.173 109.245 124.51 109.634C124.613 109.559 124.774 109.454 124.994 109.32C125.214 109.185 125.486 109.058 125.808 108.938C126.131 108.803 126.49 108.691 126.886 108.601C127.282 108.497 127.707 108.444 128.162 108.444C129.042 108.444 129.76 108.579 130.318 108.848C130.875 109.103 131.307 109.469 131.615 109.948C131.938 110.427 132.151 110.995 132.253 111.653C132.371 112.312 132.429 113.03 132.429 113.808V120.36H130.384V114.256C130.384 113.568 130.347 112.977 130.274 112.484C130.215 111.99 130.09 111.578 129.9 111.249C129.724 110.92 129.474 110.681 129.152 110.531C128.844 110.367 128.441 110.284 127.942 110.284C127.253 110.284 126.681 110.382 126.226 110.576C125.786 110.756 125.486 110.92 125.324 111.07C125.442 111.459 125.53 111.885 125.588 112.349C125.647 112.813 125.676 113.299 125.676 113.808V120.36H123.631V114.256C123.631 113.568 123.594 112.977 123.521 112.484C123.447 111.99 123.315 111.578 123.125 111.249C122.949 110.92 122.699 110.681 122.377 110.531C122.069 110.367 121.673 110.284 121.189 110.284C120.984 110.284 120.764 110.292 120.529 110.307C120.294 110.322 120.067 110.344 119.847 110.374C119.642 110.389 119.451 110.412 119.275 110.442C119.099 110.471 118.982 110.494 118.923 110.509V120.36H116.877V109.028Z" fill="white"/>
<path d="M135.186 114.548C135.186 113.516 135.333 112.618 135.626 111.855C135.919 111.077 136.308 110.434 136.792 109.925C137.276 109.417 137.833 109.035 138.464 108.781C139.094 108.527 139.74 108.399 140.4 108.399C141.939 108.399 143.12 108.893 143.941 109.881C144.762 110.853 145.173 112.341 145.173 114.346C145.173 114.436 145.173 114.556 145.173 114.705C145.173 114.84 145.166 114.967 145.151 115.087H137.32C137.408 116.298 137.753 117.218 138.354 117.847C138.955 118.475 139.894 118.789 141.169 118.789C141.888 118.789 142.489 118.729 142.973 118.61C143.472 118.475 143.846 118.348 144.095 118.228L144.381 119.979C144.132 120.113 143.692 120.255 143.061 120.405C142.445 120.554 141.741 120.629 140.949 120.629C139.952 120.629 139.087 120.48 138.354 120.18C137.635 119.866 137.041 119.44 136.572 118.901C136.103 118.363 135.751 117.727 135.516 116.994C135.296 116.246 135.186 115.431 135.186 114.548ZM143.039 113.404C143.054 112.461 142.819 111.691 142.335 111.092C141.866 110.479 141.213 110.172 140.378 110.172C139.908 110.172 139.49 110.269 139.124 110.464C138.772 110.643 138.471 110.883 138.222 111.182C137.973 111.481 137.775 111.825 137.628 112.214C137.496 112.603 137.408 113 137.364 113.404H143.039Z" fill="white"/>
<path d="M150.773 118.857C151.609 118.857 152.225 118.744 152.621 118.52C153.032 118.296 153.237 117.936 153.237 117.443C153.237 116.934 153.039 116.53 152.643 116.231C152.247 115.932 151.594 115.595 150.685 115.221C150.245 115.042 149.82 114.862 149.409 114.683C149.013 114.488 148.669 114.264 148.376 114.009C148.082 113.755 147.848 113.448 147.672 113.089C147.496 112.73 147.408 112.289 147.408 111.765C147.408 110.733 147.782 109.918 148.53 109.32C149.277 108.706 150.297 108.399 151.587 108.399C151.91 108.399 152.232 108.422 152.555 108.467C152.878 108.497 153.178 108.542 153.457 108.601C153.735 108.646 153.977 108.699 154.183 108.759C154.403 108.818 154.571 108.871 154.689 108.916L154.315 110.711C154.095 110.591 153.75 110.471 153.281 110.352C152.812 110.217 152.247 110.15 151.587 110.15C151.015 110.15 150.517 110.269 150.091 110.509C149.666 110.733 149.453 111.092 149.453 111.586C149.453 111.84 149.497 112.065 149.585 112.259C149.688 112.454 149.835 112.633 150.025 112.798C150.231 112.947 150.48 113.089 150.773 113.224C151.067 113.359 151.418 113.501 151.829 113.65C152.372 113.86 152.856 114.069 153.281 114.279C153.706 114.473 154.065 114.705 154.359 114.974C154.667 115.244 154.901 115.573 155.063 115.962C155.224 116.336 155.305 116.8 155.305 117.353C155.305 118.43 154.909 119.245 154.117 119.799C153.34 120.353 152.225 120.629 150.773 120.629C149.761 120.629 148.969 120.54 148.398 120.36C147.826 120.195 147.437 120.068 147.232 119.979L147.606 118.183C147.84 118.273 148.214 118.408 148.727 118.587C149.241 118.767 149.923 118.857 150.773 118.857Z" fill="white"/>
<path d="M17.3099 139.979C17.3099 140.368 17.2439 140.734 17.1119 141.078C16.9799 141.422 16.7893 141.722 16.54 141.976C16.3053 142.23 16.012 142.44 15.6601 142.604C15.3228 142.754 14.9342 142.829 14.4942 142.829C14.0543 142.829 13.6583 142.754 13.3064 142.604C12.9691 142.44 12.6758 142.23 12.4265 141.976C12.1919 141.722 12.0085 141.422 11.8766 141.078C11.7446 140.734 11.6786 140.368 11.6786 139.979C11.6786 139.605 11.7446 139.246 11.8766 138.902C12.0085 138.543 12.1919 138.236 12.4265 137.982C12.6758 137.727 12.9691 137.525 13.3064 137.376C13.6583 137.211 14.0543 137.129 14.4942 137.129C14.9342 137.129 15.3228 137.211 15.6601 137.376C16.012 137.525 16.3053 137.727 16.54 137.982C16.7893 138.236 16.9799 138.543 17.1119 138.902C17.2439 139.246 17.3099 139.605 17.3099 139.979Z" fill="white"/>
<path d="M40.1467 138.7C39.8974 138.49 39.5381 138.288 39.0688 138.094C38.5996 137.899 38.0863 137.802 37.5291 137.802C36.9425 137.802 36.4365 137.914 36.0113 138.139C35.6006 138.348 35.2634 138.647 34.9994 139.036C34.7354 139.41 34.5448 139.859 34.4275 140.383C34.3101 140.906 34.2515 141.467 34.2515 142.066C34.2515 143.427 34.5814 144.482 35.2414 145.23C35.9013 145.963 36.7812 146.329 37.881 146.329C38.4383 146.329 38.9002 146.307 39.2668 146.262C39.6481 146.202 39.9414 146.142 40.1467 146.082V138.7ZM40.1467 130.846L42.1924 130.487V147.563C41.7232 147.698 41.1219 147.833 40.3887 147.967C39.6554 148.102 38.8122 148.169 37.859 148.169C36.9791 148.169 36.1872 148.027 35.4833 147.743C34.7794 147.459 34.1782 147.055 33.6796 146.531C33.181 146.008 32.7923 145.372 32.5137 144.624C32.2497 143.861 32.1178 143.008 32.1178 142.066C32.1178 141.168 32.2278 140.345 32.4477 139.597C32.6824 138.849 33.0196 138.206 33.4596 137.667C33.8995 137.129 34.4348 136.71 35.0654 136.411C35.7106 136.112 36.4439 135.962 37.2651 135.962C37.925 135.962 38.5043 136.052 39.0029 136.231C39.5161 136.411 39.8974 136.583 40.1467 136.747V130.846Z" fill="white"/>
<path d="M45.0711 142.088C45.0711 141.056 45.2178 140.158 45.5111 139.395C45.8044 138.617 46.193 137.974 46.6769 137.465C47.1609 136.957 47.7181 136.575 48.3487 136.321C48.9793 136.067 49.6245 135.939 50.2844 135.939C51.8242 135.939 53.0048 136.433 53.826 137.421C54.6472 138.393 55.0578 139.881 55.0578 141.886C55.0578 141.976 55.0578 142.096 55.0578 142.245C55.0578 142.38 55.0505 142.507 55.0358 142.627H47.2049C47.2928 143.838 47.6375 144.758 48.2387 145.387C48.84 146.015 49.7785 146.329 51.0543 146.329C51.7729 146.329 52.3742 146.269 52.8581 146.15C53.3567 146.015 53.7307 145.888 53.98 145.768L54.2659 147.519C54.0166 147.653 53.5767 147.795 52.9461 147.945C52.3302 148.094 51.6263 148.169 50.8344 148.169C49.8372 148.169 48.972 148.02 48.2387 147.72C47.5201 147.406 46.9262 146.98 46.457 146.441C45.9877 145.903 45.6357 145.267 45.4011 144.534C45.1811 143.786 45.0711 142.971 45.0711 142.088ZM52.9241 140.944C52.9388 140.001 52.7041 139.231 52.2202 138.632C51.7509 138.019 51.0983 137.712 50.2624 137.712C49.7932 137.712 49.3752 137.809 49.0086 138.004C48.6567 138.183 48.356 138.423 48.1067 138.722C47.8574 139.021 47.6595 139.365 47.5128 139.754C47.3808 140.143 47.2928 140.54 47.2488 140.944H52.9241Z" fill="white"/>
<path d="M60.6581 146.397C61.494 146.397 62.11 146.284 62.5059 146.06C62.9165 145.836 63.1218 145.476 63.1218 144.983C63.1218 144.474 62.9238 144.07 62.5279 143.771C62.1319 143.472 61.4794 143.135 60.5702 142.761C60.1302 142.582 59.7049 142.402 59.2943 142.223C58.8984 142.028 58.5538 141.804 58.2605 141.549C57.9672 141.295 57.7325 140.988 57.5566 140.629C57.3806 140.27 57.2926 139.829 57.2926 139.305C57.2926 138.273 57.6665 137.458 58.4144 136.86C59.1623 136.246 60.1815 135.939 61.472 135.939C61.7947 135.939 62.1173 135.962 62.4399 136.007C62.7625 136.037 63.0632 136.082 63.3418 136.141C63.6204 136.186 63.8624 136.239 64.0677 136.299C64.2877 136.358 64.4563 136.411 64.5736 136.456L64.1997 138.251C63.9797 138.131 63.6351 138.011 63.1658 137.892C62.6965 137.757 62.1319 137.69 61.472 137.69C60.9001 137.69 60.4015 137.809 59.9762 138.049C59.551 138.273 59.3383 138.632 59.3383 139.126C59.3383 139.38 59.3823 139.605 59.4703 139.799C59.573 139.994 59.7196 140.173 59.9102 140.338C60.1155 140.487 60.3648 140.629 60.6581 140.764C60.9514 140.899 61.3034 141.041 61.714 141.19C62.2566 141.4 62.7405 141.609 63.1658 141.819C63.5911 142.013 63.9504 142.245 64.2437 142.514C64.5516 142.784 64.7863 143.113 64.9476 143.502C65.1089 143.876 65.1895 144.34 65.1895 144.893C65.1895 145.97 64.7936 146.785 64.0017 147.339C63.2245 147.893 62.11 148.169 60.6581 148.169C59.6463 148.169 58.8544 148.08 58.2825 147.9C57.7105 147.735 57.3219 147.608 57.1166 147.519L57.4906 145.723C57.7252 145.813 58.0991 145.948 58.6124 146.127C59.1257 146.307 59.8076 146.397 60.6581 146.397Z" fill="white"/>
<path d="M69.8593 147.9H67.8136V136.231H69.8593V147.9ZM68.8254 134.122C68.4588 134.122 68.1435 134.002 67.8795 133.763C67.6302 133.508 67.5056 133.172 67.5056 132.753C67.5056 132.334 67.6302 132.005 67.8795 131.766C68.1435 131.511 68.4588 131.384 68.8254 131.384C69.192 131.384 69.5 131.511 69.7493 131.766C70.0133 132.005 70.1453 132.334 70.1453 132.753C70.1453 133.172 70.0133 133.508 69.7493 133.763C69.5 134.002 69.192 134.122 68.8254 134.122Z" fill="white"/>
<path d="M80.5483 146.733C80.3724 146.853 80.0277 147.01 79.5145 147.204C79.0159 147.384 78.4293 147.474 77.7547 147.474C77.0655 147.474 76.4129 147.361 75.797 147.137C75.1957 146.913 74.6678 146.569 74.2132 146.105C73.7586 145.626 73.3993 145.035 73.1353 144.332C72.8713 143.629 72.7394 142.791 72.7394 141.819C72.7394 140.966 72.864 140.188 73.1133 139.485C73.3626 138.767 73.7219 138.154 74.1912 137.645C74.6751 137.121 75.2617 136.717 75.9509 136.433C76.6402 136.134 77.4174 135.984 78.2826 135.984C79.2358 135.984 80.0644 136.059 80.7683 136.209C81.4869 136.343 82.0881 136.471 82.5721 136.59V147.002C82.5721 148.798 82.1175 150.099 81.2082 150.907C80.299 151.715 78.9205 152.119 77.0728 152.119C76.3542 152.119 75.6723 152.059 75.0271 151.939C74.3965 151.82 73.8466 151.677 73.3773 151.513L73.7512 149.695C74.1618 149.86 74.6604 150.002 75.247 150.122C75.8483 150.256 76.4715 150.324 77.1168 150.324C78.334 150.324 79.2065 150.077 79.7344 149.583C80.277 149.089 80.5483 148.304 80.5483 147.227V146.733ZM80.5263 138.071C80.321 138.011 80.0424 137.959 79.6904 137.914C79.3532 137.854 78.8912 137.824 78.3046 137.824C77.2048 137.824 76.3542 138.191 75.753 138.924C75.1664 139.657 74.8731 140.629 74.8731 141.841C74.8731 142.514 74.9537 143.09 75.115 143.569C75.291 144.048 75.5183 144.444 75.797 144.758C76.0903 145.073 76.4202 145.304 76.7868 145.454C77.1681 145.604 77.5567 145.678 77.9527 145.678C78.4953 145.678 78.9939 145.604 79.4485 145.454C79.9031 145.289 80.2624 145.102 80.5263 144.893V138.071Z" fill="white"/>
<path d="M86.0944 136.568C86.5636 136.448 87.1869 136.321 87.9641 136.186C88.7413 136.052 89.6359 135.984 90.6478 135.984C91.557 135.984 92.3122 136.119 92.9135 136.388C93.5147 136.643 93.9913 137.009 94.3433 137.488C94.7099 137.952 94.9665 138.513 95.1132 139.171C95.2598 139.829 95.3331 140.555 95.3331 141.348V147.9H93.2874V141.796C93.2874 141.078 93.2361 140.465 93.1334 139.956C93.0454 139.448 92.8915 139.036 92.6715 138.722C92.4515 138.408 92.1582 138.183 91.7916 138.049C91.425 137.899 90.9704 137.824 90.4278 137.824C90.2078 137.824 89.9805 137.832 89.7459 137.847C89.5112 137.862 89.2839 137.884 89.064 137.914C88.8587 137.929 88.668 137.952 88.492 137.982C88.3307 138.011 88.2134 138.034 88.1401 138.049V147.9H86.0944V136.568Z" fill="white"/>
<path d="M17.3099 167.519C17.3099 167.908 17.2439 168.274 17.1119 168.618C16.9799 168.962 16.7893 169.262 16.54 169.516C16.3053 169.77 16.012 169.98 15.6601 170.144C15.3228 170.294 14.9342 170.369 14.4942 170.369C14.0543 170.369 13.6583 170.294 13.3064 170.144C12.9691 169.98 12.6758 169.77 12.4265 169.516C12.1919 169.262 12.0085 168.962 11.8766 168.618C11.7446 168.274 11.6786 167.908 11.6786 167.519C11.6786 167.145 11.7446 166.786 11.8766 166.442C12.0085 166.083 12.1919 165.776 12.4265 165.522C12.6758 165.267 12.9691 165.065 13.3064 164.916C13.6583 164.751 14.0543 164.669 14.4942 164.669C14.9342 164.669 15.3228 164.751 15.6601 164.916C16.012 165.065 16.3053 165.267 16.54 165.522C16.7893 165.776 16.9799 166.083 17.1119 166.442C17.2439 166.786 17.3099 167.145 17.3099 167.519Z" fill="white"/>
<path d="M34.8014 164.287C35.0507 164.123 35.4247 163.951 35.9233 163.771C36.4365 163.592 37.0231 163.502 37.683 163.502C38.5043 163.502 39.2302 163.652 39.8607 163.951C40.506 164.25 41.0486 164.669 41.4885 165.207C41.9285 165.746 42.2584 166.389 42.4784 167.137C42.713 167.885 42.8304 168.708 42.8304 169.606C42.8304 170.548 42.691 171.401 42.4124 172.164C42.1484 172.912 41.7672 173.548 41.2686 174.071C40.77 174.595 40.1687 174.999 39.4648 175.283C38.7609 175.567 37.969 175.709 37.0891 175.709C36.1359 175.709 35.2927 175.642 34.5594 175.507C33.8262 175.373 33.225 175.238 32.7557 175.103V158.386L34.8014 158.027V164.287ZM34.8014 173.622C35.0067 173.682 35.2927 173.742 35.6593 173.802C36.0406 173.847 36.5099 173.869 37.0671 173.869C38.167 173.869 39.0469 173.503 39.7068 172.77C40.3667 172.022 40.6966 170.967 40.6966 169.606C40.6966 169.007 40.638 168.446 40.5207 167.923C40.4033 167.399 40.2127 166.95 39.9487 166.576C39.6848 166.187 39.3401 165.888 38.9149 165.679C38.5043 165.454 38.0057 165.342 37.4191 165.342C36.8618 165.342 36.3485 165.439 35.8793 165.634C35.41 165.828 35.0507 166.03 34.8014 166.24V173.622Z" fill="white"/>
<path d="M55.8057 169.606C55.8057 170.533 55.6737 171.371 55.4098 172.119C55.1458 172.867 54.7719 173.51 54.2879 174.049C53.8186 174.587 53.2541 175.006 52.5941 175.305C51.9342 175.59 51.2157 175.732 50.4384 175.732C49.6612 175.732 48.9426 175.59 48.2827 175.305C47.6228 175.006 47.0509 174.587 46.5669 174.049C46.0977 173.51 45.731 172.867 45.4671 172.119C45.2031 171.371 45.0711 170.533 45.0711 169.606C45.0711 168.693 45.2031 167.863 45.4671 167.115C45.731 166.352 46.0977 165.701 46.5669 165.162C47.0509 164.624 47.6228 164.213 48.2827 163.928C48.9426 163.629 49.6612 163.479 50.4384 163.479C51.2157 163.479 51.9342 163.629 52.5941 163.928C53.2541 164.213 53.8186 164.624 54.2879 165.162C54.7719 165.701 55.1458 166.352 55.4098 167.115C55.6737 167.863 55.8057 168.693 55.8057 169.606ZM53.672 169.606C53.672 168.289 53.3787 167.249 52.7921 166.486C52.2202 165.709 51.4356 165.32 50.4384 165.32C49.4412 165.32 48.6493 165.709 48.0627 166.486C47.4908 167.249 47.2049 168.289 47.2049 169.606C47.2049 170.922 47.4908 171.969 48.0627 172.747C48.6493 173.51 49.4412 173.892 50.4384 173.892C51.4356 173.892 52.2202 173.51 52.7921 172.747C53.3787 171.969 53.672 170.922 53.672 169.606Z" fill="white"/>
<path d="M65.1598 175.44C64.9985 175.111 64.8005 174.744 64.5659 174.34C64.3313 173.937 64.0746 173.525 63.796 173.106C63.5174 172.672 63.2314 172.246 62.9381 171.827C62.6448 171.408 62.3588 171.012 62.0802 170.638C61.8016 171.012 61.5156 171.416 61.2223 171.85C60.929 172.268 60.6431 172.695 60.3644 173.129C60.1005 173.548 59.8512 173.959 59.6165 174.363C59.3819 174.767 59.1839 175.126 59.0226 175.44H56.9109C57.4242 174.423 58.0328 173.39 58.7367 172.343C59.4552 171.281 60.1665 170.271 60.8704 169.314L57.0869 163.771H59.3966L62.1242 167.855L64.8739 163.771H67.0516L63.3561 169.179C64.06 170.152 64.7785 171.184 65.5118 172.276C66.2597 173.353 66.8903 174.408 67.4035 175.44H65.1598Z" fill="white"/>
<path d="M71.5993 175.44H69.5536V163.771H71.5993V175.44ZM70.5654 161.662C70.1988 161.662 69.8835 161.542 69.6196 161.303C69.3703 161.048 69.2456 160.712 69.2456 160.293C69.2456 159.874 69.3703 159.545 69.6196 159.306C69.8835 159.051 70.1988 158.924 70.5654 158.924C70.9321 158.924 71.24 159.051 71.4893 159.306C71.7533 159.545 71.8853 159.874 71.8853 160.293C71.8853 160.712 71.7533 161.048 71.4893 161.303C71.24 161.542 70.9321 161.662 70.5654 161.662Z" fill="white"/>
<path d="M75.1173 164.108C75.5866 163.988 76.2098 163.861 76.987 163.726C77.7643 163.592 78.6588 163.524 79.6707 163.524C80.5799 163.524 81.3351 163.659 81.9364 163.928C82.5376 164.183 83.0142 164.549 83.3662 165.028C83.7328 165.492 83.9894 166.053 84.1361 166.711C84.2827 167.369 84.3561 168.095 84.3561 168.888V175.44H82.3103V169.336C82.3103 168.618 82.259 168.005 82.1564 167.496C82.0684 166.988 81.9144 166.576 81.6944 166.262C81.4744 165.948 81.1811 165.723 80.8145 165.589C80.4479 165.439 79.9933 165.364 79.4507 165.364C79.2307 165.364 79.0034 165.372 78.7688 165.387C78.5342 165.402 78.3069 165.424 78.0869 165.454C77.8816 165.469 77.6909 165.492 77.515 165.522C77.3537 165.551 77.2363 165.574 77.163 165.589V175.44H75.1173V164.108Z" fill="white"/>
<path d="M94.9195 174.273C94.7435 174.393 94.3989 174.55 93.8856 174.744C93.387 174.924 92.8004 175.014 92.1259 175.014C91.4366 175.014 90.784 174.901 90.1681 174.677C89.5669 174.453 89.0389 174.109 88.5843 173.645C88.1297 173.166 87.7704 172.575 87.5065 171.872C87.2425 171.169 87.1105 170.331 87.1105 169.359C87.1105 168.506 87.2352 167.728 87.4845 167.025C87.7338 166.307 88.093 165.694 88.5623 165.185C89.0463 164.661 89.6328 164.257 90.3221 163.973C91.0113 163.674 91.7886 163.524 92.6538 163.524C93.607 163.524 94.4355 163.599 95.1395 163.749C95.858 163.883 96.4593 164.011 96.9432 164.13V174.542C96.9432 176.338 96.4886 177.639 95.5794 178.447C94.6702 179.255 93.2917 179.659 91.4439 179.659C90.7254 179.659 90.0435 179.599 89.3982 179.479C88.7676 179.36 88.2177 179.217 87.7484 179.053L88.1224 177.235C88.533 177.4 89.0316 177.542 89.6182 177.662C90.2194 177.796 90.8427 177.864 91.4879 177.864C92.7051 177.864 93.5777 177.617 94.1056 177.123C94.6482 176.629 94.9195 175.844 94.9195 174.767V174.273ZM94.8975 165.611C94.6922 165.551 94.4135 165.499 94.0616 165.454C93.7243 165.394 93.2624 165.364 92.6758 165.364C91.5759 165.364 90.7254 165.731 90.1241 166.464C89.5375 167.197 89.2442 168.169 89.2442 169.381C89.2442 170.054 89.3249 170.63 89.4862 171.109C89.6622 171.588 89.8895 171.984 90.1681 172.298C90.4614 172.613 90.7914 172.844 91.158 172.994C91.5393 173.144 91.9279 173.218 92.3238 173.218C92.8664 173.218 93.365 173.144 93.8196 172.994C94.2742 172.829 94.6335 172.642 94.8975 172.433V165.611Z" fill="white"/>
<path d="M181.324 147.779C177.171 144.416 170.601 143.846 170.32 143.825C169.884 143.788 169.468 144.034 169.289 144.44C169.273 144.465 169.13 144.797 168.971 145.314C171.718 145.782 175.092 146.721 178.145 148.628C178.634 148.931 178.785 149.579 178.483 150.072C178.284 150.396 177.945 150.572 177.595 150.572C177.407 150.572 177.216 150.519 177.045 150.412C171.795 147.135 165.242 146.971 163.978 146.971C162.715 146.971 156.157 147.135 150.912 150.412C150.423 150.72 149.779 150.568 149.478 150.076C149.172 149.579 149.323 148.936 149.812 148.628C152.864 146.725 156.239 145.782 158.986 145.318C158.827 144.797 158.684 144.469 158.672 144.44C158.489 144.034 158.077 143.78 157.637 143.825C157.356 143.846 150.786 144.416 146.576 147.824C144.379 149.871 139.982 161.831 139.982 172.17C139.982 172.355 140.03 172.531 140.12 172.691C143.152 178.056 151.43 179.458 153.317 179.52C153.325 179.52 153.337 179.52 153.349 179.52C153.684 179.52 153.997 179.36 154.193 179.089L156.1 176.448C150.953 175.111 148.324 172.839 148.173 172.703C147.741 172.322 147.701 171.658 148.084 171.223C148.463 170.788 149.123 170.747 149.555 171.128C149.616 171.186 154.458 175.32 163.978 175.32C173.515 175.32 178.357 171.169 178.406 171.128C178.838 170.751 179.494 170.788 179.877 171.227C180.256 171.662 180.215 172.322 179.783 172.703C179.633 172.839 177.004 175.111 171.856 176.448L173.764 179.089C173.959 179.36 174.273 179.52 174.607 179.52C174.62 179.52 174.632 179.52 174.64 179.52C176.527 179.458 184.804 178.056 187.837 172.691C187.926 172.531 187.975 172.355 187.975 172.17C187.975 161.831 183.578 149.871 181.324 147.779ZM157.197 167.97C155.179 167.97 153.545 166.092 153.545 163.77C153.545 161.449 155.179 159.571 157.197 159.571C159.214 159.571 160.848 161.449 160.848 163.77C160.848 166.092 159.214 167.97 157.197 167.97ZM170.76 167.97C168.743 167.97 167.108 166.092 167.108 163.77C167.108 161.449 168.743 159.571 170.76 159.571C172.777 159.571 174.412 161.449 174.412 163.77C174.412 166.092 172.777 167.97 170.76 167.97Z" fill="white"/>
</svg>
