<svg width="202" height="200" viewBox="0 0 202 200" fill="none" xmlns="http://www.w3.org/2000/svg">
<rect x="2" y="7.62939e-06" width="199" height="200" rx="30" fill="#833AA7"/>
<path d="M201.025 82C201.025 76.252 201.025 32 201.025 27C199 14.5 192 4 177.5 0.5L65.7138 43.4742C57.4223 47.1262 51.5263 56.7616 52.279 65.4016C52.479 67.6876 58.8266 127.251 59.7901 136.617C60.3913 142.487 61.4525 148.659 65.0817 154.225C72.5215 165.572 87.6748 171.062 101.125 167.239C116.1 163.018 126.208 151.212 126.952 137.206C127.289 131.091 126.879 124.17 126.424 118.929L201.025 82C201 83 201.025 85.5 201.025 85.5C201.025 88.5 201 88 201 90.5C201 104 201.025 107 201 102C201.004 99 201.031 94.0001 201.025 91C201 78.5 200.474 96.752 201.025 82ZM110.005 66.9953L100.654 71.114L104.622 80.1234L95.2713 84.2421L91.303 75.2326L81.9522 79.3512L77.984 70.3417L87.3348 66.2231L83.3665 57.2136L92.7173 53.095L96.6855 62.1045L106.036 57.9858L110.005 66.9953ZM142.65 90.2671C137.599 92.513 131.467 90.2762 129.331 85.3763C127.145 80.414 129.66 74.3899 134.841 72.1919C140.096 69.9616 145.831 72.1416 148.056 77.1918C150.246 82.2149 147.884 87.9409 142.65 90.2671ZM189.44 69.658C184.188 71.9923 178.276 69.8063 176.069 64.748C173.879 59.7249 176.215 53.9894 181.413 51.6792C186.519 49.4092 192.59 51.6093 194.763 56.4931C196.926 61.4026 194.492 67.4121 189.44 69.658Z" fill="white" fill-opacity="0.15"/>
<path d="M15.15 48V14.16L21.855 13.08V24.42C22.305 24.27 22.875 24.135 23.565 24.015C24.285 23.865 24.975 23.79 25.635 23.79C27.555 23.79 29.145 24.06 30.405 24.6C31.695 25.11 32.715 25.845 33.465 26.805C34.245 27.765 34.785 28.905 35.085 30.225C35.415 31.545 35.58 33.015 35.58 34.635V48H28.875V35.445C28.875 33.285 28.59 31.755 28.02 30.855C27.48 29.955 26.46 29.505 24.96 29.505C24.36 29.505 23.79 29.565 23.25 29.685C22.74 29.775 22.275 29.88 21.855 30V48H15.15ZM63.789 36.12C63.789 37.98 63.519 39.69 62.979 41.25C62.439 42.78 61.659 44.1 60.639 45.21C59.619 46.29 58.389 47.13 56.949 47.73C55.539 48.33 53.949 48.63 52.179 48.63C50.439 48.63 48.849 48.33 47.409 47.73C45.999 47.13 44.784 46.29 43.764 45.21C42.744 44.1 41.949 42.78 41.379 41.25C40.809 39.69 40.524 37.98 40.524 36.12C40.524 34.26 40.809 32.565 41.379 31.035C41.979 29.505 42.789 28.2 43.809 27.12C44.859 26.04 46.089 25.2 47.499 24.6C48.939 24 50.499 23.7 52.179 23.7C53.889 23.7 55.449 24 56.859 24.6C58.299 25.2 59.529 26.04 60.549 27.12C61.569 28.2 62.364 29.505 62.934 31.035C63.504 32.565 63.789 34.26 63.789 36.12ZM56.949 36.12C56.949 34.05 56.529 32.43 55.689 31.26C54.879 30.06 53.709 29.46 52.179 29.46C50.649 29.46 49.464 30.06 48.624 31.26C47.784 32.43 47.364 34.05 47.364 36.12C47.364 38.19 47.784 39.84 48.624 41.07C49.464 42.27 50.649 42.87 52.179 42.87C53.709 42.87 54.879 42.27 55.689 41.07C56.529 39.84 56.949 38.19 56.949 36.12ZM84.148 35.985C84.148 31.665 82.558 29.505 79.378 29.505C78.688 29.505 77.998 29.595 77.308 29.775C76.648 29.955 76.108 30.18 75.688 30.45V42.645C76.018 42.705 76.438 42.765 76.948 42.825C77.458 42.855 78.013 42.87 78.613 42.87C80.443 42.87 81.823 42.24 82.753 40.98C83.683 39.72 84.148 38.055 84.148 35.985ZM90.988 36.165C90.988 38.055 90.703 39.765 90.133 41.295C89.593 42.825 88.798 44.13 87.748 45.21C86.698 46.29 85.408 47.13 83.878 47.73C82.348 48.3 80.608 48.585 78.658 48.585C77.848 48.585 76.993 48.54 76.093 48.45C75.223 48.39 74.353 48.3 73.483 48.18C72.643 48.06 71.833 47.925 71.053 47.775C70.273 47.595 69.583 47.415 68.983 47.235V14.16L75.688 13.08V24.87C76.438 24.54 77.218 24.285 78.028 24.105C78.838 23.925 79.708 23.835 80.638 23.835C82.318 23.835 83.803 24.135 85.093 24.735C86.383 25.305 87.463 26.13 88.333 27.21C89.203 28.29 89.863 29.595 90.313 31.125C90.763 32.625 90.988 34.305 90.988 36.165ZM111.306 35.985C111.306 31.665 109.716 29.505 106.536 29.505C105.846 29.505 105.156 29.595 104.466 29.775C103.806 29.955 103.266 30.18 102.846 30.45V42.645C103.176 42.705 103.596 42.765 104.106 42.825C104.616 42.855 105.171 42.87 105.771 42.87C107.601 42.87 108.981 42.24 109.911 40.98C110.841 39.72 111.306 38.055 111.306 35.985ZM118.146 36.165C118.146 38.055 117.861 39.765 117.291 41.295C116.751 42.825 115.956 44.13 114.906 45.21C113.856 46.29 112.566 47.13 111.036 47.73C109.506 48.3 107.766 48.585 105.816 48.585C105.006 48.585 104.151 48.54 103.251 48.45C102.381 48.39 101.511 48.3 100.641 48.18C99.8012 48.06 98.9912 47.925 98.2112 47.775C97.4312 47.595 96.7412 47.415 96.1412 47.235V14.16L102.846 13.08V24.87C103.596 24.54 104.376 24.285 105.186 24.105C105.996 23.925 106.866 23.835 107.796 23.835C109.476 23.835 110.961 24.135 112.251 24.735C113.541 25.305 114.621 26.13 115.491 27.21C116.361 28.29 117.021 29.595 117.471 31.125C117.921 32.625 118.146 34.305 118.146 36.165ZM130.004 48H123.299V24.33H130.004V48ZM130.634 17.49C130.634 18.72 130.229 19.695 129.419 20.415C128.639 21.105 127.709 21.45 126.629 21.45C125.549 21.45 124.604 21.105 123.794 20.415C123.014 19.695 122.624 18.72 122.624 17.49C122.624 16.26 123.014 15.3 123.794 14.61C124.604 13.89 125.549 13.53 126.629 13.53C127.709 13.53 128.639 13.89 129.419 14.61C130.229 15.3 130.634 16.26 130.634 17.49ZM135.182 36.345C135.182 34.245 135.497 32.415 136.127 30.855C136.787 29.265 137.642 27.945 138.692 26.895C139.742 25.845 140.942 25.05 142.292 24.51C143.672 23.97 145.082 23.7 146.522 23.7C149.882 23.7 152.537 24.735 154.487 26.805C156.437 28.845 157.412 31.86 157.412 35.85C157.412 36.24 157.397 36.675 157.367 37.155C157.337 37.605 157.307 38.01 157.277 38.37H142.067C142.217 39.75 142.862 40.845 144.002 41.655C145.142 42.465 146.672 42.87 148.592 42.87C149.822 42.87 151.022 42.765 152.192 42.555C153.392 42.315 154.367 42.03 155.117 41.7L156.017 47.145C155.657 47.325 155.177 47.505 154.577 47.685C153.977 47.865 153.302 48.015 152.552 48.135C151.832 48.285 151.052 48.405 150.212 48.495C149.372 48.585 148.532 48.63 147.692 48.63C145.562 48.63 143.702 48.315 142.112 47.685C140.552 47.055 139.247 46.2 138.197 45.12C137.177 44.01 136.412 42.705 135.902 41.205C135.422 39.705 135.182 38.085 135.182 36.345ZM150.932 33.78C150.902 33.21 150.797 32.655 150.617 32.115C150.467 31.575 150.212 31.095 149.852 30.675C149.522 30.255 149.087 29.91 148.547 29.64C148.037 29.37 147.392 29.235 146.612 29.235C145.862 29.235 145.217 29.37 144.677 29.64C144.137 29.88 143.687 30.21 143.327 30.63C142.967 31.05 142.682 31.545 142.472 32.115C142.292 32.655 142.157 33.21 142.067 33.78H150.932ZM169.382 43.185C170.612 43.185 171.482 43.065 171.992 42.825C172.502 42.585 172.757 42.12 172.757 41.43C172.757 40.89 172.427 40.425 171.767 40.035C171.107 39.615 170.102 39.15 168.752 38.64C167.702 38.25 166.742 37.845 165.872 37.425C165.032 37.005 164.312 36.51 163.712 35.94C163.112 35.34 162.647 34.635 162.317 33.825C161.987 33.015 161.822 32.04 161.822 30.9C161.822 28.68 162.647 26.925 164.297 25.635C165.947 24.345 168.212 23.7 171.092 23.7C172.532 23.7 173.912 23.835 175.232 24.105C176.552 24.345 177.602 24.615 178.382 24.915L177.212 30.135C176.432 29.865 175.577 29.625 174.647 29.415C173.747 29.205 172.727 29.1 171.587 29.1C169.487 29.1 168.437 29.685 168.437 30.855C168.437 31.125 168.482 31.365 168.572 31.575C168.662 31.785 168.842 31.995 169.112 32.205C169.382 32.385 169.742 32.595 170.192 32.835C170.672 33.045 171.272 33.285 171.992 33.555C173.462 34.095 174.677 34.635 175.637 35.175C176.597 35.685 177.347 36.255 177.887 36.885C178.457 37.485 178.847 38.16 179.057 38.91C179.297 39.66 179.417 40.53 179.417 41.52C179.417 43.86 178.532 45.63 176.762 46.83C175.022 48.03 172.547 48.63 169.337 48.63C167.237 48.63 165.482 48.45 164.072 48.09C162.692 47.73 161.732 47.43 161.192 47.19L162.317 41.745C163.457 42.195 164.627 42.555 165.827 42.825C167.027 43.065 168.212 43.185 169.382 43.185Z" fill="white"/>
<path d="M14.56 67.824H19.552V90H14.56V67.824ZM38.7725 90.32C37.3858 90.2987 36.2552 90.1493 35.3805 89.872C34.5272 89.5947 33.8445 89.2107 33.3325 88.72C32.8418 88.208 32.5005 87.6 32.3085 86.896C32.1378 86.1707 32.0525 85.36 32.0525 84.464V65.936L36.8205 65.168V83.504C36.8205 83.9307 36.8525 84.3147 36.9165 84.656C36.9805 84.9973 37.0978 85.2853 37.2685 85.52C37.4605 85.7547 37.7272 85.9467 38.0685 86.096C38.4098 86.2453 38.8685 86.3413 39.4445 86.384L38.7725 90.32ZM46.9455 90H42.1775V73.168H46.9455V90ZM47.3935 68.304C47.3935 69.1787 47.1055 69.872 46.5295 70.384C45.9748 70.8747 45.3135 71.12 44.5455 71.12C43.7775 71.12 43.1055 70.8747 42.5295 70.384C41.9748 69.872 41.6975 69.1787 41.6975 68.304C41.6975 67.4293 41.9748 66.7467 42.5295 66.256C43.1055 65.744 43.7775 65.488 44.5455 65.488C45.3135 65.488 45.9748 65.744 46.5295 66.256C47.1055 66.7467 47.3935 67.4293 47.3935 68.304ZM56.1955 79.248C56.6648 78.736 57.1448 78.2027 57.6355 77.648C58.1475 77.0933 58.6382 76.5493 59.1075 76.016C59.5768 75.4613 60.0142 74.9387 60.4195 74.448C60.8462 73.9573 61.2088 73.5307 61.5075 73.168H67.1715C66.0408 74.4693 64.9315 75.7173 63.8435 76.912C62.7768 78.0853 61.6035 79.3013 60.3235 80.56C60.9635 81.136 61.6248 81.8293 62.3075 82.64C62.9902 83.4293 63.6515 84.2507 64.2915 85.104C64.9315 85.9573 65.5182 86.8107 66.0515 87.664C66.5848 88.5173 67.0328 89.296 67.3955 90H61.9235C61.5822 89.4453 61.1875 88.8373 60.7395 88.176C60.3128 87.4933 59.8542 86.8213 59.3635 86.16C58.8728 85.4773 58.3502 84.8267 57.7955 84.208C57.2622 83.5893 56.7288 83.0667 56.1955 82.64V90H51.4275V65.936L56.1955 65.168V79.248ZM68.0025 81.712C68.0025 80.2187 68.2265 78.9173 68.6745 77.808C69.1438 76.6773 69.7518 75.7387 70.4985 74.992C71.2452 74.2453 72.0985 73.68 73.0585 73.296C74.0398 72.912 75.0425 72.72 76.0665 72.72C78.4558 72.72 80.3438 73.456 81.7305 74.928C83.1172 76.3787 83.8105 78.5227 83.8105 81.36C83.8105 81.6373 83.7998 81.9467 83.7785 82.288C83.7572 82.608 83.7358 82.896 83.7145 83.152H72.8985C73.0052 84.1333 73.4638 84.912 74.2745 85.488C75.0852 86.064 76.1732 86.352 77.5385 86.352C78.4132 86.352 79.2665 86.2773 80.0985 86.128C80.9518 85.9573 81.6452 85.7547 82.1785 85.52L82.8185 89.392C82.5625 89.52 82.2212 89.648 81.7945 89.776C81.3678 89.904 80.8878 90.0107 80.3545 90.096C79.8425 90.2027 79.2878 90.288 78.6905 90.352C78.0932 90.416 77.4958 90.448 76.8985 90.448C75.3838 90.448 74.0612 90.224 72.9305 89.776C71.8212 89.328 70.8932 88.72 70.1465 87.952C69.4212 87.1627 68.8772 86.2347 68.5145 85.168C68.1732 84.1013 68.0025 82.9493 68.0025 81.712ZM79.2025 79.888C79.1812 79.4827 79.1065 79.088 78.9785 78.704C78.8718 78.32 78.6905 77.9787 78.4345 77.68C78.1998 77.3813 77.8905 77.136 77.5065 76.944C77.1438 76.752 76.6852 76.656 76.1305 76.656C75.5972 76.656 75.1385 76.752 74.7545 76.944C74.3705 77.1147 74.0505 77.3493 73.7945 77.648C73.5385 77.9467 73.3358 78.2987 73.1865 78.704C73.0585 79.088 72.9625 79.4827 72.8985 79.888H79.2025ZM92.162 76.112C92.162 77.072 91.8527 77.808 91.234 78.32C90.6367 78.8107 89.954 79.056 89.186 79.056C88.418 79.056 87.7247 78.8107 87.106 78.32C86.5087 77.808 86.21 77.072 86.21 76.112C86.21 75.152 86.5087 74.4267 87.106 73.936C87.7247 73.424 88.418 73.168 89.186 73.168C89.954 73.168 90.6367 73.424 91.234 73.936C91.8527 74.4267 92.162 75.152 92.162 76.112ZM92.162 87.472C92.162 88.432 91.8527 89.168 91.234 89.68C90.6367 90.1707 89.954 90.416 89.186 90.416C88.418 90.416 87.7247 90.1707 87.106 89.68C86.5087 89.168 86.21 88.432 86.21 87.472C86.21 86.512 86.5087 85.7867 87.106 85.296C87.7247 84.784 88.418 84.528 89.186 84.528C89.954 84.528 90.6367 84.784 91.234 85.296C91.8527 85.7867 92.162 86.512 92.162 87.472Z" fill="white"/>
<path d="M19.3121 110.234C19.3121 110.615 19.2461 110.975 19.1141 111.312C18.9821 111.649 18.7915 111.943 18.5421 112.192C18.3075 112.441 18.0141 112.647 17.6621 112.808C17.3248 112.955 16.9361 113.028 16.4961 113.028C16.0561 113.028 15.6601 112.955 15.3081 112.808C14.9708 112.647 14.6775 112.441 14.4281 112.192C14.1935 111.943 14.0101 111.649 13.8781 111.312C13.7461 110.975 13.6801 110.615 13.6801 110.234C13.6801 109.867 13.7461 109.515 13.8781 109.178C14.0101 108.826 14.1935 108.525 14.4281 108.276C14.6775 108.027 14.9708 107.829 15.3081 107.682C15.6601 107.521 16.0561 107.44 16.4961 107.44C16.9361 107.44 17.3248 107.521 17.6621 107.682C18.0141 107.829 18.3075 108.027 18.5421 108.276C18.7915 108.525 18.9821 108.826 19.1141 109.178C19.2461 109.515 19.3121 109.867 19.3121 110.234ZM43.692 106.56C43.12 108.701 42.4453 110.755 41.668 112.72C40.9053 114.685 40.1647 116.445 39.446 118H37.598C36.8793 116.445 36.1313 114.685 35.354 112.72C34.5913 110.755 33.924 108.701 33.352 106.56H35.552C35.728 107.279 35.9333 108.049 36.168 108.87C36.4173 109.677 36.674 110.483 36.938 111.29C37.2167 112.082 37.4953 112.852 37.774 113.6C38.0527 114.348 38.3167 115.015 38.566 115.602C38.8153 115.015 39.0793 114.348 39.358 113.6C39.6367 112.852 39.908 112.082 40.172 111.29C40.4507 110.483 40.7073 109.677 40.942 108.87C41.1913 108.049 41.404 107.279 41.58 106.56H43.692ZM47.849 118H45.803V106.56H47.849V118ZM46.815 104.492C46.4483 104.492 46.133 104.375 45.869 104.14C45.6196 103.891 45.495 103.561 45.495 103.15C45.495 102.739 45.6196 102.417 45.869 102.182C46.133 101.933 46.4483 101.808 46.815 101.808C47.1816 101.808 47.4896 101.933 47.739 102.182C48.003 102.417 48.135 102.739 48.135 103.15C48.135 103.561 48.003 103.891 47.739 104.14C47.4896 104.375 47.1816 104.492 46.815 104.492ZM58.7594 108.98C58.5101 108.775 58.1508 108.577 57.6814 108.386C57.2121 108.195 56.6988 108.1 56.1414 108.1C55.5548 108.1 55.0488 108.21 54.6234 108.43C54.2128 108.635 53.8754 108.929 53.6114 109.31C53.3474 109.677 53.1568 110.117 53.0394 110.63C52.9221 111.143 52.8634 111.693 52.8634 112.28C52.8634 113.615 53.1934 114.649 53.8534 115.382C54.5134 116.101 55.3934 116.46 56.4934 116.46C57.0508 116.46 57.5128 116.438 57.8794 116.394C58.2608 116.335 58.5541 116.277 58.7594 116.218V108.98ZM58.7594 101.28L60.8054 100.928V117.67C60.3361 117.802 59.7348 117.934 59.0014 118.066C58.2681 118.198 57.4248 118.264 56.4714 118.264C55.5914 118.264 54.7994 118.125 54.0954 117.846C53.3914 117.567 52.7901 117.171 52.2914 116.658C51.7928 116.145 51.4041 115.521 51.1254 114.788C50.8614 114.04 50.7294 113.204 50.7294 112.28C50.7294 111.4 50.8394 110.593 51.0594 109.86C51.2941 109.127 51.6314 108.496 52.0714 107.968C52.5114 107.44 53.0468 107.029 53.6774 106.736C54.3228 106.443 55.0561 106.296 55.8774 106.296C56.5374 106.296 57.1168 106.384 57.6154 106.56C58.1288 106.736 58.5101 106.905 58.7594 107.066V101.28ZM63.6845 112.302C63.6845 111.29 63.8312 110.41 64.1245 109.662C64.4178 108.899 64.8065 108.269 65.2905 107.77C65.7745 107.271 66.3318 106.897 66.9625 106.648C67.5932 106.399 68.2385 106.274 68.8985 106.274C70.4385 106.274 71.6192 106.758 72.4405 107.726C73.2618 108.679 73.6725 110.139 73.6725 112.104C73.6725 112.192 73.6725 112.309 73.6725 112.456C73.6725 112.588 73.6652 112.713 73.6505 112.83H65.8185C65.9065 114.018 66.2512 114.92 66.8525 115.536C67.4538 116.152 68.3925 116.46 69.6685 116.46C70.3872 116.46 70.9885 116.401 71.4725 116.284C71.9712 116.152 72.3452 116.027 72.5945 115.91L72.8805 117.626C72.6312 117.758 72.1912 117.897 71.5605 118.044C70.9445 118.191 70.2405 118.264 69.4485 118.264C68.4512 118.264 67.5858 118.117 66.8525 117.824C66.1338 117.516 65.5398 117.098 65.0705 116.57C64.6012 116.042 64.2492 115.419 64.0145 114.7C63.7945 113.967 63.6845 113.167 63.6845 112.302ZM71.5385 111.18C71.5532 110.256 71.3185 109.501 70.8345 108.914C70.3652 108.313 69.7125 108.012 68.8765 108.012C68.4072 108.012 67.9892 108.107 67.6225 108.298C67.2705 108.474 66.9698 108.709 66.7205 109.002C66.4712 109.295 66.2732 109.633 66.1265 110.014C65.9945 110.395 65.9065 110.784 65.8625 111.18H71.5385ZM86.7096 112.28C86.7096 113.189 86.5776 114.011 86.3136 114.744C86.0496 115.477 85.6756 116.108 85.1916 116.636C84.7222 117.164 84.1576 117.575 83.4976 117.868C82.8376 118.147 82.1189 118.286 81.3416 118.286C80.5642 118.286 79.8456 118.147 79.1856 117.868C78.5256 117.575 77.9536 117.164 77.4696 116.636C77.0002 116.108 76.6336 115.477 76.3696 114.744C76.1056 114.011 75.9736 113.189 75.9736 112.28C75.9736 111.385 76.1056 110.571 76.3696 109.838C76.6336 109.09 77.0002 108.452 77.4696 107.924C77.9536 107.396 78.5256 106.993 79.1856 106.714C79.8456 106.421 80.5642 106.274 81.3416 106.274C82.1189 106.274 82.8376 106.421 83.4976 106.714C84.1576 106.993 84.7222 107.396 85.1916 107.924C85.6756 108.452 86.0496 109.09 86.3136 109.838C86.5776 110.571 86.7096 111.385 86.7096 112.28ZM84.5756 112.28C84.5756 110.989 84.2822 109.97 83.6956 109.222C83.1236 108.459 82.3389 108.078 81.3416 108.078C80.3442 108.078 79.5522 108.459 78.9656 109.222C78.3936 109.97 78.1076 110.989 78.1076 112.28C78.1076 113.571 78.3936 114.597 78.9656 115.36C79.5522 116.108 80.3442 116.482 81.3416 116.482C82.3389 116.482 83.1236 116.108 83.6956 115.36C84.2822 114.597 84.5756 113.571 84.5756 112.28ZM101.852 116.856C101.676 116.973 101.331 117.127 100.818 117.318C100.319 117.494 99.7326 117.582 99.0579 117.582C98.3686 117.582 97.7159 117.472 97.0999 117.252C96.4986 117.032 95.9706 116.695 95.5159 116.24C95.0613 115.771 94.7019 115.191 94.4379 114.502C94.1739 113.813 94.0419 112.991 94.0419 112.038C94.0419 111.202 94.1666 110.439 94.4159 109.75C94.6653 109.046 95.0246 108.445 95.4939 107.946C95.9779 107.433 96.5646 107.037 97.2539 106.758C97.9433 106.465 98.7206 106.318 99.5859 106.318C100.539 106.318 101.368 106.391 102.072 106.538C102.791 106.67 103.392 106.795 103.876 106.912V117.12C103.876 118.88 103.421 120.156 102.512 120.948C101.603 121.74 100.224 122.136 98.3759 122.136C97.6573 122.136 96.9753 122.077 96.3299 121.96C95.6993 121.843 95.1493 121.703 94.6799 121.542L95.0539 119.76C95.4646 119.921 95.9633 120.061 96.5499 120.178C97.1513 120.31 97.7746 120.376 98.4199 120.376C99.6373 120.376 100.51 120.134 101.038 119.65C101.581 119.166 101.852 118.396 101.852 117.34V116.856ZM101.83 108.364C101.625 108.305 101.346 108.254 100.994 108.21C100.657 108.151 100.195 108.122 99.6079 108.122C98.5079 108.122 97.6573 108.481 97.0559 109.2C96.4693 109.919 96.1759 110.872 96.1759 112.06C96.1759 112.72 96.2566 113.285 96.4179 113.754C96.5939 114.223 96.8213 114.612 97.0999 114.92C97.3933 115.228 97.7233 115.455 98.0899 115.602C98.4713 115.749 98.8599 115.822 99.2559 115.822C99.7986 115.822 100.297 115.749 100.752 115.602C101.207 115.441 101.566 115.257 101.83 115.052V108.364ZM111.271 116.526C111.755 116.526 112.18 116.519 112.547 116.504C112.928 116.475 113.243 116.431 113.493 116.372V112.962C113.346 112.889 113.104 112.83 112.767 112.786C112.444 112.727 112.048 112.698 111.579 112.698C111.271 112.698 110.941 112.72 110.589 112.764C110.251 112.808 109.936 112.903 109.643 113.05C109.364 113.182 109.129 113.373 108.939 113.622C108.748 113.857 108.653 114.172 108.653 114.568C108.653 115.301 108.887 115.815 109.357 116.108C109.826 116.387 110.464 116.526 111.271 116.526ZM111.095 106.274C111.916 106.274 112.605 106.384 113.163 106.604C113.735 106.809 114.189 107.11 114.527 107.506C114.879 107.887 115.128 108.349 115.275 108.892C115.421 109.42 115.495 110.007 115.495 110.652V117.802C115.319 117.831 115.069 117.875 114.747 117.934C114.439 117.978 114.087 118.022 113.691 118.066C113.295 118.11 112.862 118.147 112.393 118.176C111.938 118.22 111.483 118.242 111.029 118.242C110.383 118.242 109.789 118.176 109.247 118.044C108.704 117.912 108.235 117.707 107.839 117.428C107.443 117.135 107.135 116.753 106.915 116.284C106.695 115.815 106.585 115.25 106.585 114.59C106.585 113.959 106.709 113.417 106.959 112.962C107.223 112.507 107.575 112.141 108.015 111.862C108.455 111.583 108.968 111.378 109.555 111.246C110.141 111.114 110.757 111.048 111.403 111.048C111.608 111.048 111.821 111.063 112.041 111.092C112.261 111.107 112.466 111.136 112.657 111.18C112.862 111.209 113.038 111.239 113.185 111.268C113.331 111.297 113.434 111.319 113.493 111.334V110.762C113.493 110.425 113.456 110.095 113.383 109.772C113.309 109.435 113.177 109.141 112.987 108.892C112.796 108.628 112.532 108.423 112.195 108.276C111.872 108.115 111.447 108.034 110.919 108.034C110.244 108.034 109.65 108.085 109.137 108.188C108.638 108.276 108.264 108.371 108.015 108.474L107.773 106.78C108.037 106.663 108.477 106.553 109.093 106.45C109.709 106.333 110.376 106.274 111.095 106.274ZM118.893 106.89C119.362 106.773 119.978 106.648 120.741 106.516C121.518 106.384 122.413 106.318 123.425 106.318C124.158 106.318 124.774 106.421 125.273 106.626C125.771 106.817 126.189 107.103 126.527 107.484C126.629 107.411 126.791 107.308 127.011 107.176C127.231 107.044 127.502 106.919 127.825 106.802C128.147 106.67 128.507 106.56 128.903 106.472C129.299 106.369 129.724 106.318 130.179 106.318C131.059 106.318 131.777 106.45 132.335 106.714C132.892 106.963 133.325 107.323 133.633 107.792C133.955 108.261 134.168 108.819 134.271 109.464C134.388 110.109 134.447 110.813 134.447 111.576V118H132.401V112.016C132.401 111.341 132.364 110.762 132.291 110.278C132.232 109.794 132.107 109.391 131.917 109.068C131.741 108.745 131.491 108.511 131.169 108.364C130.861 108.203 130.457 108.122 129.959 108.122C129.269 108.122 128.697 108.217 128.243 108.408C127.803 108.584 127.502 108.745 127.341 108.892C127.458 109.273 127.546 109.691 127.605 110.146C127.663 110.601 127.693 111.077 127.693 111.576V118H125.647V112.016C125.647 111.341 125.61 110.762 125.537 110.278C125.463 109.794 125.331 109.391 125.141 109.068C124.965 108.745 124.715 108.511 124.393 108.364C124.085 108.203 123.689 108.122 123.205 108.122C122.999 108.122 122.779 108.129 122.545 108.144C122.31 108.159 122.083 108.181 121.863 108.21C121.657 108.225 121.467 108.247 121.291 108.276C121.115 108.305 120.997 108.327 120.939 108.342V118H118.893V106.89ZM137.204 112.302C137.204 111.29 137.351 110.41 137.644 109.662C137.937 108.899 138.326 108.269 138.81 107.77C139.294 107.271 139.851 106.897 140.482 106.648C141.113 106.399 141.758 106.274 142.418 106.274C143.958 106.274 145.139 106.758 145.96 107.726C146.781 108.679 147.192 110.139 147.192 112.104C147.192 112.192 147.192 112.309 147.192 112.456C147.192 112.588 147.185 112.713 147.17 112.83H139.338C139.426 114.018 139.771 114.92 140.372 115.536C140.973 116.152 141.912 116.46 143.188 116.46C143.907 116.46 144.508 116.401 144.992 116.284C145.491 116.152 145.865 116.027 146.114 115.91L146.4 117.626C146.151 117.758 145.711 117.897 145.08 118.044C144.464 118.191 143.76 118.264 142.968 118.264C141.971 118.264 141.105 118.117 140.372 117.824C139.653 117.516 139.059 117.098 138.59 116.57C138.121 116.042 137.769 115.419 137.534 114.7C137.314 113.967 137.204 113.167 137.204 112.302ZM145.058 111.18C145.073 110.256 144.838 109.501 144.354 108.914C143.885 108.313 143.232 108.012 142.396 108.012C141.927 108.012 141.509 108.107 141.142 108.298C140.79 108.474 140.489 108.709 140.24 109.002C139.991 109.295 139.793 109.633 139.646 110.014C139.514 110.395 139.426 110.784 139.382 111.18H145.058ZM152.793 116.526C153.629 116.526 154.245 116.416 154.641 116.196C155.052 115.976 155.257 115.624 155.257 115.14C155.257 114.641 155.059 114.245 154.663 113.952C154.267 113.659 153.614 113.329 152.705 112.962C152.265 112.786 151.84 112.61 151.429 112.434C151.033 112.243 150.688 112.023 150.395 111.774C150.102 111.525 149.867 111.224 149.691 110.872C149.515 110.52 149.427 110.087 149.427 109.574C149.427 108.562 149.801 107.763 150.549 107.176C151.297 106.575 152.316 106.274 153.607 106.274C153.93 106.274 154.252 106.296 154.575 106.34C154.898 106.369 155.198 106.413 155.477 106.472C155.756 106.516 155.998 106.567 156.203 106.626C156.423 106.685 156.592 106.736 156.709 106.78L156.335 108.54C156.115 108.423 155.77 108.305 155.301 108.188C154.832 108.056 154.267 107.99 153.607 107.99C153.035 107.99 152.536 108.107 152.111 108.342C151.686 108.562 151.473 108.914 151.473 109.398C151.473 109.647 151.517 109.867 151.605 110.058C151.708 110.249 151.854 110.425 152.045 110.586C152.25 110.733 152.5 110.872 152.793 111.004C153.086 111.136 153.438 111.275 153.849 111.422C154.392 111.627 154.876 111.833 155.301 112.038C155.726 112.229 156.086 112.456 156.379 112.72C156.687 112.984 156.922 113.307 157.083 113.688C157.244 114.055 157.325 114.509 157.325 115.052C157.325 116.108 156.929 116.907 156.137 117.45C155.36 117.993 154.245 118.264 152.793 118.264C151.781 118.264 150.989 118.176 150.417 118C149.845 117.839 149.456 117.714 149.251 117.626L149.625 115.866C149.86 115.954 150.234 116.086 150.747 116.262C151.26 116.438 151.942 116.526 152.793 116.526ZM19.3121 137.234C19.3121 137.615 19.2461 137.975 19.1141 138.312C18.9821 138.649 18.7915 138.943 18.5421 139.192C18.3075 139.441 18.0141 139.647 17.6621 139.808C17.3248 139.955 16.9361 140.028 16.4961 140.028C16.0561 140.028 15.6601 139.955 15.3081 139.808C14.9708 139.647 14.6775 139.441 14.4281 139.192C14.1935 138.943 14.0101 138.649 13.8781 138.312C13.7461 137.975 13.6801 137.615 13.6801 137.234C13.6801 136.867 13.7461 136.515 13.8781 136.178C14.0101 135.826 14.1935 135.525 14.4281 135.276C14.6775 135.027 14.9708 134.829 15.3081 134.682C15.6601 134.521 16.0561 134.44 16.4961 134.44C16.9361 134.44 17.3248 134.521 17.6621 134.682C18.0141 134.829 18.3075 135.027 18.5421 135.276C18.7915 135.525 18.9821 135.826 19.1141 136.178C19.2461 136.515 19.3121 136.867 19.3121 137.234ZM42.152 135.98C41.9027 135.775 41.5433 135.577 41.074 135.386C40.6047 135.195 40.0913 135.1 39.534 135.1C38.9473 135.1 38.4413 135.21 38.016 135.43C37.6053 135.635 37.268 135.929 37.004 136.31C36.74 136.677 36.5493 137.117 36.432 137.63C36.3147 138.143 36.256 138.693 36.256 139.28C36.256 140.615 36.586 141.649 37.246 142.382C37.906 143.101 38.786 143.46 39.886 143.46C40.4433 143.46 40.9053 143.438 41.272 143.394C41.6533 143.335 41.9467 143.277 42.152 143.218V135.98ZM42.152 128.28L44.198 127.928V144.67C43.7287 144.802 43.1273 144.934 42.394 145.066C41.6607 145.198 40.8173 145.264 39.864 145.264C38.984 145.264 38.192 145.125 37.488 144.846C36.784 144.567 36.1827 144.171 35.684 143.658C35.1853 143.145 34.7967 142.521 34.518 141.788C34.254 141.04 34.122 140.204 34.122 139.28C34.122 138.4 34.232 137.593 34.452 136.86C34.6867 136.127 35.024 135.496 35.464 134.968C35.904 134.44 36.4393 134.029 37.07 133.736C37.7153 133.443 38.4487 133.296 39.27 133.296C39.93 133.296 40.5093 133.384 41.008 133.56C41.5213 133.736 41.9027 133.905 42.152 134.066V128.28ZM47.0771 139.302C47.0771 138.29 47.2237 137.41 47.5171 136.662C47.8104 135.899 48.1991 135.269 48.6831 134.77C49.1671 134.271 49.7244 133.897 50.3551 133.648C50.9857 133.399 51.6311 133.274 52.2911 133.274C53.8311 133.274 55.0117 133.758 55.8331 134.726C56.6544 135.679 57.0651 137.139 57.0651 139.104C57.0651 139.192 57.0651 139.309 57.0651 139.456C57.0651 139.588 57.0577 139.713 57.0431 139.83H49.2111C49.2991 141.018 49.6437 141.92 50.2451 142.536C50.8464 143.152 51.7851 143.46 53.0611 143.46C53.7797 143.46 54.3811 143.401 54.8651 143.284C55.3637 143.152 55.7377 143.027 55.9871 142.91L56.2731 144.626C56.0237 144.758 55.5837 144.897 54.9531 145.044C54.3371 145.191 53.6331 145.264 52.8411 145.264C51.8437 145.264 50.9784 145.117 50.2451 144.824C49.5264 144.516 48.9324 144.098 48.4631 143.57C47.9937 143.042 47.6417 142.419 47.4071 141.7C47.1871 140.967 47.0771 140.167 47.0771 139.302ZM54.9311 138.18C54.9457 137.256 54.7111 136.501 54.2271 135.914C53.7577 135.313 53.1051 135.012 52.2691 135.012C51.7997 135.012 51.3817 135.107 51.0151 135.298C50.6631 135.474 50.3624 135.709 50.1131 136.002C49.8637 136.295 49.6657 136.633 49.5191 137.014C49.3871 137.395 49.2991 137.784 49.2551 138.18H54.9311ZM62.6661 143.526C63.5021 143.526 64.1181 143.416 64.5141 143.196C64.9248 142.976 65.1301 142.624 65.1301 142.14C65.1301 141.641 64.9321 141.245 64.5361 140.952C64.1401 140.659 63.4875 140.329 62.5781 139.962C62.1381 139.786 61.7128 139.61 61.3021 139.434C60.9061 139.243 60.5615 139.023 60.2681 138.774C59.9748 138.525 59.7401 138.224 59.5641 137.872C59.3881 137.52 59.3001 137.087 59.3001 136.574C59.3001 135.562 59.6741 134.763 60.4221 134.176C61.1701 133.575 62.1895 133.274 63.4801 133.274C63.8028 133.274 64.1255 133.296 64.4481 133.34C64.7708 133.369 65.0715 133.413 65.3501 133.472C65.6288 133.516 65.8708 133.567 66.0761 133.626C66.2961 133.685 66.4648 133.736 66.5821 133.78L66.2081 135.54C65.9881 135.423 65.6435 135.305 65.1741 135.188C64.7048 135.056 64.1401 134.99 63.4801 134.99C62.9081 134.99 62.4095 135.107 61.9841 135.342C61.5588 135.562 61.3461 135.914 61.3461 136.398C61.3461 136.647 61.3901 136.867 61.4781 137.058C61.5808 137.249 61.7275 137.425 61.9181 137.586C62.1235 137.733 62.3728 137.872 62.6661 138.004C62.9595 138.136 63.3115 138.275 63.7221 138.422C64.2648 138.627 64.7488 138.833 65.1741 139.038C65.5995 139.229 65.9588 139.456 66.2521 139.72C66.5601 139.984 66.7948 140.307 66.9561 140.688C67.1175 141.055 67.1981 141.509 67.1981 142.052C67.1981 143.108 66.8021 143.907 66.0101 144.45C65.2328 144.993 64.1181 145.264 62.6661 145.264C61.6541 145.264 60.8621 145.176 60.2901 145C59.7181 144.839 59.3295 144.714 59.1241 144.626L59.4981 142.866C59.7328 142.954 60.1068 143.086 60.6201 143.262C61.1335 143.438 61.8155 143.526 62.6661 143.526ZM71.8685 145H69.8225V133.56H71.8685V145ZM70.8345 131.492C70.4678 131.492 70.1525 131.375 69.8885 131.14C69.6392 130.891 69.5145 130.561 69.5145 130.15C69.5145 129.739 69.6392 129.417 69.8885 129.182C70.1525 128.933 70.4678 128.808 70.8345 128.808C71.2012 128.808 71.5092 128.933 71.7585 129.182C72.0225 129.417 72.1545 129.739 72.1545 130.15C72.1545 130.561 72.0225 130.891 71.7585 131.14C71.5092 131.375 71.2012 131.492 70.8345 131.492ZM82.559 143.856C82.383 143.973 82.0383 144.127 81.525 144.318C81.0263 144.494 80.4396 144.582 79.765 144.582C79.0756 144.582 78.423 144.472 77.807 144.252C77.2056 144.032 76.6776 143.695 76.223 143.24C75.7683 142.771 75.409 142.191 75.145 141.502C74.881 140.813 74.749 139.991 74.749 139.038C74.749 138.202 74.8736 137.439 75.123 136.75C75.3723 136.046 75.7316 135.445 76.201 134.946C76.685 134.433 77.2716 134.037 77.961 133.758C78.6503 133.465 79.4276 133.318 80.293 133.318C81.2463 133.318 82.075 133.391 82.779 133.538C83.4976 133.67 84.099 133.795 84.583 133.912V144.12C84.583 145.88 84.1283 147.156 83.219 147.948C82.3096 148.74 80.931 149.136 79.083 149.136C78.3643 149.136 77.6823 149.077 77.037 148.96C76.4063 148.843 75.8563 148.703 75.387 148.542L75.761 146.76C76.1716 146.921 76.6703 147.061 77.257 147.178C77.8583 147.31 78.4816 147.376 79.127 147.376C80.3443 147.376 81.217 147.134 81.745 146.65C82.2876 146.166 82.559 145.396 82.559 144.34V143.856ZM82.537 135.364C82.3316 135.305 82.053 135.254 81.701 135.21C81.3636 135.151 80.9016 135.122 80.315 135.122C79.215 135.122 78.3643 135.481 77.763 136.2C77.1763 136.919 76.883 137.872 76.883 139.06C76.883 139.72 76.9636 140.285 77.125 140.754C77.301 141.223 77.5283 141.612 77.807 141.92C78.1003 142.228 78.4303 142.455 78.797 142.602C79.1783 142.749 79.567 142.822 79.963 142.822C80.5056 142.822 81.0043 142.749 81.459 142.602C81.9136 142.441 82.273 142.257 82.537 142.052V135.364ZM88.1057 133.89C88.575 133.773 89.1984 133.648 89.9757 133.516C90.753 133.384 91.6477 133.318 92.6597 133.318C93.569 133.318 94.3244 133.45 94.9257 133.714C95.527 133.963 96.0037 134.323 96.3557 134.792C96.7224 135.247 96.979 135.797 97.1257 136.442C97.2724 137.087 97.3457 137.799 97.3457 138.576V145H95.2997V139.016C95.2997 138.312 95.2484 137.711 95.1457 137.212C95.0577 136.713 94.9037 136.31 94.6837 136.002C94.4637 135.694 94.1704 135.474 93.8037 135.342C93.437 135.195 92.9824 135.122 92.4397 135.122C92.2197 135.122 91.9924 135.129 91.7577 135.144C91.523 135.159 91.2957 135.181 91.0757 135.21C90.8704 135.225 90.6797 135.247 90.5037 135.276C90.3424 135.305 90.225 135.327 90.1517 135.342V145H88.1057V133.89ZM19.3121 164.234C19.3121 164.615 19.2461 164.975 19.1141 165.312C18.9821 165.649 18.7915 165.943 18.5421 166.192C18.3075 166.441 18.0141 166.647 17.6621 166.808C17.3248 166.955 16.9361 167.028 16.4961 167.028C16.0561 167.028 15.6601 166.955 15.3081 166.808C14.9708 166.647 14.6775 166.441 14.4281 166.192C14.1935 165.943 14.0101 165.649 13.8781 165.312C13.7461 164.975 13.6801 164.615 13.6801 164.234C13.6801 163.867 13.7461 163.515 13.8781 163.178C14.0101 162.826 14.1935 162.525 14.4281 162.276C14.6775 162.027 14.9708 161.829 15.3081 161.682C15.6601 161.521 16.0561 161.44 16.4961 161.44C16.9361 161.44 17.3248 161.521 17.6621 161.682C18.0141 161.829 18.3075 162.027 18.5421 162.276C18.7915 162.525 18.9821 162.826 19.1141 163.178C19.2461 163.515 19.3121 163.867 19.3121 164.234ZM36.806 161.066C37.0553 160.905 37.4293 160.736 37.928 160.56C38.4413 160.384 39.028 160.296 39.688 160.296C40.5093 160.296 41.2353 160.443 41.866 160.736C42.5113 161.029 43.054 161.44 43.494 161.968C43.934 162.496 44.264 163.127 44.484 163.86C44.7187 164.593 44.836 165.4 44.836 166.28C44.836 167.204 44.6967 168.04 44.418 168.788C44.154 169.521 43.7727 170.145 43.274 170.658C42.7753 171.171 42.174 171.567 41.47 171.846C40.766 172.125 39.974 172.264 39.094 172.264C38.1407 172.264 37.2973 172.198 36.564 172.066C35.8307 171.934 35.2293 171.802 34.76 171.67V155.28L36.806 154.928V161.066ZM36.806 170.218C37.0113 170.277 37.2973 170.335 37.664 170.394C38.0453 170.438 38.5147 170.46 39.072 170.46C40.172 170.46 41.052 170.101 41.712 169.382C42.372 168.649 42.702 167.615 42.702 166.28C42.702 165.693 42.6433 165.143 42.526 164.63C42.4087 164.117 42.218 163.677 41.954 163.31C41.69 162.929 41.3453 162.635 40.92 162.43C40.5093 162.21 40.0107 162.1 39.424 162.1C38.8667 162.1 38.3533 162.195 37.884 162.386C37.4147 162.577 37.0553 162.775 36.806 162.98V170.218ZM57.8131 166.28C57.8131 167.189 57.6811 168.011 57.4171 168.744C57.1531 169.477 56.7791 170.108 56.2951 170.636C55.8257 171.164 55.2611 171.575 54.6011 171.868C53.9411 172.147 53.2224 172.286 52.4451 172.286C51.6677 172.286 50.9491 172.147 50.2891 171.868C49.6291 171.575 49.0571 171.164 48.5731 170.636C48.1037 170.108 47.7371 169.477 47.4731 168.744C47.2091 168.011 47.0771 167.189 47.0771 166.28C47.0771 165.385 47.2091 164.571 47.4731 163.838C47.7371 163.09 48.1037 162.452 48.5731 161.924C49.0571 161.396 49.6291 160.993 50.2891 160.714C50.9491 160.421 51.6677 160.274 52.4451 160.274C53.2224 160.274 53.9411 160.421 54.6011 160.714C55.2611 160.993 55.8257 161.396 56.2951 161.924C56.7791 162.452 57.1531 163.09 57.4171 163.838C57.6811 164.571 57.8131 165.385 57.8131 166.28ZM55.6791 166.28C55.6791 164.989 55.3857 163.97 54.7991 163.222C54.2271 162.459 53.4424 162.078 52.4451 162.078C51.4477 162.078 50.6557 162.459 50.0691 163.222C49.4971 163.97 49.2111 164.989 49.2111 166.28C49.2111 167.571 49.4971 168.597 50.0691 169.36C50.6557 170.108 51.4477 170.482 52.4451 170.482C53.4424 170.482 54.2271 170.108 54.7991 169.36C55.3857 168.597 55.6791 167.571 55.6791 166.28ZM67.1684 172C67.0071 171.677 66.8091 171.318 66.5744 170.922C66.3397 170.526 66.0831 170.123 65.8044 169.712C65.5257 169.287 65.2397 168.869 64.9464 168.458C64.6531 168.047 64.3671 167.659 64.0884 167.292C63.8097 167.659 63.5237 168.055 63.2304 168.48C62.9371 168.891 62.6511 169.309 62.3724 169.734C62.1084 170.145 61.8591 170.548 61.6244 170.944C61.3897 171.34 61.1917 171.692 61.0304 172H58.9184C59.4317 171.003 60.0404 169.991 60.7444 168.964C61.4631 167.923 62.1744 166.933 62.8784 165.994L59.0944 160.56H61.4044L64.1324 164.564L66.8824 160.56H69.0604L65.3644 165.862C66.0684 166.815 66.7871 167.827 67.5204 168.898C68.2684 169.954 68.8991 170.988 69.4124 172H67.1684ZM73.6087 172H71.5627V160.56H73.6087V172ZM72.5747 158.492C72.2081 158.492 71.8927 158.375 71.6287 158.14C71.3794 157.891 71.2547 157.561 71.2547 157.15C71.2547 156.739 71.3794 156.417 71.6287 156.182C71.8927 155.933 72.2081 155.808 72.5747 155.808C72.9414 155.808 73.2494 155.933 73.4987 156.182C73.7627 156.417 73.8947 156.739 73.8947 157.15C73.8947 157.561 73.7627 157.891 73.4987 158.14C73.2494 158.375 72.9414 158.492 72.5747 158.492ZM77.1272 160.89C77.5965 160.773 78.2199 160.648 78.9972 160.516C79.7745 160.384 80.6692 160.318 81.6812 160.318C82.5905 160.318 83.3459 160.45 83.9472 160.714C84.5485 160.963 85.0252 161.323 85.3772 161.792C85.7439 162.247 86.0005 162.797 86.1472 163.442C86.2939 164.087 86.3672 164.799 86.3672 165.576V172H84.3212V166.016C84.3212 165.312 84.2699 164.711 84.1672 164.212C84.0792 163.713 83.9252 163.31 83.7052 163.002C83.4852 162.694 83.1919 162.474 82.8252 162.342C82.4585 162.195 82.0039 162.122 81.4612 162.122C81.2412 162.122 81.0139 162.129 80.7792 162.144C80.5445 162.159 80.3172 162.181 80.0972 162.21C79.8919 162.225 79.7012 162.247 79.5252 162.276C79.3639 162.305 79.2465 162.327 79.1732 162.342V172H77.1272V160.89ZM96.932 170.856C96.756 170.973 96.4113 171.127 95.898 171.318C95.3993 171.494 94.8127 171.582 94.138 171.582C93.4487 171.582 92.796 171.472 92.18 171.252C91.5787 171.032 91.0507 170.695 90.596 170.24C90.1413 169.771 89.782 169.191 89.518 168.502C89.254 167.813 89.122 166.991 89.122 166.038C89.122 165.202 89.2467 164.439 89.496 163.75C89.7453 163.046 90.1047 162.445 90.574 161.946C91.058 161.433 91.6447 161.037 92.334 160.758C93.0233 160.465 93.8007 160.318 94.666 160.318C95.6193 160.318 96.448 160.391 97.152 160.538C97.8707 160.67 98.472 160.795 98.956 160.912V171.12C98.956 172.88 98.5013 174.156 97.592 174.948C96.6827 175.74 95.304 176.136 93.456 176.136C92.7373 176.136 92.0553 176.077 91.41 175.96C90.7793 175.843 90.2293 175.703 89.76 175.542L90.134 173.76C90.5447 173.921 91.0433 174.061 91.63 174.178C92.2313 174.31 92.8547 174.376 93.5 174.376C94.7173 174.376 95.59 174.134 96.118 173.65C96.6607 173.166 96.932 172.396 96.932 171.34V170.856ZM96.91 162.364C96.7047 162.305 96.426 162.254 96.074 162.21C95.7367 162.151 95.2747 162.122 94.688 162.122C93.588 162.122 92.7373 162.481 92.136 163.2C91.5493 163.919 91.256 164.872 91.256 166.06C91.256 166.72 91.3367 167.285 91.498 167.754C91.674 168.223 91.9013 168.612 92.18 168.92C92.4733 169.228 92.8033 169.455 93.17 169.602C93.5513 169.749 93.94 169.822 94.336 169.822C94.8787 169.822 95.3773 169.749 95.832 169.602C96.2867 169.441 96.646 169.257 96.91 169.052V162.364Z" fill="white"/>
<path d="M183.348 144.881C179.194 141.584 172.624 141.025 172.342 141.005C171.906 140.969 171.49 141.21 171.311 141.608C171.295 141.632 171.152 141.958 170.993 142.465C173.74 142.923 177.115 143.844 180.168 145.714C180.658 146.011 180.808 146.647 180.507 147.129C180.307 147.447 179.969 147.62 179.618 147.62C179.431 147.62 179.239 147.567 179.068 147.463C173.818 144.25 167.264 144.089 166 144.089C164.736 144.089 158.178 144.25 152.932 147.463C152.443 147.764 151.799 147.616 151.497 147.133C151.192 146.647 151.342 146.015 151.832 145.714C154.885 143.848 158.26 142.923 161.007 142.469C160.848 141.958 160.705 141.636 160.693 141.608C160.51 141.21 160.098 140.961 159.658 141.005C159.376 141.025 152.806 141.584 148.595 144.926C146.398 146.932 142 158.657 142 168.794C142 168.975 142.049 169.148 142.139 169.305C145.171 174.565 153.45 175.94 155.337 176C155.345 176 155.357 176 155.37 176C155.704 176 156.018 175.843 156.213 175.578L158.121 172.988C152.973 171.677 150.344 169.45 150.193 169.317C149.761 168.943 149.72 168.292 150.103 167.865C150.482 167.439 151.143 167.399 151.575 167.773C151.636 167.829 156.478 171.882 166 171.882C175.538 171.882 180.38 167.813 180.429 167.773C180.861 167.403 181.518 167.439 181.901 167.87C182.28 168.296 182.239 168.943 181.807 169.317C181.656 169.45 179.027 171.677 173.879 172.988L175.787 175.578C175.982 175.843 176.296 176 176.63 176C176.643 176 176.655 176 176.663 176C178.55 175.94 186.829 174.565 189.861 169.305C189.951 169.148 190 168.975 190 168.794C190 158.657 185.602 146.932 183.348 144.881ZM159.217 164.677C157.2 164.677 155.565 162.835 155.565 160.559C155.565 158.283 157.2 156.442 159.217 156.442C161.235 156.442 162.87 158.283 162.87 160.559C162.87 162.835 161.235 164.677 159.217 164.677ZM172.783 164.677C170.765 164.677 169.13 162.835 169.13 160.559C169.13 158.283 170.765 156.442 172.783 156.442C174.8 156.442 176.435 158.283 176.435 160.559C176.435 162.835 174.8 164.677 172.783 164.677Z" fill="white"/>
</svg>
