<svg width="200" height="200" viewBox="0 0 200 200" fill="none" xmlns="http://www.w3.org/2000/svg">
<path d="M0 30C0 13.4315 13.4315 7.62939e-06 30 7.62939e-06H169C185.569 7.62939e-06 199 13.4315 199 30V170C199 186.569 185.569 200 169 200H30C13.4315 200 0 186.569 0 170V30Z" fill="#833AA7"/>
<path d="M199.025 82C199.025 76.252 199.025 32 199.025 27C197 14.5 190 4 175.5 0.499998L63.7138 43.4741C55.4223 47.1262 49.5263 56.7616 50.2789 65.4016C50.479 67.6876 56.8266 127.251 57.7901 136.617C58.3913 142.487 59.4525 148.659 63.0817 154.225C70.5215 165.572 85.6748 171.062 99.1246 167.239C114.1 163.018 124.208 151.212 124.952 137.206C125.289 131.091 124.879 124.17 124.424 118.929L199.025 82C199 83 199.025 85.5 199.025 85.5C199.025 88.5 199 88 199 90.5C199 104 199.025 107 199 102C199.004 99 199.031 94.0001 199.025 91C199 78.5 198.474 96.752 199.025 82ZM108.005 66.9953L98.6538 71.114L102.622 80.1234L93.2713 84.2421L89.303 75.2326L79.9522 79.3512L75.9839 70.3417L85.3347 66.2231L81.3665 57.2136L90.7173 53.095L94.6855 62.1045L104.036 57.9858L108.005 66.9953ZM140.65 90.2671C135.599 92.513 129.467 90.2762 127.331 85.3763C125.145 80.414 127.66 74.3899 132.841 72.1919C138.096 69.9616 143.831 72.1416 146.056 77.1918C148.246 82.2149 145.884 87.9409 140.65 90.2671ZM187.44 69.658C182.188 71.9923 176.276 69.8063 174.069 64.748C171.879 59.7249 174.215 53.9894 179.413 51.6792C184.519 49.4092 190.59 51.6093 192.763 56.4931C194.926 61.4026 192.492 67.4121 187.44 69.658Z" fill="white" fill-opacity="0.15"/>
<path d="M13.15 48V14.16L19.855 13.08V24.42C20.305 24.27 20.875 24.135 21.565 24.015C22.285 23.865 22.975 23.79 23.635 23.79C25.555 23.79 27.145 24.06 28.405 24.6C29.695 25.11 30.715 25.845 31.465 26.805C32.245 27.765 32.785 28.905 33.085 30.225C33.415 31.545 33.58 33.015 33.58 34.635V48H26.875V35.445C26.875 33.285 26.59 31.755 26.02 30.855C25.48 29.955 24.46 29.505 22.96 29.505C22.36 29.505 21.79 29.565 21.25 29.685C20.74 29.775 20.275 29.88 19.855 30V48H13.15Z" fill="white"/>
<path d="M61.789 36.12C61.789 37.98 61.519 39.69 60.979 41.25C60.439 42.78 59.659 44.1 58.639 45.21C57.619 46.29 56.389 47.13 54.949 47.73C53.539 48.33 51.949 48.63 50.179 48.63C48.439 48.63 46.849 48.33 45.409 47.73C43.999 47.13 42.784 46.29 41.764 45.21C40.744 44.1 39.949 42.78 39.379 41.25C38.809 39.69 38.524 37.98 38.524 36.12C38.524 34.26 38.809 32.565 39.379 31.035C39.979 29.505 40.789 28.2 41.809 27.12C42.859 26.04 44.089 25.2 45.499 24.6C46.939 24 48.499 23.7 50.179 23.7C51.889 23.7 53.449 24 54.859 24.6C56.299 25.2 57.529 26.04 58.549 27.12C59.569 28.2 60.364 29.505 60.934 31.035C61.504 32.565 61.789 34.26 61.789 36.12ZM54.949 36.12C54.949 34.05 54.529 32.43 53.689 31.26C52.879 30.06 51.709 29.46 50.179 29.46C48.649 29.46 47.464 30.06 46.624 31.26C45.784 32.43 45.364 34.05 45.364 36.12C45.364 38.19 45.784 39.84 46.624 41.07C47.464 42.27 48.649 42.87 50.179 42.87C51.709 42.87 52.879 42.27 53.689 41.07C54.529 39.84 54.949 38.19 54.949 36.12Z" fill="white"/>
<path d="M82.148 35.985C82.148 31.665 80.558 29.505 77.378 29.505C76.688 29.505 75.998 29.595 75.308 29.775C74.648 29.955 74.108 30.18 73.688 30.45V42.645C74.018 42.705 74.438 42.765 74.948 42.825C75.458 42.855 76.013 42.87 76.613 42.87C78.443 42.87 79.823 42.24 80.753 40.98C81.683 39.72 82.148 38.055 82.148 35.985ZM88.988 36.165C88.988 38.055 88.703 39.765 88.133 41.295C87.593 42.825 86.798 44.13 85.748 45.21C84.698 46.29 83.408 47.13 81.878 47.73C80.348 48.3 78.608 48.585 76.658 48.585C75.848 48.585 74.993 48.54 74.093 48.45C73.223 48.39 72.353 48.3 71.483 48.18C70.643 48.06 69.833 47.925 69.053 47.775C68.273 47.595 67.583 47.415 66.983 47.235V14.16L73.688 13.08V24.87C74.438 24.54 75.218 24.285 76.028 24.105C76.838 23.925 77.708 23.835 78.638 23.835C80.318 23.835 81.803 24.135 83.093 24.735C84.383 25.305 85.463 26.13 86.333 27.21C87.203 28.29 87.863 29.595 88.313 31.125C88.763 32.625 88.988 34.305 88.988 36.165Z" fill="white"/>
<path d="M109.306 35.985C109.306 31.665 107.716 29.505 104.536 29.505C103.846 29.505 103.156 29.595 102.466 29.775C101.806 29.955 101.266 30.18 100.846 30.45V42.645C101.176 42.705 101.596 42.765 102.106 42.825C102.616 42.855 103.171 42.87 103.771 42.87C105.601 42.87 106.981 42.24 107.911 40.98C108.841 39.72 109.306 38.055 109.306 35.985ZM116.146 36.165C116.146 38.055 115.861 39.765 115.291 41.295C114.751 42.825 113.956 44.13 112.906 45.21C111.856 46.29 110.566 47.13 109.036 47.73C107.506 48.3 105.766 48.585 103.816 48.585C103.006 48.585 102.151 48.54 101.251 48.45C100.381 48.39 99.5112 48.3 98.6412 48.18C97.8012 48.06 96.9912 47.925 96.2112 47.775C95.4312 47.595 94.7412 47.415 94.1412 47.235V14.16L100.846 13.08V24.87C101.596 24.54 102.376 24.285 103.186 24.105C103.996 23.925 104.866 23.835 105.796 23.835C107.476 23.835 108.961 24.135 110.251 24.735C111.541 25.305 112.621 26.13 113.491 27.21C114.361 28.29 115.021 29.595 115.471 31.125C115.921 32.625 116.146 34.305 116.146 36.165Z" fill="white"/>
<path d="M128.004 48H121.299V24.33H128.004V48ZM128.634 17.49C128.634 18.72 128.229 19.695 127.419 20.415C126.639 21.105 125.709 21.45 124.629 21.45C123.549 21.45 122.604 21.105 121.794 20.415C121.014 19.695 120.624 18.72 120.624 17.49C120.624 16.26 121.014 15.3 121.794 14.61C122.604 13.89 123.549 13.53 124.629 13.53C125.709 13.53 126.639 13.89 127.419 14.61C128.229 15.3 128.634 16.26 128.634 17.49Z" fill="white"/>
<path d="M133.182 36.345C133.182 34.245 133.497 32.415 134.127 30.855C134.787 29.265 135.642 27.945 136.692 26.895C137.742 25.845 138.942 25.05 140.292 24.51C141.672 23.97 143.082 23.7 144.522 23.7C147.882 23.7 150.537 24.735 152.487 26.805C154.437 28.845 155.412 31.86 155.412 35.85C155.412 36.24 155.397 36.675 155.367 37.155C155.337 37.605 155.307 38.01 155.277 38.37H140.067C140.217 39.75 140.862 40.845 142.002 41.655C143.142 42.465 144.672 42.87 146.592 42.87C147.822 42.87 149.022 42.765 150.192 42.555C151.392 42.315 152.367 42.03 153.117 41.7L154.017 47.145C153.657 47.325 153.177 47.505 152.577 47.685C151.977 47.865 151.302 48.015 150.552 48.135C149.832 48.285 149.052 48.405 148.212 48.495C147.372 48.585 146.532 48.63 145.692 48.63C143.562 48.63 141.702 48.315 140.112 47.685C138.552 47.055 137.247 46.2 136.197 45.12C135.177 44.01 134.412 42.705 133.902 41.205C133.422 39.705 133.182 38.085 133.182 36.345ZM148.932 33.78C148.902 33.21 148.797 32.655 148.617 32.115C148.467 31.575 148.212 31.095 147.852 30.675C147.522 30.255 147.087 29.91 146.547 29.64C146.037 29.37 145.392 29.235 144.612 29.235C143.862 29.235 143.217 29.37 142.677 29.64C142.137 29.88 141.687 30.21 141.327 30.63C140.967 31.05 140.682 31.545 140.472 32.115C140.292 32.655 140.157 33.21 140.067 33.78H148.932Z" fill="white"/>
<path d="M167.382 43.185C168.612 43.185 169.482 43.065 169.992 42.825C170.502 42.585 170.757 42.12 170.757 41.43C170.757 40.89 170.427 40.425 169.767 40.035C169.107 39.615 168.102 39.15 166.752 38.64C165.702 38.25 164.742 37.845 163.872 37.425C163.032 37.005 162.312 36.51 161.712 35.94C161.112 35.34 160.647 34.635 160.317 33.825C159.987 33.015 159.822 32.04 159.822 30.9C159.822 28.68 160.647 26.925 162.297 25.635C163.947 24.345 166.212 23.7 169.092 23.7C170.532 23.7 171.912 23.835 173.232 24.105C174.552 24.345 175.602 24.615 176.382 24.915L175.212 30.135C174.432 29.865 173.577 29.625 172.647 29.415C171.747 29.205 170.727 29.1 169.587 29.1C167.487 29.1 166.437 29.685 166.437 30.855C166.437 31.125 166.482 31.365 166.572 31.575C166.662 31.785 166.842 31.995 167.112 32.205C167.382 32.385 167.742 32.595 168.192 32.835C168.672 33.045 169.272 33.285 169.992 33.555C171.462 34.095 172.677 34.635 173.637 35.175C174.597 35.685 175.347 36.255 175.887 36.885C176.457 37.485 176.847 38.16 177.057 38.91C177.297 39.66 177.417 40.53 177.417 41.52C177.417 43.86 176.532 45.63 174.762 46.83C173.022 48.03 170.547 48.63 167.337 48.63C165.237 48.63 163.482 48.45 162.072 48.09C160.692 47.73 159.732 47.43 159.192 47.19L160.317 41.745C161.457 42.195 162.627 42.555 163.827 42.825C165.027 43.065 166.212 43.185 167.382 43.185Z" fill="white"/>
<path d="M12.56 67.824H17.552V90H12.56V67.824Z" fill="white"/>
<path d="M36.7725 90.32C35.3858 90.2987 34.2552 90.1493 33.3805 89.872C32.5272 89.5947 31.8445 89.2107 31.3325 88.72C30.8418 88.208 30.5005 87.6 30.3085 86.896C30.1378 86.1707 30.0525 85.36 30.0525 84.464V65.936L34.8205 65.168V83.504C34.8205 83.9307 34.8525 84.3147 34.9165 84.656C34.9805 84.9973 35.0978 85.2853 35.2685 85.52C35.4605 85.7547 35.7272 85.9467 36.0685 86.096C36.4098 86.2453 36.8685 86.3413 37.4445 86.384L36.7725 90.32Z" fill="white"/>
<path d="M44.9455 90H40.1775V73.168H44.9455V90ZM45.3935 68.304C45.3935 69.1787 45.1055 69.872 44.5295 70.384C43.9748 70.8747 43.3135 71.12 42.5455 71.12C41.7775 71.12 41.1055 70.8747 40.5295 70.384C39.9748 69.872 39.6975 69.1787 39.6975 68.304C39.6975 67.4293 39.9748 66.7467 40.5295 66.256C41.1055 65.744 41.7775 65.488 42.5455 65.488C43.3135 65.488 43.9748 65.744 44.5295 66.256C45.1055 66.7467 45.3935 67.4293 45.3935 68.304Z" fill="white"/>
<path d="M54.1955 79.248C54.6648 78.736 55.1448 78.2027 55.6355 77.648C56.1475 77.0933 56.6382 76.5493 57.1075 76.016C57.5768 75.4613 58.0142 74.9387 58.4195 74.448C58.8462 73.9573 59.2088 73.5307 59.5075 73.168H65.1715C64.0408 74.4693 62.9315 75.7173 61.8435 76.912C60.7768 78.0853 59.6035 79.3013 58.3235 80.56C58.9635 81.136 59.6248 81.8293 60.3075 82.64C60.9902 83.4293 61.6515 84.2507 62.2915 85.104C62.9315 85.9573 63.5182 86.8107 64.0515 87.664C64.5848 88.5173 65.0328 89.296 65.3955 90H59.9235C59.5822 89.4453 59.1875 88.8373 58.7395 88.176C58.3128 87.4933 57.8542 86.8213 57.3635 86.16C56.8728 85.4773 56.3502 84.8267 55.7955 84.208C55.2622 83.5893 54.7288 83.0667 54.1955 82.64V90H49.4275V65.936L54.1955 65.168V79.248Z" fill="white"/>
<path d="M66.0025 81.712C66.0025 80.2187 66.2265 78.9173 66.6745 77.808C67.1438 76.6773 67.7518 75.7387 68.4985 74.992C69.2452 74.2453 70.0985 73.68 71.0585 73.296C72.0398 72.912 73.0425 72.72 74.0665 72.72C76.4558 72.72 78.3438 73.456 79.7305 74.928C81.1172 76.3787 81.8105 78.5227 81.8105 81.36C81.8105 81.6373 81.7998 81.9467 81.7785 82.288C81.7572 82.608 81.7358 82.896 81.7145 83.152H70.8985C71.0052 84.1333 71.4638 84.912 72.2745 85.488C73.0852 86.064 74.1732 86.352 75.5385 86.352C76.4132 86.352 77.2665 86.2773 78.0985 86.128C78.9518 85.9573 79.6452 85.7547 80.1785 85.52L80.8185 89.392C80.5625 89.52 80.2212 89.648 79.7945 89.776C79.3678 89.904 78.8878 90.0107 78.3545 90.096C77.8425 90.2027 77.2878 90.288 76.6905 90.352C76.0932 90.416 75.4958 90.448 74.8985 90.448C73.3838 90.448 72.0612 90.224 70.9305 89.776C69.8212 89.328 68.8932 88.72 68.1465 87.952C67.4212 87.1627 66.8772 86.2347 66.5145 85.168C66.1732 84.1013 66.0025 82.9493 66.0025 81.712ZM77.2025 79.888C77.1812 79.4827 77.1065 79.088 76.9785 78.704C76.8718 78.32 76.6905 77.9787 76.4345 77.68C76.1998 77.3813 75.8905 77.136 75.5065 76.944C75.1438 76.752 74.6852 76.656 74.1305 76.656C73.5972 76.656 73.1385 76.752 72.7545 76.944C72.3705 77.1147 72.0505 77.3493 71.7945 77.648C71.5385 77.9467 71.3358 78.2987 71.1865 78.704C71.0585 79.088 70.9625 79.4827 70.8985 79.888H77.2025Z" fill="white"/>
<path d="M90.162 76.112C90.162 77.072 89.8527 77.808 89.234 78.32C88.6367 78.8107 87.954 79.056 87.186 79.056C86.418 79.056 85.7247 78.8107 85.106 78.32C84.5087 77.808 84.21 77.072 84.21 76.112C84.21 75.152 84.5087 74.4267 85.106 73.936C85.7247 73.424 86.418 73.168 87.186 73.168C87.954 73.168 88.6367 73.424 89.234 73.936C89.8527 74.4267 90.162 75.152 90.162 76.112ZM90.162 87.472C90.162 88.432 89.8527 89.168 89.234 89.68C88.6367 90.1707 87.954 90.416 87.186 90.416C86.418 90.416 85.7247 90.1707 85.106 89.68C84.5087 89.168 84.21 88.432 84.21 87.472C84.21 86.512 84.5087 85.7867 85.106 85.296C85.7247 84.784 86.418 84.528 87.186 84.528C87.954 84.528 88.6367 84.784 89.234 85.296C89.8527 85.7867 90.162 86.512 90.162 87.472Z" fill="white"/>
<path d="M17.3121 110.234C17.3121 110.615 17.2461 110.975 17.1141 111.312C16.9821 111.649 16.7915 111.943 16.5421 112.192C16.3075 112.441 16.0141 112.647 15.6621 112.808C15.3248 112.955 14.9361 113.028 14.4961 113.028C14.0561 113.028 13.6601 112.955 13.3081 112.808C12.9708 112.647 12.6775 112.441 12.4281 112.192C12.1935 111.943 12.0101 111.649 11.8781 111.312C11.7461 110.975 11.6801 110.615 11.6801 110.234C11.6801 109.867 11.7461 109.515 11.8781 109.178C12.0101 108.826 12.1935 108.525 12.4281 108.276C12.6775 108.027 12.9708 107.829 13.3081 107.682C13.6601 107.521 14.0561 107.44 14.4961 107.44C14.9361 107.44 15.3248 107.521 15.6621 107.682C16.0141 107.829 16.3075 108.027 16.5421 108.276C16.7915 108.525 16.9821 108.826 17.1141 109.178C17.2461 109.515 17.3121 109.867 17.3121 110.234Z" fill="white"/>
<path d="M41.692 106.56C41.12 108.701 40.4453 110.755 39.668 112.72C38.9053 114.685 38.1647 116.445 37.446 118H35.598C34.8793 116.445 34.1313 114.685 33.354 112.72C32.5913 110.755 31.924 108.701 31.352 106.56H33.552C33.728 107.279 33.9333 108.049 34.168 108.87C34.4173 109.677 34.674 110.483 34.938 111.29C35.2167 112.082 35.4953 112.852 35.774 113.6C36.0527 114.348 36.3167 115.015 36.566 115.602C36.8153 115.015 37.0793 114.348 37.358 113.6C37.6367 112.852 37.908 112.082 38.172 111.29C38.4507 110.483 38.7073 109.677 38.942 108.87C39.1913 108.049 39.404 107.279 39.58 106.56H41.692Z" fill="white"/>
<path d="M45.849 118H43.803V106.56H45.849V118ZM44.815 104.492C44.4483 104.492 44.133 104.375 43.869 104.14C43.6196 103.891 43.495 103.561 43.495 103.15C43.495 102.739 43.6196 102.417 43.869 102.182C44.133 101.933 44.4483 101.808 44.815 101.808C45.1816 101.808 45.4896 101.933 45.739 102.182C46.003 102.417 46.135 102.739 46.135 103.15C46.135 103.561 46.003 103.891 45.739 104.14C45.4896 104.375 45.1816 104.492 44.815 104.492Z" fill="white"/>
<path d="M56.7594 108.98C56.5101 108.775 56.1508 108.577 55.6814 108.386C55.2121 108.195 54.6988 108.1 54.1414 108.1C53.5548 108.1 53.0488 108.21 52.6234 108.43C52.2128 108.635 51.8754 108.929 51.6114 109.31C51.3474 109.677 51.1568 110.117 51.0394 110.63C50.9221 111.143 50.8634 111.693 50.8634 112.28C50.8634 113.615 51.1934 114.649 51.8534 115.382C52.5134 116.101 53.3934 116.46 54.4934 116.46C55.0508 116.46 55.5128 116.438 55.8794 116.394C56.2608 116.335 56.5541 116.277 56.7594 116.218V108.98ZM56.7594 101.28L58.8054 100.928V117.67C58.3361 117.802 57.7348 117.934 57.0014 118.066C56.2681 118.198 55.4248 118.264 54.4714 118.264C53.5914 118.264 52.7994 118.125 52.0954 117.846C51.3914 117.567 50.7901 117.171 50.2914 116.658C49.7928 116.145 49.4041 115.521 49.1254 114.788C48.8614 114.04 48.7294 113.204 48.7294 112.28C48.7294 111.4 48.8394 110.593 49.0594 109.86C49.2941 109.127 49.6314 108.496 50.0714 107.968C50.5114 107.44 51.0468 107.029 51.6774 106.736C52.3228 106.443 53.0561 106.296 53.8774 106.296C54.5374 106.296 55.1168 106.384 55.6154 106.56C56.1288 106.736 56.5101 106.905 56.7594 107.066V101.28Z" fill="white"/>
<path d="M61.6845 112.302C61.6845 111.29 61.8312 110.41 62.1245 109.662C62.4178 108.899 62.8065 108.269 63.2905 107.77C63.7745 107.271 64.3318 106.897 64.9625 106.648C65.5932 106.399 66.2385 106.274 66.8985 106.274C68.4385 106.274 69.6192 106.758 70.4405 107.726C71.2618 108.679 71.6725 110.139 71.6725 112.104C71.6725 112.192 71.6725 112.309 71.6725 112.456C71.6725 112.588 71.6652 112.713 71.6505 112.83H63.8185C63.9065 114.018 64.2512 114.92 64.8525 115.536C65.4538 116.152 66.3925 116.46 67.6685 116.46C68.3872 116.46 68.9885 116.401 69.4725 116.284C69.9712 116.152 70.3452 116.027 70.5945 115.91L70.8805 117.626C70.6312 117.758 70.1912 117.897 69.5605 118.044C68.9445 118.191 68.2405 118.264 67.4485 118.264C66.4512 118.264 65.5858 118.117 64.8525 117.824C64.1338 117.516 63.5398 117.098 63.0705 116.57C62.6012 116.042 62.2492 115.419 62.0145 114.7C61.7945 113.967 61.6845 113.167 61.6845 112.302ZM69.5385 111.18C69.5532 110.256 69.3185 109.501 68.8345 108.914C68.3652 108.313 67.7125 108.012 66.8765 108.012C66.4072 108.012 65.9892 108.107 65.6225 108.298C65.2705 108.474 64.9698 108.709 64.7205 109.002C64.4712 109.295 64.2732 109.633 64.1265 110.014C63.9945 110.395 63.9065 110.784 63.8625 111.18H69.5385Z" fill="white"/>
<path d="M84.7096 112.28C84.7096 113.189 84.5776 114.011 84.3136 114.744C84.0496 115.477 83.6756 116.108 83.1916 116.636C82.7222 117.164 82.1576 117.575 81.4976 117.868C80.8376 118.147 80.1189 118.286 79.3416 118.286C78.5642 118.286 77.8456 118.147 77.1856 117.868C76.5256 117.575 75.9536 117.164 75.4696 116.636C75.0002 116.108 74.6336 115.477 74.3696 114.744C74.1056 114.011 73.9736 113.189 73.9736 112.28C73.9736 111.385 74.1056 110.571 74.3696 109.838C74.6336 109.09 75.0002 108.452 75.4696 107.924C75.9536 107.396 76.5256 106.993 77.1856 106.714C77.8456 106.421 78.5642 106.274 79.3416 106.274C80.1189 106.274 80.8376 106.421 81.4976 106.714C82.1576 106.993 82.7222 107.396 83.1916 107.924C83.6756 108.452 84.0496 109.09 84.3136 109.838C84.5776 110.571 84.7096 111.385 84.7096 112.28ZM82.5756 112.28C82.5756 110.989 82.2822 109.97 81.6956 109.222C81.1236 108.459 80.3389 108.078 79.3416 108.078C78.3442 108.078 77.5522 108.459 76.9656 109.222C76.3936 109.97 76.1076 110.989 76.1076 112.28C76.1076 113.571 76.3936 114.597 76.9656 115.36C77.5522 116.108 78.3442 116.482 79.3416 116.482C80.3389 116.482 81.1236 116.108 81.6956 115.36C82.2822 114.597 82.5756 113.571 82.5756 112.28Z" fill="white"/>
<path d="M99.8519 116.856C99.6759 116.973 99.3313 117.127 98.8179 117.318C98.3193 117.494 97.7326 117.582 97.0579 117.582C96.3686 117.582 95.7159 117.472 95.0999 117.252C94.4986 117.032 93.9706 116.695 93.5159 116.24C93.0613 115.771 92.7019 115.191 92.4379 114.502C92.1739 113.813 92.0419 112.991 92.0419 112.038C92.0419 111.202 92.1666 110.439 92.4159 109.75C92.6653 109.046 93.0246 108.445 93.4939 107.946C93.9779 107.433 94.5646 107.037 95.2539 106.758C95.9433 106.465 96.7206 106.318 97.5859 106.318C98.5393 106.318 99.3679 106.391 100.072 106.538C100.791 106.67 101.392 106.795 101.876 106.912V117.12C101.876 118.88 101.421 120.156 100.512 120.948C99.6026 121.74 98.2239 122.136 96.3759 122.136C95.6573 122.136 94.9753 122.077 94.3299 121.96C93.6993 121.843 93.1493 121.703 92.6799 121.542L93.0539 119.76C93.4646 119.921 93.9633 120.061 94.5499 120.178C95.1513 120.31 95.7746 120.376 96.4199 120.376C97.6373 120.376 98.5099 120.134 99.0379 119.65C99.5806 119.166 99.8519 118.396 99.8519 117.34V116.856ZM99.8299 108.364C99.6246 108.305 99.3459 108.254 98.9939 108.21C98.6566 108.151 98.1946 108.122 97.6079 108.122C96.5079 108.122 95.6573 108.481 95.0559 109.2C94.4693 109.919 94.1759 110.872 94.1759 112.06C94.1759 112.72 94.2566 113.285 94.4179 113.754C94.5939 114.223 94.8213 114.612 95.0999 114.92C95.3933 115.228 95.7233 115.455 96.0899 115.602C96.4713 115.749 96.8599 115.822 97.2559 115.822C97.7986 115.822 98.2973 115.749 98.7519 115.602C99.2066 115.441 99.5659 115.257 99.8299 115.052V108.364Z" fill="white"/>
<path d="M109.271 116.526C109.755 116.526 110.18 116.519 110.547 116.504C110.928 116.475 111.243 116.431 111.493 116.372V112.962C111.346 112.889 111.104 112.83 110.767 112.786C110.444 112.727 110.048 112.698 109.579 112.698C109.271 112.698 108.941 112.72 108.589 112.764C108.251 112.808 107.936 112.903 107.643 113.05C107.364 113.182 107.129 113.373 106.939 113.622C106.748 113.857 106.653 114.172 106.653 114.568C106.653 115.301 106.887 115.815 107.357 116.108C107.826 116.387 108.464 116.526 109.271 116.526ZM109.095 106.274C109.916 106.274 110.605 106.384 111.163 106.604C111.735 106.809 112.189 107.11 112.527 107.506C112.879 107.887 113.128 108.349 113.275 108.892C113.421 109.42 113.495 110.007 113.495 110.652V117.802C113.319 117.831 113.069 117.875 112.747 117.934C112.439 117.978 112.087 118.022 111.691 118.066C111.295 118.11 110.862 118.147 110.393 118.176C109.938 118.22 109.483 118.242 109.029 118.242C108.383 118.242 107.789 118.176 107.247 118.044C106.704 117.912 106.235 117.707 105.839 117.428C105.443 117.135 105.135 116.753 104.915 116.284C104.695 115.815 104.585 115.25 104.585 114.59C104.585 113.959 104.709 113.417 104.959 112.962C105.223 112.507 105.575 112.141 106.015 111.862C106.455 111.583 106.968 111.378 107.555 111.246C108.141 111.114 108.757 111.048 109.403 111.048C109.608 111.048 109.821 111.063 110.041 111.092C110.261 111.107 110.466 111.136 110.657 111.18C110.862 111.209 111.038 111.239 111.185 111.268C111.331 111.297 111.434 111.319 111.493 111.334V110.762C111.493 110.425 111.456 110.095 111.383 109.772C111.309 109.435 111.177 109.141 110.987 108.892C110.796 108.628 110.532 108.423 110.195 108.276C109.872 108.115 109.447 108.034 108.919 108.034C108.244 108.034 107.65 108.085 107.137 108.188C106.638 108.276 106.264 108.371 106.015 108.474L105.773 106.78C106.037 106.663 106.477 106.553 107.093 106.45C107.709 106.333 108.376 106.274 109.095 106.274Z" fill="white"/>
<path d="M116.893 106.89C117.362 106.773 117.978 106.648 118.741 106.516C119.518 106.384 120.413 106.318 121.425 106.318C122.158 106.318 122.774 106.421 123.273 106.626C123.771 106.817 124.189 107.103 124.527 107.484C124.629 107.411 124.791 107.308 125.011 107.176C125.231 107.044 125.502 106.919 125.825 106.802C126.147 106.67 126.507 106.56 126.903 106.472C127.299 106.369 127.724 106.318 128.179 106.318C129.059 106.318 129.777 106.45 130.335 106.714C130.892 106.963 131.325 107.323 131.633 107.792C131.955 108.261 132.168 108.819 132.271 109.464C132.388 110.109 132.447 110.813 132.447 111.576V118H130.401V112.016C130.401 111.341 130.364 110.762 130.291 110.278C130.232 109.794 130.107 109.391 129.917 109.068C129.741 108.745 129.491 108.511 129.169 108.364C128.861 108.203 128.457 108.122 127.959 108.122C127.269 108.122 126.697 108.217 126.243 108.408C125.803 108.584 125.502 108.745 125.341 108.892C125.458 109.273 125.546 109.691 125.605 110.146C125.663 110.601 125.693 111.077 125.693 111.576V118H123.647V112.016C123.647 111.341 123.61 110.762 123.537 110.278C123.463 109.794 123.331 109.391 123.141 109.068C122.965 108.745 122.715 108.511 122.393 108.364C122.085 108.203 121.689 108.122 121.205 108.122C120.999 108.122 120.779 108.129 120.545 108.144C120.31 108.159 120.083 108.181 119.863 108.21C119.657 108.225 119.467 108.247 119.291 108.276C119.115 108.305 118.997 108.327 118.939 108.342V118H116.893V106.89Z" fill="white"/>
<path d="M135.204 112.302C135.204 111.29 135.351 110.41 135.644 109.662C135.937 108.899 136.326 108.269 136.81 107.77C137.294 107.271 137.851 106.897 138.482 106.648C139.113 106.399 139.758 106.274 140.418 106.274C141.958 106.274 143.139 106.758 143.96 107.726C144.781 108.679 145.192 110.139 145.192 112.104C145.192 112.192 145.192 112.309 145.192 112.456C145.192 112.588 145.185 112.713 145.17 112.83H137.338C137.426 114.018 137.771 114.92 138.372 115.536C138.973 116.152 139.912 116.46 141.188 116.46C141.907 116.46 142.508 116.401 142.992 116.284C143.491 116.152 143.865 116.027 144.114 115.91L144.4 117.626C144.151 117.758 143.711 117.897 143.08 118.044C142.464 118.191 141.76 118.264 140.968 118.264C139.971 118.264 139.105 118.117 138.372 117.824C137.653 117.516 137.059 117.098 136.59 116.57C136.121 116.042 135.769 115.419 135.534 114.7C135.314 113.967 135.204 113.167 135.204 112.302ZM143.058 111.18C143.073 110.256 142.838 109.501 142.354 108.914C141.885 108.313 141.232 108.012 140.396 108.012C139.927 108.012 139.509 108.107 139.142 108.298C138.79 108.474 138.489 108.709 138.24 109.002C137.991 109.295 137.793 109.633 137.646 110.014C137.514 110.395 137.426 110.784 137.382 111.18H143.058Z" fill="white"/>
<path d="M150.793 116.526C151.629 116.526 152.245 116.416 152.641 116.196C153.052 115.976 153.257 115.624 153.257 115.14C153.257 114.641 153.059 114.245 152.663 113.952C152.267 113.659 151.614 113.329 150.705 112.962C150.265 112.786 149.84 112.61 149.429 112.434C149.033 112.243 148.688 112.023 148.395 111.774C148.102 111.525 147.867 111.224 147.691 110.872C147.515 110.52 147.427 110.087 147.427 109.574C147.427 108.562 147.801 107.763 148.549 107.176C149.297 106.575 150.316 106.274 151.607 106.274C151.93 106.274 152.252 106.296 152.575 106.34C152.898 106.369 153.198 106.413 153.477 106.472C153.756 106.516 153.998 106.567 154.203 106.626C154.423 106.685 154.592 106.736 154.709 106.78L154.335 108.54C154.115 108.423 153.77 108.305 153.301 108.188C152.832 108.056 152.267 107.99 151.607 107.99C151.035 107.99 150.536 108.107 150.111 108.342C149.686 108.562 149.473 108.914 149.473 109.398C149.473 109.647 149.517 109.867 149.605 110.058C149.708 110.249 149.854 110.425 150.045 110.586C150.25 110.733 150.5 110.872 150.793 111.004C151.086 111.136 151.438 111.275 151.849 111.422C152.392 111.627 152.876 111.833 153.301 112.038C153.726 112.229 154.086 112.456 154.379 112.72C154.687 112.984 154.922 113.307 155.083 113.688C155.244 114.055 155.325 114.509 155.325 115.052C155.325 116.108 154.929 116.907 154.137 117.45C153.36 117.993 152.245 118.264 150.793 118.264C149.781 118.264 148.989 118.176 148.417 118C147.845 117.839 147.456 117.714 147.251 117.626L147.625 115.866C147.86 115.954 148.234 116.086 148.747 116.262C149.26 116.438 149.942 116.526 150.793 116.526Z" fill="white"/>
<path d="M17.3121 137.234C17.3121 137.615 17.2461 137.975 17.1141 138.312C16.9821 138.649 16.7915 138.943 16.5421 139.192C16.3075 139.441 16.0141 139.647 15.6621 139.808C15.3248 139.955 14.9361 140.028 14.4961 140.028C14.0561 140.028 13.6601 139.955 13.3081 139.808C12.9708 139.647 12.6775 139.441 12.4281 139.192C12.1935 138.943 12.0101 138.649 11.8781 138.312C11.7461 137.975 11.6801 137.615 11.6801 137.234C11.6801 136.867 11.7461 136.515 11.8781 136.178C12.0101 135.826 12.1935 135.525 12.4281 135.276C12.6775 135.027 12.9708 134.829 13.3081 134.682C13.6601 134.521 14.0561 134.44 14.4961 134.44C14.9361 134.44 15.3248 134.521 15.6621 134.682C16.0141 134.829 16.3075 135.027 16.5421 135.276C16.7915 135.525 16.9821 135.826 17.1141 136.178C17.2461 136.515 17.3121 136.867 17.3121 137.234Z" fill="white"/>
<path d="M40.152 135.98C39.9027 135.775 39.5433 135.577 39.074 135.386C38.6047 135.195 38.0913 135.1 37.534 135.1C36.9473 135.1 36.4413 135.21 36.016 135.43C35.6053 135.635 35.268 135.929 35.004 136.31C34.74 136.677 34.5493 137.117 34.432 137.63C34.3147 138.143 34.256 138.693 34.256 139.28C34.256 140.615 34.586 141.649 35.246 142.382C35.906 143.101 36.786 143.46 37.886 143.46C38.4433 143.46 38.9053 143.438 39.272 143.394C39.6533 143.335 39.9467 143.277 40.152 143.218V135.98ZM40.152 128.28L42.198 127.928V144.67C41.7287 144.802 41.1273 144.934 40.394 145.066C39.6607 145.198 38.8173 145.264 37.864 145.264C36.984 145.264 36.192 145.125 35.488 144.846C34.784 144.567 34.1827 144.171 33.684 143.658C33.1853 143.145 32.7967 142.521 32.518 141.788C32.254 141.04 32.122 140.204 32.122 139.28C32.122 138.4 32.232 137.593 32.452 136.86C32.6867 136.127 33.024 135.496 33.464 134.968C33.904 134.44 34.4393 134.029 35.07 133.736C35.7153 133.443 36.4487 133.296 37.27 133.296C37.93 133.296 38.5093 133.384 39.008 133.56C39.5213 133.736 39.9027 133.905 40.152 134.066V128.28Z" fill="white"/>
<path d="M45.0771 139.302C45.0771 138.29 45.2237 137.41 45.5171 136.662C45.8104 135.899 46.1991 135.269 46.6831 134.77C47.1671 134.271 47.7244 133.897 48.3551 133.648C48.9857 133.399 49.6311 133.274 50.2911 133.274C51.8311 133.274 53.0117 133.758 53.8331 134.726C54.6544 135.679 55.0651 137.139 55.0651 139.104C55.0651 139.192 55.0651 139.309 55.0651 139.456C55.0651 139.588 55.0577 139.713 55.0431 139.83H47.2111C47.2991 141.018 47.6437 141.92 48.2451 142.536C48.8464 143.152 49.7851 143.46 51.0611 143.46C51.7797 143.46 52.3811 143.401 52.8651 143.284C53.3637 143.152 53.7377 143.027 53.9871 142.91L54.2731 144.626C54.0237 144.758 53.5837 144.897 52.9531 145.044C52.3371 145.191 51.6331 145.264 50.8411 145.264C49.8437 145.264 48.9784 145.117 48.2451 144.824C47.5264 144.516 46.9324 144.098 46.4631 143.57C45.9937 143.042 45.6417 142.419 45.4071 141.7C45.1871 140.967 45.0771 140.167 45.0771 139.302ZM52.9311 138.18C52.9457 137.256 52.7111 136.501 52.2271 135.914C51.7577 135.313 51.1051 135.012 50.2691 135.012C49.7997 135.012 49.3817 135.107 49.0151 135.298C48.6631 135.474 48.3624 135.709 48.1131 136.002C47.8637 136.295 47.6657 136.633 47.5191 137.014C47.3871 137.395 47.2991 137.784 47.2551 138.18H52.9311Z" fill="white"/>
<path d="M60.6661 143.526C61.5021 143.526 62.1181 143.416 62.5141 143.196C62.9248 142.976 63.1301 142.624 63.1301 142.14C63.1301 141.641 62.9321 141.245 62.5361 140.952C62.1401 140.659 61.4875 140.329 60.5781 139.962C60.1381 139.786 59.7128 139.61 59.3021 139.434C58.9061 139.243 58.5615 139.023 58.2681 138.774C57.9748 138.525 57.7401 138.224 57.5641 137.872C57.3881 137.52 57.3001 137.087 57.3001 136.574C57.3001 135.562 57.6741 134.763 58.4221 134.176C59.1701 133.575 60.1895 133.274 61.4801 133.274C61.8028 133.274 62.1255 133.296 62.4481 133.34C62.7708 133.369 63.0715 133.413 63.3501 133.472C63.6288 133.516 63.8708 133.567 64.0761 133.626C64.2961 133.685 64.4648 133.736 64.5821 133.78L64.2081 135.54C63.9881 135.423 63.6435 135.305 63.1741 135.188C62.7048 135.056 62.1401 134.99 61.4801 134.99C60.9081 134.99 60.4095 135.107 59.9841 135.342C59.5588 135.562 59.3461 135.914 59.3461 136.398C59.3461 136.647 59.3901 136.867 59.4781 137.058C59.5808 137.249 59.7275 137.425 59.9181 137.586C60.1235 137.733 60.3728 137.872 60.6661 138.004C60.9595 138.136 61.3115 138.275 61.7221 138.422C62.2648 138.627 62.7488 138.833 63.1741 139.038C63.5995 139.229 63.9588 139.456 64.2521 139.72C64.5601 139.984 64.7948 140.307 64.9561 140.688C65.1175 141.055 65.1981 141.509 65.1981 142.052C65.1981 143.108 64.8021 143.907 64.0101 144.45C63.2328 144.993 62.1181 145.264 60.6661 145.264C59.6541 145.264 58.8621 145.176 58.2901 145C57.7181 144.839 57.3295 144.714 57.1241 144.626L57.4981 142.866C57.7328 142.954 58.1068 143.086 58.6201 143.262C59.1335 143.438 59.8155 143.526 60.6661 143.526Z" fill="white"/>
<path d="M69.8685 145H67.8225V133.56H69.8685V145ZM68.8345 131.492C68.4678 131.492 68.1525 131.375 67.8885 131.14C67.6392 130.891 67.5145 130.561 67.5145 130.15C67.5145 129.739 67.6392 129.417 67.8885 129.182C68.1525 128.933 68.4678 128.808 68.8345 128.808C69.2012 128.808 69.5092 128.933 69.7585 129.182C70.0225 129.417 70.1545 129.739 70.1545 130.15C70.1545 130.561 70.0225 130.891 69.7585 131.14C69.5092 131.375 69.2012 131.492 68.8345 131.492Z" fill="white"/>
<path d="M80.559 143.856C80.383 143.973 80.0383 144.127 79.525 144.318C79.0263 144.494 78.4396 144.582 77.765 144.582C77.0756 144.582 76.423 144.472 75.807 144.252C75.2056 144.032 74.6776 143.695 74.223 143.24C73.7683 142.771 73.409 142.191 73.145 141.502C72.881 140.813 72.749 139.991 72.749 139.038C72.749 138.202 72.8736 137.439 73.123 136.75C73.3723 136.046 73.7316 135.445 74.201 134.946C74.685 134.433 75.2716 134.037 75.961 133.758C76.6503 133.465 77.4276 133.318 78.293 133.318C79.2463 133.318 80.075 133.391 80.779 133.538C81.4976 133.67 82.099 133.795 82.583 133.912V144.12C82.583 145.88 82.1283 147.156 81.219 147.948C80.3096 148.74 78.931 149.136 77.083 149.136C76.3643 149.136 75.6823 149.077 75.037 148.96C74.4063 148.843 73.8563 148.703 73.387 148.542L73.761 146.76C74.1716 146.921 74.6703 147.061 75.257 147.178C75.8583 147.31 76.4816 147.376 77.127 147.376C78.3443 147.376 79.217 147.134 79.745 146.65C80.2876 146.166 80.559 145.396 80.559 144.34V143.856ZM80.537 135.364C80.3316 135.305 80.053 135.254 79.701 135.21C79.3636 135.151 78.9016 135.122 78.315 135.122C77.215 135.122 76.3643 135.481 75.763 136.2C75.1763 136.919 74.8829 137.872 74.8829 139.06C74.8829 139.72 74.9636 140.285 75.125 140.754C75.301 141.223 75.5283 141.612 75.807 141.92C76.1003 142.228 76.4303 142.455 76.797 142.602C77.1783 142.749 77.567 142.822 77.963 142.822C78.5056 142.822 79.0043 142.749 79.459 142.602C79.9136 142.441 80.273 142.257 80.537 142.052V135.364Z" fill="white"/>
<path d="M86.1057 133.89C86.575 133.773 87.1984 133.648 87.9757 133.516C88.753 133.384 89.6477 133.318 90.6597 133.318C91.569 133.318 92.3244 133.45 92.9257 133.714C93.527 133.963 94.0037 134.323 94.3557 134.792C94.7224 135.247 94.979 135.797 95.1257 136.442C95.2724 137.087 95.3457 137.799 95.3457 138.576V145H93.2997V139.016C93.2997 138.312 93.2484 137.711 93.1457 137.212C93.0577 136.713 92.9037 136.31 92.6837 136.002C92.4637 135.694 92.1704 135.474 91.8037 135.342C91.437 135.195 90.9824 135.122 90.4397 135.122C90.2197 135.122 89.9924 135.129 89.7577 135.144C89.523 135.159 89.2957 135.181 89.0757 135.21C88.8704 135.225 88.6797 135.247 88.5037 135.276C88.3424 135.305 88.225 135.327 88.1517 135.342V145H86.1057V133.89Z" fill="white"/>
<path d="M17.3121 164.234C17.3121 164.615 17.2461 164.975 17.1141 165.312C16.9821 165.649 16.7915 165.943 16.5421 166.192C16.3075 166.441 16.0141 166.647 15.6621 166.808C15.3248 166.955 14.9361 167.028 14.4961 167.028C14.0561 167.028 13.6601 166.955 13.3081 166.808C12.9708 166.647 12.6775 166.441 12.4281 166.192C12.1935 165.943 12.0101 165.649 11.8781 165.312C11.7461 164.975 11.6801 164.615 11.6801 164.234C11.6801 163.867 11.7461 163.515 11.8781 163.178C12.0101 162.826 12.1935 162.525 12.4281 162.276C12.6775 162.027 12.9708 161.829 13.3081 161.682C13.6601 161.521 14.0561 161.44 14.4961 161.44C14.9361 161.44 15.3248 161.521 15.6621 161.682C16.0141 161.829 16.3075 162.027 16.5421 162.276C16.7915 162.525 16.9821 162.826 17.1141 163.178C17.2461 163.515 17.3121 163.867 17.3121 164.234Z" fill="white"/>
<path d="M34.806 161.066C35.0553 160.905 35.4293 160.736 35.928 160.56C36.4413 160.384 37.028 160.296 37.688 160.296C38.5093 160.296 39.2353 160.443 39.866 160.736C40.5113 161.029 41.054 161.44 41.494 161.968C41.934 162.496 42.264 163.127 42.484 163.86C42.7187 164.593 42.836 165.4 42.836 166.28C42.836 167.204 42.6967 168.04 42.418 168.788C42.154 169.521 41.7727 170.145 41.274 170.658C40.7753 171.171 40.174 171.567 39.47 171.846C38.766 172.125 37.974 172.264 37.094 172.264C36.1407 172.264 35.2973 172.198 34.564 172.066C33.8307 171.934 33.2293 171.802 32.76 171.67V155.28L34.806 154.928V161.066ZM34.806 170.218C35.0113 170.277 35.2973 170.335 35.664 170.394C36.0453 170.438 36.5147 170.46 37.072 170.46C38.172 170.46 39.052 170.101 39.712 169.382C40.372 168.649 40.702 167.615 40.702 166.28C40.702 165.693 40.6433 165.143 40.526 164.63C40.4087 164.117 40.218 163.677 39.954 163.31C39.69 162.929 39.3453 162.635 38.92 162.43C38.5093 162.21 38.0107 162.1 37.424 162.1C36.8667 162.1 36.3533 162.195 35.884 162.386C35.4147 162.577 35.0553 162.775 34.806 162.98V170.218Z" fill="white"/>
<path d="M55.8131 166.28C55.8131 167.189 55.6811 168.011 55.4171 168.744C55.1531 169.477 54.7791 170.108 54.2951 170.636C53.8257 171.164 53.2611 171.575 52.6011 171.868C51.9411 172.147 51.2224 172.286 50.4451 172.286C49.6677 172.286 48.9491 172.147 48.2891 171.868C47.6291 171.575 47.0571 171.164 46.5731 170.636C46.1037 170.108 45.7371 169.477 45.4731 168.744C45.2091 168.011 45.0771 167.189 45.0771 166.28C45.0771 165.385 45.2091 164.571 45.4731 163.838C45.7371 163.09 46.1037 162.452 46.5731 161.924C47.0571 161.396 47.6291 160.993 48.2891 160.714C48.9491 160.421 49.6677 160.274 50.4451 160.274C51.2224 160.274 51.9411 160.421 52.6011 160.714C53.2611 160.993 53.8257 161.396 54.2951 161.924C54.7791 162.452 55.1531 163.09 55.4171 163.838C55.6811 164.571 55.8131 165.385 55.8131 166.28ZM53.6791 166.28C53.6791 164.989 53.3857 163.97 52.7991 163.222C52.2271 162.459 51.4424 162.078 50.4451 162.078C49.4477 162.078 48.6557 162.459 48.0691 163.222C47.4971 163.97 47.2111 164.989 47.2111 166.28C47.2111 167.571 47.4971 168.597 48.0691 169.36C48.6557 170.108 49.4477 170.482 50.4451 170.482C51.4424 170.482 52.2271 170.108 52.7991 169.36C53.3857 168.597 53.6791 167.571 53.6791 166.28Z" fill="white"/>
<path d="M65.1684 172C65.0071 171.677 64.8091 171.318 64.5744 170.922C64.3397 170.526 64.0831 170.123 63.8044 169.712C63.5257 169.287 63.2397 168.869 62.9464 168.458C62.6531 168.047 62.3671 167.659 62.0884 167.292C61.8097 167.659 61.5237 168.055 61.2304 168.48C60.9371 168.891 60.6511 169.309 60.3724 169.734C60.1084 170.145 59.8591 170.548 59.6244 170.944C59.3897 171.34 59.1917 171.692 59.0304 172H56.9184C57.4317 171.003 58.0404 169.991 58.7444 168.964C59.4631 167.923 60.1744 166.933 60.8784 165.994L57.0944 160.56H59.4044L62.1324 164.564L64.8824 160.56H67.0604L63.3644 165.862C64.0684 166.815 64.7871 167.827 65.5204 168.898C66.2684 169.954 66.8991 170.988 67.4124 172H65.1684Z" fill="white"/>
<path d="M71.6087 172H69.5627V160.56H71.6087V172ZM70.5747 158.492C70.2081 158.492 69.8927 158.375 69.6287 158.14C69.3794 157.891 69.2547 157.561 69.2547 157.15C69.2547 156.739 69.3794 156.417 69.6287 156.182C69.8927 155.933 70.2081 155.808 70.5747 155.808C70.9414 155.808 71.2494 155.933 71.4987 156.182C71.7627 156.417 71.8947 156.739 71.8947 157.15C71.8947 157.561 71.7627 157.891 71.4987 158.14C71.2494 158.375 70.9414 158.492 70.5747 158.492Z" fill="white"/>
<path d="M75.1272 160.89C75.5965 160.773 76.2199 160.648 76.9972 160.516C77.7745 160.384 78.6692 160.318 79.6812 160.318C80.5905 160.318 81.3459 160.45 81.9472 160.714C82.5485 160.963 83.0252 161.323 83.3772 161.792C83.7439 162.247 84.0005 162.797 84.1472 163.442C84.2939 164.087 84.3672 164.799 84.3672 165.576V172H82.3212V166.016C82.3212 165.312 82.2699 164.711 82.1672 164.212C82.0792 163.713 81.9252 163.31 81.7052 163.002C81.4852 162.694 81.1919 162.474 80.8252 162.342C80.4585 162.195 80.0039 162.122 79.4612 162.122C79.2412 162.122 79.0139 162.129 78.7792 162.144C78.5445 162.159 78.3172 162.181 78.0972 162.21C77.8919 162.225 77.7012 162.247 77.5252 162.276C77.3639 162.305 77.2465 162.327 77.1732 162.342V172H75.1272V160.89Z" fill="white"/>
<path d="M94.932 170.856C94.756 170.973 94.4113 171.127 93.898 171.318C93.3993 171.494 92.8127 171.582 92.138 171.582C91.4487 171.582 90.796 171.472 90.18 171.252C89.5787 171.032 89.0507 170.695 88.596 170.24C88.1413 169.771 87.782 169.191 87.518 168.502C87.254 167.813 87.122 166.991 87.122 166.038C87.122 165.202 87.2467 164.439 87.496 163.75C87.7453 163.046 88.1047 162.445 88.574 161.946C89.058 161.433 89.6447 161.037 90.334 160.758C91.0233 160.465 91.8007 160.318 92.666 160.318C93.6193 160.318 94.448 160.391 95.152 160.538C95.8707 160.67 96.472 160.795 96.956 160.912V171.12C96.956 172.88 96.5013 174.156 95.592 174.948C94.6827 175.74 93.304 176.136 91.456 176.136C90.7373 176.136 90.0553 176.077 89.41 175.96C88.7793 175.843 88.2293 175.703 87.76 175.542L88.134 173.76C88.5447 173.921 89.0433 174.061 89.63 174.178C90.2313 174.31 90.8547 174.376 91.5 174.376C92.7173 174.376 93.59 174.134 94.118 173.65C94.6607 173.166 94.932 172.396 94.932 171.34V170.856ZM94.91 162.364C94.7047 162.305 94.426 162.254 94.074 162.21C93.7367 162.151 93.2747 162.122 92.688 162.122C91.588 162.122 90.7373 162.481 90.136 163.2C89.5493 163.919 89.256 164.872 89.256 166.06C89.256 166.72 89.3367 167.285 89.498 167.754C89.674 168.223 89.9013 168.612 90.18 168.92C90.4733 169.228 90.8033 169.455 91.17 169.602C91.5513 169.749 91.94 169.822 92.336 169.822C92.8787 169.822 93.3773 169.749 93.832 169.602C94.2867 169.441 94.646 169.257 94.91 169.052V162.364Z" fill="white"/>
<path d="M181.348 144.881C177.194 141.584 170.624 141.025 170.342 141.005C169.906 140.969 169.49 141.21 169.311 141.608C169.295 141.632 169.152 141.958 168.993 142.465C171.74 142.923 175.115 143.844 178.168 145.714C178.658 146.011 178.808 146.647 178.507 147.129C178.307 147.447 177.969 147.62 177.618 147.62C177.431 147.62 177.239 147.567 177.068 147.463C171.818 144.25 165.264 144.089 164 144.089C162.736 144.089 156.178 144.25 150.932 147.463C150.443 147.764 149.799 147.616 149.497 147.133C149.192 146.647 149.342 146.015 149.832 145.714C152.885 143.848 156.26 142.923 159.007 142.469C158.848 141.958 158.705 141.636 158.693 141.608C158.51 141.21 158.098 140.961 157.658 141.005C157.376 141.025 150.806 141.584 146.595 144.926C144.398 146.932 140 158.657 140 168.794C140 168.975 140.049 169.148 140.139 169.305C143.171 174.565 151.45 175.94 153.337 176C153.345 176 153.357 176 153.37 176C153.704 176 154.018 175.843 154.213 175.578L156.121 172.988C150.973 171.677 148.344 169.45 148.193 169.317C147.761 168.943 147.72 168.292 148.103 167.865C148.482 167.439 149.143 167.399 149.575 167.773C149.636 167.829 154.478 171.882 164 171.882C173.538 171.882 178.38 167.813 178.429 167.773C178.861 167.403 179.518 167.439 179.901 167.87C180.28 168.296 180.239 168.943 179.807 169.317C179.656 169.45 177.027 171.677 171.879 172.988L173.787 175.578C173.982 175.843 174.296 176 174.63 176C174.643 176 174.655 176 174.663 176C176.55 175.94 184.829 174.565 187.861 169.305C187.951 169.148 188 168.975 188 168.794C188 158.657 183.602 146.932 181.348 144.881ZM157.217 164.677C155.2 164.677 153.565 162.835 153.565 160.559C153.565 158.283 155.2 156.442 157.217 156.442C159.235 156.442 160.87 158.283 160.87 160.559C160.87 162.835 159.235 164.677 157.217 164.677ZM170.783 164.677C168.765 164.677 167.13 162.835 167.13 160.559C167.13 158.283 168.765 156.442 170.783 156.442C172.8 156.442 174.435 158.283 174.435 160.559C174.435 162.835 172.8 164.677 170.783 164.677Z" fill="white"/>
</svg>
