<svg width="124" height="310" viewBox="0 0 124 310" fill="none" xmlns="http://www.w3.org/2000/svg">
<path d="M0 22.1429C0 9.9137 13.4315 0 30 0H93.5459C110.114 0 123.546 9.9137 123.546 22.1429V287.857C123.546 300.086 110.114 310 93.5459 310H30C13.4314 310 0 300.086 0 287.857V22.1429Z" fill="#FE4576"/>
<path d="M44.3673 15.131C49.085 21.5606 57.0834 25.2348 64.011 23.5075L76.6396 40.7185C71.731 41.4482 66.9475 43.5718 62.807 47.1242L45.7474 61.7608C39.4745 67.1428 30.2464 65.8926 25.1691 58.973L24.2054 57.6596C27.3358 50.7573 26.91 42.4023 22.1923 35.9727C15.8377 27.3123 7.8545 24.6301 3.33168e-06 31.369C3.23577e-06 39.4881 8.37108e-07 53.8809 0 65.3214C0 65.3214 5.9048 69.1445 12.8324 67.4173L13.7961 68.7307C23.9651 82.5896 42.3891 85.0856 54.9527 74.3064L72.0123 59.6698C78.2852 54.2878 87.5133 55.538 92.5906 62.4576L93.5543 63.771C90.2944 70.4969 90.8497 79.0283 95.5674 85.4579C101.925 94.1222 115.691 93.4651 123.546 86.7262C123.546 74.9167 123.205 71.5952 124 61.0636C119.282 54.634 111.717 52.1173 104.927 54.0133L75.3841 13.7498C78.5056 6.85517 78.1547 6.64286 75.3841 3.37686e-08C62.6066 -2.83254e-07 48.3656 1.73648e-06 41.637 1.72777e-06C41.637 1.72777e-06 36.4253 4.55627 44.3673 15.131ZM62.6066 8.96467C60.252 10.9848 56.7955 10.5166 54.8897 7.91923C52.984 5.32191 52.9339 2.02016 55.2885 6.29463e-07C58.3601 1.20766e-06 60.5745 1.11723e-06 63.4794 8.52746e-07C65.3852 2.59733 64.9612 6.94451 62.6066 8.96467ZM4.52399 43.4653C6.88745 41.4375 10.3351 41.9134 12.2409 44.5107C14.1466 47.108 13.7914 50.8467 11.428 52.8745C9.0645 54.9022 5.61688 54.4263 3.7111 51.829C1.80532 49.2317 2.16053 45.4931 4.52399 43.4653ZM113.236 77.9653C110.881 79.9855 107.432 79.527 105.519 76.9199C103.606 74.3127 103.977 70.5763 106.332 68.5561C108.686 66.536 112.136 66.9944 114.049 69.6016C115.962 72.2087 115.59 75.9452 113.236 77.9653Z" fill="white" fill-opacity="0.15"/>
<path d="M72.32 253.732L71.9006 254.031C70.0463 255.352 67.709 254.93 66.669 253.091L57.7135 237.257C56.6736 235.418 57.2688 232.76 59.1231 231.439L59.5425 231.14C65.7885 226.692 73.7 228.122 77.2107 234.329C80.781 240.642 78.566 249.284 72.32 253.732ZM50.6368 218.141C52.9397 218.554 54.2817 220.927 53.6348 223.442L50.3325 236.303C50.3082 236.436 50.2655 236.565 50.2228 236.694C52.03 237.756 53.5794 239.298 54.6525 241.195L62.1309 254.417C63.2636 256.42 63.847 258.65 63.9343 260.937C64.0565 260.948 64.1787 260.96 64.2957 260.992L76.0745 263.117C78.3774 263.531 79.7155 265.897 79.0685 268.411C78.424 270.924 76.0443 272.619 73.7438 272.203L61.9649 270.078C61.7831 269.961 61.7257 270.034 61.6086 270.003C60.599 271.724 59.2788 273.305 57.6906 274.617L61.9498 282.148C63.1222 284.221 62.3848 287.095 60.2996 288.58C58.2145 290.065 55.5827 289.59 54.4102 287.517L50.1709 280.022C47.2729 282.086 44.1755 283.388 41.0694 283.974C41.0554 284.329 41.006 284.709 40.9014 285.079L37.6012 297.945C36.9566 300.457 34.5769 302.152 32.2764 301.737C29.9758 301.322 28.6378 298.956 29.2824 296.443L32.5244 283.768C28.3334 282.727 24.5637 280.27 21.878 276.514L50.0569 256.445C51.0936 255.707 51.4649 254.259 50.8224 253.123C50.2991 252.198 48.9143 251.853 47.8777 252.592L19.6987 272.661C17.8736 268.441 17.4967 263.567 18.442 258.868L6.8426 256.768C4.54205 256.353 3.20005 253.98 3.84463 251.467C4.48987 248.955 6.86953 247.261 9.16942 247.675L20.9502 249.804C21.2933 249.855 21.6209 249.967 21.9131 250.104C23.7077 247.199 26.0765 244.609 28.9745 242.545L24.7352 235.049C23.5647 232.98 24.3001 230.101 26.3853 228.616C28.4704 227.131 31.1042 227.61 32.2747 229.679L36.5339 237.21C38.2664 236.153 40.1047 235.488 41.9224 235.196C41.9467 235.063 41.971 234.931 42.0138 234.802L45.312 221.933C45.9572 219.422 48.3369 217.727 50.6368 218.141Z" fill="white" fill-opacity="0.15"/>
<path d="M12.7279 106.621C13.5639 106.621 14.2986 106.611 14.9319 106.593C15.5906 106.555 16.1352 106.499 16.5659 106.424V102.077C16.3126 101.984 15.8946 101.909 15.3119 101.853C14.7546 101.778 14.0706 101.741 13.2599 101.741C12.7279 101.741 12.1579 101.769 11.5499 101.825C10.9672 101.881 10.4226 102.002 9.91589 102.189C9.43455 102.358 9.02922 102.601 8.69989 102.919C8.37055 103.218 8.20589 103.62 8.20589 104.125C8.20589 105.059 8.61122 105.714 9.42189 106.088C10.2326 106.443 11.3346 106.621 12.7279 106.621ZM12.4239 93.5506C13.8426 93.5506 15.0332 93.6909 15.9959 93.9713C16.9839 94.2331 17.7692 94.6164 18.3519 95.1213C18.9599 95.6074 19.3906 96.1964 19.6439 96.8883C19.8972 97.5614 20.0239 98.3094 20.0239 99.1321V108.248C19.7199 108.285 19.2892 108.341 18.7319 108.416C18.1999 108.472 17.5919 108.528 16.9079 108.584C16.2239 108.64 15.4766 108.687 14.6659 108.724C13.8806 108.78 13.0952 108.809 12.3099 108.809C11.1952 108.809 10.1692 108.724 9.23189 108.556C8.29455 108.388 7.48389 108.126 6.79989 107.771C6.11589 107.397 5.58389 106.911 5.20389 106.312C4.82389 105.714 4.63389 104.994 4.63389 104.153C4.63389 103.349 4.84922 102.657 5.27989 102.077C5.73589 101.497 6.34389 101.03 7.10389 100.675C7.86389 100.319 8.75055 100.058 9.76389 99.8894C10.7772 99.7211 11.8412 99.637 12.9559 99.637C13.3106 99.637 13.6779 99.6556 14.0579 99.693C14.4379 99.7117 14.7926 99.7491 15.1219 99.8052C15.4766 99.8426 15.7806 99.88 16.0339 99.9174C16.2872 99.9548 16.4646 99.9829 16.5659 100.002V99.2723C16.5659 98.8423 16.5026 98.4215 16.3759 98.0102C16.2492 97.5801 16.0212 97.2062 15.6919 96.8883C15.3626 96.5517 14.9066 96.2899 14.3239 96.1029C13.7666 95.8973 13.0319 95.7944 12.1199 95.7944C10.9546 95.7944 9.92855 95.8599 9.04189 95.9908C8.18055 96.103 7.53455 96.2245 7.10389 96.3554L6.68589 94.1957C7.14189 94.0461 7.90189 93.9059 8.96589 93.775C10.0299 93.6254 11.1826 93.5506 12.4239 93.5506Z" fill="white"/>
<path d="M25.8934 94.3359C26.7041 94.1864 27.7807 94.0274 29.1234 93.8591C30.4661 93.6909 32.0114 93.6067 33.7594 93.6067C35.3301 93.6067 36.6347 93.775 37.6734 94.1116C38.7121 94.4294 39.5354 94.8876 40.1434 95.4859C40.7767 96.0656 41.2201 96.7667 41.4734 97.5895C41.7267 98.4122 41.8534 99.3191 41.8534 100.31V108.5H38.3194V100.871C38.3194 99.9735 38.2307 99.2069 38.0534 98.5711C37.9014 97.9354 37.6354 97.4212 37.2554 97.0285C36.8754 96.6358 36.3687 96.3554 35.7354 96.1871C35.1021 96.0001 34.3167 95.9066 33.3794 95.9066C32.9994 95.9066 32.6067 95.916 32.2014 95.9347C31.7961 95.9534 31.4034 95.9814 31.0234 96.0188C30.6687 96.0375 30.3394 96.0655 30.0354 96.1029C29.7567 96.1403 29.5541 96.1684 29.4274 96.1871V108.5H25.8934V94.3359Z" fill="white"/>
<path d="M24.3559 133.572C24.3559 134.731 24.1279 135.797 23.6719 136.769C23.2159 137.723 22.5572 138.545 21.6959 139.237C20.8346 139.91 19.7959 140.434 18.5799 140.808C17.3892 141.182 16.0466 141.369 14.5519 141.369C13.0826 141.369 11.7399 141.182 10.5239 140.808C9.33322 140.434 8.30722 139.91 7.44589 139.237C6.58455 138.545 5.91322 137.723 5.43189 136.769C4.95055 135.797 4.70989 134.731 4.70989 133.572C4.70989 132.412 4.95055 131.356 5.43189 130.402C5.93855 129.449 6.62255 128.635 7.48389 127.962C8.37055 127.289 9.40922 126.765 10.5999 126.391C11.8159 126.017 13.1332 125.83 14.5519 125.83C15.9959 125.83 17.3132 126.017 18.5039 126.391C19.7199 126.765 20.7586 127.289 21.6199 127.962C22.4812 128.635 23.1526 129.449 23.6339 130.402C24.1152 131.356 24.3559 132.412 24.3559 133.572ZM18.5799 133.572C18.5799 132.281 18.2252 131.272 17.5159 130.542C16.8319 129.795 15.8439 129.421 14.5519 129.421C13.2599 129.421 12.2592 129.795 11.5499 130.542C10.8406 131.272 10.4859 132.281 10.4859 133.572C10.4859 134.862 10.8406 135.89 11.5499 136.657C12.2592 137.405 13.2599 137.779 14.5519 137.779C15.8439 137.779 16.8319 137.405 17.5159 136.657C18.2252 135.89 18.5799 134.862 18.5799 133.572Z" fill="white"/>
<path d="M41.5479 133.712C41.5479 132.422 41.1553 131.393 40.3699 130.627C39.5846 129.841 38.4193 129.449 36.8739 129.449C36.3672 129.449 35.8986 129.467 35.4679 129.505C35.0373 129.523 34.6826 129.551 34.4039 129.589V137.134C34.7586 137.302 35.2146 137.442 35.7719 137.554C36.3546 137.667 36.9372 137.723 37.5199 137.723C40.2052 137.723 41.5479 136.386 41.5479 133.712ZM47.3239 133.6C47.3239 134.74 47.1339 135.778 46.7539 136.713C46.3739 137.648 45.8166 138.452 45.0819 139.125C44.3473 139.798 43.4352 140.322 42.3459 140.696C41.2566 141.07 40.0026 141.257 38.5839 141.257C37.7986 141.257 37.0639 141.201 36.3799 141.088C35.6959 140.976 35.0373 140.817 34.4039 140.612V146.165H28.7419V126.728C29.2486 126.616 29.8313 126.513 30.4899 126.419C31.1486 126.307 31.8326 126.214 32.5419 126.139C33.2766 126.064 34.0113 126.008 34.7459 125.971C35.5059 125.915 36.2279 125.887 36.9119 125.887C38.5586 125.887 40.0279 126.074 41.3199 126.448C42.6119 126.803 43.7013 127.317 44.5879 127.99C45.4746 128.645 46.1459 129.449 46.6019 130.402C47.0833 131.356 47.3239 132.422 47.3239 133.6Z" fill="white"/>
<path d="M50.7255 133.712C50.7255 132.403 50.9915 131.262 51.5235 130.29C52.0808 129.299 52.8028 128.476 53.6895 127.822C54.5762 127.167 55.5895 126.672 56.7295 126.335C57.8948 125.999 59.0855 125.83 60.3015 125.83C63.1388 125.83 65.3808 126.476 67.0275 127.766C68.6742 129.037 69.4975 130.916 69.4975 133.403C69.4975 133.646 69.4848 133.918 69.4595 134.217C69.4342 134.497 69.4088 134.75 69.3835 134.974H56.5395C56.6662 135.834 57.2108 136.517 58.1735 137.021C59.1362 137.526 60.4282 137.779 62.0495 137.779C63.0882 137.779 64.1015 137.713 65.0895 137.582C66.1028 137.433 66.9262 137.255 67.5595 137.05L68.3195 140.443C68.0155 140.555 67.6102 140.668 67.1035 140.78C66.5968 140.892 66.0268 140.986 65.3935 141.06C64.7855 141.154 64.1268 141.229 63.4175 141.285C62.7082 141.341 61.9988 141.369 61.2895 141.369C59.4908 141.369 57.9202 141.173 56.5775 140.78C55.2602 140.387 54.1582 139.854 53.2715 139.181C52.4102 138.489 51.7642 137.676 51.3335 136.741C50.9282 135.806 50.7255 134.796 50.7255 133.712ZM64.0255 132.113C64.0002 131.758 63.9115 131.412 63.7595 131.075C63.6328 130.739 63.4175 130.44 63.1135 130.178C62.8348 129.916 62.4675 129.701 62.0115 129.533C61.5808 129.364 61.0362 129.28 60.3775 129.28C59.7442 129.28 59.1995 129.364 58.7435 129.533C58.2875 129.682 57.9075 129.888 57.6035 130.15C57.2995 130.412 57.0588 130.72 56.8815 131.075C56.7295 131.412 56.6155 131.758 56.5395 132.113H64.0255Z" fill="white"/>
<path d="M73.8669 126.728C74.8296 126.522 76.0709 126.335 77.5909 126.167C79.1109 125.98 80.7069 125.887 82.3789 125.887C84.0762 125.887 85.4822 126.055 86.5969 126.391C87.7369 126.709 88.6362 127.167 89.2949 127.766C89.9536 128.364 90.4223 129.075 90.7009 129.897C90.9796 130.72 91.1189 131.636 91.1189 132.646V140.976H85.4569V133.151C85.4569 131.805 85.2163 130.851 84.7349 130.29C84.2536 129.729 83.3543 129.449 82.0369 129.449C81.6316 129.449 81.2009 129.467 80.7449 129.505C80.2889 129.523 79.8836 129.551 79.5289 129.589V140.976H73.8669V126.728Z" fill="white"/>
<path d="M11.3979 170.451C12.4366 170.451 13.1712 170.376 13.6019 170.227C14.0326 170.077 14.2479 169.787 14.2479 169.357C14.2479 169.021 13.9692 168.731 13.4119 168.488C12.8546 168.226 12.0059 167.936 10.8659 167.618C9.97922 167.375 9.16855 167.123 8.43389 166.861C7.72455 166.599 7.11655 166.291 6.60989 165.936C6.10322 165.562 5.71055 165.122 5.43189 164.617C5.15322 164.113 5.01389 163.505 5.01389 162.794C5.01389 161.411 5.71055 160.317 7.10389 159.513C8.49722 158.709 10.4099 158.307 12.8419 158.307C14.0579 158.307 15.2232 158.391 16.3379 158.559C17.4526 158.709 18.3392 158.877 18.9979 159.064L18.0099 162.317C17.3512 162.149 16.6292 162 15.8439 161.869C15.0839 161.738 14.2226 161.672 13.2599 161.672C11.4866 161.672 10.5999 162.037 10.5999 162.766C10.5999 162.935 10.6379 163.084 10.7139 163.215C10.7899 163.346 10.9419 163.477 11.1699 163.608C11.3979 163.72 11.7019 163.851 12.0819 164C12.4872 164.131 12.9939 164.281 13.6019 164.449C14.8432 164.786 15.8692 165.122 16.6799 165.459C17.4906 165.777 18.1239 166.132 18.5799 166.525C19.0612 166.899 19.3906 167.319 19.5679 167.787C19.7706 168.254 19.8719 168.796 19.8719 169.414C19.8719 170.872 19.1246 171.975 17.6299 172.723C16.1606 173.471 14.0706 173.845 11.3599 173.845C9.58655 173.845 8.10455 173.733 6.91389 173.508C5.74855 173.284 4.93789 173.097 4.48189 172.948L5.43189 169.554C6.39455 169.834 7.38255 170.059 8.39589 170.227C9.40922 170.376 10.4099 170.451 11.3979 170.451Z" fill="white"/>
<path d="M42.7992 166.048C42.7992 167.207 42.5712 168.273 42.1152 169.245C41.6592 170.199 41.0006 171.022 40.1392 171.713C39.2779 172.387 38.2392 172.91 37.0232 173.284C35.8326 173.658 34.4899 173.845 32.9952 173.845C31.5259 173.845 30.1832 173.658 28.9672 173.284C27.7766 172.91 26.7506 172.387 25.8892 171.713C25.0279 171.022 24.3566 170.199 23.8752 169.245C23.3939 168.273 23.1532 167.207 23.1532 166.048C23.1532 164.889 23.3939 163.832 23.8752 162.878C24.3819 161.925 25.0659 161.111 25.9272 160.438C26.8139 159.765 27.8526 159.242 29.0432 158.868C30.2592 158.494 31.5766 158.307 32.9952 158.307C34.4392 158.307 35.7566 158.494 36.9472 158.868C38.1632 159.242 39.2019 159.765 40.0632 160.438C40.9246 161.111 41.5959 161.925 42.0772 162.878C42.5586 163.832 42.7992 164.889 42.7992 166.048ZM37.0232 166.048C37.0232 164.758 36.6686 163.748 35.9592 163.019C35.2752 162.271 34.2872 161.897 32.9952 161.897C31.7032 161.897 30.7026 162.271 29.9932 163.019C29.2839 163.748 28.9292 164.758 28.9292 166.048C28.9292 167.338 29.2839 168.366 29.9932 169.133C30.7026 169.881 31.7032 170.255 32.9952 170.255C34.2872 170.255 35.2752 169.881 35.9592 169.133C36.6686 168.366 37.0232 167.338 37.0232 166.048Z" fill="white"/>
<path d="M64.2473 172.948C63.2846 173.153 62.0433 173.34 60.5233 173.508C59.0033 173.695 57.4073 173.789 55.7353 173.789C54.0379 173.789 52.6193 173.621 51.4793 173.284C50.3646 172.948 49.4779 172.48 48.8193 171.882C48.1606 171.265 47.6919 170.535 47.4133 169.694C47.1346 168.853 46.9953 167.927 46.9953 166.917V158.699H52.6573V166.412C52.6573 167.759 52.8979 168.731 53.3793 169.329C53.8606 169.928 54.7599 170.227 56.0773 170.227C56.4826 170.227 56.9133 170.218 57.3693 170.199C57.8253 170.161 58.2306 170.124 58.5853 170.087V158.699H64.2473V172.948Z" fill="white"/>
<path d="M81.6082 162.402C81.1016 162.308 80.5062 162.215 79.8222 162.121C79.1382 162.009 78.4036 161.953 77.6182 161.953C77.2636 161.953 76.8329 161.981 76.3262 162.037C75.8449 162.074 75.4776 162.121 75.2242 162.177V173.452H69.5622V159.485C70.5756 159.223 71.7662 158.98 73.1342 158.755C74.5276 158.512 76.0729 158.391 77.7702 158.391C78.0742 158.391 78.4416 158.41 78.8722 158.447C79.3029 158.466 79.7336 158.503 80.1642 158.559C80.5949 158.596 81.0256 158.653 81.4562 158.727C81.8869 158.783 82.2542 158.858 82.5582 158.952L81.6082 162.402Z" fill="white"/>
<path d="M84.2724 166.076C84.2724 165.01 84.5004 164.01 84.9564 163.075C85.4377 162.121 86.1217 161.298 87.0084 160.607C87.8951 159.896 88.9717 159.335 90.2384 158.924C91.5051 158.512 92.9491 158.307 94.5704 158.307C95.6344 158.307 96.6097 158.381 97.4964 158.531C98.3831 158.662 99.2444 158.858 100.08 159.12L98.9024 162.458C98.3704 162.308 97.7877 162.177 97.1544 162.065C96.5211 161.953 95.8117 161.897 95.0264 161.897C93.3544 161.897 92.1004 162.28 91.2644 163.047C90.4537 163.813 90.0484 164.823 90.0484 166.076C90.0484 167.403 90.4284 168.432 91.1884 169.161C91.9737 169.89 93.3291 170.255 95.2544 170.255C95.9384 170.255 96.6731 170.208 97.4584 170.115C98.2437 170.021 98.9657 169.872 99.6244 169.666L100.422 173.088C99.7637 173.293 98.9404 173.471 97.9524 173.621C96.9644 173.77 95.8751 173.845 94.6844 173.845C92.8604 173.845 91.2897 173.649 89.9724 173.256C88.6551 172.845 87.5657 172.293 86.7044 171.601C85.8684 170.909 85.2477 170.096 84.8424 169.161C84.4624 168.207 84.2724 167.179 84.2724 166.076Z" fill="white"/>
<path d="M102.308 166.188C102.308 164.879 102.574 163.739 103.106 162.766C103.663 161.775 104.385 160.952 105.272 160.298C106.158 159.644 107.172 159.148 108.312 158.812C109.477 158.475 110.668 158.307 111.884 158.307C114.721 158.307 116.963 158.952 118.61 160.242C120.256 161.513 121.08 163.393 121.08 165.88C121.08 166.123 121.067 166.394 121.042 166.693C121.016 166.973 120.991 167.226 120.966 167.45H108.122C108.248 168.31 108.793 168.993 109.756 169.498C110.718 170.003 112.01 170.255 113.632 170.255C114.67 170.255 115.684 170.189 116.672 170.059C117.685 169.909 118.508 169.731 119.142 169.526L119.902 172.919C119.598 173.032 119.192 173.144 118.686 173.256C118.179 173.368 117.609 173.462 116.976 173.537C116.368 173.63 115.709 173.705 115 173.761C114.29 173.817 113.581 173.845 112.872 173.845C111.073 173.845 109.502 173.649 108.16 173.256C106.842 172.863 105.74 172.33 104.854 171.657C103.992 170.965 103.346 170.152 102.916 169.217C102.51 168.282 102.308 167.273 102.308 166.188ZM115.608 164.589C115.582 164.234 115.494 163.888 115.342 163.552C115.215 163.215 115 162.916 114.696 162.654C114.417 162.392 114.05 162.177 113.594 162.009C113.163 161.841 112.618 161.757 111.96 161.757C111.326 161.757 110.782 161.841 110.326 162.009C109.87 162.159 109.49 162.364 109.186 162.626C108.882 162.888 108.641 163.196 108.464 163.552C108.312 163.888 108.198 164.234 108.122 164.589H115.608Z" fill="white"/>
<path d="M11.9679 206.209C9.78922 206.172 8.24389 205.826 7.33189 205.171C6.41989 204.517 5.96389 203.498 5.96389 202.114V184.612L9.49789 184.164V201.693C9.49789 202.123 9.54855 202.479 9.64989 202.759C9.75122 203.04 9.91589 203.264 10.1439 203.432C10.3719 203.601 10.6759 203.731 11.0559 203.825C11.4359 203.9 11.9046 203.965 12.4619 204.021L11.9679 206.209Z" fill="white"/>
<path d="M33.8725 198.636C33.8725 199.795 33.6445 200.843 33.1885 201.778C32.7325 202.712 32.0865 203.516 31.2505 204.19C30.4398 204.863 29.4645 205.386 28.3245 205.76C27.1845 206.116 25.9432 206.293 24.6005 206.293C23.2578 206.293 22.0165 206.116 20.8765 205.76C19.7365 205.386 18.7485 204.863 17.9125 204.19C17.1018 203.516 16.4685 202.712 16.0125 201.778C15.5565 200.843 15.3285 199.795 15.3285 198.636C15.3285 197.496 15.5565 196.458 16.0125 195.523C16.4685 194.569 17.1018 193.756 17.9125 193.083C18.7485 192.41 19.7365 191.895 20.8765 191.54C22.0165 191.166 23.2578 190.979 24.6005 190.979C25.9432 190.979 27.1845 191.166 28.3245 191.54C29.4645 191.895 30.4398 192.41 31.2505 193.083C32.0865 193.756 32.7325 194.569 33.1885 195.523C33.6445 196.458 33.8725 197.496 33.8725 198.636ZM30.1865 198.636C30.1865 196.991 29.6798 195.691 28.6665 194.738C27.6785 193.765 26.3232 193.279 24.6005 193.279C22.8778 193.279 21.5098 193.765 20.4965 194.738C19.5085 195.691 19.0145 196.991 19.0145 198.636C19.0145 200.282 19.5085 201.591 20.4965 202.563C21.5098 203.516 22.8778 203.993 24.6005 203.993C26.3232 203.993 27.6785 203.516 28.6665 202.563C29.6798 201.591 30.1865 200.282 30.1865 198.636Z" fill="white"/>
<path d="M53.753 191.344C52.765 194.074 51.5997 196.692 50.257 199.197C48.9397 201.703 47.6604 203.947 46.419 205.929H43.227C41.9857 203.947 40.6937 201.703 39.351 199.197C38.0337 196.692 36.881 194.074 35.893 191.344H39.693C39.997 192.26 40.3517 193.242 40.757 194.289C41.1877 195.317 41.631 196.346 42.087 197.374C42.5684 198.384 43.0497 199.365 43.531 200.319C44.0124 201.273 44.4684 202.123 44.899 202.871C45.3297 202.123 45.7857 201.273 46.267 200.319C46.7484 199.365 47.217 198.384 47.673 197.374C48.1544 196.346 48.5977 195.317 49.003 194.289C49.4337 193.242 49.801 192.26 50.105 191.344H53.753Z" fill="white"/>
<path d="M55.7777 198.664C55.7777 197.374 56.0311 196.252 56.5377 195.299C57.0444 194.326 57.7157 193.522 58.5517 192.886C59.3877 192.251 60.3504 191.774 61.4397 191.456C62.5291 191.138 63.6437 190.979 64.7837 190.979C67.4437 190.979 69.4831 191.596 70.9017 192.83C72.3204 194.046 73.0297 195.906 73.0297 198.412C73.0297 198.524 73.0297 198.674 73.0297 198.861C73.0297 199.029 73.0171 199.188 72.9917 199.337H59.4637C59.6157 200.852 60.2111 202.002 61.2497 202.787C62.2884 203.573 63.9097 203.965 66.1137 203.965C67.3551 203.965 68.3937 203.89 69.2297 203.741C70.0911 203.573 70.7371 203.414 71.1677 203.264L71.6617 205.452C71.2311 205.62 70.4711 205.798 69.3817 205.985C68.3177 206.172 67.1017 206.265 65.7337 206.265C64.0111 206.265 62.5164 206.078 61.2497 205.704C60.0084 205.312 58.9824 204.779 58.1717 204.105C57.3611 203.432 56.7531 202.638 56.3477 201.721C55.9677 200.786 55.7777 199.767 55.7777 198.664ZM69.3437 197.234C69.3691 196.056 68.9637 195.093 68.1277 194.345C67.3171 193.578 66.1897 193.195 64.7457 193.195C63.9351 193.195 63.2131 193.316 62.5797 193.56C61.9717 193.784 61.4524 194.083 61.0217 194.457C60.5911 194.831 60.2491 195.261 59.9957 195.747C59.7677 196.233 59.6157 196.729 59.5397 197.234H69.3437Z" fill="white"/>
<path d="M85.4023 191.035C85.7063 191.035 86.0483 191.054 86.4283 191.091C86.8336 191.11 87.2263 191.147 87.6063 191.204C87.9863 191.241 88.3283 191.288 88.6323 191.344C88.9616 191.381 89.2023 191.419 89.3543 191.456L88.7463 193.728C88.4676 193.653 87.999 193.569 87.3403 193.475C86.707 193.363 85.8836 193.307 84.8703 193.307C84.2116 193.307 83.553 193.363 82.8943 193.475C82.261 193.569 81.843 193.634 81.6403 193.672V205.929H78.1063V191.961C78.9423 191.736 79.981 191.531 81.2223 191.344C82.4636 191.138 83.857 191.035 85.4023 191.035Z" fill="white"/>
<path d="M56.8999 16.4462L73.2399 11.3696L74.7219 14.7634L62.7899 18.1852L74.7219 21.607L73.2399 25.0008L56.8999 19.9241V16.4462Z" fill="white"/>
<path d="M81.4615 31.7602H75.6475L88.4155 4.61014H94.1535L81.4615 31.7602Z" fill="white"/>
<path d="M112.869 19.9241L96.5294 25.0008L95.0474 21.607L106.979 18.1852L95.0474 14.7634L96.5294 11.3696L112.869 16.4462V19.9241Z" fill="white"/>
</svg>
