<svg width="124" height="347" viewBox="0 0 124 347" fill="none" xmlns="http://www.w3.org/2000/svg">
<path d="M0 24.7857C0 11.097 13.4315 0 30 0H93.5459C110.114 0 123.546 11.0969 123.546 24.7857V322.214C123.546 335.903 110.114 347 93.5459 347H30C13.4314 347 0 335.903 0 322.214V24.7857Z" fill="#FE4576"/>
<path d="M44.3673 16.9369C49.085 24.1339 57.0834 28.2467 64.011 26.3133L76.6396 45.5785C71.731 46.3952 66.9475 48.7723 62.807 52.7487L45.7474 69.1323C39.4745 75.1566 30.2464 73.7572 25.1691 66.0117L24.2054 64.5416C27.3358 56.8155 26.91 47.4632 22.1923 40.2662C15.8377 30.5722 7.8545 27.5698 3.33168e-06 35.1131C3.23577e-06 44.2012 8.37108e-07 60.3119 0 73.1178C0 73.1178 5.9048 77.3973 12.8324 75.4639L13.7961 76.934C23.9651 92.4471 42.3891 95.241 54.9527 83.1752L72.0123 66.7917C78.2852 60.7673 87.5133 62.1667 92.5906 69.9123L93.5543 71.3824C90.2944 78.911 90.8497 88.4607 95.5674 95.6577C101.925 105.356 115.691 104.621 123.546 97.0774C123.546 83.8583 123.205 80.1405 124 68.3518C119.282 61.1548 111.717 58.3377 104.927 60.46L75.3841 15.3909C78.5056 7.67337 78.1547 7.43572 75.3841 3.7799e-08C62.6066 -3.17062e-07 48.3656 1.94374e-06 41.637 1.93399e-06C41.637 1.93399e-06 36.4253 5.10008 44.3673 16.9369ZM62.6066 10.0346C60.252 12.2959 56.7955 11.7718 54.8897 8.86443C52.984 5.9571 52.9339 2.26127 55.2885 7.04592e-07C58.3601 1.3518e-06 60.5745 1.25058e-06 63.4794 9.54525e-07C65.3852 2.90733 64.9612 7.77338 62.6066 10.0346ZM4.52399 48.6531C6.88745 46.3833 10.3351 46.916 12.2409 49.8233C14.1466 52.7306 13.7914 56.9155 11.428 59.1853C9.0645 61.4551 5.61688 60.9224 3.7111 58.0151C1.80532 55.1077 2.16053 50.9229 4.52399 48.6531ZM113.236 87.2709C110.881 89.5321 107.432 89.0189 105.519 86.1006C103.606 83.1823 103.977 78.9999 106.332 76.7386C108.686 74.4774 112.136 74.9906 114.049 77.9089C115.962 80.8272 115.59 85.0096 113.236 87.2709Z" fill="white" fill-opacity="0.15"/>
<path d="M72.32 284.016L71.9006 284.351C70.0463 285.829 67.709 285.357 66.669 283.299L57.7135 265.575C56.6736 263.516 57.2688 260.541 59.1231 259.062L59.5425 258.728C65.7885 253.749 73.7 255.349 77.2107 262.297C80.781 269.363 78.566 279.037 72.32 284.016ZM50.6368 244.177C52.9397 244.64 54.2817 247.296 53.6348 250.11L50.3325 264.507C50.3082 264.655 50.2655 264.8 50.2228 264.944C52.03 266.133 53.5794 267.859 54.6525 269.983L62.1309 284.783C63.2636 287.025 63.847 289.521 63.9343 292.081C64.0565 292.094 64.1787 292.107 64.2957 292.142L76.0745 294.522C78.3774 294.984 79.7155 297.633 79.0685 300.447C78.424 303.26 76.0443 305.157 73.7438 304.692L61.9649 302.313C61.7831 302.182 61.7257 302.264 61.6086 302.229C60.599 304.156 59.2788 305.925 57.6906 307.394L61.9498 315.823C63.1222 318.144 62.3848 321.361 60.2996 323.024C58.2145 324.686 55.5827 324.154 54.4102 321.834L50.1709 313.444C47.2729 315.754 44.1755 317.212 41.0694 317.868C41.0554 318.265 41.006 318.691 40.9014 319.105L37.6012 333.506C36.9566 336.319 34.5769 338.216 32.2764 337.751C29.9758 337.286 28.6378 334.638 29.2824 331.825L32.5244 317.637C28.3334 316.472 24.5637 313.721 21.878 309.518L50.0569 287.053C51.0936 286.226 51.4649 284.606 50.8224 283.335C50.2991 282.299 48.9143 281.913 47.8777 282.74L19.6987 305.205C17.8736 300.481 17.4967 295.025 18.442 289.766L6.8426 287.414C4.54205 286.95 3.20005 284.294 3.84463 281.481C4.48987 278.67 6.86953 276.772 9.16942 277.236L20.9502 279.619C21.2933 279.677 21.6209 279.802 21.9131 279.955C23.7077 276.704 26.0765 273.804 28.9745 271.493L24.7352 263.103C23.5647 260.787 24.3001 257.565 26.3853 255.903C28.4704 254.241 31.1042 254.776 32.2747 257.093L36.5339 265.522C38.2664 264.339 40.1047 263.595 41.9224 263.267C41.9467 263.119 41.971 262.971 42.0138 262.827L45.312 248.422C45.9572 245.611 48.3369 243.714 50.6368 244.177Z" fill="white" fill-opacity="0.15"/>
<path d="M12.7279 119.347C13.5639 119.347 14.2986 119.336 14.9319 119.315C15.5906 119.273 16.1352 119.21 16.5659 119.127V114.26C16.3126 114.156 15.8946 114.072 15.3119 114.009C14.7546 113.926 14.0706 113.884 13.2599 113.884C12.7279 113.884 12.1579 113.915 11.5499 113.978C10.9672 114.041 10.4226 114.177 9.91589 114.386C9.43455 114.574 9.02922 114.847 8.69989 115.202C8.37055 115.537 8.20589 115.987 8.20589 116.552C8.20589 117.599 8.61122 118.331 9.42189 118.75C10.2326 119.148 11.3346 119.347 12.7279 119.347ZM12.4239 104.716C13.8426 104.716 15.0332 104.873 15.9959 105.187C16.9839 105.48 17.7692 105.909 18.3519 106.474C18.9599 107.019 19.3906 107.678 19.6439 108.452C19.8972 109.206 20.0239 110.043 20.0239 110.964V121.167C19.7199 121.209 19.2892 121.272 18.7319 121.356C18.1999 121.419 17.5919 121.481 16.9079 121.544C16.2239 121.607 15.4766 121.659 14.6659 121.701C13.8806 121.764 13.0952 121.795 12.3099 121.795C11.1952 121.795 10.1692 121.701 9.23189 121.513C8.29455 121.324 7.48389 121.031 6.79989 120.634C6.11589 120.215 5.58389 119.671 5.20389 119.001C4.82389 118.331 4.63389 117.526 4.63389 116.584C4.63389 115.684 4.84922 114.909 5.27989 114.26C5.73589 113.612 6.34389 113.088 7.10389 112.691C7.86389 112.293 8.75055 112 9.76389 111.812C10.7772 111.623 11.8412 111.529 12.9559 111.529C13.3106 111.529 13.6779 111.55 14.0579 111.592C14.4379 111.613 14.7926 111.655 15.1219 111.717C15.4766 111.759 15.7806 111.801 16.0339 111.843C16.2872 111.885 16.4646 111.916 16.5659 111.937V111.121C16.5659 110.64 16.5026 110.169 16.3759 109.708C16.2492 109.227 16.0212 108.808 15.6919 108.452C15.3626 108.076 14.9066 107.783 14.3239 107.573C13.7666 107.343 13.0319 107.228 12.1199 107.228C10.9546 107.228 9.92855 107.301 9.04189 107.448C8.18055 107.573 7.53455 107.709 7.10389 107.856L6.68589 105.438C7.14189 105.271 7.90189 105.114 8.96589 104.967C10.0299 104.8 11.1826 104.716 12.4239 104.716Z" fill="white"/>
<path d="M25.8934 105.595C26.7041 105.428 27.7807 105.25 29.1234 105.062C30.4661 104.873 32.0114 104.779 33.7594 104.779C35.3301 104.779 36.6347 104.967 37.6734 105.344C38.7121 105.7 39.5354 106.213 40.1434 106.883C40.7767 107.531 41.2201 108.316 41.4734 109.237C41.7267 110.158 41.8534 111.173 41.8534 112.283V121.45H38.3194V112.91C38.3194 111.906 38.2307 111.048 38.0534 110.336C37.9014 109.624 37.6354 109.049 37.2554 108.609C36.8754 108.17 36.3687 107.856 35.7354 107.667C35.1021 107.458 34.3167 107.354 33.3794 107.354C32.9994 107.354 32.6067 107.364 32.2014 107.385C31.7961 107.406 31.4034 107.437 31.0234 107.479C30.6687 107.5 30.3394 107.531 30.0354 107.573C29.7567 107.615 29.5541 107.647 29.4274 107.667V121.45H25.8934V105.595Z" fill="white"/>
<path d="M24.3559 149.514C24.3559 150.812 24.1279 152.005 23.6719 153.093C23.2159 154.161 22.5572 155.081 21.6959 155.856C20.8346 156.609 19.7959 157.195 18.5799 157.614C17.3892 158.033 16.0466 158.242 14.5519 158.242C13.0826 158.242 11.7399 158.033 10.5239 157.614C9.33322 157.195 8.30722 156.609 7.44589 155.856C6.58455 155.081 5.91322 154.161 5.43189 153.093C4.95055 152.005 4.70989 150.812 4.70989 149.514C4.70989 148.216 4.95055 147.034 5.43189 145.966C5.93855 144.899 6.62255 143.988 7.48389 143.235C8.37055 142.482 9.40922 141.895 10.5999 141.477C11.8159 141.058 13.1332 140.849 14.5519 140.849C15.9959 140.849 17.3132 141.058 18.5039 141.477C19.7199 141.895 20.7586 142.482 21.6199 143.235C22.4812 143.988 23.1526 144.899 23.6339 145.966C24.1152 147.034 24.3559 148.216 24.3559 149.514ZM18.5799 149.514C18.5799 148.07 18.2252 146.94 17.5159 146.123C16.8319 145.286 15.8439 144.868 14.5519 144.868C13.2599 144.868 12.2592 145.286 11.5499 146.123C10.8406 146.94 10.4859 148.07 10.4859 149.514C10.4859 150.958 10.8406 152.109 11.5499 152.968C12.2592 153.805 13.2599 154.223 14.5519 154.223C15.8439 154.223 16.8319 153.805 17.5159 152.968C18.2252 152.109 18.5799 150.958 18.5799 149.514Z" fill="white"/>
<path d="M41.5479 149.671C41.5479 148.227 41.1553 147.076 40.3699 146.218C39.5846 145.338 38.4193 144.899 36.8739 144.899C36.3672 144.899 35.8986 144.92 35.4679 144.962C35.0373 144.983 34.6826 145.014 34.4039 145.056V153.501C34.7586 153.69 35.2146 153.847 35.7719 153.972C36.3546 154.098 36.9372 154.161 37.5199 154.161C40.2052 154.161 41.5479 152.664 41.5479 149.671ZM47.3239 149.545C47.3239 150.822 47.1339 151.984 46.7539 153.03C46.3739 154.077 45.8166 154.977 45.0819 155.73C44.3473 156.484 43.4352 157.07 42.3459 157.488C41.2566 157.907 40.0026 158.116 38.5839 158.116C37.7986 158.116 37.0639 158.054 36.3799 157.928C35.6959 157.802 35.0373 157.624 34.4039 157.394V163.61H28.7419V141.854C29.2486 141.728 29.8313 141.613 30.4899 141.508C31.1486 141.383 31.8326 141.278 32.5419 141.194C33.2766 141.111 34.0113 141.048 34.7459 141.006C35.5059 140.943 36.2279 140.912 36.9119 140.912C38.5586 140.912 40.0279 141.121 41.3199 141.54C42.6119 141.937 43.7013 142.513 44.5879 143.266C45.4746 143.999 46.1459 144.899 46.6019 145.966C47.0833 147.034 47.3239 148.227 47.3239 149.545Z" fill="white"/>
<path d="M50.7255 149.671C50.7255 148.206 50.9915 146.929 51.5235 145.841C52.0808 144.731 52.8028 143.811 53.6895 143.078C54.5762 142.345 55.5895 141.791 56.7295 141.414C57.8948 141.037 59.0855 140.849 60.3015 140.849C63.1388 140.849 65.3808 141.571 67.0275 143.015C68.6742 144.438 69.4975 146.542 69.4975 149.326C69.4975 149.598 69.4848 149.901 69.4595 150.236C69.4342 150.55 69.4088 150.833 69.3835 151.084H56.5395C56.6662 152.047 57.2108 152.811 58.1735 153.376C59.1362 153.941 60.4282 154.223 62.0495 154.223C63.0882 154.223 64.1015 154.15 65.0895 154.004C66.1028 153.836 66.9262 153.637 67.5595 153.407L68.3195 157.206C68.0155 157.331 67.6102 157.457 67.1035 157.583C66.5968 157.708 66.0268 157.813 65.3935 157.897C64.7855 158.001 64.1268 158.085 63.4175 158.148C62.7082 158.211 61.9988 158.242 61.2895 158.242C59.4908 158.242 57.9202 158.022 56.5775 157.583C55.2602 157.143 54.1582 156.547 53.2715 155.793C52.4102 155.019 51.7642 154.108 51.3335 153.062C50.9282 152.015 50.7255 150.885 50.7255 149.671ZM64.0255 147.881C64.0002 147.484 63.9115 147.097 63.7595 146.72C63.6328 146.343 63.4175 146.008 63.1135 145.715C62.8348 145.422 62.4675 145.181 62.0115 144.993C61.5808 144.805 61.0362 144.711 60.3775 144.711C59.7442 144.711 59.1995 144.805 58.7435 144.993C58.2875 145.161 57.9075 145.391 57.6035 145.684C57.2995 145.977 57.0588 146.322 56.8815 146.72C56.7295 147.097 56.6155 147.484 56.5395 147.881H64.0255Z" fill="white"/>
<path d="M73.8669 141.854C74.8296 141.623 76.0709 141.414 77.5909 141.226C79.1109 141.016 80.7069 140.912 82.3789 140.912C84.0762 140.912 85.4822 141.1 86.5969 141.477C87.7369 141.833 88.6362 142.345 89.2949 143.015C89.9536 143.685 90.4223 144.48 90.7009 145.401C90.9796 146.322 91.1189 147.348 91.1189 148.478V157.802H85.4569V149.043C85.4569 147.536 85.2163 146.469 84.7349 145.841C84.2536 145.213 83.3543 144.899 82.0369 144.899C81.6316 144.899 81.2009 144.92 80.7449 144.962C80.2889 144.983 79.8836 145.014 79.5289 145.056V157.802H73.8669V141.854Z" fill="white"/>
<path d="M11.3979 190.795C12.4366 190.795 13.1712 190.712 13.6019 190.544C14.0326 190.377 14.2479 190.052 14.2479 189.571C14.2479 189.194 13.9692 188.87 13.4119 188.598C12.8546 188.305 12.0059 187.98 10.8659 187.625C9.97922 187.352 9.16855 187.07 8.43389 186.777C7.72455 186.484 7.11655 186.139 6.60989 185.741C6.10322 185.322 5.71055 184.83 5.43189 184.265C5.15322 183.7 5.01389 183.02 5.01389 182.225C5.01389 180.676 5.71055 179.451 7.10389 178.551C8.49722 177.651 10.4099 177.201 12.8419 177.201C14.0579 177.201 15.2232 177.296 16.3379 177.484C17.4526 177.651 18.3392 177.84 18.9979 178.049L18.0099 181.691C17.3512 181.502 16.6292 181.335 15.8439 181.189C15.0839 181.042 14.2226 180.969 13.2599 180.969C11.4866 180.969 10.5999 181.377 10.5999 182.193C10.5999 182.382 10.6379 182.549 10.7139 182.696C10.7899 182.842 10.9419 182.989 11.1699 183.135C11.3979 183.261 11.7019 183.407 12.0819 183.575C12.4872 183.721 12.9939 183.889 13.6019 184.077C14.8432 184.454 15.8692 184.83 16.6799 185.207C17.4906 185.563 18.1239 185.961 18.5799 186.4C19.0612 186.819 19.3906 187.29 19.5679 187.813C19.7706 188.336 19.8719 188.943 19.8719 189.634C19.8719 191.266 19.1246 192.501 17.6299 193.338C16.1606 194.176 14.0706 194.594 11.3599 194.594C9.58655 194.594 8.10455 194.469 6.91389 194.218C5.74855 193.966 4.93789 193.757 4.48189 193.59L5.43189 189.791C6.39455 190.105 7.38255 190.356 8.39589 190.544C9.40922 190.712 10.4099 190.795 11.3979 190.795Z" fill="white"/>
<path d="M42.7992 185.866C42.7992 187.164 42.5712 188.357 42.1152 189.445C41.6592 190.513 41.0006 191.434 40.1392 192.208C39.2779 192.962 38.2392 193.548 37.0232 193.966C35.8326 194.385 34.4899 194.594 32.9952 194.594C31.5259 194.594 30.1832 194.385 28.9672 193.966C27.7766 193.548 26.7506 192.962 25.8892 192.208C25.0279 191.434 24.3566 190.513 23.8752 189.445C23.3939 188.357 23.1532 187.164 23.1532 185.866C23.1532 184.569 23.3939 183.386 23.8752 182.319C24.3819 181.251 25.0659 180.341 25.9272 179.587C26.8139 178.834 27.8526 178.248 29.0432 177.829C30.2592 177.411 31.5766 177.201 32.9952 177.201C34.4392 177.201 35.7566 177.411 36.9472 177.829C38.1632 178.248 39.2019 178.834 40.0632 179.587C40.9246 180.341 41.5959 181.251 42.0772 182.319C42.5586 183.386 42.7992 184.569 42.7992 185.866ZM37.0232 185.866C37.0232 184.422 36.6686 183.292 35.9592 182.476C35.2752 181.639 34.2872 181.22 32.9952 181.22C31.7032 181.22 30.7026 181.639 29.9932 182.476C29.2839 183.292 28.9292 184.422 28.9292 185.866C28.9292 187.311 29.2839 188.462 29.9932 189.32C30.7026 190.157 31.7032 190.576 32.9952 190.576C34.2872 190.576 35.2752 190.157 35.9592 189.32C36.6686 188.462 37.0232 187.311 37.0232 185.866Z" fill="white"/>
<path d="M64.2473 193.59C63.2846 193.82 62.0433 194.029 60.5233 194.218C59.0033 194.427 57.4073 194.531 55.7353 194.531C54.0379 194.531 52.6193 194.343 51.4793 193.966C50.3646 193.59 49.4779 193.066 48.8193 192.397C48.1606 191.706 47.6919 190.89 47.4133 189.948C47.1346 189.006 46.9953 187.97 46.9953 186.84V177.641H52.6573V186.275C52.6573 187.782 52.8979 188.87 53.3793 189.54C53.8606 190.209 54.7599 190.544 56.0773 190.544C56.4826 190.544 56.9133 190.534 57.3693 190.513C57.8253 190.471 58.2306 190.429 58.5853 190.387V177.641H64.2473V193.59Z" fill="white"/>
<path d="M81.6082 181.785C81.1016 181.68 80.5062 181.576 79.8222 181.471C79.1382 181.345 78.4036 181.283 77.6182 181.283C77.2636 181.283 76.8329 181.314 76.3262 181.377C75.8449 181.419 75.4776 181.471 75.2242 181.534V194.155H69.5622V178.52C70.5756 178.227 71.7662 177.955 73.1342 177.704C74.5276 177.432 76.0729 177.296 77.7702 177.296C78.0742 177.296 78.4416 177.316 78.8722 177.358C79.3029 177.379 79.7336 177.421 80.1642 177.484C80.5949 177.526 81.0256 177.589 81.4562 177.672C81.8869 177.735 82.2542 177.819 82.5582 177.923L81.6082 181.785Z" fill="white"/>
<path d="M84.2724 185.898C84.2724 184.705 84.5004 183.585 84.9564 182.539C85.4377 181.471 86.1217 180.55 87.0084 179.776C87.8951 178.98 88.9717 178.352 90.2384 177.892C91.5051 177.432 92.9491 177.201 94.5704 177.201C95.6344 177.201 96.6097 177.285 97.4964 177.452C98.3831 177.599 99.2444 177.819 100.08 178.112L98.9024 181.848C98.3704 181.68 97.7877 181.534 97.1544 181.408C96.5211 181.283 95.8117 181.22 95.0264 181.22C93.3544 181.22 92.1004 181.649 91.2644 182.507C90.4537 183.365 90.0484 184.495 90.0484 185.898C90.0484 187.384 90.4284 188.535 91.1884 189.351C91.9737 190.168 93.3291 190.576 95.2544 190.576C95.9384 190.576 96.6731 190.523 97.4584 190.419C98.2437 190.314 98.9657 190.147 99.6244 189.916L100.422 193.747C99.7637 193.977 98.9404 194.176 97.9524 194.343C96.9644 194.511 95.8751 194.594 94.6844 194.594C92.8604 194.594 91.2897 194.375 89.9724 193.935C88.6551 193.475 87.5657 192.857 86.7044 192.083C85.8684 191.308 85.2477 190.398 84.8424 189.351C84.4624 188.284 84.2724 187.133 84.2724 185.898Z" fill="white"/>
<path d="M102.308 186.023C102.308 184.558 102.574 183.282 103.106 182.193C103.663 181.084 104.385 180.163 105.272 179.43C106.158 178.698 107.172 178.143 108.312 177.766C109.477 177.39 110.668 177.201 111.884 177.201C114.721 177.201 116.963 177.923 118.61 179.368C120.256 180.791 121.08 182.894 121.08 185.678C121.08 185.95 121.067 186.254 121.042 186.589C121.016 186.902 120.991 187.185 120.966 187.436H108.122C108.248 188.399 108.793 189.163 109.756 189.728C110.718 190.293 112.01 190.576 113.632 190.576C114.67 190.576 115.684 190.502 116.672 190.356C117.685 190.188 118.508 189.99 119.142 189.759L119.902 193.558C119.598 193.684 119.192 193.809 118.686 193.935C118.179 194.061 117.609 194.165 116.976 194.249C116.368 194.354 115.709 194.437 115 194.5C114.29 194.563 113.581 194.594 112.872 194.594C111.073 194.594 109.502 194.375 108.16 193.935C106.842 193.495 105.74 192.899 104.854 192.145C103.992 191.371 103.346 190.461 102.916 189.414C102.51 188.368 102.308 187.237 102.308 186.023ZM115.608 184.234C115.582 183.836 115.494 183.449 115.342 183.072C115.215 182.695 115 182.361 114.696 182.068C114.417 181.775 114.05 181.534 113.594 181.346C113.163 181.157 112.618 181.063 111.96 181.063C111.326 181.063 110.782 181.157 110.326 181.346C109.87 181.513 109.49 181.743 109.186 182.036C108.882 182.329 108.641 182.675 108.464 183.072C108.312 183.449 108.198 183.836 108.122 184.234H115.608Z" fill="white"/>
<path d="M11.9679 230.821C9.78922 230.779 8.24389 230.392 7.33189 229.659C6.41989 228.927 5.96389 227.786 5.96389 226.237V206.647L9.49789 206.144V225.766C9.49789 226.248 9.54855 226.646 9.64989 226.959C9.75122 227.273 9.91589 227.525 10.1439 227.713C10.3719 227.901 10.6759 228.048 11.0559 228.152C11.4359 228.236 11.9046 228.309 12.4619 228.372L11.9679 230.821Z" fill="white"/>
<path d="M33.8725 222.344C33.8725 223.642 33.6445 224.814 33.1885 225.861C32.7325 226.907 32.0865 227.807 31.2505 228.561C30.4398 229.314 29.4645 229.9 28.3245 230.319C27.1845 230.716 25.9432 230.915 24.6005 230.915C23.2578 230.915 22.0165 230.716 20.8765 230.319C19.7365 229.9 18.7485 229.314 17.9125 228.561C17.1018 227.807 16.4685 226.907 16.0125 225.861C15.5565 224.814 15.3285 223.642 15.3285 222.344C15.3285 221.068 15.5565 219.906 16.0125 218.86C16.4685 217.792 17.1018 216.882 17.9125 216.128C18.7485 215.375 19.7365 214.799 20.8765 214.401C22.0165 213.983 23.2578 213.773 24.6005 213.773C25.9432 213.773 27.1845 213.983 28.3245 214.401C29.4645 214.799 30.4398 215.375 31.2505 216.128C32.0865 216.882 32.7325 217.792 33.1885 218.86C33.6445 219.906 33.8725 221.068 33.8725 222.344ZM30.1865 222.344C30.1865 220.503 29.6798 219.048 28.6665 217.98C27.6785 216.892 26.3232 216.348 24.6005 216.348C22.8778 216.348 21.5098 216.892 20.4965 217.98C19.5085 219.048 19.0145 220.503 19.0145 222.344C19.0145 224.186 19.5085 225.651 20.4965 226.74C21.5098 227.807 22.8778 228.341 24.6005 228.341C26.3232 228.341 27.6785 227.807 28.6665 226.74C29.6798 225.651 30.1865 224.186 30.1865 222.344Z" fill="white"/>
<path d="M53.753 214.182C52.765 217.237 51.5997 220.168 50.257 222.972C48.9397 225.777 47.6604 228.289 46.419 230.507H43.227C41.9857 228.289 40.6937 225.777 39.351 222.972C38.0337 220.168 36.881 217.237 35.893 214.182H39.693C39.997 215.207 40.3517 216.306 40.757 217.478C41.1877 218.629 41.631 219.78 42.087 220.932C42.5684 222.062 43.0497 223.161 43.531 224.228C44.0124 225.296 44.4684 226.248 44.899 227.085C45.3297 226.248 45.7857 225.296 46.267 224.228C46.7484 223.161 47.217 222.062 47.673 220.932C48.1544 219.78 48.5977 218.629 49.003 217.478C49.4337 216.306 49.801 215.207 50.105 214.182H53.753Z" fill="white"/>
<path d="M55.7777 222.376C55.7777 220.932 56.0311 219.676 56.5377 218.608C57.0444 217.52 57.7157 216.62 58.5517 215.908C59.3877 215.197 60.3504 214.663 61.4397 214.307C62.5291 213.951 63.6437 213.773 64.7837 213.773C67.4437 213.773 69.4831 214.464 70.9017 215.846C72.3204 217.206 73.0297 219.289 73.0297 222.093C73.0297 222.219 73.0297 222.386 73.0297 222.596C73.0297 222.784 73.0171 222.962 72.9917 223.129H59.4637C59.6157 224.825 60.2111 226.112 61.2497 226.991C62.2884 227.87 63.9097 228.309 66.1137 228.309C67.3551 228.309 68.3937 228.226 69.2297 228.058C70.0911 227.87 70.7371 227.692 71.1677 227.525L71.6617 229.973C71.2311 230.162 70.4711 230.361 69.3817 230.57C68.3177 230.779 67.1017 230.884 65.7337 230.884C64.0111 230.884 62.5164 230.675 61.2497 230.256C60.0084 229.816 58.9824 229.22 58.1717 228.466C57.3611 227.713 56.7531 226.823 56.3477 225.798C55.9677 224.751 55.7777 223.611 55.7777 222.376ZM69.3437 220.775C69.3691 219.456 68.9637 218.378 68.1277 217.541C67.3171 216.683 66.1897 216.254 64.7457 216.254C63.9351 216.254 63.2131 216.39 62.5797 216.662C61.9717 216.913 61.4524 217.248 61.0217 217.666C60.5911 218.085 60.2491 218.566 59.9957 219.111C59.7677 219.655 59.6157 220.21 59.5397 220.775H69.3437Z" fill="white"/>
<path d="M85.4023 213.836C85.7063 213.836 86.0483 213.857 86.4283 213.899C86.8336 213.92 87.2263 213.962 87.6063 214.025C87.9863 214.066 88.3283 214.119 88.6323 214.182C88.9616 214.223 89.2023 214.265 89.3543 214.307L88.7463 216.85C88.4676 216.766 87.999 216.672 87.3403 216.568C86.707 216.442 85.8836 216.379 84.8703 216.379C84.2116 216.379 83.553 216.442 82.8943 216.568C82.261 216.672 81.843 216.746 81.6403 216.787V230.507H78.1063V214.872C78.9423 214.621 79.981 214.391 81.2223 214.182C82.4636 213.951 83.857 213.836 85.4023 213.836Z" fill="white"/>
<path d="M56.8999 18.4092L73.2399 12.7266L74.7219 16.5255L62.7899 20.3557L74.7219 24.1859L73.2399 27.9847L56.8999 22.3022V18.4092Z" fill="white"/>
<path d="M81.4615 35.551H75.6475L88.4155 5.16038H94.1535L81.4615 35.551Z" fill="white"/>
<path d="M112.869 22.3022L96.5294 27.9847L95.0474 24.1859L106.979 20.3557L95.0474 16.5255L96.5294 12.7266L112.869 18.4092V22.3022Z" fill="white"/>
</svg>
