<svg width="124" height="233" viewBox="0 0 124 233" fill="none" xmlns="http://www.w3.org/2000/svg">
<path d="M0 16.6429C0 7.45127 13.4315 0 30 0H93.5459C110.114 0 123.546 7.45126 123.546 16.6429V216.357C123.546 225.549 110.114 233 93.5459 233H30C13.4314 233 0 225.549 0 216.357V16.6429Z" fill="#FE4576"/>
<path d="M44.3673 11.3726C49.085 16.2052 57.0834 18.9668 64.011 17.6686L76.6396 30.6046C71.731 31.153 66.9475 32.7491 62.807 35.4192L45.7474 46.4202C39.4745 50.4654 30.2464 49.5258 25.1691 44.3248L24.2054 43.3377C27.3358 38.1499 26.91 31.8701 22.1923 27.0376C15.8377 20.5283 7.8545 18.5123 3.33168e-06 23.5774C3.23577e-06 29.6798 8.37108e-07 40.4976 0 49.0964C0 49.0964 5.9048 51.9699 12.8324 50.6717L13.7961 51.6589C23.9651 62.0754 42.3891 63.9515 54.9527 55.8496L72.0123 44.8486C78.2852 40.8034 87.5133 41.7431 92.5906 46.944L93.5543 47.9311C90.2944 52.9863 90.8497 59.3987 95.5674 64.2312C101.925 70.7434 115.691 70.2496 123.546 65.1845C123.546 56.3083 123.205 53.8119 124 45.8962C119.282 41.0636 111.717 39.172 104.927 40.5971L75.3841 10.3345C78.5056 5.15243 78.1547 4.99286 75.3841 2.53809e-08C62.6066 -2.12897e-07 48.3656 1.30516e-06 41.637 1.29861e-06C41.637 1.29861e-06 36.4253 3.42455 44.3673 11.3726ZM62.6066 6.73796C60.252 8.25634 56.7955 7.90438 54.8897 5.9522C52.984 4.00001 52.9339 1.51838 55.2885 4.73112e-07C58.3601 9.07692e-07 60.5745 8.39727e-07 63.4794 6.40935e-07C65.3852 1.95218 64.9612 5.21959 62.6066 6.73796ZM4.52399 32.6691C6.88745 31.145 10.3351 31.5026 12.2409 33.4548C14.1466 35.407 13.7914 38.217 11.428 39.7411C9.0645 41.2652 5.61688 40.9075 3.7111 38.9554C1.80532 37.0032 2.16053 34.1932 4.52399 32.6691ZM113.236 58.5997C110.881 60.1181 107.432 59.7735 105.519 57.814C103.606 55.8544 103.977 53.046 106.332 51.5277C108.686 50.0093 112.136 50.3539 114.049 52.3134C115.962 54.273 115.59 57.0814 113.236 58.5997Z" fill="white" fill-opacity="0.15"/>
<path d="M72.32 190.708L71.9006 190.933C70.0463 191.926 67.709 191.608 66.669 190.226L57.7135 178.325C56.6736 176.943 57.2688 174.945 59.1231 173.953L59.5425 173.728C65.7885 170.384 73.7 171.459 77.2107 176.125C80.781 180.869 78.566 187.365 72.32 190.708ZM50.6368 163.957C52.9397 164.268 54.2817 166.052 53.6348 167.942L50.3325 177.609C50.3082 177.708 50.2655 177.805 50.2228 177.902C52.03 178.7 53.5794 179.859 54.6525 181.285L62.1309 191.223C63.2636 192.729 63.847 194.404 63.9343 196.123C64.0565 196.132 64.1787 196.141 64.2957 196.165L76.0745 197.762C78.3774 198.073 79.7155 199.851 79.0685 201.741C78.424 203.63 76.0443 204.904 73.7438 204.592L61.9649 202.994C61.7831 202.906 61.7257 202.961 61.6086 202.938C60.599 204.231 59.2788 205.42 57.6906 206.406L61.9498 212.066C63.1222 213.624 62.3848 215.784 60.2996 216.901C58.2145 218.017 55.5827 217.66 54.4102 216.102L50.1709 210.468C47.2729 212.019 44.1755 212.998 41.0694 213.439C41.0554 213.705 41.006 213.991 40.9014 214.269L37.6012 223.939C36.9566 225.828 34.5769 227.102 32.2764 226.79C29.9758 226.477 28.6378 224.699 29.2824 222.811L32.5244 213.283C28.3334 212.501 24.5637 210.654 21.878 207.832L50.0569 192.747C51.0936 192.192 51.4649 191.104 50.8224 190.251C50.2991 189.555 48.9143 189.296 47.8777 189.851L19.6987 204.936C17.8736 201.764 17.4967 198.1 18.442 194.569L6.8426 192.99C4.54205 192.678 3.20005 190.895 3.84463 189.006C4.48987 187.118 6.86953 185.844 9.16942 186.155L20.9502 187.756C21.2933 187.794 21.6209 187.878 21.9131 187.981C23.7077 185.798 26.0765 183.851 28.9745 182.3L24.7352 176.666C23.5647 175.11 24.3001 172.947 26.3853 171.831C28.4704 170.715 31.1042 171.074 32.2747 172.63L36.5339 178.29C38.2664 177.496 40.1047 176.996 41.9224 176.776C41.9467 176.677 41.971 176.577 42.0138 176.48L45.312 166.808C45.9572 164.92 48.3369 163.646 50.6368 163.957Z" fill="white" fill-opacity="0.15"/>
<path d="M12.7279 80.1376C13.5639 80.1376 14.2986 80.1305 14.9319 80.1165C15.5906 80.0884 16.1352 80.0462 16.5659 79.99V76.7225C16.3126 76.6522 15.8946 76.596 15.3119 76.5538C14.7546 76.4976 14.0706 76.4695 13.2599 76.4695C12.7279 76.4695 12.1579 76.4906 11.5499 76.5327C10.9672 76.5749 10.4226 76.6662 9.91589 76.8068C9.43455 76.9333 9.02922 77.116 8.69989 77.3549C8.37055 77.5798 8.20589 77.8819 8.20589 78.2614C8.20589 78.9641 8.61122 79.456 9.42189 79.737C10.2326 80.0041 11.3346 80.1376 12.7279 80.1376ZM12.4239 70.3138C13.8426 70.3138 15.0332 70.4193 15.9959 70.6301C16.9839 70.8268 17.7692 71.1149 18.3519 71.4944C18.9599 71.8598 19.3906 72.3025 19.6439 72.8225C19.8972 73.3284 20.0239 73.8906 20.0239 74.509V81.3603C19.7199 81.3884 19.2892 81.4305 18.7319 81.4868C18.1999 81.5289 17.5919 81.5711 16.9079 81.6132C16.2239 81.6554 15.4766 81.6905 14.6659 81.7186C13.8806 81.7608 13.0952 81.7819 12.3099 81.7819C11.1952 81.7819 10.1692 81.7186 9.23189 81.5922C8.29455 81.4657 7.48389 81.2689 6.79989 81.0019C6.11589 80.7208 5.58389 80.3554 5.20389 79.9057C4.82389 79.456 4.63389 78.9149 4.63389 78.2825C4.63389 77.6781 4.84922 77.1581 5.27989 76.7225C5.73589 76.2868 6.34389 75.9354 7.10389 75.6684C7.86389 75.4014 8.75055 75.2046 9.76389 75.0781C10.7772 74.9517 11.8412 74.8884 12.9559 74.8884C13.3106 74.8884 13.6779 74.9025 14.0579 74.9306C14.4379 74.9446 14.7926 74.9727 15.1219 75.0149C15.4766 75.043 15.7806 75.0711 16.0339 75.0992C16.2872 75.1273 16.4646 75.1484 16.5659 75.1625V74.6144C16.5659 74.2911 16.5026 73.9749 16.3759 73.6657C16.2492 73.3425 16.0212 73.0614 15.6919 72.8225C15.3626 72.5695 14.9066 72.3728 14.3239 72.2322C13.7666 72.0776 13.0319 72.0003 12.1199 72.0003C10.9546 72.0003 9.92855 72.0495 9.04189 72.1479C8.18055 72.2322 7.53455 72.3236 7.10389 72.4219L6.68589 70.7987C7.14189 70.6863 7.90189 70.5809 8.96589 70.4825C10.0299 70.3701 11.1826 70.3138 12.4239 70.3138Z" fill="white"/>
<path d="M25.8934 70.9041C26.7041 70.7917 27.7807 70.6722 29.1234 70.5457C30.4661 70.4193 32.0114 70.356 33.7594 70.356C35.3301 70.356 36.6347 70.4825 37.6734 70.7355C38.7121 70.9744 39.5354 71.3187 40.1434 71.7684C40.7767 72.2041 41.2201 72.7311 41.4734 73.3495C41.7267 73.9679 41.8534 74.6495 41.8534 75.3944V81.55H38.3194V75.816C38.3194 75.1414 38.2307 74.5652 38.0534 74.0873C37.9014 73.6095 37.6354 73.223 37.2554 72.9279C36.8754 72.6328 36.3687 72.4219 35.7354 72.2955C35.1021 72.1549 34.3167 72.0847 33.3794 72.0847C32.9994 72.0847 32.6067 72.0917 32.2014 72.1057C31.7961 72.1198 31.4034 72.1409 31.0234 72.169C30.6687 72.183 30.3394 72.2041 30.0354 72.2322C29.7567 72.2603 29.5541 72.2814 29.4274 72.2955V81.55H25.8934V70.9041Z" fill="white"/>
<path d="M24.3559 100.394C24.3559 101.265 24.1279 102.067 23.6719 102.797C23.2159 103.514 22.5572 104.133 21.6959 104.652C20.8346 105.158 19.7959 105.552 18.5799 105.833C17.3892 106.114 16.0466 106.255 14.5519 106.255C13.0826 106.255 11.7399 106.114 10.5239 105.833C9.33322 105.552 8.30722 105.158 7.44589 104.652C6.58455 104.133 5.91322 103.514 5.43189 102.797C4.95055 102.067 4.70989 101.265 4.70989 100.394C4.70989 99.5228 4.95055 98.7288 5.43189 98.012C5.93855 97.2952 6.62255 96.6839 7.48389 96.178C8.37055 95.672 9.40922 95.2785 10.5999 94.9974C11.8159 94.7163 13.1332 94.5758 14.5519 94.5758C15.9959 94.5758 17.3132 94.7163 18.5039 94.9974C19.7199 95.2785 20.7586 95.672 21.6199 96.178C22.4812 96.6839 23.1526 97.2952 23.6339 98.012C24.1152 98.7288 24.3559 99.5228 24.3559 100.394ZM18.5799 100.394C18.5799 99.4244 18.2252 98.6655 17.5159 98.1174C16.8319 97.5552 15.8439 97.2742 14.5519 97.2742C13.2599 97.2742 12.2592 97.5552 11.5499 98.1174C10.8406 98.6655 10.4859 99.4244 10.4859 100.394C10.4859 101.364 10.8406 102.137 11.5499 102.713C12.2592 103.275 13.2599 103.556 14.5519 103.556C15.8439 103.556 16.8319 103.275 17.5159 102.713C18.2252 102.137 18.5799 101.364 18.5799 100.394Z" fill="white"/>
<path d="M41.5479 100.5C41.5479 99.5298 41.1553 98.7569 40.3699 98.1806C39.5846 97.5904 38.4193 97.2953 36.8739 97.2953C36.3672 97.2953 35.8986 97.3093 35.4679 97.3374C35.0373 97.3515 34.6826 97.3725 34.4039 97.4007V103.071C34.7586 103.198 35.2146 103.303 35.7719 103.388C36.3546 103.472 36.9372 103.514 37.5199 103.514C40.2052 103.514 41.5479 102.509 41.5479 100.5ZM47.3239 100.415C47.3239 101.273 47.1339 102.053 46.7539 102.755C46.3739 103.458 45.8166 104.062 45.0819 104.568C44.3473 105.074 43.4352 105.468 42.3459 105.749C41.2566 106.03 40.0026 106.17 38.5839 106.17C37.7986 106.17 37.0639 106.128 36.3799 106.044C35.6959 105.96 35.0373 105.84 34.4039 105.685V109.859H28.7419V95.2504C29.2486 95.1661 29.8313 95.0888 30.4899 95.0185C31.1486 94.9342 31.8326 94.8639 32.5419 94.8077C33.2766 94.7515 34.0113 94.7093 34.7459 94.6812C35.5059 94.639 36.2279 94.618 36.9119 94.618C38.5586 94.618 40.0279 94.7585 41.3199 95.0396C42.6119 95.3066 43.7013 95.6931 44.5879 96.199C45.4746 96.6909 46.1459 97.2952 46.6019 98.012C47.0833 98.7288 47.3239 99.5298 47.3239 100.415Z" fill="white"/>
<path d="M50.7255 100.5C50.7255 99.5158 50.9915 98.6585 51.5235 97.9277C52.0808 97.1828 52.8028 96.5644 53.6895 96.0726C54.5762 95.5807 55.5895 95.2082 56.7295 94.9553C57.8948 94.7023 59.0855 94.5758 60.3015 94.5758C63.1388 94.5758 65.3808 95.0607 67.0275 96.0304C68.6742 96.9861 69.4975 98.3985 69.4975 100.268C69.4975 100.45 69.4848 100.654 69.4595 100.879C69.4342 101.09 69.4088 101.28 69.3835 101.448H56.5395C56.6662 102.095 57.2108 102.608 58.1735 102.987C59.1362 103.367 60.4282 103.556 62.0495 103.556C63.0882 103.556 64.1015 103.507 65.0895 103.409C66.1028 103.296 66.9262 103.163 67.5595 103.008L68.3195 105.559C68.0155 105.643 67.6102 105.728 67.1035 105.812C66.5968 105.896 66.0268 105.967 65.3935 106.023C64.7855 106.093 64.1268 106.149 63.4175 106.191C62.7082 106.234 61.9988 106.255 61.2895 106.255C59.4908 106.255 57.9202 106.107 56.5775 105.812C55.2602 105.517 54.1582 105.116 53.2715 104.61C52.4102 104.09 51.7642 103.479 51.3335 102.776C50.9282 102.074 50.7255 101.315 50.7255 100.5ZM64.0255 99.2979C64.0002 99.0309 63.9115 98.7709 63.7595 98.5179C63.6328 98.265 63.4175 98.0401 63.1135 97.8434C62.8348 97.6466 62.4675 97.485 62.0115 97.3585C61.5808 97.232 61.0362 97.1688 60.3775 97.1688C59.7442 97.1688 59.1995 97.232 58.7435 97.3585C58.2875 97.4709 57.9075 97.6255 57.6035 97.8223C57.2995 98.019 57.0588 98.2509 56.8815 98.5179C56.7295 98.7709 56.6155 99.0309 56.5395 99.2979H64.0255Z" fill="white"/>
<path d="M73.8669 95.2504C74.8296 95.0958 76.0709 94.9553 77.5909 94.8288C79.1109 94.6882 80.7069 94.618 82.3789 94.618C84.0762 94.618 85.4822 94.7445 86.5969 94.9974C87.7369 95.2363 88.6362 95.5807 89.2949 96.0304C89.9536 96.4801 90.4223 97.0142 90.7009 97.6325C90.9796 98.2509 91.1189 98.9396 91.1189 99.6985V105.96H85.4569V100.078C85.4569 99.066 85.2163 98.3493 84.7349 97.9277C84.2536 97.5061 83.3543 97.2953 82.0369 97.2953C81.6316 97.2953 81.2009 97.3093 80.7449 97.3374C80.2889 97.3515 79.8836 97.3725 79.5289 97.4007V105.96H73.8669V95.2504Z" fill="white"/>
<path d="M11.3979 128.113C12.4366 128.113 13.1712 128.057 13.6019 127.945C14.0326 127.832 14.2479 127.614 14.2479 127.291C14.2479 127.038 13.9692 126.82 13.4119 126.638C12.8546 126.441 12.0059 126.223 10.8659 125.984C9.97922 125.801 9.16855 125.612 8.43389 125.415C7.72455 125.218 7.11655 124.986 6.60989 124.719C6.10322 124.438 5.71055 124.108 5.43189 123.729C5.15322 123.349 5.01389 122.892 5.01389 122.358C5.01389 121.318 5.71055 120.496 7.10389 119.892C8.49722 119.287 10.4099 118.985 12.8419 118.985C14.0579 118.985 15.2232 119.049 16.3379 119.175C17.4526 119.287 18.3392 119.414 18.9979 119.555L18.0099 122C17.3512 121.873 16.6292 121.761 15.8439 121.663C15.0839 121.564 14.2226 121.515 13.2599 121.515C11.4866 121.515 10.5999 121.789 10.5999 122.337C10.5999 122.464 10.6379 122.576 10.7139 122.674C10.7899 122.773 10.9419 122.871 11.1699 122.97C11.3979 123.054 11.7019 123.152 12.0819 123.265C12.4872 123.363 12.9939 123.476 13.6019 123.602C14.8432 123.855 15.8692 124.108 16.6799 124.361C17.4906 124.6 18.1239 124.867 18.5799 125.162C19.0612 125.443 19.3906 125.759 19.5679 126.111C19.7706 126.462 19.8719 126.87 19.8719 127.333C19.8719 128.43 19.1246 129.259 17.6299 129.821C16.1606 130.383 14.0706 130.664 11.3599 130.664C9.58655 130.664 8.10455 130.58 6.91389 130.411C5.74855 130.243 4.93789 130.102 4.48189 129.99L5.43189 127.439C6.39455 127.65 7.38255 127.818 8.39589 127.945C9.40922 128.057 10.4099 128.113 11.3979 128.113Z" fill="white"/>
<path d="M42.7992 124.804C42.7992 125.675 42.5712 126.476 42.1152 127.207C41.6592 127.924 41.0006 128.542 40.1392 129.062C39.2779 129.568 38.2392 129.961 37.0232 130.243C35.8326 130.524 34.4899 130.664 32.9952 130.664C31.5259 130.664 30.1832 130.524 28.9672 130.243C27.7766 129.961 26.7506 129.568 25.8892 129.062C25.0279 128.542 24.3566 127.924 23.8752 127.207C23.3939 126.476 23.1532 125.675 23.1532 124.804C23.1532 123.932 23.3939 123.138 23.8752 122.422C24.3819 121.705 25.0659 121.093 25.9272 120.587C26.8139 120.082 27.8526 119.688 29.0432 119.407C30.2592 119.126 31.5766 118.985 32.9952 118.985C34.4392 118.985 35.7566 119.126 36.9472 119.407C38.1632 119.688 39.2019 120.082 40.0632 120.587C40.9246 121.093 41.5959 121.705 42.0772 122.422C42.5586 123.138 42.7992 123.932 42.7992 124.804ZM37.0232 124.804C37.0232 123.834 36.6686 123.075 35.9592 122.527C35.2752 121.965 34.2872 121.684 32.9952 121.684C31.7032 121.684 30.7026 121.965 29.9932 122.527C29.2839 123.075 28.9292 123.834 28.9292 124.804C28.9292 125.773 29.2839 126.546 29.9932 127.123C30.7026 127.685 31.7032 127.966 32.9952 127.966C34.2872 127.966 35.2752 127.685 35.9592 127.123C36.6686 126.546 37.0232 125.773 37.0232 124.804Z" fill="white"/>
<path d="M64.2473 129.99C63.2846 130.144 62.0433 130.285 60.5233 130.411C59.0033 130.552 57.4073 130.622 55.7353 130.622C54.0379 130.622 52.6193 130.496 51.4793 130.243C50.3646 129.99 49.4779 129.638 48.8193 129.189C48.1606 128.725 47.6919 128.177 47.4133 127.544C47.1346 126.912 46.9953 126.216 46.9953 125.457V119.28H52.6573V125.078C52.6573 126.09 52.8979 126.82 53.3793 127.27C53.8606 127.72 54.7599 127.945 56.0773 127.945C56.4826 127.945 56.9133 127.938 57.3693 127.924C57.8253 127.896 58.2306 127.867 58.5853 127.839V119.28H64.2473V129.99Z" fill="white"/>
<path d="M81.6082 122.063C81.1016 121.993 80.5062 121.923 79.8222 121.852C79.1382 121.768 78.4036 121.726 77.6182 121.726C77.2636 121.726 76.8329 121.747 76.3262 121.789C75.8449 121.817 75.4776 121.852 75.2242 121.895V130.369H69.5622V119.871C70.5756 119.674 71.7662 119.491 73.1342 119.323C74.5276 119.14 76.0729 119.049 77.7702 119.049C78.0742 119.049 78.4416 119.063 78.8722 119.091C79.3029 119.105 79.7336 119.133 80.1642 119.175C80.5949 119.203 81.0256 119.245 81.4562 119.302C81.8869 119.344 82.2542 119.4 82.5582 119.47L81.6082 122.063Z" fill="white"/>
<path d="M84.2724 124.825C84.2724 124.024 84.5004 123.272 84.9564 122.569C85.4377 121.852 86.1217 121.234 87.0084 120.714C87.8951 120.18 88.9717 119.758 90.2384 119.449C91.5051 119.14 92.9491 118.985 94.5704 118.985C95.6344 118.985 96.6097 119.042 97.4964 119.154C98.3831 119.252 99.2444 119.4 100.08 119.597L98.9024 122.105C98.3704 121.993 97.7877 121.895 97.1544 121.81C96.5211 121.726 95.8117 121.684 95.0264 121.684C93.3544 121.684 92.1004 121.972 91.2644 122.548C90.4537 123.124 90.0484 123.883 90.0484 124.825C90.0484 125.823 90.4284 126.596 91.1884 127.144C91.9737 127.692 93.3291 127.966 95.2544 127.966C95.9384 127.966 96.6731 127.931 97.4584 127.86C98.2437 127.79 98.9657 127.678 99.6244 127.523L100.422 130.095C99.7637 130.25 98.9404 130.383 97.9524 130.496C96.9644 130.608 95.8751 130.664 94.6844 130.664C92.8604 130.664 91.2897 130.517 89.9724 130.221C88.6551 129.912 87.5657 129.498 86.7044 128.978C85.8684 128.458 85.2477 127.846 84.8424 127.144C84.4624 126.427 84.2724 125.654 84.2724 124.825Z" fill="white"/>
<path d="M102.308 124.909C102.308 123.925 102.574 123.068 103.106 122.337C103.663 121.592 104.385 120.974 105.272 120.482C106.158 119.99 107.172 119.618 108.312 119.365C109.477 119.112 110.668 118.985 111.884 118.985C114.721 118.985 116.963 119.47 118.61 120.44C120.256 121.396 121.08 122.808 121.08 124.677C121.08 124.86 121.067 125.064 121.042 125.289C121.016 125.499 120.991 125.689 120.966 125.858H108.122C108.248 126.504 108.793 127.017 109.756 127.397C110.718 127.776 112.01 127.966 113.632 127.966C114.67 127.966 115.684 127.917 116.672 127.818C117.685 127.706 118.508 127.572 119.142 127.418L119.902 129.969C119.598 130.053 119.192 130.137 118.686 130.221C118.179 130.306 117.609 130.376 116.976 130.432C116.368 130.503 115.709 130.559 115 130.601C114.29 130.643 113.581 130.664 112.872 130.664C111.073 130.664 109.502 130.517 108.16 130.221C106.842 129.926 105.74 129.526 104.854 129.02C103.992 128.5 103.346 127.889 102.916 127.186C102.51 126.483 102.308 125.724 102.308 124.909ZM115.608 123.707C115.582 123.44 115.494 123.18 115.342 122.927C115.215 122.674 115 122.45 114.696 122.253C114.417 122.056 114.05 121.895 113.594 121.768C113.163 121.642 112.618 121.578 111.96 121.578C111.326 121.578 110.782 121.642 110.326 121.768C109.87 121.88 109.49 122.035 109.186 122.232C108.882 122.429 108.641 122.66 108.464 122.927C108.312 123.18 108.198 123.44 108.122 123.707H115.608Z" fill="white"/>
<path d="M11.9679 154.989C9.78922 154.961 8.24389 154.701 7.33189 154.209C6.41989 153.717 5.96389 152.952 5.96389 151.912V138.757L9.49789 138.42V151.595C9.49789 151.919 9.54855 152.186 9.64989 152.396C9.75122 152.607 9.91589 152.776 10.1439 152.902C10.3719 153.029 10.6759 153.127 11.0559 153.197C11.4359 153.254 11.9046 153.303 12.4619 153.345L11.9679 154.989Z" fill="white"/>
<path d="M33.8725 149.298C33.8725 150.169 33.6445 150.956 33.1885 151.659C32.7325 152.361 32.0865 152.966 31.2505 153.472C30.4398 153.977 29.4645 154.371 28.3245 154.652C27.1845 154.919 25.9432 155.053 24.6005 155.053C23.2578 155.053 22.0165 154.919 20.8765 154.652C19.7365 154.371 18.7485 153.977 17.9125 153.472C17.1018 152.966 16.4685 152.361 16.0125 151.659C15.5565 150.956 15.3285 150.169 15.3285 149.298C15.3285 148.44 15.5565 147.66 16.0125 146.958C16.4685 146.241 17.1018 145.629 17.9125 145.123C18.7485 144.618 19.7365 144.231 20.8765 143.964C22.0165 143.683 23.2578 143.542 24.6005 143.542C25.9432 143.542 27.1845 143.683 28.3245 143.964C29.4645 144.231 30.4398 144.618 31.2505 145.123C32.0865 145.629 32.7325 146.241 33.1885 146.958C33.6445 147.66 33.8725 148.44 33.8725 149.298ZM30.1865 149.298C30.1865 148.061 29.6798 147.084 28.6665 146.367C27.6785 145.636 26.3232 145.271 24.6005 145.271C22.8778 145.271 21.5098 145.636 20.4965 146.367C19.5085 147.084 19.0145 148.061 19.0145 149.298C19.0145 150.534 19.5085 151.518 20.4965 152.249C21.5098 152.966 22.8778 153.324 24.6005 153.324C26.3232 153.324 27.6785 152.966 28.6665 152.249C29.6798 151.518 30.1865 150.534 30.1865 149.298Z" fill="white"/>
<path d="M53.753 143.816C52.765 145.868 51.5997 147.836 50.257 149.719C48.9397 151.602 47.6604 153.289 46.419 154.779H43.227C41.9857 153.289 40.6937 151.602 39.351 149.719C38.0337 147.836 36.881 145.868 35.893 143.816H39.693C39.997 144.505 40.3517 145.243 40.757 146.03C41.1877 146.803 41.631 147.576 42.087 148.349C42.5684 149.108 43.0497 149.846 43.531 150.562C44.0124 151.279 44.4684 151.919 44.899 152.481C45.3297 151.919 45.7857 151.279 46.267 150.562C46.7484 149.846 47.217 149.108 47.673 148.349C48.1544 147.576 48.5977 146.803 49.003 146.03C49.4337 145.243 49.801 144.505 50.105 143.816H53.753Z" fill="white"/>
<path d="M55.7777 149.319C55.7777 148.349 56.0311 147.506 56.5377 146.789C57.0444 146.058 57.7157 145.454 58.5517 144.976C59.3877 144.498 60.3504 144.14 61.4397 143.901C62.5291 143.662 63.6437 143.542 64.7837 143.542C67.4437 143.542 69.4831 144.006 70.9017 144.934C72.3204 145.847 73.0297 147.246 73.0297 149.129C73.0297 149.213 73.0297 149.326 73.0297 149.466C73.0297 149.593 73.0171 149.712 72.9917 149.825H59.4637C59.6157 150.963 60.2111 151.827 61.2497 152.417C62.2884 153.008 63.9097 153.303 66.1137 153.303C67.3551 153.303 68.3937 153.247 69.2297 153.134C70.0911 153.008 70.7371 152.888 71.1677 152.776L71.6617 154.42C71.2311 154.547 70.4711 154.68 69.3817 154.821C68.3177 154.961 67.1017 155.032 65.7337 155.032C64.0111 155.032 62.5164 154.891 61.2497 154.61C60.0084 154.315 58.9824 153.914 58.1717 153.408C57.3611 152.902 56.7531 152.305 56.3477 151.616C55.9677 150.914 55.7777 150.148 55.7777 149.319ZM69.3437 148.243C69.3691 147.358 68.9637 146.634 68.1277 146.072C67.3171 145.496 66.1897 145.208 64.7457 145.208C63.9351 145.208 63.2131 145.299 62.5797 145.482C61.9717 145.651 61.4524 145.875 61.0217 146.156C60.5911 146.438 60.2491 146.761 59.9957 147.126C59.7677 147.492 59.6157 147.864 59.5397 148.243H69.3437Z" fill="white"/>
<path d="M85.4023 143.585C85.7063 143.585 86.0483 143.599 86.4283 143.627C86.8336 143.641 87.2263 143.669 87.6063 143.711C87.9863 143.739 88.3283 143.774 88.6323 143.816C88.9616 143.845 89.2023 143.873 89.3543 143.901L88.7463 145.608C88.4676 145.552 87.999 145.489 87.3403 145.419C86.707 145.334 85.8836 145.292 84.8703 145.292C84.2116 145.292 83.553 145.334 82.8943 145.419C82.261 145.489 81.843 145.538 81.6403 145.566V154.779H78.1063V144.28C78.9423 144.112 79.981 143.957 81.2223 143.816C82.4636 143.662 83.857 143.585 85.4023 143.585Z" fill="white"/>
<path d="M56.8999 12.3612L73.2399 8.54555L74.7219 11.0963L62.7899 13.6682L74.7219 16.2401L73.2399 18.7909L56.8999 14.9752V12.3612Z" fill="white"/>
<path d="M81.4615 23.8714H75.6475L88.4155 3.46504H94.1535L81.4615 23.8714Z" fill="white"/>
<path d="M112.869 14.9752L96.5294 18.7909L95.0474 16.2401L106.979 13.6682L95.0474 11.0963L96.5294 8.54555L112.869 12.3612V14.9752Z" fill="white"/>
</svg>
