<svg width="124" height="420" viewBox="0 0 124 420" fill="none" xmlns="http://www.w3.org/2000/svg">
<path d="M0.00012207 30C0.00012207 13.4315 13.4316 0 30.0001 0H93.546C110.115 0 123.546 13.4315 123.546 30V390C123.546 406.569 110.115 420 93.546 420H30.0001C13.4316 420 0.00012207 406.569 0.00012207 390V30Z" fill="#FE4576"/>
<path d="M44.3674 20.5C49.0851 29.2111 57.0836 34.189 64.0112 31.8489L76.6397 55.167C71.7311 56.1556 66.9476 59.0328 62.8071 63.8457L45.7476 83.676C39.4746 90.9677 30.2465 89.2739 25.1692 79.8989L24.2055 78.1195C27.336 68.768 26.9101 57.4483 22.1924 48.7372C15.8379 37.0038 7.85463 33.3698 0.000125402 42.5C0.000125306 53.5 0.000122907 73 0.00012207 88.5C0.00012207 88.5 5.90492 93.6797 12.8325 91.3396L13.7962 93.119C23.9652 111.896 42.3892 115.277 54.9528 100.673L72.0124 80.843C78.2853 73.5512 87.5134 75.245 92.5907 84.62L93.5544 86.3994C90.2945 95.5119 90.8498 107.071 95.5675 115.782C101.925 127.52 115.691 126.63 123.546 117.5C123.546 101.5 123.205 97 124 82.7313C119.282 74.0202 111.717 70.6105 104.927 73.1793L75.3842 18.6288C78.5057 9.28765 78.1548 9 75.3842 4.5751e-08C62.6067 -3.83763e-07 48.3657 2.35266e-06 41.6371 2.34085e-06C41.6371 2.34085e-06 36.4254 6.17301 44.3674 20.5ZM62.6067 12.1457C60.2522 14.8827 56.7956 14.2482 54.8899 10.7293C52.9841 7.21032 52.934 2.73699 55.2886 8.5282e-07C58.3602 1.63618e-06 60.5746 1.51367e-06 63.4795 1.15533e-06C65.3853 3.51896 64.9613 9.4087 62.6067 12.1457ZM4.52411 58.8884C6.88757 56.1411 10.3352 56.7859 12.241 60.3049C14.1468 63.8238 13.7915 68.889 11.4281 71.6364C9.06462 74.3837 5.61701 73.7389 3.71122 70.2199C1.80544 66.701 2.16066 61.6358 4.52411 58.8884ZM113.236 105.63C110.881 108.367 107.432 107.746 105.519 104.214C103.606 100.682 103.977 95.6195 106.332 92.8825C108.686 90.1455 112.136 90.7667 114.049 94.2989C115.962 97.8311 115.59 102.893 113.236 105.63Z" fill="white" fill-opacity="0.15"/>
<path d="M72.3201 343.766L71.9007 344.171C70.0465 345.96 67.7091 345.389 66.6691 342.897L57.7136 321.445C56.6737 318.953 57.2689 315.352 59.1232 313.563L59.5426 313.158C65.7886 307.131 73.7001 309.068 77.2108 317.478C80.7811 326.03 78.5661 337.739 72.3201 343.766ZM50.6369 295.546C52.9398 296.106 54.2818 299.321 53.6349 302.727L50.3327 320.153C50.3083 320.332 50.2656 320.507 50.2229 320.682C52.0301 322.121 53.5796 324.21 54.6526 326.78L62.131 344.694C63.2637 347.408 63.8471 350.428 63.9344 353.527C64.0566 353.543 64.1788 353.559 64.2958 353.601L76.0747 356.481C78.3776 357.042 79.7156 360.247 79.0687 363.654C78.4241 367.058 76.0444 369.354 73.7439 368.792L61.9651 365.912C61.7832 365.753 61.7258 365.853 61.6088 365.81C60.5992 368.142 59.2789 370.284 57.6907 372.062L61.9499 382.265C63.1223 385.073 62.3849 388.968 60.2998 390.98C58.2146 392.992 55.5828 392.348 54.4104 389.54L50.1711 379.385C47.2731 382.181 44.1757 383.945 41.0696 384.739C41.0555 385.22 41.0061 385.735 40.9015 386.237L37.6013 403.667C36.9567 407.071 34.5771 409.368 32.2765 408.805C29.976 408.243 28.6379 405.037 29.2825 401.633L32.5245 384.459C28.3335 383.05 24.5639 379.72 21.8781 374.632L50.057 347.441C51.0937 346.441 51.465 344.48 50.8225 342.941C50.2992 341.688 48.9145 341.221 47.8778 342.221L19.6988 369.412C17.8737 363.694 17.4968 357.091 18.4421 350.725L6.84273 347.879C4.54218 347.316 3.20017 344.102 3.84475 340.697C4.48999 337.295 6.86965 334.998 9.16954 335.559L20.9503 338.444C21.2934 338.514 21.621 338.665 21.9132 338.85C23.7078 334.915 26.0766 331.405 28.9746 328.609L24.7353 318.454C23.5648 315.65 24.3003 311.75 26.3854 309.738C28.4705 307.726 31.1044 308.375 32.2748 311.178L36.534 321.381C38.2666 319.95 40.1048 319.048 41.9225 318.652C41.9468 318.473 41.9712 318.294 42.0139 318.119L45.3121 300.684C45.9573 297.281 48.337 294.985 50.6369 295.546Z" fill="white" fill-opacity="0.15"/>
<path d="M12.728 144.454C13.564 144.454 14.2987 144.441 14.932 144.416C15.5907 144.365 16.1353 144.289 16.566 144.188V138.298C16.3127 138.171 15.8947 138.07 15.312 137.994C14.7547 137.893 14.0707 137.842 13.26 137.842C12.728 137.842 12.158 137.88 11.55 137.956C10.9673 138.032 10.4227 138.197 9.91601 138.45C9.43467 138.678 9.02934 139.007 8.70001 139.438C8.37068 139.843 8.20601 140.388 8.20601 141.072C8.20601 142.339 8.61134 143.225 9.42201 143.732C10.2327 144.213 11.3347 144.454 12.728 144.454ZM12.424 126.746C13.8427 126.746 15.0333 126.936 15.996 127.316C16.984 127.671 17.7693 128.19 18.352 128.874C18.96 129.533 19.3907 130.331 19.644 131.268C19.8973 132.18 20.024 133.193 20.024 134.308V146.658C19.72 146.709 19.2893 146.785 18.732 146.886C18.2 146.962 17.592 147.038 16.908 147.114C16.224 147.19 15.4767 147.253 14.666 147.304C13.8807 147.38 13.0953 147.418 12.31 147.418C11.1953 147.418 10.1693 147.304 9.23201 147.076C8.29467 146.848 7.48401 146.493 6.80001 146.012C6.11601 145.505 5.58401 144.847 5.20401 144.036C4.82401 143.225 4.63401 142.25 4.63401 141.11C4.63401 140.021 4.84934 139.083 5.28001 138.298C5.73601 137.513 6.34401 136.879 7.10401 136.398C7.86401 135.917 8.75067 135.562 9.76401 135.334C10.7773 135.106 11.8413 134.992 12.956 134.992C13.3107 134.992 13.678 135.017 14.058 135.068C14.438 135.093 14.7927 135.144 15.122 135.22C15.4767 135.271 15.7807 135.321 16.034 135.372C16.2873 135.423 16.4647 135.461 16.566 135.486V134.498C16.566 133.915 16.5027 133.345 16.376 132.788C16.2493 132.205 16.0213 131.699 15.692 131.268C15.3627 130.812 14.9067 130.457 14.324 130.204C13.7667 129.925 13.032 129.786 12.12 129.786C10.9547 129.786 9.92867 129.875 9.04201 130.052C8.18067 130.204 7.53467 130.369 7.10401 130.546L6.68601 127.62C7.14201 127.417 7.90201 127.227 8.96601 127.05C10.03 126.847 11.1827 126.746 12.424 126.746Z" fill="white"/>
<path d="M25.8935 127.81C26.7042 127.607 27.7809 127.392 29.1235 127.164C30.4662 126.936 32.0115 126.822 33.7595 126.822C35.3302 126.822 36.6349 127.05 37.6735 127.506C38.7122 127.937 39.5355 128.557 40.1435 129.368C40.7769 130.153 41.2202 131.103 41.4735 132.218C41.7269 133.333 41.8535 134.561 41.8535 135.904V147H38.3195V136.664C38.3195 135.448 38.2309 134.409 38.0535 133.548C37.9015 132.687 37.6355 131.99 37.2555 131.458C36.8755 130.926 36.3689 130.546 35.7355 130.318C35.1022 130.065 34.3169 129.938 33.3795 129.938C32.9995 129.938 32.6069 129.951 32.2015 129.976C31.7962 130.001 31.4035 130.039 31.0235 130.09C30.6689 130.115 30.3395 130.153 30.0355 130.204C29.7569 130.255 29.5542 130.293 29.4275 130.318V147H25.8935V127.81Z" fill="white"/>
<path d="M24.356 180.968C24.356 182.539 24.128 183.983 23.672 185.3C23.216 186.592 22.5573 187.707 21.696 188.644C20.8347 189.556 19.796 190.265 18.58 190.772C17.3893 191.279 16.0467 191.532 14.552 191.532C13.0827 191.532 11.74 191.279 10.524 190.772C9.33334 190.265 8.30734 189.556 7.44601 188.644C6.58467 187.707 5.91334 186.592 5.43201 185.3C4.95067 183.983 4.71001 182.539 4.71001 180.968C4.71001 179.397 4.95067 177.966 5.43201 176.674C5.93867 175.382 6.62267 174.28 7.48401 173.368C8.37068 172.456 9.40934 171.747 10.6 171.24C11.816 170.733 13.1333 170.48 14.552 170.48C15.996 170.48 17.3133 170.733 18.504 171.24C19.72 171.747 20.7587 172.456 21.62 173.368C22.4813 174.28 23.1527 175.382 23.634 176.674C24.1153 177.966 24.356 179.397 24.356 180.968ZM18.58 180.968C18.58 179.22 18.2253 177.852 17.516 176.864C16.832 175.851 15.844 175.344 14.552 175.344C13.26 175.344 12.2593 175.851 11.55 176.864C10.8407 177.852 10.486 179.22 10.486 180.968C10.486 182.716 10.8407 184.109 11.55 185.148C12.2593 186.161 13.26 186.668 14.552 186.668C15.844 186.668 16.832 186.161 17.516 185.148C18.2253 184.109 18.58 182.716 18.58 180.968Z" fill="white"/>
<path d="M41.548 181.158C41.548 179.41 41.1554 178.017 40.37 176.978C39.5847 175.914 38.4194 175.382 36.874 175.382C36.3674 175.382 35.8987 175.407 35.468 175.458C35.0374 175.483 34.6827 175.521 34.404 175.572V185.794C34.7587 186.022 35.2147 186.212 35.772 186.364C36.3547 186.516 36.9374 186.592 37.52 186.592C40.2054 186.592 41.548 184.781 41.548 181.158ZM47.324 181.006C47.324 182.551 47.134 183.957 46.754 185.224C46.374 186.491 45.8167 187.58 45.082 188.492C44.3474 189.404 43.4354 190.113 42.346 190.62C41.2567 191.127 40.0027 191.38 38.584 191.38C37.7987 191.38 37.064 191.304 36.38 191.152C35.696 191 35.0374 190.785 34.404 190.506V198.03H28.742V171.696C29.2487 171.544 29.8314 171.405 30.49 171.278C31.1487 171.126 31.8327 170.999 32.542 170.898C33.2767 170.797 34.0114 170.721 34.746 170.67C35.506 170.594 36.228 170.556 36.912 170.556C38.5587 170.556 40.028 170.809 41.32 171.316C42.612 171.797 43.7014 172.494 44.588 173.406C45.4747 174.293 46.146 175.382 46.602 176.674C47.0834 177.966 47.324 179.41 47.324 181.006Z" fill="white"/>
<path d="M50.7256 181.158C50.7256 179.385 50.9916 177.839 51.5236 176.522C52.081 175.179 52.803 174.065 53.6896 173.178C54.5763 172.291 55.5896 171.62 56.7296 171.164C57.895 170.708 59.0856 170.48 60.3016 170.48C63.139 170.48 65.381 171.354 67.0276 173.102C68.6743 174.825 69.4976 177.371 69.4976 180.74C69.4976 181.069 69.485 181.437 69.4596 181.842C69.4343 182.222 69.409 182.564 69.3836 182.868H56.5396C56.6663 184.033 57.211 184.958 58.1736 185.642C59.1363 186.326 60.4283 186.668 62.0496 186.668C63.0883 186.668 64.1016 186.579 65.0896 186.402C66.103 186.199 66.9263 185.959 67.5596 185.68L68.3196 190.278C68.0156 190.43 67.6103 190.582 67.1036 190.734C66.597 190.886 66.027 191.013 65.3936 191.114C64.7856 191.241 64.127 191.342 63.4176 191.418C62.7083 191.494 61.999 191.532 61.2896 191.532C59.491 191.532 57.9203 191.266 56.5776 190.734C55.2603 190.202 54.1583 189.48 53.2716 188.568C52.4103 187.631 51.7643 186.529 51.3336 185.262C50.9283 183.995 50.7256 182.627 50.7256 181.158ZM64.0256 178.992C64.0003 178.511 63.9116 178.042 63.7596 177.586C63.633 177.13 63.4176 176.725 63.1136 176.37C62.835 176.015 62.4676 175.724 62.0116 175.496C61.581 175.268 61.0363 175.154 60.3776 175.154C59.7443 175.154 59.1996 175.268 58.7436 175.496C58.2876 175.699 57.9076 175.977 57.6036 176.332C57.2996 176.687 57.059 177.105 56.8816 177.586C56.7296 178.042 56.6156 178.511 56.5396 178.992H64.0256Z" fill="white"/>
<path d="M73.867 171.696C74.8297 171.417 76.071 171.164 77.591 170.936C79.111 170.683 80.707 170.556 82.379 170.556C84.0764 170.556 85.4824 170.784 86.597 171.24C87.737 171.671 88.6364 172.291 89.295 173.102C89.9537 173.913 90.4224 174.875 90.701 175.99C90.9797 177.105 91.119 178.346 91.119 179.714V191H85.457V180.398C85.457 178.574 85.2164 177.282 84.735 176.522C84.2537 175.762 83.3544 175.382 82.037 175.382C81.6317 175.382 81.201 175.407 80.745 175.458C80.289 175.483 79.8837 175.521 79.529 175.572V191H73.867V171.696Z" fill="white"/>
<path d="M11.398 230.934C12.4367 230.934 13.1713 230.833 13.602 230.63C14.0327 230.427 14.248 230.035 14.248 229.452C14.248 228.996 13.9693 228.603 13.412 228.274C12.8547 227.919 12.006 227.527 10.866 227.096C9.97934 226.767 9.16867 226.425 8.43401 226.07C7.72467 225.715 7.11667 225.297 6.61001 224.816C6.10334 224.309 5.71067 223.714 5.43201 223.03C5.15334 222.346 5.01401 221.523 5.01401 220.56C5.01401 218.685 5.71067 217.203 7.10401 216.114C8.49734 215.025 10.41 214.48 12.842 214.48C14.058 214.48 15.2233 214.594 16.338 214.822C17.4527 215.025 18.3393 215.253 18.998 215.506L18.01 219.914C17.3513 219.686 16.6293 219.483 15.844 219.306C15.084 219.129 14.2227 219.04 13.26 219.04C11.4867 219.04 10.6 219.534 10.6 220.522C10.6 220.75 10.638 220.953 10.714 221.13C10.79 221.307 10.942 221.485 11.17 221.662C11.398 221.814 11.702 221.991 12.082 222.194C12.4873 222.371 12.994 222.574 13.602 222.802C14.8433 223.258 15.8693 223.714 16.68 224.17C17.4907 224.601 18.124 225.082 18.58 225.614C19.0613 226.121 19.3907 226.691 19.568 227.324C19.7707 227.957 19.872 228.692 19.872 229.528C19.872 231.504 19.1247 232.999 17.63 234.012C16.1607 235.025 14.0707 235.532 11.36 235.532C9.58667 235.532 8.10467 235.38 6.91401 235.076C5.74867 234.772 4.93801 234.519 4.48201 234.316L5.43201 229.718C6.39467 230.098 7.38268 230.402 8.39601 230.63C9.40934 230.833 10.41 230.934 11.398 230.934Z" fill="white"/>
<path d="M42.7994 224.968C42.7994 226.539 42.5714 227.983 42.1154 229.3C41.6594 230.592 41.0007 231.707 40.1394 232.644C39.278 233.556 38.2394 234.265 37.0234 234.772C35.8327 235.279 34.49 235.532 32.9954 235.532C31.526 235.532 30.1834 235.279 28.9674 234.772C27.7767 234.265 26.7507 233.556 25.8894 232.644C25.028 231.707 24.3567 230.592 23.8754 229.3C23.394 227.983 23.1534 226.539 23.1534 224.968C23.1534 223.397 23.394 221.966 23.8754 220.674C24.382 219.382 25.066 218.28 25.9274 217.368C26.814 216.456 27.8527 215.747 29.0434 215.24C30.2594 214.733 31.5767 214.48 32.9954 214.48C34.4394 214.48 35.7567 214.733 36.9474 215.24C38.1634 215.747 39.202 216.456 40.0634 217.368C40.9247 218.28 41.596 219.382 42.0774 220.674C42.5587 221.966 42.7994 223.397 42.7994 224.968ZM37.0234 224.968C37.0234 223.22 36.6687 221.852 35.9594 220.864C35.2754 219.851 34.2874 219.344 32.9954 219.344C31.7034 219.344 30.7027 219.851 29.9934 220.864C29.284 221.852 28.9294 223.22 28.9294 224.968C28.9294 226.716 29.284 228.109 29.9934 229.148C30.7027 230.161 31.7034 230.668 32.9954 230.668C34.2874 230.668 35.2754 230.161 35.9594 229.148C36.6687 228.109 37.0234 226.716 37.0234 224.968Z" fill="white"/>
<path d="M64.2474 234.316C63.2847 234.595 62.0434 234.848 60.5234 235.076C59.0034 235.329 57.4074 235.456 55.7354 235.456C54.0381 235.456 52.6194 235.228 51.4794 234.772C50.3647 234.316 49.4781 233.683 48.8194 232.872C48.1607 232.036 47.6921 231.048 47.4134 229.908C47.1347 228.768 46.9954 227.514 46.9954 226.146V215.012H52.6574V225.462C52.6574 227.286 52.8981 228.603 53.3794 229.414C53.8607 230.225 54.7601 230.63 56.0774 230.63C56.4827 230.63 56.9134 230.617 57.3694 230.592C57.8254 230.541 58.2307 230.491 58.5854 230.44V215.012H64.2474V234.316Z" fill="white"/>
<path d="M81.6084 220.028C81.1017 219.901 80.5063 219.775 79.8223 219.648C79.1384 219.496 78.4037 219.42 77.6184 219.42C77.2637 219.42 76.833 219.458 76.3264 219.534C75.845 219.585 75.4777 219.648 75.2243 219.724V235H69.5624V216.076C70.5757 215.721 71.7664 215.392 73.1344 215.088C74.5277 214.759 76.073 214.594 77.7704 214.594C78.0744 214.594 78.4417 214.619 78.8724 214.67C79.303 214.695 79.7337 214.746 80.1644 214.822C80.595 214.873 81.0257 214.949 81.4564 215.05C81.887 215.126 82.2543 215.227 82.5583 215.354L81.6084 220.028Z" fill="white"/>
<path d="M84.2725 225.006C84.2725 223.562 84.5005 222.207 84.9565 220.94C85.4378 219.648 86.1218 218.533 87.0085 217.596C87.8952 216.633 88.9718 215.873 90.2385 215.316C91.5052 214.759 92.9492 214.48 94.5705 214.48C95.6345 214.48 96.6098 214.581 97.4965 214.784C98.3832 214.961 99.2445 215.227 100.081 215.582L98.9025 220.104C98.3705 219.901 97.7878 219.724 97.1545 219.572C96.5212 219.42 95.8118 219.344 95.0265 219.344C93.3545 219.344 92.1005 219.863 91.2645 220.902C90.4538 221.941 90.0485 223.309 90.0485 225.006C90.0485 226.805 90.4285 228.198 91.1885 229.186C91.9738 230.174 93.3292 230.668 95.2545 230.668C95.9385 230.668 96.6732 230.605 97.4585 230.478C98.2438 230.351 98.9658 230.149 99.6245 229.87L100.423 234.506C99.7638 234.785 98.9405 235.025 97.9525 235.228C96.9645 235.431 95.8752 235.532 94.6845 235.532C92.8605 235.532 91.2898 235.266 89.9725 234.734C88.6552 234.177 87.5658 233.429 86.7045 232.492C85.8685 231.555 85.2478 230.453 84.8425 229.186C84.4625 227.894 84.2725 226.501 84.2725 225.006Z" fill="white"/>
<path d="M102.308 225.158C102.308 223.385 102.574 221.839 103.106 220.522C103.663 219.179 104.385 218.065 105.272 217.178C106.158 216.291 107.172 215.62 108.312 215.164C109.477 214.708 110.668 214.48 111.884 214.48C114.721 214.48 116.963 215.354 118.61 217.102C120.256 218.825 121.08 221.371 121.08 224.74C121.08 225.069 121.067 225.437 121.042 225.842C121.016 226.222 120.991 226.564 120.966 226.868H108.122C108.248 228.033 108.793 228.958 109.756 229.642C110.718 230.326 112.01 230.668 113.632 230.668C114.67 230.668 115.684 230.579 116.672 230.402C117.685 230.199 118.508 229.959 119.142 229.68L119.902 234.278C119.598 234.43 119.192 234.582 118.686 234.734C118.179 234.886 117.609 235.013 116.976 235.114C116.368 235.241 115.709 235.342 115 235.418C114.29 235.494 113.581 235.532 112.872 235.532C111.073 235.532 109.502 235.266 108.16 234.734C106.842 234.202 105.74 233.48 104.854 232.568C103.992 231.631 103.346 230.529 102.916 229.262C102.51 227.995 102.308 226.627 102.308 225.158ZM115.608 222.992C115.582 222.511 115.494 222.042 115.342 221.586C115.215 221.13 115 220.725 114.696 220.37C114.417 220.015 114.05 219.724 113.594 219.496C113.163 219.268 112.618 219.154 111.96 219.154C111.326 219.154 110.782 219.268 110.326 219.496C109.87 219.699 109.49 219.977 109.186 220.332C108.882 220.687 108.641 221.105 108.464 221.586C108.312 222.042 108.198 222.511 108.122 222.992H115.608Z" fill="white"/>
<path d="M11.968 279.38C9.78934 279.329 8.24401 278.861 7.33201 277.974C6.42001 277.087 5.96401 275.707 5.96401 273.832V250.12L9.49801 249.512V273.262C9.49801 273.845 9.54867 274.326 9.65001 274.706C9.75134 275.086 9.91601 275.39 10.144 275.618C10.372 275.846 10.676 276.023 11.056 276.15C11.436 276.251 11.9047 276.34 12.462 276.416L11.968 279.38Z" fill="white"/>
<path d="M33.8726 269.12C33.8726 270.691 33.6446 272.109 33.1886 273.376C32.7326 274.643 32.0866 275.732 31.2506 276.644C30.44 277.556 29.4646 278.265 28.3246 278.772C27.1846 279.253 25.9433 279.494 24.6006 279.494C23.258 279.494 22.0166 279.253 20.8766 278.772C19.7366 278.265 18.7486 277.556 17.9126 276.644C17.102 275.732 16.4686 274.643 16.0126 273.376C15.5566 272.109 15.3286 270.691 15.3286 269.12C15.3286 267.575 15.5566 266.169 16.0126 264.902C16.4686 263.61 17.102 262.508 17.9126 261.596C18.7486 260.684 19.7366 259.987 20.8766 259.506C22.0166 258.999 23.258 258.746 24.6006 258.746C25.9433 258.746 27.1846 258.999 28.3246 259.506C29.4646 259.987 30.44 260.684 31.2506 261.596C32.0866 262.508 32.7326 263.61 33.1886 264.902C33.6446 266.169 33.8726 267.575 33.8726 269.12ZM30.1866 269.12C30.1866 266.891 29.68 265.13 28.6666 263.838C27.6786 262.521 26.3233 261.862 24.6006 261.862C22.878 261.862 21.51 262.521 20.4966 263.838C19.5086 265.13 19.0146 266.891 19.0146 269.12C19.0146 271.349 19.5086 273.123 20.4966 274.44C21.51 275.732 22.878 276.378 24.6006 276.378C26.3233 276.378 27.6786 275.732 28.6666 274.44C29.68 273.123 30.1866 271.349 30.1866 269.12Z" fill="white"/>
<path d="M53.7532 259.24C52.7652 262.939 51.5998 266.485 50.2572 269.88C48.9398 273.275 47.6605 276.315 46.4192 279H43.2272C41.9858 276.315 40.6938 273.275 39.3512 269.88C38.0338 266.485 36.8812 262.939 35.8932 259.24H39.6932C39.9972 260.481 40.3518 261.811 40.7572 263.23C41.1878 264.623 41.6312 266.017 42.0872 267.41C42.5685 268.778 43.0498 270.108 43.5312 271.4C44.0125 272.692 44.4685 273.845 44.8992 274.858C45.3298 273.845 45.7858 272.692 46.2672 271.4C46.7485 270.108 47.2172 268.778 47.6732 267.41C48.1545 266.017 48.5978 264.623 49.0032 263.23C49.4338 261.811 49.8012 260.481 50.1052 259.24H53.7532Z" fill="white"/>
<path d="M55.7779 269.158C55.7779 267.41 56.0312 265.89 56.5379 264.598C57.0445 263.281 57.7159 262.191 58.5519 261.33C59.3879 260.469 60.3505 259.823 61.4398 259.392C62.5292 258.961 63.6439 258.746 64.7839 258.746C67.4439 258.746 69.4832 259.582 70.9019 261.254C72.3205 262.901 73.0299 265.421 73.0299 268.816C73.0299 268.968 73.0299 269.171 73.0299 269.424C73.0299 269.652 73.0172 269.867 72.9919 270.07H59.4639C59.6159 272.122 60.2112 273.68 61.2499 274.744C62.2885 275.808 63.9099 276.34 66.1139 276.34C67.3552 276.34 68.3939 276.239 69.2299 276.036C70.0912 275.808 70.7372 275.593 71.1679 275.39L71.6618 278.354C71.2312 278.582 70.4712 278.823 69.3819 279.076C68.3179 279.329 67.1019 279.456 65.7339 279.456C64.0112 279.456 62.5165 279.203 61.2499 278.696C60.0085 278.164 58.9825 277.442 58.1719 276.53C57.3612 275.618 56.7532 274.541 56.3479 273.3C55.9679 272.033 55.7779 270.653 55.7779 269.158ZM69.3438 267.22C69.3692 265.624 68.9639 264.319 68.1279 263.306C67.3172 262.267 66.1898 261.748 64.7458 261.748C63.9352 261.748 63.2132 261.913 62.5799 262.242C61.9719 262.546 61.4525 262.951 61.0219 263.458C60.5912 263.965 60.2492 264.547 59.9959 265.206C59.7679 265.865 59.6159 266.536 59.5399 267.22H69.3438Z" fill="white"/>
<path d="M85.4024 258.822C85.7064 258.822 86.0484 258.847 86.4284 258.898C86.8337 258.923 87.2264 258.974 87.6064 259.05C87.9864 259.101 88.3284 259.164 88.6324 259.24C88.9617 259.291 89.2024 259.341 89.3544 259.392L88.7464 262.47C88.4677 262.369 87.9991 262.255 87.3404 262.128C86.7071 261.976 85.8837 261.9 84.8704 261.9C84.2117 261.9 83.5531 261.976 82.8944 262.128C82.2611 262.255 81.8431 262.343 81.6404 262.394V279H78.1064V260.076C78.9424 259.772 79.9811 259.493 81.2224 259.24C82.4637 258.961 83.8571 258.822 85.4024 258.822Z" fill="white"/>
<path d="M56.9 22.282L73.24 15.404L74.722 20.002L62.79 24.638L74.722 29.274L73.24 33.872L56.9 26.994V22.282Z" fill="white"/>
<path d="M81.4617 43.03H75.6477L88.4157 6.246H94.1537L81.4617 43.03Z" fill="white"/>
<path d="M112.87 26.994L96.5296 33.872L95.0476 29.274L106.98 24.638L95.0476 20.002L96.5296 15.404L112.87 22.282V26.994Z" fill="white"/>
</svg>
