<svg width="182" height="422" viewBox="0 0 182 422" fill="none" xmlns="http://www.w3.org/2000/svg">
<path d="M0 30C0 13.4315 13.4315 0 30 0H151C167.569 0 181 13.4315 181 30V390C181 406.569 167.569 420 151 420H30C13.4315 420 0 406.569 0 390V30Z" fill="#FE4576"/>
<path d="M65 20.5001C71.9117 29.2111 83.6297 34.1891 93.7789 31.849L112.28 55.1671C105.089 56.1556 98.0809 59.0328 92.0149 63.8458L67.022 83.676C57.8318 90.9677 44.3123 89.2739 36.8738 79.8989L35.462 78.1195C40.0482 68.768 39.4243 57.4483 32.5126 48.7373C23.203 37.0039 11.5072 33.3699 4.88106e-06 42.5C4.74054e-06 53.5 1.2264e-06 73 0 88.5C0 88.5 8.65079 93.6797 18.8 91.3396L20.2119 93.119C35.1098 111.896 62.1018 115.277 80.5081 100.673L105.501 80.843C114.691 73.5512 128.211 75.245 135.649 84.6201L137.061 86.3995C132.285 95.5119 133.099 107.071 140.01 115.782C149.324 127.52 169.493 126.63 181 117.5C181 101.5 180.5 97 181.665 82.7313C174.754 74.0202 163.67 70.6105 153.723 73.1793L110.441 18.6288C115.014 9.28768 114.5 9.00003 110.441 3.05633e-05C91.7214 3.01338e-05 70.8577 3.28702e-05 61 3.28584e-05C61 3.28584e-05 53.3646 6.17304 65 20.5001ZM91.7214 12.1457C88.2718 14.8827 83.2079 14.2483 80.4158 10.7293C77.6238 7.21035 77.5505 2.73702 81 3.13704e-05C85.5 3.21538e-05 88.7443 3.20312e-05 93 3.16729e-05C95.7921 3.51899 95.1709 9.40873 91.7214 12.1457ZM6.62784 58.8885C10.0904 56.1412 15.1413 56.7859 17.9334 60.3049C20.7254 63.8238 20.205 68.8891 16.7424 71.6364C13.2799 74.3837 8.22898 73.7389 5.43692 70.22C2.64487 66.701 3.16528 61.6358 6.62784 58.8885ZM165.895 105.63C162.446 108.367 157.392 107.746 154.59 104.214C151.787 100.682 152.331 95.6195 155.781 92.8825C159.23 90.1456 164.284 90.7667 167.086 94.2989C169.889 97.8312 169.345 102.893 165.895 105.63Z" fill="white" fill-opacity="0.15"/>
<path d="M115.104 334.481L114.594 335.028C112.337 337.448 108.515 337.535 106.041 335.228L84.7352 315.362C82.2611 313.056 81.9386 309.105 84.1951 306.685L84.7054 306.137C92.3063 297.985 105.244 297.695 113.596 305.483C122.09 313.402 122.705 326.329 115.104 334.481ZM64.8052 290.284C68.5699 290.196 71.7626 293.173 71.9376 296.934L72.8435 316.174C72.8678 316.369 72.862 316.565 72.8562 316.76C76.1562 317.739 79.2811 319.474 81.834 321.855L99.6255 338.443C102.32 340.956 104.27 343.952 105.477 347.176C105.671 347.156 105.866 347.137 106.063 347.147L125.323 346.711C129.088 346.622 132.271 349.59 132.446 353.352C132.624 357.111 129.728 360.216 125.966 360.302L106.706 360.738C106.369 360.625 106.315 360.747 106.118 360.736C105.359 363.478 104.053 366.111 102.205 368.441L112.338 377.888C115.127 380.489 115.33 384.789 112.793 387.51C110.256 390.232 105.952 390.329 103.163 387.729L93.0772 378.325C89.5506 382.107 85.3579 384.866 80.816 386.61C80.9606 387.118 81.0621 387.673 81.0734 388.229L81.984 407.473C82.1619 411.232 79.266 414.337 75.5042 414.423C71.7424 414.508 68.5592 411.54 68.3813 407.781L67.4692 388.823C60.4831 388.575 53.4863 386.19 47.5621 381.644L81.8534 344.866C83.1149 343.513 83.0125 341.348 81.4839 339.923C80.239 338.762 77.9303 338.679 76.6688 340.032L42.3775 376.81C37.57 371.35 34.7019 364.537 33.9663 357.586L14.9957 358.005C11.2339 358.09 8.0412 355.113 7.86335 351.355C7.68707 347.598 10.5829 344.492 14.3431 344.405L33.6083 343.973C34.1644 343.945 34.7247 344.008 35.242 344.117C36.6637 339.464 39.1229 335.089 42.6495 331.306L32.564 321.903C29.7794 319.306 29.5712 315.002 32.1086 312.281C34.6461 309.559 38.9543 309.466 41.7389 312.063L51.8717 321.51C54.0632 319.501 56.602 318.017 59.2835 317.068C59.2593 316.873 59.235 316.678 59.2408 316.482L58.3254 297.234C58.1491 293.477 61.045 290.371 64.8052 290.284Z" fill="white" fill-opacity="0.15"/>
<path d="M31.288 115.784C32.344 115.784 33.272 115.768 34.072 115.736C34.904 115.672 35.592 115.576 36.136 115.448V108.008C35.816 107.848 35.288 107.72 34.552 107.624C33.848 107.496 32.984 107.432 31.96 107.432C31.288 107.432 30.568 107.48 29.8 107.576C29.064 107.672 28.376 107.88 27.736 108.2C27.128 108.488 26.616 108.904 26.2 109.448C25.784 109.96 25.576 110.648 25.576 111.512C25.576 113.112 26.088 114.232 27.112 114.872C28.136 115.48 29.528 115.784 31.288 115.784ZM30.904 93.416C32.696 93.416 34.2 93.656 35.416 94.136C36.664 94.584 37.656 95.24 38.392 96.104C39.16 96.936 39.704 97.944 40.024 99.128C40.344 100.28 40.504 101.56 40.504 102.968V118.568C40.12 118.632 39.576 118.728 38.872 118.856C38.2 118.952 37.432 119.048 36.568 119.144C35.704 119.24 34.76 119.32 33.736 119.384C32.744 119.48 31.752 119.528 30.76 119.528C29.352 119.528 28.056 119.384 26.872 119.096C25.688 118.808 24.664 118.36 23.8 117.752C22.936 117.112 22.264 116.28 21.784 115.256C21.304 114.232 21.064 113 21.064 111.56C21.064 110.184 21.336 109 21.88 108.008C22.456 107.016 23.224 106.216 24.184 105.608C25.144 105 26.264 104.552 27.544 104.264C28.824 103.976 30.168 103.832 31.576 103.832C32.024 103.832 32.488 103.864 32.968 103.928C33.448 103.96 33.896 104.024 34.312 104.12C34.76 104.184 35.144 104.248 35.464 104.312C35.784 104.376 36.008 104.424 36.136 104.456V103.208C36.136 102.472 36.056 101.752 35.896 101.048C35.736 100.312 35.448 99.672 35.032 99.128C34.616 98.552 34.04 98.104 33.304 97.784C32.6 97.432 31.672 97.256 30.52 97.256C29.048 97.256 27.752 97.368 26.632 97.592C25.544 97.784 24.728 97.992 24.184 98.216L23.656 94.52C24.232 94.264 25.192 94.024 26.536 93.8C27.88 93.544 29.336 93.416 30.904 93.416ZM47.9181 94.76C48.9421 94.504 50.3021 94.232 51.9981 93.944C53.6941 93.656 55.6461 93.512 57.8541 93.512C59.8381 93.512 61.4861 93.8 62.7981 94.376C64.1101 94.92 65.1501 95.704 65.9181 96.728C66.7181 97.72 67.2781 98.92 67.5981 100.328C67.9181 101.736 68.0781 103.288 68.0781 104.984V119H63.6141V105.944C63.6141 104.408 63.5021 103.096 63.2781 102.008C63.0861 100.92 62.7501 100.04 62.2701 99.368C61.7901 98.696 61.1501 98.216 60.3501 97.928C59.5501 97.608 58.5581 97.448 57.3741 97.448C56.8941 97.448 56.3981 97.464 55.8861 97.496C55.3741 97.528 54.8781 97.576 54.3981 97.64C53.9501 97.672 53.5341 97.72 53.1501 97.784C52.7981 97.848 52.5421 97.896 52.3821 97.928V119H47.9181V94.76ZM45.976 161.328C45.976 163.312 45.688 165.136 45.112 166.8C44.536 168.432 43.704 169.84 42.616 171.024C41.528 172.176 40.216 173.072 38.68 173.712C37.176 174.352 35.48 174.672 33.592 174.672C31.736 174.672 30.04 174.352 28.504 173.712C27 173.072 25.704 172.176 24.616 171.024C23.528 169.84 22.68 168.432 22.072 166.8C21.464 165.136 21.16 163.312 21.16 161.328C21.16 159.344 21.464 157.536 22.072 155.904C22.712 154.272 23.576 152.88 24.664 151.728C25.784 150.576 27.096 149.68 28.6 149.04C30.136 148.4 31.8 148.08 33.592 148.08C35.416 148.08 37.08 148.4 38.584 149.04C40.12 149.68 41.432 150.576 42.52 151.728C43.608 152.88 44.456 154.272 45.064 155.904C45.672 157.536 45.976 159.344 45.976 161.328ZM38.68 161.328C38.68 159.12 38.232 157.392 37.336 156.144C36.472 154.864 35.224 154.224 33.592 154.224C31.96 154.224 30.696 154.864 29.8 156.144C28.904 157.392 28.456 159.12 28.456 161.328C28.456 163.536 28.904 165.296 29.8 166.608C30.696 167.888 31.96 168.528 33.592 168.528C35.224 168.528 36.472 167.888 37.336 166.608C38.232 165.296 38.68 163.536 38.68 161.328ZM67.6923 161.568C67.6923 159.36 67.1963 157.6 66.2043 156.288C65.2123 154.944 63.7403 154.272 61.7883 154.272C61.1483 154.272 60.5563 154.304 60.0123 154.368C59.4683 154.4 59.0203 154.448 58.6683 154.512V167.424C59.1163 167.712 59.6923 167.952 60.3963 168.144C61.1323 168.336 61.8683 168.432 62.6043 168.432C65.9963 168.432 67.6923 166.144 67.6923 161.568ZM74.9883 161.376C74.9883 163.328 74.7483 165.104 74.2683 166.704C73.7883 168.304 73.0843 169.68 72.1562 170.832C71.2283 171.984 70.0763 172.88 68.7003 173.52C67.3243 174.16 65.7403 174.48 63.9483 174.48C62.9563 174.48 62.0283 174.384 61.1643 174.192C60.3003 174 59.4683 173.728 58.6683 173.376V182.88H51.5163V149.616C52.1563 149.424 52.8923 149.248 53.7243 149.088C54.5563 148.896 55.4203 148.736 56.3163 148.608C57.2443 148.48 58.1723 148.384 59.1003 148.32C60.0603 148.224 60.9723 148.176 61.8363 148.176C63.9163 148.176 65.7723 148.496 67.4043 149.136C69.0363 149.744 70.4123 150.624 71.5323 151.776C72.6523 152.896 73.5003 154.272 74.0763 155.904C74.6843 157.536 74.9883 159.36 74.9883 161.376ZM79.285 161.568C79.285 159.328 79.621 157.376 80.293 155.712C80.997 154.016 81.909 152.608 83.029 151.488C84.149 150.368 85.429 149.52 86.869 148.944C88.341 148.368 89.845 148.08 91.381 148.08C94.965 148.08 97.797 149.184 99.877 151.392C101.957 153.568 102.997 156.784 102.997 161.04C102.997 161.456 102.981 161.92 102.949 162.432C102.917 162.912 102.885 163.344 102.853 163.728H86.629C86.789 165.2 87.477 166.368 88.693 167.232C89.909 168.096 91.541 168.528 93.589 168.528C94.901 168.528 96.181 168.416 97.429 168.192C98.709 167.936 99.749 167.632 100.549 167.28L101.509 173.088C101.125 173.28 100.613 173.472 99.973 173.664C99.333 173.856 98.613 174.016 97.813 174.144C97.045 174.304 96.213 174.432 95.317 174.528C94.421 174.624 93.525 174.672 92.629 174.672C90.357 174.672 88.373 174.336 86.677 173.664C85.013 172.992 83.621 172.08 82.501 170.928C81.413 169.744 80.597 168.352 80.053 166.752C79.541 165.152 79.285 163.424 79.285 161.568ZM96.085 158.832C96.053 158.224 95.941 157.632 95.749 157.056C95.589 156.48 95.317 155.968 94.933 155.52C94.581 155.072 94.117 154.704 93.541 154.416C92.997 154.128 92.309 153.984 91.477 153.984C90.677 153.984 89.989 154.128 89.413 154.416C88.837 154.672 88.357 155.024 87.973 155.472C87.589 155.92 87.285 156.448 87.061 157.056C86.869 157.632 86.725 158.224 86.629 158.832H96.085ZM108.516 149.616C109.732 149.264 111.3 148.944 113.22 148.656C115.14 148.336 117.156 148.176 119.268 148.176C121.412 148.176 123.188 148.464 124.596 149.04C126.036 149.584 127.172 150.368 128.004 151.392C128.836 152.416 129.428 153.632 129.78 155.04C130.132 156.448 130.308 158.016 130.308 159.744V174H123.156V160.608C123.156 158.304 122.852 156.672 122.244 155.712C121.636 154.752 120.5 154.272 118.836 154.272C118.324 154.272 117.78 154.304 117.204 154.368C116.628 154.4 116.116 154.448 115.668 154.512V174H108.516V149.616ZM29.608 223.864C30.92 223.864 31.848 223.736 32.392 223.48C32.936 223.224 33.208 222.728 33.208 221.992C33.208 221.416 32.856 220.92 32.152 220.504C31.448 220.056 30.376 219.56 28.936 219.016C27.816 218.6 26.792 218.168 25.864 217.72C24.968 217.272 24.2 216.744 23.56 216.136C22.92 215.496 22.424 214.744 22.072 213.88C21.72 213.016 21.544 211.976 21.544 210.76C21.544 208.392 22.424 206.52 24.184 205.144C25.944 203.768 28.36 203.08 31.432 203.08C32.968 203.08 34.44 203.224 35.848 203.512C37.256 203.768 38.376 204.056 39.208 204.376L37.96 209.944C37.128 209.656 36.216 209.4 35.224 209.176C34.264 208.952 33.176 208.84 31.96 208.84C29.72 208.84 28.6 209.464 28.6 210.712C28.6 211 28.648 211.256 28.744 211.48C28.84 211.704 29.032 211.928 29.32 212.152C29.608 212.344 29.992 212.568 30.472 212.824C30.984 213.048 31.624 213.304 32.392 213.592C33.96 214.168 35.256 214.744 36.28 215.32C37.304 215.864 38.104 216.472 38.68 217.144C39.288 217.784 39.704 218.504 39.928 219.304C40.184 220.104 40.312 221.032 40.312 222.088C40.312 224.584 39.368 226.472 37.48 227.752C35.624 229.032 32.984 229.672 29.56 229.672C27.32 229.672 25.448 229.48 23.944 229.096C22.472 228.712 21.448 228.392 20.872 228.136L22.072 222.328C23.288 222.808 24.536 223.192 25.816 223.48C27.096 223.736 28.36 223.864 29.608 223.864ZM69.2729 216.328C69.2729 218.312 68.9849 220.136 68.4089 221.8C67.8329 223.432 67.0009 224.84 65.9129 226.024C64.8249 227.176 63.5129 228.072 61.9769 228.712C60.4729 229.352 58.7769 229.672 56.8889 229.672C55.0329 229.672 53.3369 229.352 51.8009 228.712C50.2969 228.072 49.0009 227.176 47.9129 226.024C46.8249 224.84 45.9769 223.432 45.3689 221.8C44.7609 220.136 44.4569 218.312 44.4569 216.328C44.4569 214.344 44.7609 212.536 45.3689 210.904C46.0089 209.272 46.8729 207.88 47.9609 206.728C49.0809 205.576 50.3929 204.68 51.8969 204.04C53.4329 203.4 55.0969 203.08 56.8889 203.08C58.7129 203.08 60.3769 203.4 61.8809 204.04C63.4169 204.68 64.7289 205.576 65.8169 206.728C66.9049 207.88 67.7529 209.272 68.3609 210.904C68.9689 212.536 69.2729 214.344 69.2729 216.328ZM61.9769 216.328C61.9769 214.12 61.5289 212.392 60.6329 211.144C59.7689 209.864 58.5209 209.224 56.8889 209.224C55.2569 209.224 53.9929 209.864 53.0969 211.144C52.2009 212.392 51.7529 214.12 51.7529 216.328C51.7529 218.536 52.2009 220.296 53.0969 221.608C53.9929 222.888 55.2569 223.528 56.8889 223.528C58.5209 223.528 59.7689 222.888 60.6329 221.608C61.5289 220.296 61.9769 218.536 61.9769 216.328ZM96.3651 228.136C95.1491 228.488 93.5811 228.808 91.6611 229.096C89.7411 229.416 87.7251 229.576 85.6131 229.576C83.4691 229.576 81.6771 229.288 80.2371 228.712C78.8291 228.136 77.7091 227.336 76.8771 226.312C76.0451 225.256 75.4531 224.008 75.1011 222.568C74.7491 221.128 74.5731 219.544 74.5731 217.816V203.752H81.7251V216.952C81.7251 219.256 82.0291 220.92 82.6371 221.944C83.2451 222.968 84.3811 223.48 86.0451 223.48C86.5571 223.48 87.1011 223.464 87.6771 223.432C88.2531 223.368 88.7651 223.304 89.2131 223.24V203.752H96.3651V228.136ZM118.295 210.088C117.655 209.928 116.903 209.768 116.039 209.608C115.175 209.416 114.247 209.32 113.255 209.32C112.807 209.32 112.263 209.368 111.623 209.464C111.015 209.528 110.551 209.608 110.231 209.704V229H103.079V205.096C104.359 204.648 105.863 204.232 107.591 203.848C109.351 203.432 111.303 203.224 113.447 203.224C113.831 203.224 114.295 203.256 114.839 203.32C115.383 203.352 115.927 203.416 116.471 203.512C117.015 203.576 117.559 203.672 118.103 203.8C118.647 203.896 119.111 204.024 119.495 204.184L118.295 210.088ZM121.66 216.376C121.66 214.552 121.948 212.84 122.524 211.24C123.132 209.608 123.996 208.2 125.116 207.016C126.236 205.8 127.596 204.84 129.196 204.136C130.796 203.432 132.62 203.08 134.668 203.08C136.012 203.08 137.244 203.208 138.364 203.464C139.484 203.688 140.572 204.024 141.628 204.472L140.14 210.184C139.468 209.928 138.732 209.704 137.932 209.512C137.132 209.32 136.236 209.224 135.244 209.224C133.132 209.224 131.548 209.88 130.492 211.192C129.468 212.504 128.956 214.232 128.956 216.376C128.956 218.648 129.436 220.408 130.396 221.656C131.388 222.904 133.1 223.528 135.532 223.528C136.396 223.528 137.324 223.448 138.316 223.288C139.308 223.128 140.22 222.872 141.052 222.52L142.06 228.376C141.228 228.728 140.188 229.032 138.94 229.288C137.692 229.544 136.316 229.672 134.812 229.672C132.508 229.672 130.524 229.336 128.86 228.664C127.196 227.96 125.82 227.016 124.732 225.832C123.676 224.648 122.892 223.256 122.38 221.656C121.9 220.024 121.66 218.264 121.66 216.376ZM144.441 216.568C144.441 214.328 144.777 212.376 145.449 210.712C146.153 209.016 147.065 207.608 148.185 206.488C149.305 205.368 150.585 204.52 152.025 203.944C153.497 203.368 155.001 203.08 156.537 203.08C160.121 203.08 162.953 204.184 165.033 206.392C167.113 208.568 168.153 211.784 168.153 216.04C168.153 216.456 168.137 216.92 168.105 217.432C168.073 217.912 168.041 218.344 168.009 218.728H151.785C151.945 220.2 152.633 221.368 153.849 222.232C155.065 223.096 156.697 223.528 158.745 223.528C160.057 223.528 161.337 223.416 162.585 223.192C163.865 222.936 164.905 222.632 165.705 222.28L166.665 228.088C166.281 228.28 165.769 228.472 165.129 228.664C164.489 228.856 163.769 229.016 162.969 229.144C162.201 229.304 161.369 229.432 160.473 229.528C159.577 229.624 158.681 229.672 157.785 229.672C155.513 229.672 153.529 229.336 151.833 228.664C150.169 227.992 148.777 227.08 147.657 225.928C146.569 224.744 145.753 223.352 145.209 221.752C144.697 220.152 144.441 218.424 144.441 216.568ZM161.241 213.832C161.209 213.224 161.097 212.632 160.905 212.056C160.745 211.48 160.473 210.968 160.089 210.52C159.737 210.072 159.273 209.704 158.697 209.416C158.153 209.128 157.465 208.984 156.633 208.984C155.833 208.984 155.145 209.128 154.569 209.416C153.993 209.672 153.513 210.024 153.129 210.472C152.745 210.92 152.441 211.448 152.217 212.056C152.025 212.632 151.881 213.224 151.785 213.832H161.241ZM30.328 284.48C27.576 284.416 25.624 283.824 24.472 282.704C23.32 281.584 22.744 279.84 22.744 277.472V247.52L27.208 246.752V276.752C27.208 277.488 27.272 278.096 27.4 278.576C27.528 279.056 27.736 279.44 28.024 279.728C28.312 280.016 28.696 280.24 29.176 280.4C29.656 280.528 30.248 280.64 30.952 280.736L30.328 284.48ZM57.997 271.52C57.997 273.504 57.709 275.296 57.133 276.896C56.557 278.496 55.741 279.872 54.685 281.024C53.661 282.176 52.429 283.072 50.989 283.712C49.549 284.32 47.981 284.624 46.285 284.624C44.589 284.624 43.021 284.32 41.581 283.712C40.141 283.072 38.893 282.176 37.837 281.024C36.813 279.872 36.013 278.496 35.437 276.896C34.861 275.296 34.573 273.504 34.573 271.52C34.573 269.568 34.861 267.792 35.437 266.192C36.013 264.56 36.813 263.168 37.837 262.016C38.893 260.864 40.141 259.984 41.581 259.376C43.021 258.736 44.589 258.416 46.285 258.416C47.981 258.416 49.549 258.736 50.989 259.376C52.429 259.984 53.661 260.864 54.685 262.016C55.741 263.168 56.557 264.56 57.133 266.192C57.709 267.792 57.997 269.568 57.997 271.52ZM53.341 271.52C53.341 268.704 52.701 266.48 51.421 264.848C50.173 263.184 48.461 262.352 46.285 262.352C44.109 262.352 42.381 263.184 41.101 264.848C39.853 266.48 39.229 268.704 39.229 271.52C39.229 274.336 39.853 276.576 41.101 278.24C42.381 279.872 44.109 280.688 46.285 280.688C48.461 280.688 50.173 279.872 51.421 278.24C52.701 276.576 53.341 274.336 53.341 271.52ZM83.1093 259.04C81.8613 263.712 80.3893 268.192 78.6933 272.48C77.0293 276.768 75.4133 280.608 73.8453 284H69.8133C68.2453 280.608 66.6133 276.768 64.9173 272.48C63.2533 268.192 61.7973 263.712 60.5493 259.04H65.3493C65.7333 260.608 66.1813 262.288 66.6933 264.08C67.2373 265.84 67.7973 267.6 68.3733 269.36C68.9813 271.088 69.5893 272.768 70.1973 274.4C70.8053 276.032 71.3813 277.488 71.9253 278.768C72.4693 277.488 73.0453 276.032 73.6533 274.4C74.2613 272.768 74.8533 271.088 75.4293 269.36C76.0373 267.6 76.5973 265.84 77.1093 264.08C77.6533 262.288 78.1173 260.608 78.5013 259.04H83.1093ZM85.6668 271.568C85.6668 269.36 85.9868 267.44 86.6268 265.808C87.2668 264.144 88.1148 262.768 89.1708 261.68C90.2268 260.592 91.4428 259.776 92.8188 259.232C94.1948 258.688 95.6028 258.416 97.0428 258.416C100.403 258.416 102.979 259.472 104.771 261.584C106.563 263.664 107.459 266.848 107.459 271.136C107.459 271.328 107.459 271.584 107.459 271.904C107.459 272.192 107.443 272.464 107.411 272.72H90.3228C90.5148 275.312 91.2668 277.28 92.5788 278.624C93.8908 279.968 95.9388 280.64 98.7228 280.64C100.291 280.64 101.603 280.512 102.659 280.256C103.747 279.968 104.563 279.696 105.107 279.44L105.731 283.184C105.187 283.472 104.227 283.776 102.851 284.096C101.507 284.416 99.9708 284.576 98.2428 284.576C96.0668 284.576 94.1788 284.256 92.5788 283.616C91.0108 282.944 89.7148 282.032 88.6908 280.88C87.6668 279.728 86.8988 278.368 86.3867 276.8C85.9068 275.2 85.6668 273.456 85.6668 271.568ZM102.803 269.12C102.835 267.104 102.323 265.456 101.267 264.176C100.243 262.864 98.8188 262.208 96.9948 262.208C95.9708 262.208 95.0588 262.416 94.2588 262.832C93.4908 263.216 92.8348 263.728 92.2908 264.368C91.7468 265.008 91.3148 265.744 90.9948 266.576C90.7068 267.408 90.5148 268.256 90.4188 269.12H102.803ZM123.087 258.512C123.471 258.512 123.903 258.544 124.383 258.608C124.895 258.64 125.391 258.704 125.871 258.8C126.351 258.864 126.783 258.944 127.167 259.04C127.583 259.104 127.887 259.168 128.079 259.232L127.311 263.12C126.959 262.992 126.367 262.848 125.535 262.688C124.735 262.496 123.695 262.4 122.415 262.4C121.583 262.4 120.751 262.496 119.919 262.688C119.119 262.848 118.591 262.96 118.335 263.024V284H113.871V260.096C114.927 259.712 116.239 259.36 117.807 259.04C119.375 258.688 121.135 258.512 123.087 258.512Z" fill="white"/>
</svg>
