<svg width="167" height="420" viewBox="0 0 167 420" fill="none" xmlns="http://www.w3.org/2000/svg">
<path d="M0 30C0 13.4315 13.4315 0 30 0H136.082C152.651 0 166.082 13.4315 166.082 30V390C166.082 406.569 152.651 420 136.082 420H30C13.4314 420 0 406.569 0 390V30Z" fill="#FE4576"/>
<path d="M59.6429 20.5C65.9849 29.2111 76.7371 34.189 86.0499 31.8489L103.026 55.167C96.4278 56.1556 89.9974 59.0328 84.4313 63.8457L61.4982 83.676C53.0655 90.9677 40.6602 89.2739 33.8348 79.8989L32.5393 78.1195C36.7475 68.768 36.175 57.4483 29.833 48.7372C21.2906 37.0038 10.5588 33.3698 4.47878e-06 42.5C4.34983e-06 53.5 1.12532e-06 73 0 88.5C0 88.5 7.93781 93.6797 17.2506 91.3396L18.546 93.119C32.2162 111.896 56.9835 115.277 73.8728 100.673L96.8059 80.843C105.239 73.5512 117.644 75.245 124.469 84.62L125.765 86.3994C121.383 95.5119 122.129 107.071 128.471 115.782C137.017 127.52 155.524 126.63 166.082 117.5C166.082 101.5 165.624 97 166.693 82.7313C160.351 74.0202 150.18 70.6105 141.054 73.1793L101.339 18.6288C105.535 9.28765 105.063 9 101.339 4.5751e-08C84.1619 -3.83763e-07 65.0177 2.35266e-06 55.9726 2.34085e-06C55.9726 2.34085e-06 48.9664 6.17301 59.6429 20.5ZM84.1619 12.1457C80.9967 14.8827 76.3501 14.2482 73.7882 10.7293C71.2262 7.21032 71.159 2.73699 74.3242 8.5282e-07C78.4533 1.63618e-06 81.4302 1.51367e-06 85.3352 1.15533e-06C87.8971 3.51896 87.3272 9.4087 84.1619 12.1457ZM6.08159 58.8884C9.25878 56.1411 13.8934 56.7859 16.4554 60.3049C19.0173 63.8238 18.5398 68.889 15.3626 71.6364C12.1854 74.3837 7.55077 73.7389 4.98883 70.2199C2.42689 66.701 2.9044 61.6358 6.08159 58.8884ZM152.223 105.63C149.057 108.367 144.42 107.746 141.849 104.214C139.277 100.682 139.776 95.6195 142.942 92.8825C146.107 90.1455 150.744 90.7667 153.315 94.2989C155.887 97.8311 155.388 102.893 152.223 105.63Z" fill="white" fill-opacity="0.15"/>
<path d="M117.648 329.041L117.138 329.636C114.885 332.27 111.115 332.411 108.702 329.958L87.9205 308.842C85.5072 306.389 85.2346 302.14 87.4876 299.507L87.9972 298.911C95.5864 290.041 108.348 289.566 116.495 297.844C124.78 306.263 125.237 320.17 117.648 329.041ZM68.5555 282.096C72.2689 281.953 75.3831 285.118 75.5124 289.165L76.1843 309.864C76.206 310.074 76.198 310.285 76.1901 310.495C79.433 311.508 82.4946 313.336 84.9847 315.867L102.339 333.5C104.967 336.171 106.855 339.372 108.008 342.827C108.2 342.803 108.393 342.78 108.586 342.789L127.585 342.078C131.298 341.935 134.403 345.09 134.532 349.137C134.664 353.181 131.773 356.561 128.062 356.7L109.064 357.411C108.733 357.294 108.678 357.425 108.485 357.417C107.705 360.377 106.386 363.228 104.537 365.759L114.42 375.802C117.141 378.566 117.292 383.192 114.759 386.154C112.225 389.115 107.98 389.274 105.26 386.509L95.4222 376.513C91.901 380.629 87.7347 383.651 83.2357 385.585C83.3725 386.131 83.4662 386.726 83.4709 387.325L84.1475 408.029C84.2796 412.073 81.3882 415.452 77.6776 415.591C73.967 415.73 70.8621 412.575 70.73 408.532L70.0486 388.136C63.1623 387.956 56.29 385.477 50.5004 380.657L84.7391 340.637C85.9987 339.165 85.9226 336.836 84.4316 335.321C83.2173 334.087 80.9416 334.026 79.682 335.499L45.4433 375.518C40.7653 369.701 38.0154 362.403 37.37 354.929L18.6578 355.619C14.9472 355.758 11.833 352.593 11.7009 348.55C11.5703 344.507 14.4617 341.128 18.1707 340.987L37.1736 340.281C37.7223 340.244 38.2741 340.304 38.7829 340.415C40.2385 335.389 42.7139 330.648 46.2351 326.532L36.3977 316.536C33.6817 313.776 33.5259 309.145 36.0594 306.184C38.593 303.223 42.8425 303.069 45.5586 305.828L55.4421 315.871C57.6263 313.681 60.1469 312.052 62.8022 310.997C62.7805 310.787 62.7588 310.577 62.7668 310.366L62.0856 289.658C61.955 285.616 64.8464 282.236 68.5555 282.096Z" fill="white" fill-opacity="0.15"/>
<path d="M19.288 117.784C20.344 117.784 21.272 117.768 22.072 117.736C22.904 117.672 23.592 117.576 24.136 117.448V110.008C23.816 109.848 23.288 109.72 22.552 109.624C21.848 109.496 20.984 109.432 19.96 109.432C19.288 109.432 18.568 109.48 17.8 109.576C17.064 109.672 16.376 109.88 15.736 110.2C15.128 110.488 14.616 110.904 14.2 111.448C13.784 111.96 13.576 112.648 13.576 113.512C13.576 115.112 14.088 116.232 15.112 116.872C16.136 117.48 17.528 117.784 19.288 117.784ZM18.904 95.416C20.696 95.416 22.2 95.656 23.416 96.136C24.664 96.584 25.656 97.24 26.392 98.104C27.16 98.936 27.704 99.944 28.024 101.128C28.344 102.28 28.504 103.56 28.504 104.968V120.568C28.12 120.632 27.576 120.728 26.872 120.856C26.2 120.952 25.432 121.048 24.568 121.144C23.704 121.24 22.76 121.32 21.736 121.384C20.744 121.48 19.752 121.528 18.76 121.528C17.352 121.528 16.056 121.384 14.872 121.096C13.688 120.808 12.664 120.36 11.8 119.752C10.936 119.112 10.264 118.28 9.784 117.256C9.304 116.232 9.064 115 9.064 113.56C9.064 112.184 9.336 111 9.88 110.008C10.456 109.016 11.224 108.216 12.184 107.608C13.144 107 14.264 106.552 15.544 106.264C16.824 105.976 18.168 105.832 19.576 105.832C20.024 105.832 20.488 105.864 20.968 105.928C21.448 105.96 21.896 106.024 22.312 106.12C22.76 106.184 23.144 106.248 23.464 106.312C23.784 106.376 24.008 106.424 24.136 106.456V105.208C24.136 104.472 24.056 103.752 23.896 103.048C23.736 102.312 23.448 101.672 23.032 101.128C22.616 100.552 22.04 100.104 21.304 99.784C20.6 99.432 19.672 99.256 18.52 99.256C17.048 99.256 15.752 99.368 14.632 99.592C13.544 99.784 12.728 99.992 12.184 100.216L11.656 96.52C12.232 96.264 13.192 96.024 14.536 95.8C15.88 95.544 17.336 95.416 18.904 95.416Z" fill="white"/>
<path d="M35.9181 96.76C36.9421 96.504 38.3021 96.232 39.9981 95.944C41.6941 95.656 43.6461 95.512 45.8541 95.512C47.8381 95.512 49.4861 95.8 50.7981 96.376C52.1101 96.92 53.1501 97.704 53.9181 98.728C54.7181 99.72 55.2781 100.92 55.5981 102.328C55.9181 103.736 56.0781 105.288 56.0781 106.984V121H51.6141V107.944C51.6141 106.408 51.5021 105.096 51.2781 104.008C51.0861 102.92 50.7501 102.04 50.2701 101.368C49.7901 100.696 49.1501 100.216 48.3501 99.928C47.5501 99.608 46.5581 99.448 45.3741 99.448C44.8941 99.448 44.3981 99.464 43.8861 99.496C43.3741 99.528 42.8781 99.576 42.3981 99.64C41.9501 99.672 41.5341 99.72 41.1501 99.784C40.7981 99.848 40.5421 99.896 40.3821 99.928V121H35.9181V96.76Z" fill="white"/>
<path d="M33.976 163.328C33.976 165.312 33.688 167.136 33.112 168.8C32.536 170.432 31.704 171.84 30.616 173.024C29.528 174.176 28.216 175.072 26.68 175.712C25.176 176.352 23.48 176.672 21.592 176.672C19.736 176.672 18.04 176.352 16.504 175.712C15 175.072 13.704 174.176 12.616 173.024C11.528 171.84 10.68 170.432 10.072 168.8C9.464 167.136 9.16 165.312 9.16 163.328C9.16 161.344 9.464 159.536 10.072 157.904C10.712 156.272 11.576 154.88 12.664 153.728C13.784 152.576 15.096 151.68 16.6 151.04C18.136 150.4 19.8 150.08 21.592 150.08C23.416 150.08 25.08 150.4 26.584 151.04C28.12 151.68 29.432 152.576 30.52 153.728C31.608 154.88 32.456 156.272 33.064 157.904C33.672 159.536 33.976 161.344 33.976 163.328ZM26.68 163.328C26.68 161.12 26.232 159.392 25.336 158.144C24.472 156.864 23.224 156.224 21.592 156.224C19.96 156.224 18.696 156.864 17.8 158.144C16.904 159.392 16.456 161.12 16.456 163.328C16.456 165.536 16.904 167.296 17.8 168.608C18.696 169.888 19.96 170.528 21.592 170.528C23.224 170.528 24.472 169.888 25.336 168.608C26.232 167.296 26.68 165.536 26.68 163.328Z" fill="white"/>
<path d="M55.6922 163.568C55.6922 161.36 55.1962 159.6 54.2043 158.288C53.2123 156.944 51.7403 156.272 49.7882 156.272C49.1482 156.272 48.5562 156.304 48.0122 156.368C47.4682 156.4 47.0203 156.448 46.6683 156.512V169.424C47.1163 169.712 47.6923 169.952 48.3963 170.144C49.1323 170.336 49.8683 170.432 50.6043 170.432C53.9963 170.432 55.6922 168.144 55.6922 163.568ZM62.9883 163.376C62.9883 165.328 62.7482 167.104 62.2682 168.704C61.7882 170.304 61.0843 171.68 60.1562 172.832C59.2283 173.984 58.0763 174.88 56.7003 175.52C55.3243 176.16 53.7402 176.48 51.9482 176.48C50.9562 176.48 50.0283 176.384 49.1643 176.192C48.3003 176 47.4683 175.728 46.6683 175.376V184.88H39.5163V151.616C40.1563 151.424 40.8923 151.248 41.7243 151.088C42.5563 150.896 43.4202 150.736 44.3162 150.608C45.2443 150.48 46.1723 150.384 47.1003 150.32C48.0603 150.224 48.9722 150.176 49.8363 150.176C51.9163 150.176 53.7723 150.496 55.4043 151.136C57.0363 151.744 58.4122 152.624 59.5322 153.776C60.6522 154.896 61.5003 156.272 62.0763 157.904C62.6843 159.536 62.9883 161.36 62.9883 163.376Z" fill="white"/>
<path d="M67.285 163.568C67.285 161.328 67.621 159.376 68.293 157.712C68.997 156.016 69.909 154.608 71.029 153.488C72.149 152.368 73.429 151.52 74.869 150.944C76.341 150.368 77.845 150.08 79.381 150.08C82.965 150.08 85.797 151.184 87.877 153.392C89.957 155.568 90.997 158.784 90.997 163.04C90.997 163.456 90.981 163.92 90.949 164.432C90.917 164.912 90.885 165.344 90.853 165.728H74.629C74.789 167.2 75.477 168.368 76.693 169.232C77.909 170.096 79.541 170.528 81.589 170.528C82.901 170.528 84.181 170.416 85.429 170.192C86.709 169.936 87.749 169.632 88.549 169.28L89.509 175.088C89.125 175.28 88.613 175.472 87.973 175.664C87.333 175.856 86.613 176.016 85.813 176.144C85.045 176.304 84.213 176.432 83.317 176.528C82.421 176.624 81.525 176.672 80.629 176.672C78.357 176.672 76.373 176.336 74.677 175.664C73.013 174.992 71.621 174.08 70.501 172.928C69.413 171.744 68.597 170.352 68.053 168.752C67.541 167.152 67.285 165.424 67.285 163.568ZM84.085 160.832C84.053 160.224 83.941 159.632 83.749 159.056C83.589 158.48 83.317 157.968 82.933 157.52C82.581 157.072 82.117 156.704 81.541 156.416C80.997 156.128 80.309 155.984 79.477 155.984C78.677 155.984 77.989 156.128 77.413 156.416C76.837 156.672 76.357 157.024 75.973 157.472C75.589 157.92 75.285 158.448 75.061 159.056C74.869 159.632 74.725 160.224 74.629 160.832H84.085Z" fill="white"/>
<path d="M96.5163 151.616C97.7323 151.264 99.3003 150.944 101.22 150.656C103.14 150.336 105.156 150.176 107.268 150.176C109.412 150.176 111.188 150.464 112.596 151.04C114.036 151.584 115.172 152.368 116.004 153.392C116.836 154.416 117.428 155.632 117.78 157.04C118.132 158.448 118.308 160.016 118.308 161.744V176H111.156V162.608C111.156 160.304 110.852 158.672 110.244 157.712C109.636 156.752 108.5 156.272 106.836 156.272C106.324 156.272 105.78 156.304 105.204 156.368C104.628 156.4 104.116 156.448 103.668 156.512V176H96.5163V151.616Z" fill="white"/>
<path d="M17.608 225.864C18.92 225.864 19.848 225.736 20.392 225.48C20.936 225.224 21.208 224.728 21.208 223.992C21.208 223.416 20.856 222.92 20.152 222.504C19.448 222.056 18.376 221.56 16.936 221.016C15.816 220.6 14.792 220.168 13.864 219.72C12.968 219.272 12.2 218.744 11.56 218.136C10.92 217.496 10.424 216.744 10.072 215.88C9.72 215.016 9.544 213.976 9.544 212.76C9.544 210.392 10.424 208.52 12.184 207.144C13.944 205.768 16.36 205.08 19.432 205.08C20.968 205.08 22.44 205.224 23.848 205.512C25.256 205.768 26.376 206.056 27.208 206.376L25.96 211.944C25.128 211.656 24.216 211.4 23.224 211.176C22.264 210.952 21.176 210.84 19.96 210.84C17.72 210.84 16.6 211.464 16.6 212.712C16.6 213 16.648 213.256 16.744 213.48C16.84 213.704 17.032 213.928 17.32 214.152C17.608 214.344 17.992 214.568 18.472 214.824C18.984 215.048 19.624 215.304 20.392 215.592C21.96 216.168 23.256 216.744 24.28 217.32C25.304 217.864 26.104 218.472 26.68 219.144C27.288 219.784 27.704 220.504 27.928 221.304C28.184 222.104 28.312 223.032 28.312 224.088C28.312 226.584 27.368 228.472 25.48 229.752C23.624 231.032 20.984 231.672 17.56 231.672C15.32 231.672 13.448 231.48 11.944 231.096C10.472 230.712 9.448 230.392 8.872 230.136L10.072 224.328C11.288 224.808 12.536 225.192 13.816 225.48C15.096 225.736 16.36 225.864 17.608 225.864Z" fill="white"/>
<path d="M57.2729 218.328C57.2729 220.312 56.9849 222.136 56.4089 223.8C55.8329 225.432 55.0009 226.84 53.9129 228.024C52.8249 229.176 51.5129 230.072 49.9769 230.712C48.4729 231.352 46.7769 231.672 44.8889 231.672C43.0329 231.672 41.3369 231.352 39.8009 230.712C38.2969 230.072 37.0009 229.176 35.9129 228.024C34.8249 226.84 33.9769 225.432 33.3689 223.8C32.7609 222.136 32.4569 220.312 32.4569 218.328C32.4569 216.344 32.7609 214.536 33.3689 212.904C34.0089 211.272 34.8729 209.88 35.9609 208.728C37.0809 207.576 38.3929 206.68 39.8969 206.04C41.4329 205.4 43.0969 205.08 44.8889 205.08C46.7129 205.08 48.3769 205.4 49.8809 206.04C51.4169 206.68 52.7289 207.576 53.8169 208.728C54.9049 209.88 55.7529 211.272 56.3609 212.904C56.9689 214.536 57.2729 216.344 57.2729 218.328ZM49.9769 218.328C49.9769 216.12 49.5289 214.392 48.6329 213.144C47.7689 211.864 46.5209 211.224 44.8889 211.224C43.2569 211.224 41.9929 211.864 41.0969 213.144C40.2009 214.392 39.7529 216.12 39.7529 218.328C39.7529 220.536 40.2009 222.296 41.0969 223.608C41.9929 224.888 43.2569 225.528 44.8889 225.528C46.5209 225.528 47.7689 224.888 48.6329 223.608C49.5289 222.296 49.9769 220.536 49.9769 218.328Z" fill="white"/>
<path d="M84.3651 230.136C83.1491 230.488 81.5811 230.808 79.6611 231.096C77.7411 231.416 75.7251 231.576 73.6131 231.576C71.4691 231.576 69.6771 231.288 68.2371 230.712C66.8291 230.136 65.7091 229.336 64.8771 228.312C64.0451 227.256 63.4531 226.008 63.1011 224.568C62.7491 223.128 62.5731 221.544 62.5731 219.816V205.752H69.7251V218.952C69.7251 221.256 70.0291 222.92 70.6371 223.944C71.2451 224.968 72.3811 225.48 74.0451 225.48C74.5571 225.48 75.1011 225.464 75.6771 225.432C76.2531 225.368 76.7651 225.304 77.2131 225.24V205.752H84.3651V230.136Z" fill="white"/>
<path d="M106.295 212.088C105.655 211.928 104.903 211.768 104.039 211.608C103.175 211.416 102.247 211.32 101.255 211.32C100.807 211.32 100.263 211.368 99.6227 211.464C99.0147 211.528 98.5508 211.608 98.2308 211.704V231H91.0788V207.096C92.3588 206.648 93.8628 206.232 95.5908 205.848C97.3508 205.432 99.3027 205.224 101.447 205.224C101.831 205.224 102.295 205.256 102.839 205.32C103.383 205.352 103.927 205.416 104.471 205.512C105.015 205.576 105.559 205.672 106.103 205.8C106.647 205.896 107.111 206.024 107.495 206.184L106.295 212.088Z" fill="white"/>
<path d="M109.66 218.376C109.66 216.552 109.948 214.84 110.524 213.24C111.132 211.608 111.996 210.2 113.116 209.016C114.236 207.8 115.596 206.84 117.196 206.136C118.796 205.432 120.62 205.08 122.668 205.08C124.012 205.08 125.244 205.208 126.364 205.464C127.484 205.688 128.572 206.024 129.628 206.472L128.14 212.184C127.468 211.928 126.732 211.704 125.932 211.512C125.132 211.32 124.236 211.224 123.244 211.224C121.132 211.224 119.548 211.88 118.492 213.192C117.468 214.504 116.956 216.232 116.956 218.376C116.956 220.648 117.436 222.408 118.396 223.656C119.388 224.904 121.1 225.528 123.532 225.528C124.396 225.528 125.324 225.448 126.316 225.288C127.308 225.128 128.22 224.872 129.052 224.52L130.06 230.376C129.228 230.728 128.188 231.032 126.94 231.288C125.692 231.544 124.316 231.672 122.812 231.672C120.508 231.672 118.524 231.336 116.86 230.664C115.196 229.96 113.82 229.016 112.732 227.832C111.676 226.648 110.892 225.256 110.38 223.656C109.9 222.024 109.66 220.264 109.66 218.376Z" fill="white"/>
<path d="M132.441 218.568C132.441 216.328 132.777 214.376 133.449 212.712C134.153 211.016 135.065 209.608 136.185 208.488C137.305 207.368 138.585 206.52 140.025 205.944C141.497 205.368 143.001 205.08 144.537 205.08C148.121 205.08 150.953 206.184 153.033 208.392C155.113 210.568 156.153 213.784 156.153 218.04C156.153 218.456 156.137 218.92 156.105 219.432C156.073 219.912 156.041 220.344 156.009 220.728H139.785C139.945 222.2 140.633 223.368 141.849 224.232C143.065 225.096 144.697 225.528 146.745 225.528C148.057 225.528 149.337 225.416 150.585 225.192C151.865 224.936 152.905 224.632 153.705 224.28L154.665 230.088C154.281 230.28 153.769 230.472 153.129 230.664C152.489 230.856 151.769 231.016 150.969 231.144C150.201 231.304 149.369 231.432 148.473 231.528C147.577 231.624 146.681 231.672 145.785 231.672C143.513 231.672 141.529 231.336 139.833 230.664C138.169 229.992 136.777 229.08 135.657 227.928C134.569 226.744 133.753 225.352 133.209 223.752C132.697 222.152 132.441 220.424 132.441 218.568ZM149.241 215.832C149.209 215.224 149.097 214.632 148.905 214.056C148.745 213.48 148.473 212.968 148.089 212.52C147.737 212.072 147.273 211.704 146.697 211.416C146.153 211.128 145.465 210.984 144.633 210.984C143.833 210.984 143.145 211.128 142.569 211.416C141.993 211.672 141.513 212.024 141.129 212.472C140.745 212.92 140.441 213.448 140.217 214.056C140.025 214.632 139.881 215.224 139.785 215.832H149.241Z" fill="white"/>
<path d="M18.328 286.48C15.576 286.416 13.624 285.824 12.472 284.704C11.32 283.584 10.744 281.84 10.744 279.472V249.52L15.208 248.752V278.752C15.208 279.488 15.272 280.096 15.4 280.576C15.528 281.056 15.736 281.44 16.024 281.728C16.312 282.016 16.696 282.24 17.176 282.4C17.656 282.528 18.248 282.64 18.952 282.736L18.328 286.48Z" fill="white"/>
<path d="M45.997 273.52C45.997 275.504 45.709 277.296 45.133 278.896C44.557 280.496 43.741 281.872 42.685 283.024C41.661 284.176 40.429 285.072 38.989 285.712C37.549 286.32 35.981 286.624 34.285 286.624C32.589 286.624 31.021 286.32 29.581 285.712C28.141 285.072 26.893 284.176 25.837 283.024C24.813 281.872 24.013 280.496 23.437 278.896C22.861 277.296 22.573 275.504 22.573 273.52C22.573 271.568 22.861 269.792 23.437 268.192C24.013 266.56 24.813 265.168 25.837 264.016C26.893 262.864 28.141 261.984 29.581 261.376C31.021 260.736 32.589 260.416 34.285 260.416C35.981 260.416 37.549 260.736 38.989 261.376C40.429 261.984 41.661 262.864 42.685 264.016C43.741 265.168 44.557 266.56 45.133 268.192C45.709 269.792 45.997 271.568 45.997 273.52ZM41.341 273.52C41.341 270.704 40.701 268.48 39.421 266.848C38.173 265.184 36.461 264.352 34.285 264.352C32.109 264.352 30.381 265.184 29.101 266.848C27.853 268.48 27.229 270.704 27.229 273.52C27.229 276.336 27.853 278.576 29.101 280.24C30.381 281.872 32.109 282.688 34.285 282.688C36.461 282.688 38.173 281.872 39.421 280.24C40.701 278.576 41.341 276.336 41.341 273.52Z" fill="white"/>
<path d="M71.1093 261.04C69.8613 265.712 68.3893 270.192 66.6933 274.48C65.0293 278.768 63.4132 282.608 61.8452 286H57.8133C56.2453 282.608 54.6133 278.768 52.9173 274.48C51.2533 270.192 49.7973 265.712 48.5493 261.04H53.3493C53.7333 262.608 54.1812 264.288 54.6932 266.08C55.2372 267.84 55.7972 269.6 56.3732 271.36C56.9812 273.088 57.5893 274.768 58.1973 276.4C58.8053 278.032 59.3813 279.488 59.9253 280.768C60.4693 279.488 61.0453 278.032 61.6533 276.4C62.2613 274.768 62.8532 273.088 63.4292 271.36C64.0372 269.6 64.5973 267.84 65.1093 266.08C65.6533 264.288 66.1173 262.608 66.5013 261.04H71.1093Z" fill="white"/>
<path d="M73.6667 273.568C73.6667 271.36 73.9867 269.44 74.6267 267.808C75.2667 266.144 76.1148 264.768 77.1708 263.68C78.2268 262.592 79.4427 261.776 80.8187 261.232C82.1947 260.688 83.6027 260.416 85.0427 260.416C88.4027 260.416 90.9788 261.472 92.7708 263.584C94.5628 265.664 95.4587 268.848 95.4587 273.136C95.4587 273.328 95.4587 273.584 95.4587 273.904C95.4587 274.192 95.4428 274.464 95.4108 274.72H78.3228C78.5148 277.312 79.2668 279.28 80.5788 280.624C81.8908 281.968 83.9387 282.64 86.7227 282.64C88.2907 282.64 89.6028 282.512 90.6588 282.256C91.7468 281.968 92.5627 281.696 93.1068 281.44L93.7308 285.184C93.1868 285.472 92.2268 285.776 90.8508 286.096C89.5068 286.416 87.9708 286.576 86.2428 286.576C84.0668 286.576 82.1788 286.256 80.5788 285.616C79.0108 284.944 77.7148 284.032 76.6908 282.88C75.6667 281.728 74.8987 280.368 74.3867 278.8C73.9067 277.2 73.6667 275.456 73.6667 273.568ZM90.8027 271.12C90.8347 269.104 90.3228 267.456 89.2668 266.176C88.2428 264.864 86.8188 264.208 84.9948 264.208C83.9708 264.208 83.0588 264.416 82.2588 264.832C81.4908 265.216 80.8347 265.728 80.2907 266.368C79.7467 267.008 79.3148 267.744 78.9948 268.576C78.7068 269.408 78.5147 270.256 78.4187 271.12H90.8027Z" fill="white"/>
<path d="M111.087 260.512C111.471 260.512 111.903 260.544 112.383 260.608C112.895 260.64 113.391 260.704 113.871 260.8C114.351 260.864 114.783 260.944 115.167 261.04C115.583 261.104 115.887 261.168 116.079 261.232L115.311 265.12C114.959 264.992 114.367 264.848 113.535 264.688C112.735 264.496 111.695 264.4 110.415 264.4C109.583 264.4 108.751 264.496 107.919 264.688C107.119 264.848 106.591 264.96 106.335 265.024V286H101.871V262.096C102.927 261.712 104.239 261.36 105.807 261.04C107.375 260.688 109.135 260.512 111.087 260.512Z" fill="white"/>
</svg>
