<svg width="447" height="200" viewBox="0 0 447 200" fill="none" xmlns="http://www.w3.org/2000/svg">
<rect width="447" height="200" rx="30" fill="#32DF62"/>
<rect width="447" height="200" rx="30" fill="#32DF62"/>
<path d="M28.4013 37.635C28.9113 37.305 29.6763 36.96 30.6963 36.6C31.7463 36.24 32.9463 36.06 34.2963 36.06C35.9763 36.06 37.4613 36.36 38.7513 36.96C40.0713 37.56 41.1813 38.4 42.0813 39.48C42.9813 40.56 43.6563 41.85 44.1063 43.35C44.5863 44.85 44.8263 46.5 44.8263 48.3C44.8263 50.19 44.5413 51.9 43.9713 53.43C43.4313 54.93 42.6513 56.205 41.6313 57.255C40.6113 58.305 39.3813 59.115 37.9413 59.685C36.5013 60.255 34.8813 60.54 33.0813 60.54C31.1313 60.54 29.4063 60.405 27.9063 60.135C26.4063 59.865 25.1763 59.595 24.2163 59.325V25.8L28.4013 25.08V37.635ZM28.4013 56.355C28.8213 56.475 29.4063 56.595 30.1563 56.715C30.9363 56.805 31.8963 56.85 33.0363 56.85C35.2863 56.85 37.0863 56.115 38.4363 54.645C39.7863 53.145 40.4613 51.03 40.4613 48.3C40.4613 47.1 40.3413 45.975 40.1013 44.925C39.8613 43.875 39.4713 42.975 38.9313 42.225C38.3913 41.445 37.6863 40.845 36.8163 40.425C35.9763 39.975 34.9563 39.75 33.7563 39.75C32.6163 39.75 31.5663 39.945 30.6063 40.335C29.6463 40.725 28.9113 41.13 28.4013 41.55V56.355ZM49.4104 48.345C49.4104 46.275 49.7104 44.475 50.3104 42.945C50.9104 41.385 51.7054 40.095 52.6954 39.075C53.6854 38.055 54.8254 37.29 56.1154 36.78C57.4054 36.27 58.7254 36.015 60.0754 36.015C63.2254 36.015 65.6404 37.005 67.3204 38.985C69.0004 40.935 69.8404 43.92 69.8404 47.94C69.8404 48.12 69.8404 48.36 69.8404 48.66C69.8404 48.93 69.8254 49.185 69.7954 49.425H53.7754C53.9554 51.855 54.6604 53.7 55.8904 54.96C57.1204 56.22 59.0404 56.85 61.6504 56.85C63.1204 56.85 64.3504 56.73 65.3404 56.49C66.3604 56.22 67.1254 55.965 67.6354 55.725L68.2204 59.235C67.7104 59.505 66.8104 59.79 65.5204 60.09C64.2604 60.39 62.8204 60.54 61.2004 60.54C59.1604 60.54 57.3904 60.24 55.8904 59.64C54.4204 59.01 53.2054 58.155 52.2454 57.075C51.2854 55.995 50.5654 54.72 50.0854 53.25C49.6354 51.75 49.4104 50.115 49.4104 48.345ZM65.4754 46.05C65.5054 44.16 65.0254 42.615 64.0354 41.415C63.0754 40.185 61.7404 39.57 60.0304 39.57C59.0704 39.57 58.2154 39.765 57.4654 40.155C56.7454 40.515 56.1304 40.995 55.6204 41.595C55.1104 42.195 54.7054 42.885 54.4054 43.665C54.1354 44.445 53.9554 45.24 53.8654 46.05H65.4754ZM90.5221 57.66C90.1621 57.9 89.4571 58.215 88.4071 58.605C87.3871 58.965 86.1871 59.145 84.8071 59.145C83.3971 59.145 82.0621 58.92 80.8021 58.47C79.5721 58.02 78.4921 57.33 77.5621 56.4C76.6321 55.44 75.8971 54.255 75.3571 52.845C74.8171 51.435 74.5471 49.755 74.5471 47.805C74.5471 46.095 74.8021 44.535 75.3121 43.125C75.8221 41.685 76.5571 40.455 77.5171 39.435C78.5071 38.385 79.7071 37.575 81.1171 37.005C82.5271 36.405 84.1171 36.105 85.8871 36.105C87.8371 36.105 89.5321 36.255 90.9721 36.555C92.4421 36.825 93.6721 37.08 94.6621 37.32V58.2C94.6621 61.8 93.7321 64.41 91.8721 66.03C90.0121 67.65 87.1921 68.46 83.4121 68.46C81.9421 68.46 80.5471 68.34 79.2271 68.1C77.9371 67.86 76.8121 67.575 75.8521 67.245L76.6171 63.6C77.4571 63.93 78.4771 64.215 79.6771 64.455C80.9071 64.725 82.1821 64.86 83.5021 64.86C85.9921 64.86 87.7771 64.365 88.8571 63.375C89.9671 62.385 90.5221 60.81 90.5221 58.65V57.66ZM90.4771 40.29C90.0571 40.17 89.4871 40.065 88.7671 39.975C88.0771 39.855 87.1321 39.795 85.9321 39.795C83.6821 39.795 81.9421 40.53 80.7121 42C79.5121 43.47 78.9121 45.42 78.9121 47.85C78.9121 49.2 79.0771 50.355 79.4071 51.315C79.7671 52.275 80.2321 53.07 80.8021 53.7C81.4021 54.33 82.0771 54.795 82.8271 55.095C83.6071 55.395 84.4021 55.545 85.2121 55.545C86.3221 55.545 87.3421 55.395 88.2721 55.095C89.2021 54.765 89.9371 54.39 90.4771 53.97V40.29ZM106.053 60H101.868V36.6H106.053V60ZM103.938 32.37C103.188 32.37 102.543 32.13 102.003 31.65C101.493 31.14 101.238 30.465 101.238 29.625C101.238 28.785 101.493 28.125 102.003 27.645C102.543 27.135 103.188 26.88 103.938 26.88C104.688 26.88 105.318 27.135 105.828 27.645C106.368 28.125 106.638 28.785 106.638 29.625C106.638 30.465 106.368 31.14 105.828 31.65C105.318 32.13 104.688 32.37 103.938 32.37ZM113.25 37.275C114.21 37.035 115.485 36.78 117.075 36.51C118.665 36.24 120.495 36.105 122.565 36.105C124.425 36.105 125.97 36.375 127.2 36.915C128.43 37.425 129.405 38.16 130.125 39.12C130.875 40.05 131.4 41.175 131.7 42.495C132 43.815 132.15 45.27 132.15 46.86V60H127.965V47.76C127.965 46.32 127.86 45.09 127.65 44.07C127.47 43.05 127.155 42.225 126.705 41.595C126.255 40.965 125.655 40.515 124.905 40.245C124.155 39.945 123.225 39.795 122.115 39.795C121.665 39.795 121.2 39.81 120.72 39.84C120.24 39.87 119.775 39.915 119.325 39.975C118.905 40.005 118.515 40.05 118.155 40.11C117.825 40.17 117.585 40.215 117.435 40.245V60H113.25V37.275ZM139.089 37.275C140.049 37.035 141.324 36.78 142.914 36.51C144.504 36.24 146.334 36.105 148.404 36.105C150.264 36.105 151.809 36.375 153.039 36.915C154.269 37.425 155.244 38.16 155.964 39.12C156.714 40.05 157.239 41.175 157.539 42.495C157.839 43.815 157.989 45.27 157.989 46.86V60H153.804V47.76C153.804 46.32 153.699 45.09 153.489 44.07C153.309 43.05 152.994 42.225 152.544 41.595C152.094 40.965 151.494 40.515 150.744 40.245C149.994 39.945 149.064 39.795 147.954 39.795C147.504 39.795 147.039 39.81 146.559 39.84C146.079 39.87 145.614 39.915 145.164 39.975C144.744 40.005 144.354 40.05 143.994 40.11C143.664 40.17 143.424 40.215 143.274 40.245V60H139.089V37.275ZM163.624 48.345C163.624 46.275 163.924 44.475 164.524 42.945C165.124 41.385 165.919 40.095 166.909 39.075C167.899 38.055 169.039 37.29 170.329 36.78C171.619 36.27 172.939 36.015 174.289 36.015C177.439 36.015 179.854 37.005 181.534 38.985C183.214 40.935 184.054 43.92 184.054 47.94C184.054 48.12 184.054 48.36 184.054 48.66C184.054 48.93 184.039 49.185 184.009 49.425H167.989C168.169 51.855 168.874 53.7 170.104 54.96C171.334 56.22 173.254 56.85 175.864 56.85C177.334 56.85 178.564 56.73 179.554 56.49C180.574 56.22 181.339 55.965 181.849 55.725L182.434 59.235C181.924 59.505 181.024 59.79 179.734 60.09C178.474 60.39 177.034 60.54 175.414 60.54C173.374 60.54 171.604 60.24 170.104 59.64C168.634 59.01 167.419 58.155 166.459 57.075C165.499 55.995 164.779 54.72 164.299 53.25C163.849 51.75 163.624 50.115 163.624 48.345ZM179.689 46.05C179.719 44.16 179.239 42.615 178.249 41.415C177.289 40.185 175.954 39.57 174.244 39.57C173.284 39.57 172.429 39.765 171.679 40.155C170.959 40.515 170.344 40.995 169.834 41.595C169.324 42.195 168.919 42.885 168.619 43.665C168.349 44.445 168.169 45.24 168.079 46.05H179.689ZM198.706 36.105C199.066 36.105 199.471 36.135 199.921 36.195C200.401 36.225 200.866 36.285 201.316 36.375C201.766 36.435 202.171 36.51 202.531 36.6C202.921 36.66 203.206 36.72 203.386 36.78L202.666 40.425C202.336 40.305 201.781 40.17 201.001 40.02C200.251 39.84 199.276 39.75 198.076 39.75C197.296 39.75 196.516 39.84 195.736 40.02C194.986 40.17 194.491 40.275 194.251 40.335V60H190.066V37.59C191.056 37.23 192.286 36.9 193.756 36.6C195.226 36.27 196.876 36.105 198.706 36.105ZM35.0163 81.95C40.183 81.95 44.1497 82.8667 46.9163 84.7C49.683 86.5 51.0663 89.4667 51.0663 93.6C51.0663 97.7667 49.6663 100.783 46.8663 102.65C44.0663 104.483 40.0663 105.4 34.8663 105.4H32.4163V117H24.6163V82.85C26.3163 82.5167 28.1163 82.2833 30.0163 82.15C31.9163 82.0167 33.583 81.95 35.0163 81.95ZM35.5163 88.6C34.9497 88.6 34.383 88.6167 33.8163 88.65C33.283 88.6833 32.8163 88.7167 32.4163 88.75V98.75H34.8663C37.5663 98.75 39.5997 98.3833 40.9663 97.65C42.333 96.9167 43.0163 95.55 43.0163 93.55C43.0163 92.5833 42.833 91.7833 42.4663 91.15C42.133 90.5167 41.633 90.0167 40.9663 89.65C40.333 89.25 39.5497 88.9833 38.6163 88.85C37.683 88.6833 36.6497 88.6 35.5163 88.6ZM80.6206 90.7C79.1206 95.7667 77.554 100.517 75.9206 104.95C74.2873 109.383 72.504 113.683 70.5706 117.85C69.8706 119.35 69.1706 120.617 68.4706 121.65C67.7706 122.717 67.004 123.583 66.1706 124.25C65.3373 124.95 64.3873 125.45 63.3206 125.75C62.2873 126.083 61.0706 126.25 59.6706 126.25C58.504 126.25 57.4206 126.133 56.4206 125.9C55.454 125.7 54.654 125.467 54.0206 125.2L55.3206 119.25C56.0873 119.517 56.7706 119.7 57.3706 119.8C57.9706 119.9 58.604 119.95 59.2706 119.95C60.604 119.95 61.6206 119.583 62.3206 118.85C63.054 118.15 63.6706 117.167 64.1706 115.9C62.4706 112.567 60.7706 108.833 59.0706 104.7C57.3706 100.533 55.7706 95.8667 54.2706 90.7H62.1706C62.504 92 62.8873 93.4167 63.3206 94.95C63.7873 96.45 64.2706 97.9833 64.7706 99.55C65.2706 101.083 65.7706 102.583 66.2706 104.05C66.804 105.517 67.304 106.85 67.7706 108.05C68.204 106.85 68.654 105.517 69.1206 104.05C69.5873 102.583 70.0373 101.083 70.4706 99.55C70.9373 97.9833 71.3706 96.45 71.7706 94.95C72.204 93.4167 72.5873 92 72.9206 90.7H80.6206ZM84.3644 84.15L91.8144 82.95V90.7H100.764V96.9H91.8144V106.15C91.8144 107.717 92.081 108.967 92.6144 109.9C93.181 110.833 94.2977 111.3 95.9644 111.3C96.7644 111.3 97.581 111.233 98.4144 111.1C99.281 110.933 100.064 110.717 100.764 110.45L101.814 116.25C100.914 116.617 99.9144 116.933 98.8144 117.2C97.7144 117.467 96.3644 117.6 94.7644 117.6C92.731 117.6 91.0477 117.333 89.7144 116.8C88.381 116.233 87.3144 115.467 86.5144 114.5C85.7144 113.5 85.1477 112.3 84.8144 110.9C84.5144 109.5 84.3644 107.95 84.3644 106.25V84.15ZM106.831 117V79.4L114.281 78.2V90.8C114.781 90.6333 115.415 90.4833 116.181 90.35C116.981 90.1833 117.748 90.1 118.481 90.1C120.615 90.1 122.381 90.4 123.781 91C125.215 91.5667 126.348 92.3833 127.181 93.45C128.048 94.5167 128.648 95.7833 128.981 97.25C129.348 98.7167 129.531 100.35 129.531 102.15V117H122.081V103.05C122.081 100.65 121.765 98.95 121.131 97.95C120.531 96.95 119.398 96.45 117.731 96.45C117.065 96.45 116.431 96.5167 115.831 96.65C115.265 96.75 114.748 96.8667 114.281 97V117H106.831ZM160.875 103.8C160.875 105.867 160.575 107.767 159.975 109.5C159.375 111.2 158.508 112.667 157.375 113.9C156.241 115.1 154.875 116.033 153.275 116.7C151.708 117.367 149.941 117.7 147.975 117.7C146.041 117.7 144.275 117.367 142.675 116.7C141.108 116.033 139.758 115.1 138.625 113.9C137.491 112.667 136.608 111.2 135.975 109.5C135.341 107.767 135.025 105.867 135.025 103.8C135.025 101.733 135.341 99.85 135.975 98.15C136.641 96.45 137.541 95 138.675 93.8C139.841 92.6 141.208 91.6667 142.775 91C144.375 90.3333 146.108 90 147.975 90C149.875 90 151.608 90.3333 153.175 91C154.775 91.6667 156.141 92.6 157.275 93.8C158.408 95 159.291 96.45 159.925 98.15C160.558 99.85 160.875 101.733 160.875 103.8ZM153.275 103.8C153.275 101.5 152.808 99.7 151.875 98.4C150.975 97.0667 149.675 96.4 147.975 96.4C146.275 96.4 144.958 97.0667 144.025 98.4C143.091 99.7 142.625 101.5 142.625 103.8C142.625 106.1 143.091 107.933 144.025 109.3C144.958 110.633 146.275 111.3 147.975 111.3C149.675 111.3 150.975 110.633 151.875 109.3C152.808 107.933 153.275 106.1 153.275 103.8ZM166.646 91.6C167.912 91.2333 169.546 90.9 171.546 90.6C173.546 90.2667 175.646 90.1 177.846 90.1C180.079 90.1 181.929 90.4 183.396 91C184.896 91.5667 186.079 92.3833 186.946 93.45C187.812 94.5167 188.429 95.7833 188.796 97.25C189.162 98.7167 189.346 100.35 189.346 102.15V117H181.896V103.05C181.896 100.65 181.579 98.95 180.946 97.95C180.312 96.95 179.129 96.45 177.396 96.45C176.862 96.45 176.296 96.4833 175.696 96.55C175.096 96.5833 174.562 96.6333 174.096 96.7V117H166.646V91.6ZM29.6613 165.985C31.3713 165.985 32.6313 165.76 33.4413 165.31C34.2813 164.86 34.7013 164.14 34.7013 163.15C34.7013 162.13 34.2963 161.32 33.4863 160.72C32.6763 160.12 31.3413 159.445 29.4813 158.695C28.5813 158.335 27.7113 157.975 26.8713 157.615C26.0613 157.225 25.3563 156.775 24.7563 156.265C24.1563 155.755 23.6763 155.14 23.3163 154.42C22.9563 153.7 22.7763 152.815 22.7763 151.765C22.7763 149.695 23.5413 148.06 25.0713 146.86C26.6013 145.63 28.6863 145.015 31.3263 145.015C31.9863 145.015 32.6463 145.06 33.3063 145.15C33.9663 145.21 34.5813 145.3 35.1513 145.42C35.7213 145.51 36.2163 145.615 36.6363 145.735C37.0863 145.855 37.4313 145.96 37.6713 146.05L36.9063 149.65C36.4563 149.41 35.7513 149.17 34.7913 148.93C33.8313 148.66 32.6763 148.525 31.3263 148.525C30.1563 148.525 29.1363 148.765 28.2663 149.245C27.3963 149.695 26.9613 150.415 26.9613 151.405C26.9613 151.915 27.0513 152.365 27.2313 152.755C27.4413 153.145 27.7413 153.505 28.1313 153.835C28.5513 154.135 29.0613 154.42 29.6613 154.69C30.2613 154.96 30.9813 155.245 31.8213 155.545C32.9313 155.965 33.9213 156.385 34.7913 156.805C35.6613 157.195 36.3963 157.66 36.9963 158.2C37.6263 158.74 38.1063 159.4 38.4363 160.18C38.7663 160.93 38.9313 161.86 38.9313 162.97C38.9313 165.13 38.1213 166.765 36.5013 167.875C34.9113 168.985 32.6313 169.54 29.6613 169.54C27.5913 169.54 25.9713 169.36 24.8013 169C23.6313 168.67 22.8363 168.415 22.4163 168.235L23.1813 164.635C23.6613 164.815 24.4263 165.085 25.4763 165.445C26.5263 165.805 27.9213 165.985 29.6613 165.985ZM64.9543 157.3C64.9543 159.16 64.6843 160.84 64.1443 162.34C63.6043 163.84 62.8393 165.13 61.8493 166.21C60.8893 167.29 59.7343 168.13 58.3843 168.73C57.0343 169.3 55.5643 169.585 53.9743 169.585C52.3843 169.585 50.9143 169.3 49.5643 168.73C48.2143 168.13 47.0443 167.29 46.0543 166.21C45.0943 165.13 44.3443 163.84 43.8043 162.34C43.2643 160.84 42.9943 159.16 42.9943 157.3C42.9943 155.47 43.2643 153.805 43.8043 152.305C44.3443 150.775 45.0943 149.47 46.0543 148.39C47.0443 147.31 48.2143 146.485 49.5643 145.915C50.9143 145.315 52.3843 145.015 53.9743 145.015C55.5643 145.015 57.0343 145.315 58.3843 145.915C59.7343 146.485 60.8893 147.31 61.8493 148.39C62.8393 149.47 63.6043 150.775 64.1443 152.305C64.6843 153.805 64.9543 155.47 64.9543 157.3ZM60.5893 157.3C60.5893 154.66 59.9893 152.575 58.7893 151.045C57.6193 149.485 56.0143 148.705 53.9743 148.705C51.9343 148.705 50.3143 149.485 49.1143 151.045C47.9443 152.575 47.3593 154.66 47.3593 157.3C47.3593 159.94 47.9443 162.04 49.1143 163.6C50.3143 165.13 51.9343 165.895 53.9743 165.895C56.0143 165.895 57.6193 165.13 58.7893 163.6C59.9893 162.04 60.5893 159.94 60.5893 157.3ZM79.9773 134.08C81.2073 134.08 82.2573 134.17 83.1273 134.35C84.0273 134.53 84.6573 134.695 85.0173 134.845L84.2523 138.445C83.8923 138.265 83.3823 138.1 82.7223 137.95C82.0623 137.77 81.2523 137.68 80.2923 137.68C78.3423 137.68 76.9773 138.22 76.1973 139.3C75.4173 140.35 75.0273 141.775 75.0273 143.575V145.6H84.0273V149.11H75.0273V169H70.8423V143.485C70.8423 140.485 71.5773 138.175 73.0473 136.555C74.5173 134.905 76.8273 134.08 79.9773 134.08ZM92.1157 145.6H100.981V149.11H92.1157V159.91C92.1157 161.08 92.2057 162.055 92.3857 162.835C92.5657 163.585 92.8357 164.185 93.1957 164.635C93.5557 165.055 94.0057 165.355 94.5457 165.535C95.0857 165.715 95.7157 165.805 96.4357 165.805C97.6957 165.805 98.7007 165.67 99.4507 165.4C100.231 165.1 100.771 164.89 101.071 164.77L101.881 168.235C101.461 168.445 100.726 168.7 99.6757 169C98.6257 169.33 97.4257 169.495 96.0757 169.495C94.4857 169.495 93.1657 169.3 92.1157 168.91C91.0957 168.49 90.2707 167.875 89.6407 167.065C89.0107 166.255 88.5607 165.265 88.2907 164.095C88.0507 162.895 87.9307 161.515 87.9307 159.955V139.075L92.1157 138.355V145.6ZM125.431 169C124.591 166.84 123.691 164.38 122.731 161.62C121.801 158.83 120.946 155.935 120.166 152.935C119.386 155.935 118.531 158.83 117.601 161.62C116.671 164.38 115.786 166.84 114.946 169H111.301C109.921 165.91 108.571 162.385 107.251 158.425C105.931 154.465 104.686 150.19 103.516 145.6H108.016C108.316 147.01 108.676 148.54 109.096 150.19C109.516 151.84 109.951 153.49 110.401 155.14C110.881 156.79 111.376 158.38 111.886 159.91C112.396 161.44 112.876 162.775 113.326 163.915C113.836 162.505 114.331 161.02 114.811 159.46C115.321 157.87 115.801 156.28 116.251 154.69C116.701 153.07 117.121 151.495 117.511 149.965C117.931 148.405 118.291 146.95 118.591 145.6H122.056C122.326 146.95 122.656 148.405 123.046 149.965C123.436 151.495 123.856 153.07 124.306 154.69C124.756 156.28 125.221 157.87 125.701 159.46C126.211 161.02 126.721 162.505 127.231 163.915C127.681 162.775 128.146 161.44 128.626 159.91C129.136 158.38 129.631 156.79 130.111 155.14C130.591 153.49 131.041 151.84 131.461 150.19C131.881 148.54 132.241 147.01 132.541 145.6H136.861C135.691 150.19 134.446 154.465 133.126 158.425C131.806 162.385 130.456 165.91 129.076 169H125.431ZM149.207 165.985C150.197 165.985 151.067 165.97 151.817 165.94C152.597 165.88 153.242 165.79 153.752 165.67V158.695C153.452 158.545 152.957 158.425 152.267 158.335C151.607 158.215 150.797 158.155 149.837 158.155C149.207 158.155 148.532 158.2 147.812 158.29C147.122 158.38 146.477 158.575 145.877 158.875C145.307 159.145 144.827 159.535 144.437 160.045C144.047 160.525 143.852 161.17 143.852 161.98C143.852 163.48 144.332 164.53 145.292 165.13C146.252 165.7 147.557 165.985 149.207 165.985ZM148.847 145.015C150.527 145.015 151.937 145.24 153.077 145.69C154.247 146.11 155.177 146.725 155.867 147.535C156.587 148.315 157.097 149.26 157.397 150.37C157.697 151.45 157.847 152.65 157.847 153.97V168.595C157.487 168.655 156.977 168.745 156.317 168.865C155.687 168.955 154.967 169.045 154.157 169.135C153.347 169.225 152.462 169.3 151.502 169.36C150.572 169.45 149.642 169.495 148.712 169.495C147.392 169.495 146.177 169.36 145.067 169.09C143.957 168.82 142.997 168.4 142.187 167.83C141.377 167.23 140.747 166.45 140.297 165.49C139.847 164.53 139.622 163.375 139.622 162.025C139.622 160.735 139.877 159.625 140.387 158.695C140.927 157.765 141.647 157.015 142.547 156.445C143.447 155.875 144.497 155.455 145.697 155.185C146.897 154.915 148.157 154.78 149.477 154.78C149.897 154.78 150.332 154.81 150.782 154.87C151.232 154.9 151.652 154.96 152.042 155.05C152.462 155.11 152.822 155.17 153.122 155.23C153.422 155.29 153.632 155.335 153.752 155.365V154.195C153.752 153.505 153.677 152.83 153.527 152.17C153.377 151.48 153.107 150.88 152.717 150.37C152.327 149.83 151.787 149.41 151.097 149.11C150.437 148.78 149.567 148.615 148.487 148.615C147.107 148.615 145.892 148.72 144.842 148.93C143.822 149.11 143.057 149.305 142.547 149.515L142.052 146.05C142.592 145.81 143.492 145.585 144.752 145.375C146.012 145.135 147.377 145.015 148.847 145.015ZM173.437 145.105C173.797 145.105 174.202 145.135 174.652 145.195C175.132 145.225 175.597 145.285 176.047 145.375C176.497 145.435 176.902 145.51 177.262 145.6C177.652 145.66 177.937 145.72 178.117 145.78L177.397 149.425C177.067 149.305 176.512 149.17 175.732 149.02C174.982 148.84 174.007 148.75 172.807 148.75C172.027 148.75 171.247 148.84 170.467 149.02C169.717 149.17 169.222 149.275 168.982 149.335V169H164.797V146.59C165.787 146.23 167.017 145.9 168.487 145.6C169.957 145.27 171.607 145.105 173.437 145.105ZM180.851 157.345C180.851 155.275 181.151 153.475 181.751 151.945C182.351 150.385 183.146 149.095 184.136 148.075C185.126 147.055 186.266 146.29 187.556 145.78C188.846 145.27 190.166 145.015 191.516 145.015C194.666 145.015 197.081 146.005 198.761 147.985C200.441 149.935 201.281 152.92 201.281 156.94C201.281 157.12 201.281 157.36 201.281 157.66C201.281 157.93 201.266 158.185 201.236 158.425H185.216C185.396 160.855 186.101 162.7 187.331 163.96C188.561 165.22 190.481 165.85 193.091 165.85C194.561 165.85 195.791 165.73 196.781 165.49C197.801 165.22 198.566 164.965 199.076 164.725L199.661 168.235C199.151 168.505 198.251 168.79 196.961 169.09C195.701 169.39 194.261 169.54 192.641 169.54C190.601 169.54 188.831 169.24 187.331 168.64C185.861 168.01 184.646 167.155 183.686 166.075C182.726 164.995 182.006 163.72 181.526 162.25C181.076 160.75 180.851 159.115 180.851 157.345ZM196.916 155.05C196.946 153.16 196.466 151.615 195.476 150.415C194.516 149.185 193.181 148.57 191.471 148.57C190.511 148.57 189.656 148.765 188.906 149.155C188.186 149.515 187.571 149.995 187.061 150.595C186.551 151.195 186.146 151.885 185.846 152.665C185.576 153.445 185.396 154.24 185.306 155.05H196.916ZM232.828 150.55C232.318 150.13 231.583 149.725 230.623 149.335C229.663 148.945 228.613 148.75 227.473 148.75C226.273 148.75 225.238 148.975 224.368 149.425C223.528 149.845 222.838 150.445 222.298 151.225C221.758 151.975 221.368 152.875 221.128 153.925C220.888 154.975 220.768 156.1 220.768 157.3C220.768 160.03 221.443 162.145 222.793 163.645C224.143 165.115 225.943 165.85 228.193 165.85C229.333 165.85 230.278 165.805 231.028 165.715C231.808 165.595 232.408 165.475 232.828 165.355V150.55ZM232.828 134.8L237.013 134.08V168.325C236.053 168.595 234.823 168.865 233.323 169.135C231.823 169.405 230.098 169.54 228.148 169.54C226.348 169.54 224.728 169.255 223.288 168.685C221.848 168.115 220.618 167.305 219.598 166.255C218.578 165.205 217.783 163.93 217.213 162.43C216.673 160.9 216.403 159.19 216.403 157.3C216.403 155.5 216.628 153.85 217.078 152.35C217.558 150.85 218.248 149.56 219.148 148.48C220.048 147.4 221.143 146.56 222.433 145.96C223.753 145.36 225.253 145.06 226.933 145.06C228.283 145.06 229.468 145.24 230.488 145.6C231.538 145.96 232.318 146.305 232.828 146.635V134.8ZM242.902 157.345C242.902 155.275 243.202 153.475 243.802 151.945C244.402 150.385 245.197 149.095 246.187 148.075C247.177 147.055 248.317 146.29 249.607 145.78C250.897 145.27 252.217 145.015 253.567 145.015C256.717 145.015 259.132 146.005 260.812 147.985C262.492 149.935 263.332 152.92 263.332 156.94C263.332 157.12 263.332 157.36 263.332 157.66C263.332 157.93 263.317 158.185 263.287 158.425H247.267C247.447 160.855 248.152 162.7 249.382 163.96C250.612 165.22 252.532 165.85 255.142 165.85C256.612 165.85 257.842 165.73 258.832 165.49C259.852 165.22 260.617 164.965 261.127 164.725L261.712 168.235C261.202 168.505 260.302 168.79 259.012 169.09C257.752 169.39 256.312 169.54 254.692 169.54C252.652 169.54 250.882 169.24 249.382 168.64C247.912 168.01 246.697 167.155 245.737 166.075C244.777 164.995 244.057 163.72 243.577 162.25C243.127 160.75 242.902 159.115 242.902 157.345ZM258.967 155.05C258.997 153.16 258.517 151.615 257.527 150.415C256.567 149.185 255.232 148.57 253.522 148.57C252.562 148.57 251.707 148.765 250.957 149.155C250.237 149.515 249.622 149.995 249.112 150.595C248.602 151.195 248.197 151.885 247.897 152.665C247.627 153.445 247.447 154.24 247.357 155.05H258.967ZM287.613 145.6C286.443 149.98 285.063 154.18 283.473 158.2C281.913 162.22 280.398 165.82 278.928 169H275.148C273.678 165.82 272.148 162.22 270.558 158.2C268.998 154.18 267.633 149.98 266.463 145.6H270.963C271.323 147.07 271.743 148.645 272.223 150.325C272.733 151.975 273.258 153.625 273.798 155.275C274.368 156.895 274.938 158.47 275.508 160C276.078 161.53 276.618 162.895 277.128 164.095C277.638 162.895 278.178 161.53 278.748 160C279.318 158.47 279.873 156.895 280.413 155.275C280.983 153.625 281.508 151.975 281.988 150.325C282.498 148.645 282.933 147.07 283.293 145.6H287.613ZM290.011 157.345C290.011 155.275 290.311 153.475 290.911 151.945C291.511 150.385 292.306 149.095 293.296 148.075C294.286 147.055 295.426 146.29 296.716 145.78C298.006 145.27 299.326 145.015 300.676 145.015C303.826 145.015 306.241 146.005 307.921 147.985C309.601 149.935 310.441 152.92 310.441 156.94C310.441 157.12 310.441 157.36 310.441 157.66C310.441 157.93 310.426 158.185 310.396 158.425H294.376C294.556 160.855 295.261 162.7 296.491 163.96C297.721 165.22 299.641 165.85 302.251 165.85C303.721 165.85 304.951 165.73 305.941 165.49C306.961 165.22 307.726 164.965 308.236 164.725L308.821 168.235C308.311 168.505 307.411 168.79 306.121 169.09C304.861 169.39 303.421 169.54 301.801 169.54C299.761 169.54 297.991 169.24 296.491 168.64C295.021 168.01 293.806 167.155 292.846 166.075C291.886 164.995 291.166 163.72 290.686 162.25C290.236 160.75 290.011 159.115 290.011 157.345ZM306.076 155.05C306.106 153.16 305.626 151.615 304.636 150.415C303.676 149.185 302.341 148.57 300.631 148.57C299.671 148.57 298.816 148.765 298.066 149.155C297.346 149.515 296.731 149.995 296.221 150.595C295.711 151.195 295.306 151.885 295.006 152.665C294.736 153.445 294.556 154.24 294.466 155.05H306.076ZM323.473 169.45C320.893 169.39 319.063 168.835 317.983 167.785C316.903 166.735 316.363 165.1 316.363 162.88V134.8L320.548 134.08V162.205C320.548 162.895 320.608 163.465 320.728 163.915C320.848 164.365 321.043 164.725 321.313 164.995C321.583 165.265 321.943 165.475 322.393 165.625C322.843 165.745 323.398 165.85 324.058 165.94L323.473 169.45ZM349.412 157.3C349.412 159.16 349.142 160.84 348.602 162.34C348.062 163.84 347.297 165.13 346.307 166.21C345.347 167.29 344.192 168.13 342.842 168.73C341.492 169.3 340.022 169.585 338.432 169.585C336.842 169.585 335.372 169.3 334.022 168.73C332.672 168.13 331.502 167.29 330.512 166.21C329.552 165.13 328.802 163.84 328.262 162.34C327.722 160.84 327.452 159.16 327.452 157.3C327.452 155.47 327.722 153.805 328.262 152.305C328.802 150.775 329.552 149.47 330.512 148.39C331.502 147.31 332.672 146.485 334.022 145.915C335.372 145.315 336.842 145.015 338.432 145.015C340.022 145.015 341.492 145.315 342.842 145.915C344.192 146.485 345.347 147.31 346.307 148.39C347.297 149.47 348.062 150.775 348.602 152.305C349.142 153.805 349.412 155.47 349.412 157.3ZM345.047 157.3C345.047 154.66 344.447 152.575 343.247 151.045C342.077 149.485 340.472 148.705 338.432 148.705C336.392 148.705 334.772 149.485 333.572 151.045C332.402 152.575 331.817 154.66 331.817 157.3C331.817 159.94 332.402 162.04 333.572 163.6C334.772 165.13 336.392 165.895 338.432 165.895C340.472 165.895 342.077 165.13 343.247 163.6C344.447 162.04 345.047 159.94 345.047 157.3ZM371.545 157.345C371.545 154.615 370.87 152.515 369.52 151.045C368.17 149.575 366.37 148.84 364.12 148.84C362.86 148.84 361.87 148.885 361.15 148.975C360.46 149.065 359.905 149.17 359.485 149.29V164.05C359.995 164.47 360.73 164.875 361.69 165.265C362.65 165.655 363.7 165.85 364.84 165.85C366.04 165.85 367.06 165.64 367.9 165.22C368.77 164.77 369.475 164.17 370.015 163.42C370.555 162.64 370.945 161.74 371.185 160.72C371.425 159.67 371.545 158.545 371.545 157.345ZM375.91 157.345C375.91 159.115 375.67 160.75 375.19 162.25C374.74 163.75 374.065 165.04 373.165 166.12C372.265 167.2 371.155 168.04 369.835 168.64C368.545 169.24 367.06 169.54 365.38 169.54C364.03 169.54 362.83 169.36 361.78 169C360.76 168.64 359.995 168.295 359.485 167.965V177.325H355.3V146.32C356.29 146.08 357.52 145.825 358.99 145.555C360.49 145.255 362.215 145.105 364.165 145.105C365.965 145.105 367.585 145.39 369.025 145.96C370.465 146.53 371.695 147.34 372.715 148.39C373.735 149.44 374.515 150.73 375.055 152.26C375.625 153.76 375.91 155.455 375.91 157.345ZM380.494 157.345C380.494 155.275 380.794 153.475 381.394 151.945C381.994 150.385 382.789 149.095 383.779 148.075C384.769 147.055 385.909 146.29 387.199 145.78C388.489 145.27 389.809 145.015 391.159 145.015C394.309 145.015 396.724 146.005 398.404 147.985C400.084 149.935 400.924 152.92 400.924 156.94C400.924 157.12 400.924 157.36 400.924 157.66C400.924 157.93 400.909 158.185 400.879 158.425H384.859C385.039 160.855 385.744 162.7 386.974 163.96C388.204 165.22 390.124 165.85 392.734 165.85C394.204 165.85 395.434 165.73 396.424 165.49C397.444 165.22 398.209 164.965 398.719 164.725L399.304 168.235C398.794 168.505 397.894 168.79 396.604 169.09C395.344 169.39 393.904 169.54 392.284 169.54C390.244 169.54 388.474 169.24 386.974 168.64C385.504 168.01 384.289 167.155 383.329 166.075C382.369 164.995 381.649 163.72 381.169 162.25C380.719 160.75 380.494 159.115 380.494 157.345ZM396.559 155.05C396.589 153.16 396.109 151.615 395.119 150.415C394.159 149.185 392.824 148.57 391.114 148.57C390.154 148.57 389.299 148.765 388.549 149.155C387.829 149.515 387.214 149.995 386.704 150.595C386.194 151.195 385.789 151.885 385.489 152.665C385.219 153.445 385.039 154.24 384.949 155.05H396.559ZM415.576 145.105C415.936 145.105 416.341 145.135 416.791 145.195C417.271 145.225 417.736 145.285 418.186 145.375C418.636 145.435 419.041 145.51 419.401 145.6C419.791 145.66 420.076 145.72 420.256 145.78L419.536 149.425C419.206 149.305 418.651 149.17 417.871 149.02C417.121 148.84 416.146 148.75 414.946 148.75C414.166 148.75 413.386 148.84 412.606 149.02C411.856 149.17 411.361 149.275 411.121 149.335V169H406.936V146.59C407.926 146.23 409.156 145.9 410.626 145.6C412.096 145.27 413.746 145.105 415.576 145.105Z" fill="white"/>
<path d="M370.774 14C347.277 14 342.413 26.1338 342.413 33.1608V46.413H369.424V49.1141H329.161C320.245 49.1141 310 56.1412 310 76.125C310 96.1088 320.245 103.136 329.161 103.136H345.114V86.9294C345.114 80.9891 349.978 76.125 355.918 76.125H388.332C392.921 76.125 396.435 72.6115 396.435 68.0217V33.1608C396.435 23.707 387.519 14 370.774 14ZM358.62 27.5054C361.595 27.5054 364.022 29.9322 364.022 32.9076C364.022 35.883 361.595 38.3098 358.62 38.3098C355.644 38.3098 353.217 35.883 353.217 32.9076C353.217 29.9322 355.644 27.5054 358.62 27.5054ZM399.136 49.1141V68.0217C399.136 73.962 394.272 78.8261 388.332 78.8261H355.918C351.329 78.8261 347.815 82.3396 347.815 86.9294V119.089C347.815 128.543 356.731 138.25 373.476 138.25C396.973 138.25 401.837 126.116 401.837 119.089V105.837H374.826V103.136H415.089C424.005 103.136 434.25 96.1088 434.25 76.125C434.25 56.1412 424.005 49.1141 415.089 49.1141H399.136ZM385.63 113.94C388.606 113.94 391.033 116.367 391.033 119.342C391.033 122.318 388.606 124.745 385.63 124.745C382.655 124.745 380.228 122.318 380.228 119.342C380.228 116.367 382.655 113.94 385.63 113.94Z" fill="white" fill-opacity="0.7"/>
</svg>
