<svg width="477" height="200" viewBox="0 0 477 200" fill="none" xmlns="http://www.w3.org/2000/svg">
<rect width="477" height="200" rx="30" fill="#32DF62"/>
<rect width="477" height="200" rx="30" fill="#32DF62"/>
<path d="M40.2 37.635C40.71 37.305 41.475 36.96 42.495 36.6C43.545 36.24 44.745 36.06 46.095 36.06C47.775 36.06 49.26 36.36 50.55 36.96C51.87 37.56 52.98 38.4 53.88 39.48C54.78 40.56 55.455 41.85 55.905 43.35C56.385 44.85 56.625 46.5 56.625 48.3C56.625 50.19 56.34 51.9 55.77 53.43C55.23 54.93 54.45 56.205 53.43 57.255C52.41 58.305 51.18 59.115 49.74 59.685C48.3 60.255 46.68 60.54 44.88 60.54C42.93 60.54 41.205 60.405 39.705 60.135C38.205 59.865 36.975 59.595 36.015 59.325V25.8L40.2 25.08V37.635ZM40.2 56.355C40.62 56.475 41.205 56.595 41.955 56.715C42.735 56.805 43.695 56.85 44.835 56.85C47.085 56.85 48.885 56.115 50.235 54.645C51.585 53.145 52.26 51.03 52.26 48.3C52.26 47.1 52.14 45.975 51.9 44.925C51.66 43.875 51.27 42.975 50.73 42.225C50.19 41.445 49.485 40.845 48.615 40.425C47.775 39.975 46.755 39.75 45.555 39.75C44.415 39.75 43.365 39.945 42.405 40.335C41.445 40.725 40.71 41.13 40.2 41.55V56.355ZM61.2091 48.345C61.2091 46.275 61.5091 44.475 62.1091 42.945C62.7091 41.385 63.5041 40.095 64.4941 39.075C65.4841 38.055 66.6241 37.29 67.9141 36.78C69.2041 36.27 70.5241 36.015 71.8741 36.015C75.0241 36.015 77.4391 37.005 79.1191 38.985C80.7991 40.935 81.6391 43.92 81.6391 47.94C81.6391 48.12 81.6391 48.36 81.6391 48.66C81.6391 48.93 81.6241 49.185 81.5941 49.425H65.5741C65.7541 51.855 66.4591 53.7 67.6891 54.96C68.9191 56.22 70.8391 56.85 73.4491 56.85C74.9191 56.85 76.1491 56.73 77.1391 56.49C78.1591 56.22 78.9241 55.965 79.4341 55.725L80.0191 59.235C79.5091 59.505 78.6091 59.79 77.3191 60.09C76.0591 60.39 74.6191 60.54 72.9991 60.54C70.9591 60.54 69.1891 60.24 67.6891 59.64C66.2191 59.01 65.0041 58.155 64.0441 57.075C63.0841 55.995 62.3641 54.72 61.8841 53.25C61.4341 51.75 61.2091 50.115 61.2091 48.345ZM77.2741 46.05C77.3041 44.16 76.8241 42.615 75.8341 41.415C74.8741 40.185 73.5391 39.57 71.8291 39.57C70.8691 39.57 70.0141 39.765 69.2641 40.155C68.5441 40.515 67.9291 40.995 67.4191 41.595C66.9091 42.195 66.5041 42.885 66.2041 43.665C65.9341 44.445 65.7541 45.24 65.6641 46.05H77.2741ZM102.321 57.66C101.961 57.9 101.256 58.215 100.206 58.605C99.1858 58.965 97.9858 59.145 96.6058 59.145C95.1958 59.145 93.8608 58.92 92.6008 58.47C91.3708 58.02 90.2908 57.33 89.3608 56.4C88.4308 55.44 87.6958 54.255 87.1558 52.845C86.6158 51.435 86.3458 49.755 86.3458 47.805C86.3458 46.095 86.6008 44.535 87.1108 43.125C87.6208 41.685 88.3558 40.455 89.3158 39.435C90.3058 38.385 91.5058 37.575 92.9158 37.005C94.3258 36.405 95.9158 36.105 97.6858 36.105C99.6358 36.105 101.331 36.255 102.771 36.555C104.241 36.825 105.471 37.08 106.461 37.32V58.2C106.461 61.8 105.531 64.41 103.671 66.03C101.811 67.65 98.9908 68.46 95.2108 68.46C93.7408 68.46 92.3458 68.34 91.0258 68.1C89.7358 67.86 88.6108 67.575 87.6508 67.245L88.4158 63.6C89.2558 63.93 90.2758 64.215 91.4758 64.455C92.7058 64.725 93.9808 64.86 95.3008 64.86C97.7908 64.86 99.5758 64.365 100.656 63.375C101.766 62.385 102.321 60.81 102.321 58.65V57.66ZM102.276 40.29C101.856 40.17 101.286 40.065 100.566 39.975C99.8758 39.855 98.9308 39.795 97.7308 39.795C95.4808 39.795 93.7408 40.53 92.5108 42C91.3108 43.47 90.7108 45.42 90.7108 47.85C90.7108 49.2 90.8758 50.355 91.2058 51.315C91.5658 52.275 92.0308 53.07 92.6008 53.7C93.2008 54.33 93.8758 54.795 94.6258 55.095C95.4058 55.395 96.2008 55.545 97.0108 55.545C98.1208 55.545 99.1408 55.395 100.071 55.095C101.001 54.765 101.736 54.39 102.276 53.97V40.29ZM117.851 60H113.666V36.6H117.851V60ZM115.736 32.37C114.986 32.37 114.341 32.13 113.801 31.65C113.291 31.14 113.036 30.465 113.036 29.625C113.036 28.785 113.291 28.125 113.801 27.645C114.341 27.135 114.986 26.88 115.736 26.88C116.486 26.88 117.116 27.135 117.626 27.645C118.166 28.125 118.436 28.785 118.436 29.625C118.436 30.465 118.166 31.14 117.626 31.65C117.116 32.13 116.486 32.37 115.736 32.37ZM125.048 37.275C126.008 37.035 127.283 36.78 128.873 36.51C130.463 36.24 132.293 36.105 134.363 36.105C136.223 36.105 137.768 36.375 138.998 36.915C140.228 37.425 141.203 38.16 141.923 39.12C142.673 40.05 143.198 41.175 143.498 42.495C143.798 43.815 143.948 45.27 143.948 46.86V60H139.763V47.76C139.763 46.32 139.658 45.09 139.448 44.07C139.268 43.05 138.953 42.225 138.503 41.595C138.053 40.965 137.453 40.515 136.703 40.245C135.953 39.945 135.023 39.795 133.913 39.795C133.463 39.795 132.998 39.81 132.518 39.84C132.038 39.87 131.573 39.915 131.123 39.975C130.703 40.005 130.313 40.05 129.953 40.11C129.623 40.17 129.383 40.215 129.233 40.245V60H125.048V37.275ZM150.888 37.275C151.848 37.035 153.123 36.78 154.713 36.51C156.303 36.24 158.133 36.105 160.203 36.105C162.063 36.105 163.608 36.375 164.838 36.915C166.068 37.425 167.043 38.16 167.763 39.12C168.513 40.05 169.038 41.175 169.338 42.495C169.638 43.815 169.788 45.27 169.788 46.86V60H165.603V47.76C165.603 46.32 165.498 45.09 165.288 44.07C165.108 43.05 164.793 42.225 164.343 41.595C163.893 40.965 163.293 40.515 162.543 40.245C161.793 39.945 160.863 39.795 159.753 39.795C159.303 39.795 158.838 39.81 158.358 39.84C157.878 39.87 157.413 39.915 156.963 39.975C156.543 40.005 156.153 40.05 155.793 40.11C155.463 40.17 155.223 40.215 155.073 40.245V60H150.888V37.275ZM175.423 48.345C175.423 46.275 175.723 44.475 176.323 42.945C176.923 41.385 177.718 40.095 178.708 39.075C179.698 38.055 180.838 37.29 182.128 36.78C183.418 36.27 184.738 36.015 186.088 36.015C189.238 36.015 191.653 37.005 193.333 38.985C195.013 40.935 195.853 43.92 195.853 47.94C195.853 48.12 195.853 48.36 195.853 48.66C195.853 48.93 195.838 49.185 195.808 49.425H179.788C179.968 51.855 180.673 53.7 181.903 54.96C183.133 56.22 185.053 56.85 187.663 56.85C189.133 56.85 190.363 56.73 191.353 56.49C192.373 56.22 193.138 55.965 193.648 55.725L194.233 59.235C193.723 59.505 192.823 59.79 191.533 60.09C190.273 60.39 188.833 60.54 187.213 60.54C185.173 60.54 183.403 60.24 181.903 59.64C180.433 59.01 179.218 58.155 178.258 57.075C177.298 55.995 176.578 54.72 176.098 53.25C175.648 51.75 175.423 50.115 175.423 48.345ZM191.488 46.05C191.518 44.16 191.038 42.615 190.048 41.415C189.088 40.185 187.753 39.57 186.043 39.57C185.083 39.57 184.228 39.765 183.478 40.155C182.758 40.515 182.143 40.995 181.633 41.595C181.123 42.195 180.718 42.885 180.418 43.665C180.148 44.445 179.968 45.24 179.878 46.05H191.488ZM210.505 36.105C210.865 36.105 211.27 36.135 211.72 36.195C212.2 36.225 212.665 36.285 213.115 36.375C213.565 36.435 213.97 36.51 214.33 36.6C214.72 36.66 215.005 36.72 215.185 36.78L214.465 40.425C214.135 40.305 213.58 40.17 212.8 40.02C212.05 39.84 211.075 39.75 209.875 39.75C209.095 39.75 208.315 39.84 207.535 40.02C206.785 40.17 206.29 40.275 206.05 40.335V60H201.865V37.59C202.855 37.23 204.085 36.9 205.555 36.6C207.025 36.27 208.675 36.105 210.505 36.105ZM36.4 84.95C41.5667 84.95 45.5333 85.8667 48.3 87.7C51.0667 89.5 52.45 92.4667 52.45 96.6C52.45 100.767 51.05 103.783 48.25 105.65C45.45 107.483 41.45 108.4 36.25 108.4H33.8V120H26V85.85C27.7 85.5167 29.5 85.2833 31.4 85.15C33.3 85.0167 34.9667 84.95 36.4 84.95ZM36.9 91.6C36.3333 91.6 35.7667 91.6167 35.2 91.65C34.6667 91.6833 34.2 91.7167 33.8 91.75V101.75H36.25C38.95 101.75 40.9833 101.383 42.35 100.65C43.7167 99.9167 44.4 98.55 44.4 96.55C44.4 95.5833 44.2167 94.7833 43.85 94.15C43.5167 93.5167 43.0167 93.0167 42.35 92.65C41.7167 92.25 40.9333 91.9833 40 91.85C39.0667 91.6833 38.0333 91.6 36.9 91.6ZM82.0043 93.7C80.5043 98.7667 78.9376 103.517 77.3043 107.95C75.671 112.383 73.8876 116.683 71.9543 120.85C71.2543 122.35 70.5543 123.617 69.8543 124.65C69.1543 125.717 68.3876 126.583 67.5543 127.25C66.721 127.95 65.771 128.45 64.7043 128.75C63.671 129.083 62.4543 129.25 61.0543 129.25C59.8876 129.25 58.8043 129.133 57.8043 128.9C56.8376 128.7 56.0376 128.467 55.4043 128.2L56.7043 122.25C57.471 122.517 58.1543 122.7 58.7543 122.8C59.3543 122.9 59.9876 122.95 60.6543 122.95C61.9876 122.95 63.0043 122.583 63.7043 121.85C64.4376 121.15 65.0543 120.167 65.5543 118.9C63.8543 115.567 62.1543 111.833 60.4543 107.7C58.7543 103.533 57.1543 98.8667 55.6543 93.7H63.5543C63.8876 95 64.271 96.4167 64.7043 97.95C65.171 99.45 65.6543 100.983 66.1543 102.55C66.6543 104.083 67.1543 105.583 67.6543 107.05C68.1876 108.517 68.6876 109.85 69.1543 111.05C69.5876 109.85 70.0376 108.517 70.5043 107.05C70.971 105.583 71.421 104.083 71.8543 102.55C72.321 100.983 72.7543 99.45 73.1543 97.95C73.5876 96.4167 73.971 95 74.3043 93.7H82.0043ZM85.748 87.15L93.198 85.95V93.7H102.148V99.9H93.198V109.15C93.198 110.717 93.4647 111.967 93.998 112.9C94.5647 113.833 95.6814 114.3 97.348 114.3C98.148 114.3 98.9647 114.233 99.798 114.1C100.665 113.933 101.448 113.717 102.148 113.45L103.198 119.25C102.298 119.617 101.298 119.933 100.198 120.2C99.098 120.467 97.748 120.6 96.148 120.6C94.1147 120.6 92.4314 120.333 91.098 119.8C89.7647 119.233 88.698 118.467 87.898 117.5C87.098 116.5 86.5314 115.3 86.198 113.9C85.898 112.5 85.748 110.95 85.748 109.25V87.15ZM108.215 120V82.4L115.665 81.2V93.8C116.165 93.6333 116.798 93.4833 117.565 93.35C118.365 93.1833 119.132 93.1 119.865 93.1C121.998 93.1 123.765 93.4 125.165 94C126.598 94.5667 127.732 95.3833 128.565 96.45C129.432 97.5167 130.032 98.7833 130.365 100.25C130.732 101.717 130.915 103.35 130.915 105.15V120H123.465V106.05C123.465 103.65 123.148 101.95 122.515 100.95C121.915 99.95 120.782 99.45 119.115 99.45C118.448 99.45 117.815 99.5167 117.215 99.65C116.648 99.75 116.132 99.8667 115.665 100V120H108.215ZM162.258 106.8C162.258 108.867 161.958 110.767 161.358 112.5C160.758 114.2 159.892 115.667 158.758 116.9C157.625 118.1 156.258 119.033 154.658 119.7C153.092 120.367 151.325 120.7 149.358 120.7C147.425 120.7 145.658 120.367 144.058 119.7C142.492 119.033 141.142 118.1 140.008 116.9C138.875 115.667 137.992 114.2 137.358 112.5C136.725 110.767 136.408 108.867 136.408 106.8C136.408 104.733 136.725 102.85 137.358 101.15C138.025 99.45 138.925 98 140.058 96.8C141.225 95.6 142.592 94.6667 144.158 94C145.758 93.3333 147.492 93 149.358 93C151.258 93 152.992 93.3333 154.558 94C156.158 94.6667 157.525 95.6 158.658 96.8C159.792 98 160.675 99.45 161.308 101.15C161.942 102.85 162.258 104.733 162.258 106.8ZM154.658 106.8C154.658 104.5 154.192 102.7 153.258 101.4C152.358 100.067 151.058 99.4 149.358 99.4C147.658 99.4 146.342 100.067 145.408 101.4C144.475 102.7 144.008 104.5 144.008 106.8C144.008 109.1 144.475 110.933 145.408 112.3C146.342 113.633 147.658 114.3 149.358 114.3C151.058 114.3 152.358 113.633 153.258 112.3C154.192 110.933 154.658 109.1 154.658 106.8ZM168.029 94.6C169.296 94.2333 170.929 93.9 172.929 93.6C174.929 93.2667 177.029 93.1 179.229 93.1C181.463 93.1 183.313 93.4 184.779 94C186.279 94.5667 187.463 95.3833 188.329 96.45C189.196 97.5167 189.813 98.7833 190.179 100.25C190.546 101.717 190.729 103.35 190.729 105.15V120H183.279V106.05C183.279 103.65 182.963 101.95 182.329 100.95C181.696 99.95 180.513 99.45 178.779 99.45C178.246 99.45 177.679 99.4833 177.079 99.55C176.479 99.5833 175.946 99.6333 175.479 99.7V120H168.029V94.6ZM41.46 171.985C43.17 171.985 44.43 171.76 45.24 171.31C46.08 170.86 46.5 170.14 46.5 169.15C46.5 168.13 46.095 167.32 45.285 166.72C44.475 166.12 43.14 165.445 41.28 164.695C40.38 164.335 39.51 163.975 38.67 163.615C37.86 163.225 37.155 162.775 36.555 162.265C35.955 161.755 35.475 161.14 35.115 160.42C34.755 159.7 34.575 158.815 34.575 157.765C34.575 155.695 35.34 154.06 36.87 152.86C38.4 151.63 40.485 151.015 43.125 151.015C43.785 151.015 44.445 151.06 45.105 151.15C45.765 151.21 46.38 151.3 46.95 151.42C47.52 151.51 48.015 151.615 48.435 151.735C48.885 151.855 49.23 151.96 49.47 152.05L48.705 155.65C48.255 155.41 47.55 155.17 46.59 154.93C45.63 154.66 44.475 154.525 43.125 154.525C41.955 154.525 40.935 154.765 40.065 155.245C39.195 155.695 38.76 156.415 38.76 157.405C38.76 157.915 38.85 158.365 39.03 158.755C39.24 159.145 39.54 159.505 39.93 159.835C40.35 160.135 40.86 160.42 41.46 160.69C42.06 160.96 42.78 161.245 43.62 161.545C44.73 161.965 45.72 162.385 46.59 162.805C47.46 163.195 48.195 163.66 48.795 164.2C49.425 164.74 49.905 165.4 50.235 166.18C50.565 166.93 50.73 167.86 50.73 168.97C50.73 171.13 49.92 172.765 48.3 173.875C46.71 174.985 44.43 175.54 41.46 175.54C39.39 175.54 37.77 175.36 36.6 175C35.43 174.67 34.635 174.415 34.215 174.235L34.98 170.635C35.46 170.815 36.225 171.085 37.275 171.445C38.325 171.805 39.72 171.985 41.46 171.985ZM76.753 163.3C76.753 165.16 76.483 166.84 75.943 168.34C75.403 169.84 74.638 171.13 73.648 172.21C72.688 173.29 71.533 174.13 70.183 174.73C68.833 175.3 67.363 175.585 65.773 175.585C64.183 175.585 62.713 175.3 61.363 174.73C60.013 174.13 58.843 173.29 57.853 172.21C56.893 171.13 56.143 169.84 55.603 168.34C55.063 166.84 54.793 165.16 54.793 163.3C54.793 161.47 55.063 159.805 55.603 158.305C56.143 156.775 56.893 155.47 57.853 154.39C58.843 153.31 60.013 152.485 61.363 151.915C62.713 151.315 64.183 151.015 65.773 151.015C67.363 151.015 68.833 151.315 70.183 151.915C71.533 152.485 72.688 153.31 73.648 154.39C74.638 155.47 75.403 156.775 75.943 158.305C76.483 159.805 76.753 161.47 76.753 163.3ZM72.388 163.3C72.388 160.66 71.788 158.575 70.588 157.045C69.418 155.485 67.813 154.705 65.773 154.705C63.733 154.705 62.113 155.485 60.913 157.045C59.743 158.575 59.158 160.66 59.158 163.3C59.158 165.94 59.743 168.04 60.913 169.6C62.113 171.13 63.733 171.895 65.773 171.895C67.813 171.895 69.418 171.13 70.588 169.6C71.788 168.04 72.388 165.94 72.388 163.3ZM91.776 140.08C93.006 140.08 94.056 140.17 94.926 140.35C95.826 140.53 96.456 140.695 96.816 140.845L96.051 144.445C95.691 144.265 95.181 144.1 94.521 143.95C93.861 143.77 93.051 143.68 92.091 143.68C90.141 143.68 88.776 144.22 87.996 145.3C87.216 146.35 86.826 147.775 86.826 149.575V151.6H95.826V155.11H86.826V175H82.641V149.485C82.641 146.485 83.376 144.175 84.846 142.555C86.316 140.905 88.626 140.08 91.776 140.08ZM103.914 151.6H112.779V155.11H103.914V165.91C103.914 167.08 104.004 168.055 104.184 168.835C104.364 169.585 104.634 170.185 104.994 170.635C105.354 171.055 105.804 171.355 106.344 171.535C106.884 171.715 107.514 171.805 108.234 171.805C109.494 171.805 110.499 171.67 111.249 171.4C112.029 171.1 112.569 170.89 112.869 170.77L113.679 174.235C113.259 174.445 112.524 174.7 111.474 175C110.424 175.33 109.224 175.495 107.874 175.495C106.284 175.495 104.964 175.3 103.914 174.91C102.894 174.49 102.069 173.875 101.439 173.065C100.809 172.255 100.359 171.265 100.089 170.095C99.8494 168.895 99.7294 167.515 99.7294 165.955V145.075L103.914 144.355V151.6ZM137.23 175C136.39 172.84 135.49 170.38 134.53 167.62C133.6 164.83 132.745 161.935 131.965 158.935C131.185 161.935 130.33 164.83 129.4 167.62C128.47 170.38 127.585 172.84 126.745 175H123.1C121.72 171.91 120.37 168.385 119.05 164.425C117.73 160.465 116.485 156.19 115.315 151.6H119.815C120.115 153.01 120.475 154.54 120.895 156.19C121.315 157.84 121.75 159.49 122.2 161.14C122.68 162.79 123.175 164.38 123.685 165.91C124.195 167.44 124.675 168.775 125.125 169.915C125.635 168.505 126.13 167.02 126.61 165.46C127.12 163.87 127.6 162.28 128.05 160.69C128.5 159.07 128.92 157.495 129.31 155.965C129.73 154.405 130.09 152.95 130.39 151.6H133.855C134.125 152.95 134.455 154.405 134.845 155.965C135.235 157.495 135.655 159.07 136.105 160.69C136.555 162.28 137.02 163.87 137.5 165.46C138.01 167.02 138.52 168.505 139.03 169.915C139.48 168.775 139.945 167.44 140.425 165.91C140.935 164.38 141.43 162.79 141.91 161.14C142.39 159.49 142.84 157.84 143.26 156.19C143.68 154.54 144.04 153.01 144.34 151.6H148.66C147.49 156.19 146.245 160.465 144.925 164.425C143.605 168.385 142.255 171.91 140.875 175H137.23ZM161.005 171.985C161.995 171.985 162.865 171.97 163.615 171.94C164.395 171.88 165.04 171.79 165.55 171.67V164.695C165.25 164.545 164.755 164.425 164.065 164.335C163.405 164.215 162.595 164.155 161.635 164.155C161.005 164.155 160.33 164.2 159.61 164.29C158.92 164.38 158.275 164.575 157.675 164.875C157.105 165.145 156.625 165.535 156.235 166.045C155.845 166.525 155.65 167.17 155.65 167.98C155.65 169.48 156.13 170.53 157.09 171.13C158.05 171.7 159.355 171.985 161.005 171.985ZM160.645 151.015C162.325 151.015 163.735 151.24 164.875 151.69C166.045 152.11 166.975 152.725 167.665 153.535C168.385 154.315 168.895 155.26 169.195 156.37C169.495 157.45 169.645 158.65 169.645 159.97V174.595C169.285 174.655 168.775 174.745 168.115 174.865C167.485 174.955 166.765 175.045 165.955 175.135C165.145 175.225 164.26 175.3 163.3 175.36C162.37 175.45 161.44 175.495 160.51 175.495C159.19 175.495 157.975 175.36 156.865 175.09C155.755 174.82 154.795 174.4 153.985 173.83C153.175 173.23 152.545 172.45 152.095 171.49C151.645 170.53 151.42 169.375 151.42 168.025C151.42 166.735 151.675 165.625 152.185 164.695C152.725 163.765 153.445 163.015 154.345 162.445C155.245 161.875 156.295 161.455 157.495 161.185C158.695 160.915 159.955 160.78 161.275 160.78C161.695 160.78 162.13 160.81 162.58 160.87C163.03 160.9 163.45 160.96 163.84 161.05C164.26 161.11 164.62 161.17 164.92 161.23C165.22 161.29 165.43 161.335 165.55 161.365V160.195C165.55 159.505 165.475 158.83 165.325 158.17C165.175 157.48 164.905 156.88 164.515 156.37C164.125 155.83 163.585 155.41 162.895 155.11C162.235 154.78 161.365 154.615 160.285 154.615C158.905 154.615 157.69 154.72 156.64 154.93C155.62 155.11 154.855 155.305 154.345 155.515L153.85 152.05C154.39 151.81 155.29 151.585 156.55 151.375C157.81 151.135 159.175 151.015 160.645 151.015ZM185.236 151.105C185.596 151.105 186.001 151.135 186.451 151.195C186.931 151.225 187.396 151.285 187.846 151.375C188.296 151.435 188.701 151.51 189.061 151.6C189.451 151.66 189.736 151.72 189.916 151.78L189.196 155.425C188.866 155.305 188.311 155.17 187.531 155.02C186.781 154.84 185.806 154.75 184.606 154.75C183.826 154.75 183.046 154.84 182.266 155.02C181.516 155.17 181.021 155.275 180.781 155.335V175H176.596V152.59C177.586 152.23 178.816 151.9 180.286 151.6C181.756 151.27 183.406 151.105 185.236 151.105ZM192.649 163.345C192.649 161.275 192.949 159.475 193.549 157.945C194.149 156.385 194.944 155.095 195.934 154.075C196.924 153.055 198.064 152.29 199.354 151.78C200.644 151.27 201.964 151.015 203.314 151.015C206.464 151.015 208.879 152.005 210.559 153.985C212.239 155.935 213.079 158.92 213.079 162.94C213.079 163.12 213.079 163.36 213.079 163.66C213.079 163.93 213.064 164.185 213.034 164.425H197.014C197.194 166.855 197.899 168.7 199.129 169.96C200.359 171.22 202.279 171.85 204.889 171.85C206.359 171.85 207.589 171.73 208.579 171.49C209.599 171.22 210.364 170.965 210.874 170.725L211.459 174.235C210.949 174.505 210.049 174.79 208.759 175.09C207.499 175.39 206.059 175.54 204.439 175.54C202.399 175.54 200.629 175.24 199.129 174.64C197.659 174.01 196.444 173.155 195.484 172.075C194.524 170.995 193.804 169.72 193.324 168.25C192.874 166.75 192.649 165.115 192.649 163.345ZM208.714 161.05C208.744 159.16 208.264 157.615 207.274 156.415C206.314 155.185 204.979 154.57 203.269 154.57C202.309 154.57 201.454 154.765 200.704 155.155C199.984 155.515 199.369 155.995 198.859 156.595C198.349 157.195 197.944 157.885 197.644 158.665C197.374 159.445 197.194 160.24 197.104 161.05H208.714ZM244.626 156.55C244.116 156.13 243.381 155.725 242.421 155.335C241.461 154.945 240.411 154.75 239.271 154.75C238.071 154.75 237.036 154.975 236.166 155.425C235.326 155.845 234.636 156.445 234.096 157.225C233.556 157.975 233.166 158.875 232.926 159.925C232.686 160.975 232.566 162.1 232.566 163.3C232.566 166.03 233.241 168.145 234.591 169.645C235.941 171.115 237.741 171.85 239.991 171.85C241.131 171.85 242.076 171.805 242.826 171.715C243.606 171.595 244.206 171.475 244.626 171.355V156.55ZM244.626 140.8L248.811 140.08V174.325C247.851 174.595 246.621 174.865 245.121 175.135C243.621 175.405 241.896 175.54 239.946 175.54C238.146 175.54 236.526 175.255 235.086 174.685C233.646 174.115 232.416 173.305 231.396 172.255C230.376 171.205 229.581 169.93 229.011 168.43C228.471 166.9 228.201 165.19 228.201 163.3C228.201 161.5 228.426 159.85 228.876 158.35C229.356 156.85 230.046 155.56 230.946 154.48C231.846 153.4 232.941 152.56 234.231 151.96C235.551 151.36 237.051 151.06 238.731 151.06C240.081 151.06 241.266 151.24 242.286 151.6C243.336 151.96 244.116 152.305 244.626 152.635V140.8ZM254.7 163.345C254.7 161.275 255 159.475 255.6 157.945C256.2 156.385 256.995 155.095 257.985 154.075C258.975 153.055 260.115 152.29 261.405 151.78C262.695 151.27 264.015 151.015 265.365 151.015C268.515 151.015 270.93 152.005 272.61 153.985C274.29 155.935 275.13 158.92 275.13 162.94C275.13 163.12 275.13 163.36 275.13 163.66C275.13 163.93 275.115 164.185 275.085 164.425H259.065C259.245 166.855 259.95 168.7 261.18 169.96C262.41 171.22 264.33 171.85 266.94 171.85C268.41 171.85 269.64 171.73 270.63 171.49C271.65 171.22 272.415 170.965 272.925 170.725L273.51 174.235C273 174.505 272.1 174.79 270.81 175.09C269.55 175.39 268.11 175.54 266.49 175.54C264.45 175.54 262.68 175.24 261.18 174.64C259.71 174.01 258.495 173.155 257.535 172.075C256.575 170.995 255.855 169.72 255.375 168.25C254.925 166.75 254.7 165.115 254.7 163.345ZM270.765 161.05C270.795 159.16 270.315 157.615 269.325 156.415C268.365 155.185 267.03 154.57 265.32 154.57C264.36 154.57 263.505 154.765 262.755 155.155C262.035 155.515 261.42 155.995 260.91 156.595C260.4 157.195 259.995 157.885 259.695 158.665C259.425 159.445 259.245 160.24 259.155 161.05H270.765ZM299.412 151.6C298.242 155.98 296.862 160.18 295.272 164.2C293.712 168.22 292.197 171.82 290.727 175H286.947C285.477 171.82 283.947 168.22 282.357 164.2C280.797 160.18 279.432 155.98 278.262 151.6H282.762C283.122 153.07 283.542 154.645 284.022 156.325C284.532 157.975 285.057 159.625 285.597 161.275C286.167 162.895 286.737 164.47 287.307 166C287.877 167.53 288.417 168.895 288.927 170.095C289.437 168.895 289.977 167.53 290.547 166C291.117 164.47 291.672 162.895 292.212 161.275C292.782 159.625 293.307 157.975 293.787 156.325C294.297 154.645 294.732 153.07 295.092 151.6H299.412ZM301.81 163.345C301.81 161.275 302.11 159.475 302.71 157.945C303.31 156.385 304.105 155.095 305.095 154.075C306.085 153.055 307.225 152.29 308.515 151.78C309.805 151.27 311.125 151.015 312.475 151.015C315.625 151.015 318.04 152.005 319.72 153.985C321.4 155.935 322.24 158.92 322.24 162.94C322.24 163.12 322.24 163.36 322.24 163.66C322.24 163.93 322.225 164.185 322.195 164.425H306.175C306.355 166.855 307.06 168.7 308.29 169.96C309.52 171.22 311.44 171.85 314.05 171.85C315.52 171.85 316.75 171.73 317.74 171.49C318.76 171.22 319.525 170.965 320.035 170.725L320.62 174.235C320.11 174.505 319.21 174.79 317.92 175.09C316.66 175.39 315.22 175.54 313.6 175.54C311.56 175.54 309.79 175.24 308.29 174.64C306.82 174.01 305.605 173.155 304.645 172.075C303.685 170.995 302.965 169.72 302.485 168.25C302.035 166.75 301.81 165.115 301.81 163.345ZM317.875 161.05C317.905 159.16 317.425 157.615 316.435 156.415C315.475 155.185 314.14 154.57 312.43 154.57C311.47 154.57 310.615 154.765 309.865 155.155C309.145 155.515 308.53 155.995 308.02 156.595C307.51 157.195 307.105 157.885 306.805 158.665C306.535 159.445 306.355 160.24 306.265 161.05H317.875ZM335.271 175.45C332.691 175.39 330.861 174.835 329.781 173.785C328.701 172.735 328.161 171.1 328.161 168.88V140.8L332.346 140.08V168.205C332.346 168.895 332.406 169.465 332.526 169.915C332.646 170.365 332.841 170.725 333.111 170.995C333.381 171.265 333.741 171.475 334.191 171.625C334.641 171.745 335.196 171.85 335.856 171.94L335.271 175.45ZM361.211 163.3C361.211 165.16 360.941 166.84 360.401 168.34C359.861 169.84 359.096 171.13 358.106 172.21C357.146 173.29 355.991 174.13 354.641 174.73C353.291 175.3 351.821 175.585 350.231 175.585C348.641 175.585 347.171 175.3 345.821 174.73C344.471 174.13 343.301 173.29 342.311 172.21C341.351 171.13 340.601 169.84 340.061 168.34C339.521 166.84 339.251 165.16 339.251 163.3C339.251 161.47 339.521 159.805 340.061 158.305C340.601 156.775 341.351 155.47 342.311 154.39C343.301 153.31 344.471 152.485 345.821 151.915C347.171 151.315 348.641 151.015 350.231 151.015C351.821 151.015 353.291 151.315 354.641 151.915C355.991 152.485 357.146 153.31 358.106 154.39C359.096 155.47 359.861 156.775 360.401 158.305C360.941 159.805 361.211 161.47 361.211 163.3ZM356.846 163.3C356.846 160.66 356.246 158.575 355.046 157.045C353.876 155.485 352.271 154.705 350.231 154.705C348.191 154.705 346.571 155.485 345.371 157.045C344.201 158.575 343.616 160.66 343.616 163.3C343.616 165.94 344.201 168.04 345.371 169.6C346.571 171.13 348.191 171.895 350.231 171.895C352.271 171.895 353.876 171.13 355.046 169.6C356.246 168.04 356.846 165.94 356.846 163.3ZM383.344 163.345C383.344 160.615 382.669 158.515 381.319 157.045C379.969 155.575 378.169 154.84 375.919 154.84C374.659 154.84 373.669 154.885 372.949 154.975C372.259 155.065 371.704 155.17 371.284 155.29V170.05C371.794 170.47 372.529 170.875 373.489 171.265C374.449 171.655 375.499 171.85 376.639 171.85C377.839 171.85 378.859 171.64 379.699 171.22C380.569 170.77 381.274 170.17 381.814 169.42C382.354 168.64 382.744 167.74 382.984 166.72C383.224 165.67 383.344 164.545 383.344 163.345ZM387.709 163.345C387.709 165.115 387.469 166.75 386.989 168.25C386.539 169.75 385.864 171.04 384.964 172.12C384.064 173.2 382.954 174.04 381.634 174.64C380.344 175.24 378.859 175.54 377.179 175.54C375.829 175.54 374.629 175.36 373.579 175C372.559 174.64 371.794 174.295 371.284 173.965V183.325H367.099V152.32C368.089 152.08 369.319 151.825 370.789 151.555C372.289 151.255 374.014 151.105 375.964 151.105C377.764 151.105 379.384 151.39 380.824 151.96C382.264 152.53 383.494 153.34 384.514 154.39C385.534 155.44 386.314 156.73 386.854 158.26C387.424 159.76 387.709 161.455 387.709 163.345ZM392.293 163.345C392.293 161.275 392.593 159.475 393.193 157.945C393.793 156.385 394.588 155.095 395.578 154.075C396.568 153.055 397.708 152.29 398.998 151.78C400.288 151.27 401.608 151.015 402.958 151.015C406.108 151.015 408.523 152.005 410.203 153.985C411.883 155.935 412.723 158.92 412.723 162.94C412.723 163.12 412.723 163.36 412.723 163.66C412.723 163.93 412.708 164.185 412.678 164.425H396.658C396.838 166.855 397.543 168.7 398.773 169.96C400.003 171.22 401.923 171.85 404.533 171.85C406.003 171.85 407.233 171.73 408.223 171.49C409.243 171.22 410.008 170.965 410.518 170.725L411.103 174.235C410.593 174.505 409.693 174.79 408.403 175.09C407.143 175.39 405.703 175.54 404.083 175.54C402.043 175.54 400.273 175.24 398.773 174.64C397.303 174.01 396.088 173.155 395.128 172.075C394.168 170.995 393.448 169.72 392.968 168.25C392.518 166.75 392.293 165.115 392.293 163.345ZM408.358 161.05C408.388 159.16 407.908 157.615 406.918 156.415C405.958 155.185 404.623 154.57 402.913 154.57C401.953 154.57 401.098 154.765 400.348 155.155C399.628 155.515 399.013 155.995 398.503 156.595C397.993 157.195 397.588 157.885 397.288 158.665C397.018 159.445 396.838 160.24 396.748 161.05H408.358ZM427.375 151.105C427.735 151.105 428.14 151.135 428.59 151.195C429.07 151.225 429.535 151.285 429.985 151.375C430.435 151.435 430.84 151.51 431.2 151.6C431.59 151.66 431.875 151.72 432.055 151.78L431.335 155.425C431.005 155.305 430.45 155.17 429.67 155.02C428.92 154.84 427.945 154.75 426.745 154.75C425.965 154.75 425.185 154.84 424.405 155.02C423.655 155.17 423.16 155.275 422.92 155.335V175H418.735V152.59C419.725 152.23 420.955 151.9 422.425 151.6C423.895 151.27 425.545 151.105 427.375 151.105Z" fill="white"/>
<path d="M390.774 14C367.277 14 362.413 26.1338 362.413 33.1608V46.413H389.424V49.1141H349.161C340.245 49.1141 330 56.1412 330 76.125C330 96.1088 340.245 103.136 349.161 103.136H365.114V86.9293C365.114 80.9891 369.978 76.125 375.918 76.125H408.332C412.921 76.125 416.435 72.6115 416.435 68.0217V33.1608C416.435 23.707 407.519 14 390.774 14ZM378.62 27.5054C381.595 27.5054 384.022 29.9322 384.022 32.9076C384.022 35.883 381.595 38.3098 378.62 38.3098C375.644 38.3098 373.217 35.883 373.217 32.9076C373.217 29.9322 375.644 27.5054 378.62 27.5054ZM419.136 49.1141V68.0217C419.136 73.962 414.272 78.8261 408.332 78.8261H375.918C371.329 78.8261 367.815 82.3396 367.815 86.9293V119.089C367.815 128.543 376.731 138.25 393.476 138.25C416.973 138.25 421.837 126.116 421.837 119.089V105.837H394.826V103.136H435.089C444.005 103.136 454.25 96.1088 454.25 76.125C454.25 56.1412 444.005 49.1141 435.089 49.1141H419.136ZM405.63 113.94C408.606 113.94 411.033 116.367 411.033 119.342C411.033 122.318 408.606 124.745 405.63 124.745C402.655 124.745 400.228 122.318 400.228 119.342C400.228 116.367 402.655 113.94 405.63 113.94Z" fill="white" fill-opacity="0.7"/>
</svg>
